<?xml version="1.0" encoding="UTF-8"?>
<svg version="1.1" viewBox="0 0 2048 2048" width="1280" height="1280" xmlns="http://www.w3.org/2000/svg">
<path transform="translate(969)" d="m0 0h111l58 6 39 5 41 7 38 8 47 12 45 14 31 11 33 13 35 15 33 16 20 10 22 12 20 12 1 3-3 11-3 32v82l3 24 3 12v4l-19 11-16 12-12 11-12 12-12 16-11 19-7 15-8 24-3 15-2 18v155l3 20 5 17 8 17 8 12 8 10 12 12 16 11 11 6 11 5 17 5 12 2 14 1h324l22-2 18-5 19-9 14-9 13-10 13-14h2l10 31 9 30 11 42 8 38 7 39 5 38 5 49 2 20v96l-5 57-6 48-7 43-8 37-10 40-12 40-12 36-13 34-13 31-12 26-9 19-10 19-9 18-2-2-2-32-3-18-5-18-8-21-10-21-10-15-9-11-11-12-12-11-15-11-19-11-17-8-21-7-18-4-16-2h-32l-22 3-23 6-20 8-17 9-12 8-13 10-13 12-7 7-11 14-10 15-12 23-7 19-5 20-3 26v88l3 24 3 12v4l-19 11-16 12-12 11-12 12-12 16-11 19-7 15-8 24-3 15-2 18v155l3 22 1 5-1 2-36 15-36 14-38 13-41 12-44 11-45 9-45 7-61 7-24 2h-99l-52-5-49-6-37-6-43-9-36-9-31-9-46-15-32-12-38-16-8-4 1-8 2-14 1-13v-145l-3-25-4-17-7-20-8-16-8-14-10-14-11-12-12-12-13-10-14-9-12-7 1-9 3-16 2-23v-75l-2-23-4-19-6-20-8-18-10-18-10-14-13-15-10-10-14-11-15-10-23-12-22-8-16-4-23-3h-32l-21 3-19 5-17 6-17 8-16 10-12 9-13 11-11 11-11 14-10 15-8 16-8 20-8 26-3 23-1 26-2 1-24-47-11-23-13-30-13-33-10-28-11-33-12-43-10-42-8-42-7-48-4-36-3-34v-111l6-58 4-32 7-42 9-43 10-39 11-37 9-29h4l11 12 12 10 14 9 21 10 14 4 12 2 13 1h325l21-2 19-5 16-7 14-8 10-8 10-9 8-9 10-15 8-16 5-16 3-16 1-12v-147l-3-25-4-17-7-20-8-16-8-14-10-14-11-12-12-12-13-10-14-9-12-7 1-9 3-16 2-23v-70l-2-27-3-17-1-6 10-6 11-6 16-9 16-8 17-9 28-13 30-13 33-13 40-14 29-9 37-10 38-9 42-8 48-7 56-6z" fill="#81D9E4"/>
<path transform="translate(982,640)" d="m0 0h84l8 6v2h2v3h2l2 6 1 42 5 10 7 6 18 7 19 7 22 10 6 1h11l9-3 9-7 10-10h2l1-3 11-9 10-4 9 2 9 6 10 9 9 9 8 7 10 10 8 7 8 11v12l-4 8-4 5-8 7-9 9-5 4-6 9-1 4v9l3 10 10 21 7 16 7 14v3h2l4 7 7 4 10 1 38 1 8 4 7 6 3 9v43l-1 32-6 8-7 5-25 2-11 4-6 4-3 6-12 42-6 17-4 8-4 12v14l6 10 9 10 1 3v12l-8 11-32 32-8 7-7 7-5 3-18 1-8 4-10 14-11 18-10 18-9 19-6 13-13 39-7 30-3 21-2 22-3 13-3 8-4 6-7 7-10 5-7 2-21 1v24l-4 10-8 8-2 1h-84l-10-8-4-9-1-27h-22l-13-5-10-9-4-6-3-9-1-13 1-4v-7l-3-17-2-12-5-21-3-12-6-18-4-10-9-20-11-22-3-5-7-11-5-9-4-5-4-7-11-16-1-1-21-1-9-7-15-14-24-24-4-3v-2l-3-1-5-8-1-7 2-9 2-3h2l3-6h2l2-6 3-6v-15l-4-12-6-13-7-22-7-26-6-10-7-5-12-4h-17l-6-2-7-5-4-7-1-21v-56l4-7 4-5 9-5 7-1h29l12-1 7-4 4-4 5-11 11-24 4-8 8-17 2-7v-7l-2-8-11-12-9-8-5-5-7-8-3-5v-14l7-9 29-29 7-6 5-5 11-9 8-3 7 1 10 5 16 15 8 8 10 6 6 1h9l9-2 27-12 27-10 8-6 6-10 1-2 1-41 4-9z" fill="#FDD883"/>
<path transform="translate(985,576)" d="m0 0h80l16 3 13 5 14 8 13 12 9 12 8 16 4 15 1 5 1 14 9 4 4 1 12-11 11-7 13-6 14-4 9-1h11l14 2 13 4 14 7 12 9 10 9 9 9 8 7 28 28 9 14 5 10 4 14 1 5v23l-4 17-6 14-9 13-4 5-5 5 2 6 1 2 25 2 14 4 16 8 14 11 11 13 7 12 5 14 2 9 1 11v68l-2 16-4 13-7 14-7 9-8 9-14 10-17 8-9 3-3 5-8 24 1 7 6 15 3 13v23l-5 18-7 14-9 12-30 30-8 7-11 11h-2v2l-16 12-17 8-6 2-12 20-12 25-11 31-5 19-5 30-4 35-5 16-8 16-6 9-9 10-7 7-15 10-8 5-8 14-8 10-9 9-14 9-11 5-14 4-4 1-14 1h-66l-18-3-15-5-13-7-10-8-9-9-9-14-4-7-15-9-13-10-9-9-9-13-7-15-4-13-2-9-1-31-5-25-6-21-8-22-9-20-11-21-10-15-21-10-12-9-12-11-11-11-2-1v-2l-4-2-13-13-8-7-8-9-9-14-5-12-4-16v-21l4-17 6-14v-6l-10-26v-2l-10-3-14-6-12-8-13-12-7-10-8-16-4-16-1-8v-68l2-20 6-16 5-10 7-9 7-8 12-9 16-8 14-4 16-2h10l2-6-1-5-9-10-9-14-6-16-3-18v-9l2-15 6-18 8-13 9-10 28-28 8-7 12-12 15-11 15-7 15-4 17-1 16 2 18 6 15 9 12 11 5 1 10-5 2-21 5-16 8-15 8-10 10-10 14-9 15-6 9-2zm-3 64-10 8-4 9-1 41-6 11-7 6-18 7-20 8-21 9-6 1h-9l-8-2-9-6-16-16-10-8-10-4-8 1-9 6-10 8-6 7-8 7-26 26-4 6v14l7 10 7 6 4 5 8 7 9 10 2 8v7l-4 12-7 14-11 23-6 14-4 6-6 5-3 1-12 1h-29l-9 2-7 4-7 9-1 3v56l1 21 5 8 7 5 7 1h15l14 5 5 4 6 10 8 29 8 24 4 8 4 12v15l-5 10v2h-2l-3 4v2h-2l-3 6-1 8 3 9 4 5h2l2 4 8 7 27 27 8 7 7 5 21 1 8 11 7 10 3 5 7 12 7 11 6 11 12 24 5 12 6 16 5 15 6 24 2 9 3 21 1 5v7l-1 4 1 13 3 9 4 6 7 7 12 6 4 1h22l1 27 5 10 9 7h84l8-7 5-8 1-4v-24l21-1 14-5 10-9 5-7 4-14 2-15 2-20 3-19 7-28 8-24 6-17 7-14 10-21 13-22 11-16 5-5 6-3 18-1 8-6 10-10 8-7 28-28 6-9v-12l-3-5-8-9-5-9v-14l6-17 4-9 8-24 6-21 3-9 3-6 9-5 7-2 25-2 8-6 5-7 1-32v-43l-3-9-8-7-7-3-38-1-10-1-8-5-3-6h-2l-1-5-6-12-7-16-12-26-1-5v-9l3-8 4-5 8-7 17-17 4-6 1-3v-12l-6-8-8-9-8-7-10-10-8-7-10-10-8-6-7-3-6-1-10 4-12 10v2l-4 2-11 11-10 6-5 1h-11l-8-2-25-11-30-11-8-6-5-8-1-3-1-42-2-6h-2v-3h-2l-2-4-6-4z" fill="#2F4356"/>
<path transform="translate(160,367)" d="m0 0 5 1 7 9 6 7 2 1v2l4 2v2l4 2 8 8 20 15 13 8 19 9 20 7 17 4 14 2 14 1h13l21-2 20-4 20-6 18-8 13-7 15-11 14-11 20-20 9-11 5 1 14 9 13 11 11 12 9 14 8 16 5 16 2 11 1 12v139l-1 13-4 12-6 11-9 10-9 8-13 6-11 3-13 1h-319l-16-2-13-5-10-7-7-6-9-12-5-11-3-14v-154l4-20 6-16 8-15 8-11 9-10 8-8 13-9z" fill="#2F4357"/>
<path transform="translate(1568,367)" d="m0 0 5 1 7 9 6 7 2 1v2l4 2v2l4 2 8 8 20 15 13 8 19 9 20 7 17 4 14 2 14 1h13l21-2 20-4 20-6 18-8 13-7 14-10 16-13 15-15h2l2-4 9-11 5 1 14 9 13 11 7 7 11 15 8 15 6 17 3 15 1 12v138l-2 18-5 12-7 11-12 12-16 8-11 3-14 1h-318l-16-2-15-6-9-7-6-5-9-12-5-11-3-14v-153l3-17 6-18 7-14 7-10 8-10 11-11 14-10z" fill="#2F4357"/>
<path transform="translate(1568,1679)" d="m0 0 5 1 7 9 6 7 2 1v2l4 2v2l4 2 8 8 20 15 13 8 19 9 20 7 17 4 14 2 14 1h13l21-2 20-4 20-6 18-8 13-7 14-10 16-13 15-15h2l2-4 9-11 5 1 14 9 13 11 7 7 11 15 8 15 6 17 3 15 1 12v138l-2 18-5 12-7 11-11 11-10 6-10 4-8 2-15 1h-316l-13-1-15-5-11-7-8-7-9-12-5-11-3-14v-153l3-17 6-18 7-14 7-10 8-10 11-11 14-10z" fill="#2F4357"/>
<path transform="translate(160,1679)" d="m0 0 5 1 7 9 6 7 2 1v2l4 2v2l4 2 8 8 20 15 13 8 19 9 20 7 17 4 14 2 14 1h13l21-2 20-4 20-6 18-8 13-7 15-11 14-11 20-20 9-11 5 1 14 9 13 11 11 12 9 14 8 16 5 16 2 11 1 12v139l-1 13-4 12-6 11-9 10-9 8-13 6-11 3-15 1h-316l-13-1-15-5-11-7-8-7-9-12-5-11-3-14v-154l4-20 6-16 8-15 8-11 9-10 7-7 14-10z" fill="#2F4357"/>
<path transform="translate(969)" d="m0 0h111l58 6 39 5 41 7 38 8 47 12 45 14 31 11 33 13 35 15 33 16 20 10 22 12 20 12 1 3-3 11-3 32-1 25-9-5-18-11-28-16-29-15-33-16-38-16-40-15-43-14-36-10-34-8-35-7-38-6-33-4-38-3-18-1h-82l-34 2-33 3-44 6-49 9-42 10-35 10-46 15-39 15-30 13-34 16-29 15-25 14-13 8-17 10-2 1-2-34-2-20-3-13 1-5 19-10 14-8 20-11 23-11 21-10 30-13 33-13 40-14 29-9 37-10 38-9 42-8 48-7 56-6z" fill="#2F4357"/>
<path transform="translate(310,1376)" d="m0 0h20l20 3 16 5 19 9 14 10 10 9 10 10 10 14 8 15 7 20 3 16 1 13v72l-2 20-6 21-7 16-7 11-10 13-14 14-18 12-19 9-17 5-11 2-13 1h-10l-18-2-19-5-18-8-14-9-11-9-12-12-11-15-9-17-7-21-3-20v-85l3-19 5-16 9-19 12-17 12-13 17-13 16-9 16-6 18-4z" fill="#2F4357"/>
<path transform="translate(309,64)" d="m0 0h22l19 3 16 5 19 9 14 10 10 9 10 10 10 14 8 15 6 16 4 20 1 13v72l-2 20-6 21-6 14-10 16-11 13-10 10-17 12-21 10-14 4-15 3-12 1h-10l-18-2-16-4-19-8-16-10-11-9-12-12-12-17-8-16-6-16-3-15-1-9v-86l3-18 5-16 9-19 9-13 11-13 10-9 16-11 16-8 15-5 14-3z" fill="#2F4357"/>
<path transform="translate(1717,64)" d="m0 0h22l19 3 16 5 19 9 14 10 10 9 10 10 10 14 8 15 6 16 4 20 1 15v68l-1 16-5 21-5 13-9 17-9 12-9 10-7 7-17 12-19 9-11 4-20 4-12 1h-10l-18-2-16-4-19-8-16-10-11-9-12-12-11-15-8-15-7-19-3-15-1-9v-85l3-19 5-16 9-19 9-13 11-13 10-9 16-11 16-8 15-5 14-3z" fill="#2F4357"/>
<path transform="translate(1718,1376)" d="m0 0h20l20 3 21 7 17 9 16 12 14 14 9 12 9 16 6 15 4 16 2 20v71l-2 21-6 21-7 16-10 15-8 10-12 12-14 10-19 10-14 5-19 4-13 1h-10l-18-2-19-5-18-8-14-9-11-9-12-12-11-15-9-17-7-21-3-20v-85l3-19 5-16 9-19 12-17 10-11 11-9 10-7 14-8 16-6 18-4z" fill="#2F4357"/>
<path transform="translate(1010,848)" d="m0 0h28l17 3 17 5 16 7 8 4 11 7 3 2v2l4 1v2l4 2 8 7 8 10 5 5 7 10 8 14 5 12 5 15 3 19 1 11v19l-4 23-9 25-9 16-10 14-12 13-9 8h-2v2l-6 4-4 1v2l-21 11-15 6-23 5-13 1-28-1-24-6-8-3-12-5-14-8-9-6-1-2-5-3-8-7-4-5v-2h-2l-8-10v-2h-2l-5-9-10-19-6-18-4-17-1-12v-15l2-18 3-16 3-7 3-10 11-21 10-13 9-11 8-7 14-11 19-11 18-7 15-4z" fill="#2F4357"/>
<path transform="translate(426,414)" d="m0 0 6 2 15 6 11 7 10 9 7 11 4 10 1 6 1 16v125l-1 2-5 1h-313l-2-1-1-4v-132l2-14 8-16 9-10 7-6 12-6 16-5 5 2 11 7 19 9 20 7 17 4 14 2 14 1h13l21-2 20-4 20-6 18-8 13-7z" fill="#F97A5E"/>
<path transform="translate(1836,413)" d="m0 0 1 3 5 1 13 5 11 7 10 9 8 14 3 8 1 8 1 88v50l-1 2-6 1h-312l-2-1-1-4v-134l2-12 4-9 7-11 5-5 8-7 12-6 16-5 4 2 16 9 15 7 20 7 17 4 14 2 14 1h13l21-2 20-4 20-6 18-8 13-7z" fill="#F97A5E"/>
<path transform="translate(426,1726)" d="m0 0 6 2 15 6 11 7 10 9 6 10 4 8 2 10 1 111v25l-1 6-12 1h-306l-2-1-1-9v-126l1-11 4-11 8-13 10-10 12-7 19-6 5 2 11 7 19 9 20 7 17 4 14 2 14 1h13l21-2 20-4 20-6 18-8 13-7z" fill="#F97A5E"/>
<path transform="translate(1836,1725)" d="m0 0 1 3 5 1 13 5 11 7 10 9 8 14 3 8 1 8 1 109v25l-1 6-27 1h-291l-2-1-1-32v-104l2-14 8-16 9-10 7-6 12-6 16-5 4 2 16 9 15 7 20 7 17 4 14 2 14 1h13l21-2 20-4 20-6 18-8 13-7z" fill="#F97A5E"/>
<path transform="translate(608,1868)" d="m0 0h1l1 22 24 11 17 7 30 12 36 13 42 13 30 8 39 9 37 7 49 7 43 4 15 1 34 1h40l44-2 44-4 49-7 42-8 35-8 29-8 36-11 26-9 26-10 29-12 25-11 5-2h4l1 38 3 22 1 5-1 2-36 15-36 14-38 13-41 12-44 11-45 9-45 7-61 7-24 2h-99l-52-5-49-6-37-6-43-9-36-9-31-9-46-15-32-12-38-16-8-4 1-8 2-14 1-13z" fill="#2F4357"/>
<path transform="translate(57,686)" d="m0 0 4 2 9 10 9 8 15 10 17 9-1 7-13 43-10 41-7 35-7 43-5 45-2 24-1 20v79l3 45 4 38 7 46 7 36 10 42 10 35 12 37 13 35 9 21 8 16 1 6-8 19-9 29-3 23-1 26-2 1-24-47-11-23-13-30-13-33-10-28-11-33-12-43-10-42-8-42-7-48-4-36-3-34v-111l6-58 4-32 7-42 9-43 10-39 11-37 9-29z" fill="#2F4357"/>
<path transform="translate(1989,686)" d="m0 0h2l10 31 9 30 11 42 8 38 7 39 5 38 5 49 2 20v96l-5 57-6 48-7 43-8 37-10 40-12 40-12 36-13 34-13 31-12 26-9 19-10 19-9 18-2-2-2-32-3-18-5-18-8-21-2-4 1-9 10-23 10-25 12-33 15-48 10-39 7-31 8-46 5-39 3-32 2-35v-75l-3-47-4-39-6-39-8-41-8-34-10-36-7-21v-5l17-9 16-11 11-10 7-8z" fill="#2F4357"/>
<path transform="translate(984,64)" d="m0 0h82l43 3 30 3 42 6 38 7 39 9 33 9 29 9 35 12 31 12 37 16 39 19 23 12 24 14 20 12 7 5v28l-4 1-16-8-21-12-10-6-14-7-9-5-15-8-18-8-15-7-13-6-29-12-18-7-20-7-30-10-38-11-33-8-45-9-45-7-51-5-52-2h-44l-26 1-47 4-45 6-30 5-23 5-15 3-40 10-44 13-23 8-34 13-29 12-13 6-23 11-20 10-15 8-18 10-11 6-17 10-6 3-3 1-1 3-1-1v-31l5-4 21-12 10-6 25-14 37-19 33-15 37-15 30-11 43-14 45-12 32-7 43-8 44-6 47-4z" fill="#A2E5EF"/>
<path transform="translate(608,1793)" d="m0 0h1v68l9 2 29 12 13 5 11 5 21 8 29 10 32 10 28 8 52 12 39 7 36 5 40 4 29 2 44 1 41-1 37-2 49-5 45-7 49-10 39-10 33-10 36-12 36-14 40-17 10-4h3l1-2v33l-11 4-25 11-37 15-30 11-34 11-28 8-40 10-46 9-39 6-37 4-23 2-44 2h-40l-34-1-38-3-35-4-34-5-37-7-39-9-34-9-47-15-27-10-30-12-35-15-7-4-1-22z" fill="#5DAAAF"/>
<path transform="translate(1720,1439)" d="m0 0h16l11 2 12 5 10 7 8 8v2h2l1 4h2v3h2l6 13 2 5 1 7v68l-1 19-5 14-6 10-11 12-10 7-11 5-6 2-8 1h-16l-12-3-9-4-11-7-11-11-7-11-5-13-1-38v-49l2-12 6-14 9-12 9-8 10-6 13-5z" fill="#F9FBFC"/>
<path transform="translate(318,1439)" d="m0 0 14 1 14 4 10 6 10 8 8 10 8 16 2 7 1 11v59l-1 19-5 15-9 14-6 7-13 9-15 6-6 1h-22l-13-4-11-6-11-9-8-10-7-14-2-7-1-30v-49l2-15 5-14 7-11 6-7 11-8 13-6 9-2z" fill="#F9FBFC"/>
<path transform="translate(309,128)" d="m0 0h21l12 3 14 7 6 5v2h3l8 10 7 12 4 12 1 14v48l-1 27-5 15-9 14-6 7-13 9-15 6-6 1h-22l-13-4-11-6-11-9-8-10-7-14-2-7-1-35v-44l2-15 4-11 6-11 10-9 4-4h2l2-4 14-7z" fill="#F8FBFC"/>
<path transform="translate(1717,128)" d="m0 0h21l12 3 14 7 10 9 7 8 6 11 5 13 1 15v43l-1 30-4 14-7 12-9 11-10 7-12 6-12 3h-22l-13-4-11-6-11-9-8-10-7-14-2-7-1-48v-30l2-16 4-11 6-11 3-4 5-3 6-7 9-6 12-5z" fill="#F9FBFC"/>
<path transform="translate(1009,912)" d="m0 0h30l17 5 8 4v2l4 1 10 8 9 9 2 5h2v3h2l8 17 3 12v28l-4 14-5 11-7 11-15 15-14 8-6 3-9 3-6 1h-28l-15-4-14-7-13-10-7-8v-2h-2l-7-11-3-7-4-11-1-5v-30l4-14 8-16 12-14 5-4h2v-2l13-8 16-6z" fill="#F7FAFB"/>
<path transform="translate(426,414)" d="m0 0 6 2 15 6 11 7 10 9 7 11 4 10 1 6 1 16v125l-1 2-5 1h-313l-2-1-1-4v-132l2-14 8-16 5-6v3l-8 13-3 9-1 6v109h44l103-1h164l4-2v-108l-5-16-6-9-5-6-13-9-12-5-10-3z" fill="#CB624F"/>
<path transform="translate(1614,417)" d="m0 0h5l-3 2-15 5-13 9-4 2-2 5-4 5-5 10-3 12v109h31l116-1h168l1-66v-32l-2-18-6-14 1-2 7 14 2 11 1 88v50l-1 2-6 1h-312l-2-1-1-4v-134l2-12 4-9 7-11 5-5 8-7 12-6z" fill="#CB624F"/>
<path transform="translate(426,1726)" d="m0 0 6 2 15 6 11 7 10 9 6 10 4 8 2 10 1 111v25l-1 6-12 1h-306l-2-1-1-9v-126l1-11 4-11 8-13 3-2-2 4-8 14-3 12v110h237l24-1h48l7 1v-98l-2-18-5-13-6-8v-2h-2l-5-5-10-7-12-5-10-3z" fill="#CB624F"/>
<path transform="translate(1582,1748)" d="m0 0v3l-8 13-3 9-1 5-1 111 46-1h206l13-1 4 1h48v-101l-2-16-6-14 1-2 7 14 2 11 1 109v25l-1 6-27 1h-291l-2-1-1-32v-104l2-14 8-16z" fill="#CB624F"/>
<path transform="translate(1136,1392)" d="m0 0h1l-2 27-3 13-3 8-4 6-7 7-10 5-7 2-21 1v24l-4 10-8 8-2 1h-84l-10-8-4-9-1-27h-22l-13-5-10-9-4-6-3-9-1-13 1-4v-10l2 1 1 7 5 2 8 7 13 4 22 3 2 2 2 22v9l1 3 5 1 6 6h79l8-2 4-4 5 2v-11l2-27 1-1 23-3 12-5 6-4 3-1 2-5 5-8 3-9z" fill="#DEBB78"/>
<path transform="translate(1078,697)" d="m0 0h2l6 12 7 6 18 7 19 7 22 10 6 1h11l9-3 9-7 10-10h2l1-3 11-9 10-4 9 2 9 6 10 9 9 9 8 7 10 10 8 7 8 11v12l-4 8-4 5-4 2 1-5-1-4-9-7-16-16-2-1v-2l-4-2-10-9-8-5-5-2h-7l-9 4-11 9-12 12-13 9-6 2h-9l-16-6-35-14-16-7-9-8-3-7-1-5v-25z" fill="#FDE5A9"/>
<path transform="translate(965,702)" d="m0 0 4 2 1 6-1 18-4 9-7 8-10 6-27 11-24 10-11 3-9-1-8-4-11-9-13-12-11-8-5-2h-8l-8 4-10 9-3 1v2l-8 7-12 12-11 9-3 7-4-2-6-9v-14l7-9 29-29 7-6 5-5 11-9 8-3 7 1 10 5 16 15 8 8 10 6 6 1h9l9-2 27-12 27-10 8-6z" fill="#FDE5A9"/>
<path transform="translate(318,1439)" d="m0 0 14 1 14 4 10 6 10 8 8 10 8 16 2 7 1 11v59l-1 19-5 15-9 14-6 7-13 9-15 6-6 1h-22l-13-4-11-6-11-9-8-10-7-14-2-7-1-30v-49l2-15 5-14 7-11 6-7 11-8 13-6 9-2zm-7 2-17 5-12 7-10 9-9 14-5 15-1 4v49l2 15 1 3h2l1 5 8 11 9 9 11 7 13 5 11 2h8l15-3 16-7 9-7 8-9 8-13 3-7 1-18v-40l-4-16-6-12-8-10-10-8-11-6-15-4z" fill="#B7C5CC"/>
<path transform="translate(1282,1141)" d="m0 0 6 2 3 2 1 3v12l-8 11-32 32-8 7-7 7-5 3-18 1-8 4-10 14-11 18-10 18-9 19-1-4-2 4-4 4-2 4-2 7-3 7-7 26-2 6-3 18h-2v-11l8-36 9-30 9-24 8-18 15-28 11-18 8-10 3-2 18-2 8-4 10-8 12-11 17-17h2l2-4z" fill="#DEBB78"/>
<path transform="translate(1665,1485)" d="m0 0 1 4v57l2 14 8 13 7 9 14 10 12 5 15 3 13-1 12-3 14-7 11-9 8-11 6-10 1-3 1-17v-53l2 2 1 7v68l-1 19-5 14-6 10-11 12-10 7-11 5-6 2-8 1h-16l-12-3-9-4-11-7-11-11-7-11-5-13-1-38v-49z" fill="#B6C5CC"/>
<path transform="translate(375,160)" d="m0 0 3 3 5 12 1 4 1 14v48l-1 27-5 15-9 14-6 7-13 9-15 6-6 1h-22l-13-4-11-6-11-9-8-10-7-14-2-7-1-35v-44l2-15 4-11 1 3-4 14v54l2 12 6 10 7 9v2l4 2 9 7 12 6 11 3 6 1h8l15-3 16-7 6-5h2v-2l5-4 7-10 6-10 1-3 1-14v-47l-5-17z" fill="#B6C5CC"/>
<path transform="translate(1669,165)" d="m0 0 1 3-4 15v53l2 12 6 10 7 9 7 7 13 8 15 5 14 1 16-3 16-7 13-11 7-10 7-12 1-10v-52l-3-12 1-3 4 11 1 15v43l-1 30-4 14-7 12-9 11-10 7-12 6-12 3h-22l-13-4-11-6-11-9-8-10-7-14-2-7-1-48v-30l2-16z" fill="#B6C5CC"/>
<path transform="translate(762,1144)" d="m0 0h7l4 3v2l4 2 9 9 3 2v2l4 2 8 8 10 8 9 5 17 1 4 4 11 17 9 15 14 25 9 17 10 24 9 29 2 7v8l-3-4-6-18-4-7-6-11v-2h-2l-8-16-11-20-9-14-8-12-4-5-2-1-1 2-4-5-21-1-9-7-15-14-24-24-4-3v-2l-3-1-5-8-1-7 2-9 1 2h2v-2z" fill="#DFBC78"/>
<path transform="translate(982,640)" d="m0 0h84l8 6v2h2v3h2l1 2v36l-2-1-2-8-8-5-5-1-33-1-44 1-6 2-4 2-4 5h-2l-1-8v-18l4-9z" fill="#FEE5A8"/>
<path transform="translate(1253,826)" d="m0 0h1l3 14 11 23 7 16 7 14v3h2l4 7 7 4 10 1 38 1 8 4 7 6 1 2v35l-2-3v-3h-2v-2l-9-3-42-2-9-2-8-6-7-10-10-21-12-27-5-10-1-6 4-11-2-11-1-3z" fill="#FCE4A8"/>
<path transform="translate(792,840)" d="m0 0 1 3 1 9v11l-6 17-4 8-5 12-11 24-7 11-9 6-14 2-26 1-10 1-7 3-6 3v-29l6-8 9-5 7-1h29l12-1 7-4 4-4 5-11 11-24 11-22z" fill="#FCE4A7"/>
<path transform="translate(283,992)" d="m0 0h10l11 4 10 9 5 10 1 5v9l-4 10-6 8-8 6-5 2-13 1-12-4-9-8-5-8-2-7v-9l3-10 6-9 9-6z" fill="#2F4357"/>
<path transform="translate(1019,1728)" d="m0 0h9l10 3 8 6 5 6 4 9 1 4v8l-3 9-6 9-8 6-6 3-13 1-9-3-7-4-8-9-4-11v-9l3-10 6-9 9-6z" fill="#2F4357"/>
<path transform="translate(886,267)" d="m0 0h15l9 4 8 7 6 9 2 8v8l-3 9-6 8-8 7-13 4-9-1-10-4-10-10-4-8-1-4v-11l4-11 8-9 9-5z" fill="#2F4357"/>
<path transform="translate(293,866)" d="m0 0h11l11 4 10 9 4 8 2 8v7l-4 11-9 10-8 5-8 2-11-1-10-5-7-6-6-10-1-4v-12l4-10 6-8 9-6z" fill="#2F4357"/>
<path transform="translate(1743,861)" d="m0 0h8l11 3 9 7 6 8 3 12-1 10-5 10-6 7-9 5-8 2-12-1-10-5-7-7-5-10-1-3v-11l4-11 5-7 10-7z" fill="#2F4357"/>
<path transform="translate(892,1717)" d="m0 0h9l10 3 8 6 6 7 3 7 1 13-3 9-6 9-9 7-5 2-11 1-12-3-8-6-6-7-3-7-1-12 2-9 6-9 8-7 6-3z" fill="#2F4357"/>
<path transform="translate(1148,1717)" d="m0 0h8l10 3 9 6 6 8 3 9v13l-6 12-5 5-5 4-7 3-5 1h-7l-10-3-9-6-6-8-3-8v-14l4-10 7-8 8-5z" fill="#2F4357"/>
<path transform="translate(1752,991)" d="m0 0h15l10 4 8 7 6 12 1 5v8l-4 11-9 10-12 6h-14l-12-6-7-7-5-10-1-4v-9l3-10 6-8 9-7z" fill="#2F4357"/>
<path transform="translate(324,742)" d="m0 0h11l10 3 9 7 6 9 3 9v8l-4 11-9 10-8 5-7 2h-7l-10-3-9-6-6-7-4-10v-12l4-10 5-7 10-7z" fill="#2F4357"/>
<path transform="translate(1142,267)" d="m0 0h14l10 4 8 7 5 8 2 7v12l-4 9-6 8-11 7-3 1h-15l-12-6-7-7-4-7-1-4v-16l5-10 5-6 10-6z" fill="#2F4357"/>
<path transform="translate(1016,256)" d="m0 0h10l11 4 9 7 5 8 2 6v14l-4 9-7 8-9 6-8 2h-7l-10-3-6-4-8-9-3-5-1-4v-15l6-12 8-7 8-4z" fill="#2F4357"/>
<path transform="translate(1266,300)" d="m0 0h14l9 4 8 6 6 10 2 7v8l-3 10-6 8-8 7-8 3h-12l-11-4-9-8-5-8-2-13 2-10 6-10 9-7z" fill="#2F4357"/>
<path transform="translate(1270,1684)" d="m0 0h12l11 4 7 6 6 10 2 7v10l-4 10-6 8-9 6-7 2h-12l-10-4-9-8-5-9-1-4v-14l3-7 4-6 5-5 8-5z" fill="#2F4357"/>
<path transform="translate(1711,738)" d="m0 0h9l11 4 9 8 6 12 1 4v7l-4 11-6 8-8 6-9 3h-11l-10-4-7-5-7-10-2-6v-13l4-10 7-8 6-4z" fill="#2F4357"/>
<path transform="translate(772,1684)" d="m0 0 9 1 12 6 7 8 4 9 1 12-3 9-6 9-7 6-7 3-5 1h-7l-10-3-9-6-7-9-2-6v-16l6-12 9-8 7-3z" fill="#2F4357"/>
<path transform="translate(766,301)" d="m0 0h8l10 3 8 6 6 7 4 11v10l-4 10-7 9-10 6-3 1h-14l-9-3-10-9-5-8-1-3v-16l4-9 7-8 8-5z" fill="#2F4357"/>
<path transform="translate(291,1122)" d="m0 0h16l12 6 8 9 4 11v11l-4 10-9 10-10 5-11 1-9-2-8-5-5-5-5-7-2-6v-13l3-9 7-9 9-6z" fill="#2F4357"/>
<path transform="translate(1743,1120)" d="m0 0h12l10 4 9 8 6 12v15l-6 12-5 5-7 5-7 2h-12l-9-3-10-9-5-8-2-9 1-11 6-12 8-7z" fill="#2F4357"/>
<path transform="translate(546,1556)" d="m0 0h11l11 4 9 8 6 12v15l-6 12-7 7-9 4-5 1h-10l-10-4-6-4-6-7-3-8-1-10 2-10 4-8 7-7 9-4z" fill="#2F4357"/>
<path transform="translate(1492,1556)" d="m0 0h9l11 3 9 7 6 10 2 7v9l-3 10-6 8-8 6-10 3h-10l-12-5-7-6-5-8-2-7v-12l4-10 7-8 8-5z" fill="#2F4357"/>
<path transform="translate(1384,1630)" d="m0 0h15l10 4 8 7 4 6 3 9v10l-3 9-6 9-9 6-5 2h-17l-10-5-5-4-6-9-2-6v-13l3-9 9-10 8-5z" fill="#2F4357"/>
<path transform="translate(648,1631)" d="m0 0h17l10 5 6 5 6 10 1 3v15l-4 10-7 8-9 5-4 1h-14l-10-4-9-8-4-7-1-4v-17l5-10 8-8z" fill="#2F4357"/>
<path transform="translate(324,1246)" d="m0 0h16l9 4 8 7 5 8 2 6v13l-6 12-2 3h-2v2l-10 6-7 2h-8l-9-3-9-6-6-7-3-8-1-5v-8l4-11 7-8 5-4z" fill="#2F4357"/>
<path transform="translate(1381,354)" d="m0 0h16l12 6 7 7 4 8 1 4v12l-3 8-6 9-9 6-5 2h-16l-12-6-8-9-3-6-1-5v-10l4-11 7-8 5-4z" fill="#2F4357"/>
<path transform="translate(1711,1244)" d="m0 0h9l10 3 8 6 6 8 3 8v14l-6 12-7 7-11 5h-12l-11-4-10-9-5-10-1-9 2-11 5-9 7-6 8-4z" fill="#2F4357"/>
<path transform="translate(649,356)" d="m0 0h9l10 3 8 6 6 7 4 11v8l-3 10-6 8-7 6-6 3-6 1h-9l-11-4-9-8-5-9-1-3v-15l4-9 7-8 7-5z" fill="#2F4357"/>
<path transform="translate(1359,923)" d="m0 0h1l1 5v43l-1 32-6 8-7 5-25 2-11 4-6 4-3 6-12 42-6 17-1-4v-3l-4 10h-3l-1-1v-7l4-14 11-31 6-22 6-20 5-8 5-4 7-2 21-2 9-2 9-6 1-18z" fill="#DEBA77"/>
<path transform="translate(687,926)" d="m0 0h1l2 45 3 5 7 5 7 2 18 1 11 4 3 2v2h2l6 10 5 15 8 30 11 33v13l-3-1-2-6-1-5-3-2v-5h-2l-1 4-5-16-7-26-6-10-7-5-12-4h-17l-6-2-7-5-4-7-1-21z" fill="#DEB977"/>
<path transform="translate(842,1224)" d="m0 0 4 2 9 13 9 14 11 19 6 12 3 5v3h2l10 19 3 7 4 12 1 4h3l2 6 2 15 2 4 1 9v9l-2-1-6-27-4-10-5-14-2 1-5-14-7-15-11-22-3-5-7-11-5-9-4-5-4-7-7-10z" fill="#FAD483"/>
<path transform="translate(318,1439)" d="m0 0 14 1 14 4 10 6 10 8 8 10 8 16 2 7v8l-2-2-4-16-6-12-8-10-12-9-8-4-15-4h-18l-17 5-12 7-9 8-9 14-5 15-1 4v60l-3-3v-49l2-15 5-14 7-11 6-7 11-8 13-6 9-2z" fill="#91BBC1"/>
<path transform="translate(1165,1289)" d="m0 0 1 2-3 9-5 12-4 13-4 11-7 26-3 14-2 14-3 3v-11l4-16 3-18 8-27 3-10 2-4 2-6 4-7 2-1z" fill="#F7D798"/>
<path transform="translate(842,1224)" d="m0 0 4 2 9 13 9 14 11 19 1 6 5 9v2h-2l-8-15-8-14-5-7-3-6-7-10-6-9z" fill="#F3D08C"/>
<path transform="translate(318,1439)" d="m0 0 14 1 14 4 10 6 10 8 8 10 8 16 2 7v8l-2-2-4-16-6-12-8-10-12-9-8-4-15-4h-18l-11 2 2-3z" fill="#92BAC1"/>
<path transform="translate(896,1322)" d="m0 0 2 3 7 20 3 8 4 17v9l-2-1-5-21-3-12-6-18z" fill="#F2CC96"/>
<path transform="translate(1145,1323)" d="m0 0 2 2 2-1-2 10-4 14-3 18h-2v-11z" fill="#DFBD79"/>
<path transform="translate(1165,1289)" d="m0 0 1 2-3 9-5 12-3 10-1-3-3 1 1-6 3-7 2-6 4-7 2-1z" fill="#F8CF7F"/>
<path transform="translate(1149,1062)" d="m0 0h2l-2 5-3 5-7 12h-2l-2 4-10 9-11 11-2-1 5-6 8-7 11-12 12-18z" fill="#FCE2A4"/>
<path transform="translate(1142,1356)" d="m0 0h1l-1 11-3 17-2 8-2 1v-11l4-16 1-8z" fill="#F3DB9D"/>
<path transform="translate(762,1165)" d="m0 0 5 5 10 9 9 9-4 1-14-14-4-3v-2l-3-1z" fill="#EFBD78"/>
<path transform="translate(866,1260)" d="m0 0h2l7 12 1 6 5 9v2h-2l-8-15-6-10z" fill="#F5D38E"/>
<path transform="translate(1689,1293)" d="m0 0 7 6 8 5 7 2h12l9-3-3 3-8 3h-8l-8-2-9-5-7-7z" fill="#5DAAAF"/>
<path transform="translate(299,1442)" d="m0 0 2 1-1 2-10 4-10 7-7 6-2 3h-2l2-4 4-5 11-8z" fill="#78B3B8"/>
<path transform="translate(313,1250)" d="m0 0 2 1-8 8-4 9-1 4v8l3 11 2 5-4-4-3-10v-11l3-9 6-9z" fill="#5DAAAF"/>
<path transform="translate(842,1224)" d="m0 0 4 2 9 13-1 2-4-1-7-11z" fill="#F4C77E"/>
<path transform="translate(1291,1062)" d="m0 0h1l-1 9-7 20-1-4 2-9 5-15z" fill="#E8B579"/>
<path transform="translate(1304,1023)" d="m0 0h2l-2 6-2 3-3 10-3 1 1-7 4-12z" fill="#F4C880"/>
<path transform="translate(268,1465)" d="m0 0 2 1-7 12-6 21h-1v-7l5-16 6-10z" fill="#8FBBC2"/>
<path transform="translate(318,1439)" d="m0 0 14 1 8 2v2l-11-2h-18l-11 2 2-3z" fill="#99C0C7"/>
<path transform="translate(1511,197)" d="m0 0 5 2 19 12 1 1v10h-1l-1-10-5-2-17-10z" fill="#7CC6CE"/>
<path transform="translate(1615,1729)" d="m0 0 4 1-18 6-13 9-4 2 6-7 12-7z" fill="#CB624F"/>
<path transform="translate(896,1322)" d="m0 0 2 3 7 20v3h-2l-7-21z" fill="#F4D496"/>
<path transform="translate(760,1074)" d="m0 0h2l1 5 3 2 1 5-2 3h-2l-3-8z" fill="#F5C882"/>
<path transform="translate(968,675)" d="m0 0h1l1 8v15l-2 5-2-1 1-4z" fill="#EED498"/>
<path transform="translate(426,414)" d="m0 0 6 2 15 6 9 6h-3l-14-7-13-4z" fill="#CA6451"/>
<path transform="translate(426,1726)" d="m0 0 6 2 15 6 9 6h-3l-14-7-13-4z" fill="#CA6451"/>
<path transform="translate(1143,1340)" d="m0 0 1 4-2 12-2 10h-2v-11l3-8z" fill="#F1996A"/>
<path transform="translate(1137,1362)" d="m0 0 2 4-3 16-1 11h-1v-16z" fill="#DFBD79"/>
<path transform="translate(1290,1156)" d="m0 0h1v6l-8 10-5 5-2-1 7-8 6-9z" fill="#F2D286"/>
<path transform="translate(754,1054)" d="m0 0h2l3 14 1 1v5l-1-2h-2l-3-10z" fill="#F6D08E"/>
<path transform="translate(1697,1446)" d="m0 0 2 1-11 8-7 6-5 5 2-5 8-8z" fill="#8FBFC5"/>
<path transform="translate(1138,1376)" d="m0 0h1v8l-2 8-2 1v-11z" fill="#F3CE8E"/>
<path transform="translate(1149,1062)" d="m0 0h2l-2 5-3 5-5 8-4 2 2-4z" fill="#F8DD9F"/>
<path transform="translate(1150,1310)" d="m0 0 1 4v7l-1 3-4 2v-7l1-3h2z" fill="#E8A46F"/>
<path transform="translate(905,1334)" d="m0 0h2l2 6 2 19-2-3-2-12-2-5z" fill="#F18E66"/>
<path transform="translate(911,1356)" d="m0 0 2 3 1 9v9l-2-1-1-6z" fill="#E1B776"/>
<path transform="translate(975,927)" d="m0 0 2 1-2 1zm-2 2 2 1-15 15v-3l9-10z" fill="#B8DCE1"/>
<path transform="translate(793,819)" d="m0 0 3 3-1 13-2 5-2 1 2-9v-7l-1-5z" fill="#E7CE97"/>
<path transform="translate(1283,1083)" d="m0 0 1 4-3 10-3 5-1-3 2-4 2-9z" fill="#FAD98E"/>
<path transform="translate(766,1092)" d="m0 0 2 1 5 13v3h-2l-4-12z" fill="#F3D296"/>
<path transform="translate(380,1481)" d="m0 0 2 3 2 7v8l-2-2-2-10z" fill="#8CB8BE"/>
<path transform="translate(280,1452)" d="m0 0 1 3-8 7-2 3h-2l2-4 4-5z" fill="#6BAEB3"/>
<path transform="translate(1291,1062)" d="m0 0h1l-1 9-1 3-3 1 2-9z" fill="#F3CB87"/>
<path transform="translate(1131,1427)" d="m0 0h1l-1 9-3 6h-2l1-4z" fill="#F4CE88"/>
<path transform="translate(1295,1047)" d="m0 0h1l-1 9-1 5h-2v-6z" fill="#F6D38A"/>
<path transform="translate(1836,413)" d="m0 0 1 3 5 1 8 3-3 1-13-4z" fill="#CB624F"/>
<path transform="translate(1678,150)" d="m0 0h2l-2 4-7 11-1-2 5-9z" fill="#8AB7BD"/>
<path transform="translate(909,1366)" d="m0 0 2 1 1 3v9l-2-1z" fill="#F8DA9C"/>
<path transform="translate(862,1253)" d="m0 0h2l3 5v5l-3-1z" fill="#F9D88D"/>
</svg>
