<?xml version="1.0" encoding="UTF-8"?>
<svg version="1.1" viewBox="0 0 2048 2048" width="1280" height="1280" xmlns="http://www.w3.org/2000/svg">
<path transform="translate(405)" d="m0 0h110l15 6 12 7 10 9 7 9 7 14 3 12 1 10v70h124l10 2 9 6 6 8 3 7 1 6 55 1 2-11 6-9 7-6 7-3 6-1h672v-77l4-16 6-12 7-9 9-9 13-8 15-6h110l15 6 12 7 12 11 9 14 5 14 1 5 1 21v59h177l18 2 16 6 11 6 11 9 10 11 9 15 5 15 2 15v457l-1 13-5 17-8 15-8 10-8 8-14 9-15 6-13 3-13 1h-174v148l185 1 15 3 12 5 12 7 10 9 5 5 7 9 8 16 4 15 1 10v138l-2 9-6 10-9 6-9 3h-3v56l10 2 7 4 7 7 4 8 1 4v210l-2 17-4 12-6 12-9 12-10 10-12 8-15 6-12 3-8 1h-181v466l117 1-9-17-3-9v-13l4-9 7-8 10-5 4-1h9l11 4 8 7 8 13 10 19 8-6 12-11 11-9 10-9 10-6 7-2h8l10 3 8 6 6 9 2 6v12l-4 10-9 10-5 5 76 1 11 4 6 5 7 11 1 3v15l-5 9-8 8-11 5h-2e3l-11-6-5-4-7-12v-17l6-9 5-5 7-5 6-2h71l-10-19-3-11 1-9 4-9 7-8 10-5 4-1h9l11 4 8 7 8 14 9 17v2l11-9 11-10 11-9 9-8 10-6 6-2h9l10 3 8 6 6 9 2 6v12l-4 10-9 10-4 3h-2v3l123-1 1-145 3-9 9-10 10-5 7-2 1-55-9-1-8-4-7-7-5-9-1-4v-215h-183l-17-3-16-7-12-8-13-13-9-14-6-14-3-15v-470l3-14 5-13 7-11 9-11 13-11 16-8 13-4 7-1 42-1h143l1-148h-176l-18-2-13-4-15-8-10-8-8-8-10-15-5-11-3-12-1-7v-470l4-17 8-16 8-11 11-11 14-9 12-5 12-3 11-1h179v-76l3-14 8-16 7-9 8-8 13-8zm189 754-24 1v149h907l1-1v-148l-7-1zm-24 767v467h371l-1-4-12-18-7-14v-14l4-9 6-7 9-5 4-1h11l10 4 8 7 32 48 4-1 18-12 57-39 12-6 3-1h11l10 4 8 7 5 10 1 11-3 10-7 9-9 7-19 12 2 2h379l1-1v-465l-1-1z" fill="#010000"/>
<path transform="translate(172,963)" d="m0 0h1696l11 1 7 4 8 9 2 5 1 139 3 12 6 8 6 4 9 3 6 1v56l-14 3-8 6-5 6-2 5-1 6-1 209-2 6-6 8-3 3h-2v2l-7 2-357 1h-1343l-9-2-5-3-7-8-3-8-1-7v-447l2-9 7-9 8-5z" fill="#FDDF78"/>
<path transform="translate(723,167)" d="m0 0h55l4 12 6 9 9 6 4 1 1074 2 8 3 7 5 5 8 1 3v458l-3 8-7 8-7 4-5 1-700 1h-305l-698-1-8-4-6-6v-2h-2l-3-8-1-7v-445l1-9 6-9 7-6 4-2 88-1h438l9-2 10-6 6-10z" fill="#FDDF78"/>
<path transform="translate(1148,1078)" d="m0 0h18l24 4 18 6 24 12v2h3v2l4 2 11 9 8 8 9 11 7 11 6 11 6 17 4 17 2 19-1 23-4 16-4 14-4 9-3 6h-2l-1 5h-2l-2 5-5 8h-2l-2 5-6 5-1 2h-2v2l-8 7-3 1v2l-4 1v2l-7 4h-2v2l-19 9-20 6-11 2-12 1h-15l-22-3-20-6-16-8-16-10-15-14-9-10-9-13-8-15-6-16-3-12-2-14v-25l4-23 6-18 5-11h2l2-6 5-8h2l2-5 9-10 10-10 11-8 6-4 11-6 12-5 17-5z" fill="#010000"/>
<path transform="translate(700,312)" d="m0 0h9l24 3 16 4 11 5 18 10 13 10 5 5 9 8 8 11 5 7 12 24 5 17 3 17v24l-3 17-4 15-8 20-3 4-4 7-10 13-16 16-5 4h-2v2l-4 1v2l-6 3h-2v2l-21 9-17 5-12 2-18 1-22-2-17-4-13-5-9-4-15-9-10-8-11-10-9-11-7-10-10-17-5-16-4-18-1-13v-16l1-14 4-15 6-18h2l1-6 6-9 4-7 9-11 6-7 8-7 13-10 15-8 11-5 20-6z" fill="#010000"/>
<path transform="translate(861,1078)" d="m0 0h17l25 4 18 6 16 8 11 7 11 9 14 14 4 5 9 13 6 11 5 14 4 13 3 19 1 3v14l-5 31-4 10-5 12-6 12h-2v3h-2v3h-2l-2 4-9 12-6 5-5 5-10 7-1 2-24 12-21 7-12 2-11 1h-15l-17-2-16-4-16-6-13-7-12-8-15-13-11-13-8-12v-2h-2l-9-21-4-13-1-1-3-28 2-26 4-17 4-13 10-19 6-9h2l2-5 12-13 11-9 15-10 19-9 13-4z" fill="#010000"/>
<path transform="translate(904,312)" d="m0 0h11l13 4 9 6 7 12 5 15 3 12 4 12 7 26 5 16 4 12 4 15 2 9 1 1 7-21 6-23 4-14 7-23 6-21 4-15 6-11 8-7 9-4 4-1h13l10 4 9 6 6 10 4 13 2 13 1 2 3 19 15 79 11 57 6 31-1 10-4 10h-2l-2 4-9 6-6 2h-11l-11-4-8-7-5-10-12-60-5-26-2-13-3 7-20 71-4 14-5 14h-2l-2 4-8 7-9 4-4 1h-9l-10-3-10-6v-2h-2l-6-10-8-25-12-41-2-6-7-26v-3h-3v7l-6 32-2 15-3 13-3 16-1 9-5 15h-2l-2 4-2 3-10 5-4 1h-10l-10-3-9-7-7-14v-11l5-25 18-100 13-72 4-14 4-8 8-7z" fill="#010000"/>
<path transform="translate(412,1521)" d="m0 0h51l46 1v465h-98v-104l-1-42-3-8-4-6-6-5-11-4-5-2v-55l9-2 10-5 7-8 3-8 1-13v-52z" fill="#665D63"/>
<path transform="translate(1539,1521)" d="m0 0h52l45 1v465h-98v-464z" fill="#665D64"/>
<path transform="translate(1484,1078)" d="m0 0h10l10 4 5 3 5 6 4 8 1 34 1 146 1 31-2 11-5 10-6 7-11 5-4 1h-9l-11-3-12-11-16-23-17-25-14-20-13-19-22-32-5-5 1 6-1 110-3 9-2 4-7 6h-2v2l-9 3h-11l-11-4-8-7-1-3h-2l-3-12-1-6v-207l3-12 7-9 10-6 3-1h13l10 4 5 3 7 8 10 15 14 20 8 12 9 13 11 16 16 23 10 15 8 11v2h2l-1-66v-52l3-9 4-6 7-6 6-3z" fill="#010000"/>
<path transform="translate(1251,312)" d="m0 0h8l10 3 9 7 10 14 13 19 11 16 14 20 3 5 6 9 13 18 11 16 8 12 3 4v-123l5-9 8-7 10-4h9l11 3 9 7 6 10 1 8 1 139 1 65-2 12-5 10h-2l-2 4-8 5-8 3h-10l-10-3-10-8-12-17-13-19-11-16-16-23-13-19-12-17-8-12-4-4v109l-1 11-6 9-5 6-5 3-8 2h-9l-9-3-6-4-9-10-1-5v-224l4-9 5-6 8-5z" fill="#010000"/>
<path transform="translate(1578,312)" d="m0 0h16l22 3 16 5 16 7 13 8 7 6 5 10 1 3v10l-5 12-6 7-9 5-4 1h-11l-11-4-16-8-13-4-9-1h-10l-16 3-12 5-7 4h-2v2l-4 2-12 12-1 3h-2v3h-2l-8 20-2 11v12l1 13 5 15 9 15 5 5 6 5 5 5 10 6 15 5 14 2 14-1 11-3 11-6 7-5 7-9 5-10 4-10h-25l-13-2-10-6-6-7-4-13 1-10 4-10 9-8 7-3 69-1 13 2 6 3 6 5 5 7 3 11v9l-4 28-3 12-8 22-8 14-5 7h-2l-2 5-12 12h-2l-1 3-3 1-1 2-6 2v2l-21 10-8 3-21 4h-26l-24-5-19-7-17-9-12-9-10-9-7-7-10-13-10-18-7-18-6-27v-23l5-25 6-17 4-9 8-14h2l2-5 2-3h2l2-4 7-8 9-7 5-5 15-10 15-7 15-5 14-3z" fill="#010000"/>
<path transform="translate(798,195)" d="m0 0 1077 2 8 3 7 5 5 8 1 3v458l-3 8-7 8-7 4-5 1-700 1h-305l-698-1-3-2h15l11-1 61-1h1579l9-1-1-6v-484l4-1h-1042l-6-2z" fill="#F8CB5F"/>
<path transform="translate(616,1078)" d="m0 0h19l23 4 10 4 18 8 11 6v2h3v2l5 2 6 7 4 10 1 9-4 12-7 8-2 3-9 4-4 1h-8l-12-5-11-7-15-7-9-2h-17l-11 4-5 5-3 6 2 8 12 6 23 9 13 5 15 6 19 10 11 8 7 6 11 14 7 16 2 7 1 10v11l-2 15-4 9-5 11h-2v3h-2l-2 4-4 6h-2l-2 4-5 3-1 2-9 5-16 8-13 4-14 2h-18l-21-3-20-6-16-8-11-7-11-9-7-7-6-10-2-6v-9l5-13 7-7 8-4 3-1h11l7 2 10 6 8 8 11 7 4 1v2l18 4h18l9-3 10-7 5-7 1-8-5-8-10-6-12-6-41-16-16-7-4-1v-2l-5-2-10-8-9-11-5-8-5-17-1-7v-12l3-16 5-12 4-8 9-11 8-7 13-8 10-4 18-5z" fill="#010000"/>
<path transform="translate(172,963)" d="m0 0h1696l11 1 7 4 8 9 2 5 1 139 3 12 6 8 6 4 9 3 6 1v56l-14 3-8 6-5 6-2 5-1 6-1 209h-1l-1-31-1-103-1 127-5 12-5 8-5 3h-20l-13-1-2-3v-205l1-48v-119l-1-49v-61l2-5h-1676z" fill="#F5CA5F"/>
<path transform="translate(470,312)" d="m0 0h15l21 3 15 4 18 8 14 8 7 8 4 8 1 10-2 9-5 9-7 6-13 5-7-1-13-4-10-6-10-4-8-2-9-1h-10l-16 3-14 6h-2v2l-6 2v2l-4 1-2 4-7 7h-2l-2 5-6 10-5 13-1 5v29l3 10 9 17 3 5 5 5 5 4 4 4 14 8 12 4 14 2 15-1 13-4 11-7 11-11 12-6h11l10 3 9 7 5 9 3 9-1 7-5 12-11 12-3 3h-2l-1 3-6 4h-2v2h-3v2l-23 10-16 4-18 2-22-1-20-4-17-6-19-10-12-9-12-11-9-10-10-15-8-16-3-7-5-19-3-18v-16l4-23 5-17 5-12 6-11 8-11 11-13 11-10 16-11 16-8 10-4 15-4z" fill="#010000"/>
<path transform="translate(699,371)" d="m0 0h10l16 3 13 5 9 6 11 9 9 12 7 14 4 14 1 6v12l-4 17-4 10-5 7-3 5-10 11-5 4-15 9-17 5-15 1-15-2-16-6-11-7-9-8-7-8-10-19-4-16v-17l4-17 5-11h2l1-5 3-4h2l2-5 5-5h2v-2l4-1 1-3 9-5 10-5 11-3z" fill="#FCDE78"/>
<path transform="translate(859,1138)" d="m0 0h22l13 3 16 8 7 5v2l5 2 8 9 8 13 5 14 1 5v28l-3 10-9 17-4 6-4 4h-2l-2 4-5 4-11 7-12 5-12 3h-20l-15-4-9-4-10-6-10-9-9-11-1-5h-2l-6-15-2-9v-23l4-15 4-9h2l2-6 5-7 8-7 5-5 4-1v-2l5-3 7-3 11-4z" fill="#FCDE78"/>
<path transform="translate(1147,1138)" d="m0 0h22l15 4 17 9 6 5 5 5 8 10 8 16 4 16v20l-3 13-3 5-3 7-5 8-9 11-4 3h-2v2l-12 7-12 5-11 3h-20l-16-4-16-8-10-8-7-8-7-11-5-10-3-11v-29l5-16 3-6h2l2-6 2-3h2l2-5 7-6 5-4h2v-2h3v-2l10-5 12-4z" fill="#FDDF78"/>
<path transform="translate(1164,312)" d="m0 0h10l10 3 8 6 6 8 3 11v211l-5 15-6 7-6 4-11 4-7-1-11-4-9-8-4-8-2-7v-215l4-12 7-8 9-5z" fill="#030202"/>
<path transform="translate(1539,755)" d="m0 0h97l1 144-1 4h-98v-147z" fill="#665D63"/>
<path transform="translate(412,755)" d="m0 0h97l1 147-1 1h-97l-1-1v-146z" fill="#665D63"/>
<path transform="translate(1544,60)" d="m0 0h79l12 1 1 2v74h-97l-1-1v-68l2-7z" fill="#665D64"/>
<path transform="translate(417,60)" d="m0 0h77l14 1 1 1 1 74-1 1h-97l-1-1v-22l1-52z" fill="#665D64"/>
<path transform="translate(173,965)" d="m0 0h1662v1l-62 3h-35l-2-1h-27l-8 1v-1h-27l-11 1h-28l-153-2h-159l-127 1h-92l-48-1h-47l-41 1h-122l-57-1h-292l-92 2h-58l-38-2h-117l-19-1z" fill="#FFF076"/>
<path transform="translate(1876,199)" d="m0 0h6l8 6 5 8 1 3v458l-3 8-7 8-5 3h-10v-3l10-6 7-9 2-5 1-13v-131l-1-55v-96l1-77-1-29v-13l1-22-2-17-2-7-5-2-2-4h-2z" fill="#E4C771"/>
<path transform="translate(152,981)" d="m0 0h1l1 63 1 400 1 5-3-4-2-11v-447z" fill="#CAA960"/>
<path transform="translate(1285,439)" d="m0 0 5 5 8 12 12 17 11 16 16 23 13 19 11 16 12 17 5 5 6 5 8 2v1h-12l-11-7-11-13-15-24v-3l-3-1-7-12-4-5-6-10-1-3-3-3-2-4-1-5-4-2-4-8v-2l-3-1-3-5-6-5-2-3v-3h-2v6l-2 7-1 12-2 57-2 15h-1v-115z" fill="#F0DD71"/>
<path transform="translate(152,214)" d="m0 0h1l1 62v396l2 11-3-4-2-11v-445z" fill="#CBA960"/>
<path transform="translate(550,1198)" d="m0 0 6 2 6 7 10 7 2 1v2l6 1 34 14 28 11 15 9 6 9-1 8-6 8-10 7-9 3h-18l-12-3v-1h35l-2-5 8-8 1-2v-8l-7-6-15-9-12-5v-2l-9-2-11-5-14-5-15-9-6-5v-2l-4-2-4-4-2-3z" fill="#F5E272"/>
<path transform="translate(798,195)" d="m0 0 381 2v1l-9 1h-366l-6-2z" fill="#DFB860"/>
<path transform="translate(366,524)" d="m0 0 5 3 9 11 8 8 13 10 18 10 14 6 21 5 6 1 22 1 18-2 11-2-1 2-9 2v2l-5 2-22 1-21-1-12-3-7-2-6-1-13-5-9-4-8-4-13-10v-2l-4-2-2-4h-2v-2h-2l-8-11v-3h-2v-5z" fill="#F0DC71"/>
<path transform="translate(257,196)" d="m0 0h41l244 1-1 2-217 1h-33l-57-1h-67l2-2z" fill="#CDAB60"/>
<path transform="translate(1398,1239)" d="m0 0 5 5 8 12 11 16 14 20 10 15 14 20 9 10 3 3-4 1-5-2-6-4-10-11-12-19-6-11-3-3-6-9-9-14-6-12-1-4-4-4v-2h-2l-1-4z" fill="#F3E072"/>
<path transform="translate(1428,336)" d="m0 0 2 1 1 7 2 52 1 48v29l-1 61-1 14-2 2-1-71z" fill="#D0AE60"/>
<path transform="translate(1518,1103)" d="m0 0 2 2 1 23 2 82 1 20v66l-1 15-2 4h-1l-1-36-1-146z" fill="#C4A460"/>
<path transform="translate(1470,518)" d="m0 0 2 1v2l4 1 7 9 9 10 11 10 14 9 15 8 21 7 16 3v1h-10l-8-2-7 1-15-3-16-7-10-7-10-9-8-7-10-12-4-8z" fill="#F0DD70"/>
<path transform="translate(591,519)" d="m0 0 5 5 8 10 9 10 10 8 15 10 8 4 15 6 15 4 5 1v1h-9l-7-2-4 2-14-4-18-8-9-6-11-9-8-8-7-10-4-7-2-3 1-3z" fill="#F1DE71"/>
<path transform="translate(758,1289)" d="m0 0 5 2 7 9 8 9 11 9 17 11 15 7 19 6-4 1v2h-7l-5-2-2-1-7-1-13-5-11-6-13-11-6-5v-2h-2l-5-8v-2h-2l-3-5v-4h-2z" fill="#F2DE71"/>
<path transform="translate(1048,1293)" d="m0 0 5 2 11 12 12 11 16 10 16 8 20 6-4 1v2h-7l-7-3-7-1-21-9-11-8-9-8v-2l-4-2-7-8-1-9h-2z" fill="#EFDC71"/>
<path transform="translate(530,1301)" d="m0 0 5 3 7 8 12 10 13 8 16 7 17 5 21 3h24l-2 2h-30l-11-2h-13l-15-4-12-5-10-6-7-6-6-4v-2h-2l-6-8z" fill="#EAD66F"/>
<path transform="translate(1896,1221)" d="m0 0h1l-1 219h-1l-1-31-1-104-1-2v-74z" fill="#D1B46A"/>
<path transform="translate(1041,457)" d="m0 0 2 1 5 28-1 3-1-2-1 5-2 8-2 1h-5l-3 5-2 7-3 1-3 4v-7l15-52z" fill="#F7E574"/>
<path transform="translate(1618,477)" d="m0 0h22l-1 6-4 9-4 6-7 9-14 9h-5l-2-3 5-5 8-7 8-8 3-7-4-4-5-3z" fill="#FDEB74"/>
<path transform="translate(1225,336)" d="m0 0h1v220l-2-1-1-51v-111l1-56z" fill="#B59961"/>
<path transform="translate(1182,1142)" d="m0 0 6 2 13 7 6 5 5 5 8 10 8 16 2 8h-2l-1-6-3 1v-2l-5-2-6-9-8-10-2-4h-2v-2h-2v-2h-2l-14-14z" fill="#F3E172"/>
<path transform="translate(726,375)" d="m0 0 9 3 11 6 12 10 9 12 7 14 2 8-2-1-4-11-2-1v2l-6-2-5-7v-2h-2l-4-6-10-10-3-2v-2l-4-2-5-3-4-3z" fill="#F2DF71"/>
<path transform="translate(1285,443)" d="m0 0 2 4 1 5 2 1 1-2 1 7v6l-2 7-1 12-2 57-2 15h-1v-99z" fill="#DCB660"/>
<path transform="translate(1222,430)" d="m0 0 2 3v71l-1 20-1 8-3-4-1-13 1-49 2-30z" fill="#FEED76"/>
<path transform="translate(897,1143)" d="m0 0 6 2 10 6 4 3v2l5 2 8 9 8 13v7l-3 1-8-10-7-8-6-8-11-9-3-3v-4l-3-1z" fill="#F4E172"/>
<path transform="translate(916,458)" d="m0 0h3l7 25v5h-2v10l-2 2-4-3h-8l1-10z" fill="#F0DD71"/>
<path transform="translate(1917,1150)" d="m0 0h10v55l-14 3-8 6-5 6-2 5-2-4 1-6 2-3h2l1-3 7-5 10-4 4-8 1-6v-24l-3-7v-3z" fill="#FBDE75"/>
<path transform="translate(701,195)" d="m0 0 2 1-4 2-15 2-143-1 1-2 72-1h81z" fill="#F1C65F"/>
<path transform="translate(1374,1206)" d="m0 0 4 2-2 1v8l3 1 2 9-4 2v75l-1 15h-2z" fill="#CCAA60"/>
<path transform="translate(1285,439)" d="m0 0 5 5 8 12 12 17 4 7-5-2-1-3-3-1-3-5-6-5-2-3v-3h-3v-5l-4-1-2-9z" fill="#EDD870"/>
<path transform="translate(1547,576)" d="m0 0 6 1 20 2 37 1-2 2-3 1-24 1-19-1-14-4z" fill="#FEEB73"/>
<path transform="translate(1893,1092)" d="m0 0h1l1 10 1 1 1 18 3 12 5 7 2 5-5-2-5-5-4-6-2-13z" fill="#F4D472"/>
<path transform="translate(1369,336)" d="m0 0h1l1 74v42l-2-1-1-15v-37z" fill="#AC9261"/>
<path transform="translate(925,1254)" d="m0 0h2v6l-3 4h-2l-2 4-5 4-11 7h-5l6-7 5-4 12-12z" fill="#FEEB74"/>
<path transform="translate(412,324)" d="m0 0h3v3l-15 9-11 9-10 9-3 4-5-1 5-5 11-12h2v-2h3l2-4h4v-2h3v-2l6-2z" fill="#FEEC75"/>
<path transform="translate(1097,1090)" d="m0 0v3l-9 5-10 7-10 8-9 9-4 1 2-4 4-5h2l2-4 8-8 6-4h3v-2l7-3 7-2z" fill="#FEEA73"/>
<path transform="translate(1136,356)" d="m0 0 3 1v52l-1 5-2-3-1-50z" fill="#FEEF76"/>
<path transform="translate(666,576)" d="m0 0 17 2 10 2h34l-2 2-4 1-13 1-26-1-13-3-3-3z" fill="#FEED75"/>
<path transform="translate(980,430)" d="m0 0 1 2 4-1-1 10-4 11-2 1-5-17 1-4z" fill="#F1DC71"/>
<path transform="translate(1206,1261)" d="m0 0 5 1-2 5-4 3h-2v2l-12 7-6 1v-2l8-7 5-5 7-4z" fill="#FBE873"/>
<path transform="translate(605,1143)" d="m0 0h4v4l-5 5 2 4 1 4 3 1 2 5h-6l-6-4-2-8 4-8z" fill="#F1DD71"/>
<path transform="translate(1376,1209)" d="m0 0h3l7 11 10 14v2l-6-1-3-2-1-3-2-1-1-8-4-1-3-3z" fill="#EEDA70"/>
<path transform="translate(836,462)" d="m0 0h1l1 12h2v7l-3 3v6l-5 3-3 3-1-2 5-16z" fill="#E9D470"/>
<path transform="translate(517,497)" d="m0 0h2l1 4-8 8-10 6h-5l5-6 8-7 5-2v-2z" fill="#FEEB73"/>
<path transform="translate(751,496)" d="m0 0 2 2-3 7-14 8h-5l2-1 2-4 4-4h2v-2z" fill="#FDEB74"/>
<path transform="translate(1917,1150)" d="m0 0h10v38l-2-2-1-24-3-7v-3z" fill="#FEE079"/>
<path transform="translate(1518,1103)" d="m0 0 2 2 1 23v48h-1l-1-37-1-6z" fill="#D6B160"/>
<path transform="translate(1129,1281)" d="m0 0 7 1 4 1h39l-3 2-8 2h-20l-16-4z" fill="#DDB760"/>
<path transform="translate(845,1282)" d="m0 0 7 1h40l-4 2-8 2h-20l-15-4z" fill="#DEB860"/>
<path transform="translate(607,1283)" d="m0 0h39l-2 2-7 2h-18l-12-3z" fill="#DDB760"/>
<path transform="translate(620,336)" d="m0 0 4 2-13 12h-2l-2 4-5 5h-2l2-5h2l3-6h2v-2l8-7z" fill="#FEE973"/>
<path transform="translate(1452,1192)" d="m0 0 5 2 1 1v6l-6 2-4-3-2-1v-3h2v-3z" fill="#FFF076"/>
<path transform="translate(412,324)" d="m0 0h3v3l-15 9-8 6-1-2 3-6h4v-2h3v-2l6-2z" fill="#FEE974"/>
<path transform="translate(782,1106)" d="m0 0h5v2l-11 9-6 7h-3l2-5 8-9 3-3z" fill="#FEEA74"/>
<path transform="translate(1360,428)" d="m0 0 5 1 1 9-2 6 3 3v2l-3-1-2-3-3-16z" fill="#FEEE74"/>
<path transform="translate(777,175)" d="m0 0 3 3 2 6h2l3 5 7 5-1 3-7-6-6-2-3-6z" fill="#FEEE75"/>
<path transform="translate(1097,1090)" d="m0 0v3l-9 5-8 6h-2l-1-3 3-3h2v-2l7-3 7-2z" fill="#FAE673"/>
<path transform="translate(776,429)" d="m0 0h1l2 11v12l-2 10h-1z" fill="#C9A860"/>
<path transform="translate(946,564)" d="m0 0 6 1 2 4h2v2l3 1 1 4-4-1-8-5z" fill="#F1DC6F"/>
<path transform="translate(838,481)" d="m0 0m-4 0 1 2 2 1v6l-5 3-3 3-1-2 4-12z" fill="#F0DA72"/>
<path transform="translate(802,1092)" d="m0 0h4v3l-14 9h-5v-2l6-3 2-3 6-1z" fill="#FEEB74"/>
<path transform="translate(1285,439)" d="m0 0 5 5 4 7h-2l-1 2-4-1-2-9z" fill="#E4CE70"/>
<path transform="translate(638,324)" d="m0 0h6l-1 3-14 8-3-1 4-4h2l1-2 4-2z" fill="#FCE773"/>
<path transform="translate(1398,1239)" d="m0 0 5 5 6 10-5-2-4-4v-2h-2l-1-4z" fill="#E3CD6D"/>
<path transform="translate(655,1146)" d="m0 0 6 2 8 5-3 1-3-1-3 1-5-4z" fill="#E0C96D"/>
<path transform="translate(1041,457)" d="m0 0 2 1 5 28-1 3-6-26-2 1z" fill="#C4A662"/>
<path transform="translate(1531,321)" d="m0 0 2 1-16 9-4-1v-2l5-3 11-3z" fill="#FEEA72"/>
<path transform="translate(1470,1341)" d="m0 0 9 1 5 1h12l-2 2h-23l-2-3z" fill="#E1C86C"/>
<path transform="translate(1495,342)" d="m0 0 2 4-7 6-5 1 2-5 4-3h3z" fill="#FEEA75"/>
<path transform="translate(1511,330)" d="m0 0 1 4-9 7h-5l1-3 6-3z" fill="#FEEB74"/>
<path transform="translate(1925,1150)" d="m0 0h2v38h-1l-1-35-2-2z" fill="#FEEF76"/>
<path transform="translate(1457,1210)" d="m0 0 3 1v10h-2l-3-4-1-5z" fill="#F4DB6D"/>
<path transform="translate(1547,504)" d="m0 0 5 1 2 5h-2v2l-6-2-1-2z" fill="#F0DD72"/>
<path transform="translate(1697,496)" d="m0 0 1 4-2 10-4 4-1-2z" fill="#E0CA6E"/>
<path transform="translate(398,332)" d="m0 0h2l1 3-7 6-3 1 1-6 2-1 4-1z" fill="#FAE573"/>
<path transform="translate(1588,467)" d="m0 0 5 2 3 3 6 1 1 4-6-1-9-7z" fill="#FEEB76"/>
<path transform="translate(1688,522)" d="m0 0 1 3-2 3h-2l-4 8-3-1 7-10z" fill="#FEEB74"/>
<path transform="translate(1238,577)" d="m0 0 10 2 3 3-3 1-3-2-2 1-5-2z" fill="#FEEB75"/>
<path transform="translate(763,482)" d="m0 0h2l1 4-2 4h-2v-2l-3-1 2-4z" fill="#FAE574"/>
<path transform="translate(776,167)" d="m0 0h2l4 12 2 5h-2l-7-15z" fill="#D2B565"/>
<path transform="translate(1692,513)" d="m0 0 1 4-3 5-5 3 5-10z" fill="#F4E172"/>
<path transform="translate(656,501)" d="m0 0h6l3 2-1 3-6-1z" fill="#FEED74"/>
<path transform="translate(1588,462)" d="m0 0 5 5 8 5v2l-6-2-5-4-2-3z" fill="#D1AE60"/>
<path transform="translate(1154,575)" d="m0 0 12 4v1l-9 1-3-4z" fill="#D4BD6B"/>
<path transform="translate(1079,576)" d="m0 0 15 2-2 2h-9v-2h-4z" fill="#C2A869"/>
<path transform="translate(367,362)" d="m0 0h2l-1 6-3 3h-2l2-6z" fill="#FEEB73"/>
<path transform="translate(618,339)" d="m0 0 3 1-5 5-5 4 1-4z" fill="#FEE470"/>
<path transform="translate(567,1093)" d="m0 0 3 1v2l-6 4h-3v-2z" fill="#FEE972"/>
<path transform="translate(1635,483)" d="m0 0 3 1-2 7-2 1-1-6z" fill="#F8D872"/>
<path transform="translate(1518,1326)" d="m0 0 2 1-4 6-5 3 2-5z" fill="#FEED74"/>
<path transform="translate(675,1089)" d="m0 0h6l6 3 1 3-6-2-7-3z" fill="#E1C86B"/>
</svg>
