<?xml version="1.0" encoding="UTF-8"?>
<svg version="1.1" viewBox="0 0 2048 2048" width="1280" height="1280" xmlns="http://www.w3.org/2000/svg">
<path transform="translate(372,32)" d="m0 0h1310l22 2 21 5 16 6 21 11 14 10 11 10 8 7 9 11 8 11 9 16 5 10 7 20 4 19 1 8 1 25v1707l-1 22-4 17-7 16-9 14-11 12-12 9-15 8-15 5-9 2-11 1h-10l-19-3-16-6-40-20-19-10-24-12-19-10-28-14-19-10-20-10-19-10-28-14-19-10-22-11-19-10-186-95-39-20-20-10-19-10-28-14-19-10-20-10-19-10-23-11-14-4h-20l-11 3-12 5-47 24-20 10-36 19-40 20-19 10-28 14-19 10-30 15-19 10-20 10-19 10-94 48-20 10-19 10-24 12-19 10-30 15-19 10-47 24-15 8-58 29-15 5-9 2-11 1h-9l-16-2-18-6-16-9-13-11-11-12-9-16-5-12-3-13-1-8v-1280l6-12 7-7 8-4 9-2 1-9v-34l-7-2-12-6-8-9-4-11v-30l4-11 8-9 9-5 9-2 1-13v-30l-13-4-8-6-6-7-4-11v-242l3-20 5-19 10-23 11-18 11-14 16-16 16-12 15-9 15-7 15-5 18-4z" fill="#DF3D82"/>
<path transform="translate(372,32)" d="m0 0h1310l22 2 21 5 16 6 21 11 14 10 11 10 8 7 9 11 8 11 9 16 5 10 7 20 4 19 1 8 1 25v1707l-1 22-4 17-7 16-9 14-11 12-12 9-15 8-15 5-9 2-11 1h-10l-19-3-16-6-40-20-19-10-24-12-19-10-28-14-19-10-20-10-19-10-28-14-19-10-22-11-19-10-186-95-39-20-20-10-19-10-28-14-19-10-20-10-19-10-23-11-14-4h-20l-11 3-12 5-47 24-20 10-36 19-40 20-19 10-28 14-19 10-30 15-19 10-20 10-19 10-94 48-20 10-19 10-24 12-19 10-30 15-19 10-47 24-15 8-58 29-15 5-9 2-11 1h-9l-16-2-18-6-16-9-13-11-11-12-9-16-5-12-3-13-1-8v-1280l6-12 7-7 8-4 12-3 12 4 10 7 4 6 3 2 3 10 1 921 1 1 58 1h30l7 1 2-1 18 1h43l34-1h11l17-2 1 1 3-1 5-1 29-1 11-1 4-1 3 1 4-2 23-2 2-1 4 1v-2h11l1-1 9-1 4 1 1-3h9l2-1 7 1 1-2h6l2-2h6l3-1h6l7-2 2-1v2l9-3 6-1h3l6-2h2 5v-2l12-2 7-1 7-3 6-1 4 1 1-2 2 1v-2h6l3-2h4 3v-2l5 1v-2l16-2v-2l11-1 1-2 8-1v-2l5-1h3l6-1v-2h5l9-3 4-2 3-1h7v-2l9-2 6-2 2 1v-2l4-1 2 1 1-2 17-6 4-1 2-2 2 1v-2l10-2 7-3 8-1v-2h4l1-3 2 1 13-5 12-5 4-2h4v-2l12-4 17-8h3v-2l4-1 10-5 7-3 19-9 16-8 14-8 14-7 10-6 9-5 29-17 8-5 18-12 7-4 9-6 7-6 4-2h3v-2h2v-2l4-4h4v-2l7-4 1-2 4-2v-2l8-3 2-3h2v-2l5-4 6-3 8-7 1-2h3v-2l8-4 5-6 6-5h2l2-4 5-1 6-7 3-3h3l1-4 6-2 2-4 4-2v-2l3-2 2-2h3l1-3 6-5h2v-2l7-6h2l2-4h2l2-4h2l2-4h2l2-4h2l2-4 6-5 6-7h2v-2h2v-2h2v-2h2v-2h2v-2h2v-2h2l2-4 3-4h2v-2l4-4h2l2-4h2l1-4h3l1-4 2-2 7-8 5-5 3-5h2v-2h2v-2h2l2-5 2-3h2l3-6h2l2-4 5-6h2l2-5 5-7h2l2-4 3-4h2l2-5 3-5h2l3-6h2l1-4h2l2-5 5-7h2l1-4 5-8h2l2-4 7-11 10-15 2-4h2l2-5 8-13 7-10 6-12 6-8 6-12 5-8 12-20 7-14 6-10 8-16 10-21 2-4 3-7h2l2-9h2l3-10 1-3h2l1-5 1-4h2l1-5 3-6 3-8 4-8 1-5h2l1-7 4-7 6-16 6-14 6-18 3-5 2-5 2-6v-2h2l-1-3 5-12 4-10 3-9 1-5 6-16v-4l2-2 3-10 1-4 3-7v-3l2-4v-2h2l-1-3 4-13 2-8 3-7-1-2h2l-1-4 2-2 2-10 3-9 2-9 4-9-2-1 2-2 2-6 1-8 2-6 4-17 2-9 3-12 1-8 3-8 2-11 2-10v-3h2l-1-4 3-8v-6h2v-7l2-6 2-16 1-3 1-12 2-4 1-7 1-5 1-12 2-9v-5l1-5 2-12h2l-1-6 1-9 1-3-1-6 2-4 2-23h2v-12l1-10 1-7v-7l2-5 1-10v-12l1-2v-6l1-5 2-8v-6l1-5 2-17-1-6 2-8v-8l-1-4 1-5-6-8-9-9-15-10-14-7-13-4-14-2-1281-1-35 1-16 3-13 5-17 9-13 11-9 10-9 15-6 14-3 12-1 9-1 237-3 10-6 8-9 6-9 4-6 1-13-4-8-6-6-7-4-11v-242l3-20 5-19 10-23 11-18 11-14 16-16 16-12 15-9 15-7 15-5 18-4z" fill="#CA287F"/>
<path transform="translate(372,32)" d="m0 0h1310l22 2 21 5 16 6 21 11 14 10 11 10 8 7 9 11 8 11 9 16 5 10 7 20 4 19 1 8 1 25v1707l-1 22-4 17-7 16-9 14-11 12-12 9-15 8-15 5-9 2-11 1h-10l-19-3-16-6-40-20-19-10-24-12-19-10-28-14-19-10-20-10-19-10-28-14-19-10-22-11-19-10-186-95-39-20-20-10-19-10-28-14-19-10-20-10-19-10-23-11-14-4h-20l-11 3-12 5-47 24-20 10-36 19-40 20-19 10-28 14-19 10-30 15-19 10-20 10-19 10-94 48-20 10-19 10-24 12-19 10-30 15-19 10-47 24-15 8-58 29-15 5-9 2-11 1h-9l-16-2-18-6-16-9-13-11-11-12-9-16-5-12-3-13-1-8v-1280l6-12 7-7 8-4 12-3 12 4 10 7 6 9 3 10v897l1 374 2 9 4 8 9 8 13 5 10-1 12-5 46-23 19-10 28-14 19-10 15-8 52-26 19-10 20-10 19-10 28-14 19-10 20-10 19-10 34-17 19-10 22-11 19-10 20-10 19-10 20-10 19-10 28-14 19-10 28-14 19-10 20-10 19-10 20-9 19-6 21-3h19l21 4 21 7 35 17 19 10 47 24 27 14 40 20 19 10 45 23 39 20 15 8 54 27 19 10 24 12 19 10 17 9 46 23 19 10 28 14 19 10 24 12 19 10 41 21 29 15 13 5h8l12-5 9-7 6-9 2-10v-1420l-1-311-3-21-5-15-8-15-8-10-9-9-15-10-14-7-13-4-14-2-1281-1-35 1-16 3-13 5-17 9-13 11-9 10-9 15-6 14-3 12-1 9-1 237-3 10-6 8-9 6-9 4-6 1-13-4-8-6-6-7-4-11v-242l3-20 5-19 10-23 11-18 11-14 16-16 16-12 15-9 15-7 15-5 18-4z" fill="#0A0389"/>
<path transform="translate(835,546)" d="m0 0h18l22 2 22 4 21 6 23 10 17 9 16 11 10 8 10 9 13 10 7 3 5 1h8l11-4 10-8 10-9 17-13 11-7 14-8 19-9 21-7 22-5 14-2 15-1h18l22 2 22 4 21 6 23 10 17 9 16 11 9 7 14 12 11 11 11 14 9 12 11 19 9 19 8 24 4 18 3 20 1 14v16l-2 23-5 25-8 24-8 18-6 11-10 16-10 13-10 11-7 8-323 323-5 4-3 3-4-2-330-330-7-8-10-11-11-15-10-17-10-21-9-27-5-24-2-20v-27l3-24 6-25 7-20 11-23 12-19 10-13 10-11 7-8 12-11 20-15 19-11 16-8 22-8 26-6 14-2z" fill="#FDFDFD"/>
<path transform="translate(831,481)" d="m0 0h25l22 2 24 4 23 6 24 8 24 11 23 13 16 11 9 7 5-2 18-13 18-11 19-10 25-10 28-8 26-5 28-3h27l26 3 25 5 19 5 20 7 20 9 19 10 17 11 12 9 10 8 12 11 9 8 7 8 9 10 14 19 12 19 12 23 10 25 6 19 5 21 3 17 2 21v37l-3 24-6 28-8 26-9 21-8 16-12 20-10 14-18 22-347 347-5 6-7 6-5 5-9 7-12 4-10-1-9-4-8-6-366-366-11-14-9-12-9-14-8-14-8-16-8-18-9-27-6-27-4-33v-28l4-33 5-24 8-26 8-20 8-17 10-17 11-16 11-14 10-11 7-8 11-11 11-9 12-10 18-12 15-9 27-13 30-10 26-6 27-4zm4 65-23 2-20 4-21 6-19 8-16 8-17 11-13 10-20 18-9 10-13 17-13 21-10 21-9 27-5 24-2 18v27l3 26 6 25 7 20 12 25 10 16 11 14 12 13 11 12 324 324 4-1 4-5 8-7 323-323 9-11 6-7 10-14 11-19 7-15 9-25 5-22 2-16 1-14v-16l-2-23-5-25-6-20-9-21-9-17-10-15-11-14-12-13-14-13-13-10-15-10-23-12-23-9-24-6-21-3-14-1h-18l-23 2-20 4-21 6-19 8-19 10-14 9-13 10-10 9-14 11-11 4h-8l-10-3-9-6-13-12-17-13-16-10-19-10-23-9-24-6-21-3-14-1z" fill="#0C0389"/>
<path transform="translate(248,493)" d="m0 0 13 4 8 6 5 5 5 12 2 13-1 18-5 12-6 7-16 8-6 1-7-2-12-6-8-9-4-11v-30l4-11 8-9 9-5z" fill="#0A0389"/>
<path transform="translate(1430,931)" d="m0 0 1 2-8 11-4 5-9 11-6 7-7 6-5 6-7 6-5 6-6 5-6 7-7 6-5 6-7 6-5 6-7 6-5 6-7 6-5 6-7 6-5 6-7 6-5 6-7 6-5 6-7 6-5 6-7 6-5 6-7 6-5 6-7 6-5 6-7 6-5 6-7 6-5 6-7 6-5 6-7 6-5 6-7 6-5 6-7 6-5 6-7 6-5 6-7 6-5 6-7 6-5 6-7 6-5 6-7 6-5 6-7 6-5 6-8 7-11 11-5 6-7 6-5 6h-3l-2 4h-2l-2 4h-2v2l-10 6-6 2h-12l-10-4 3-1 9 3 10-1 9-4 8-6 4-2 2-4h2l2-4h2l2-4h2l2-4 346-346 9-11 8-10z" fill="#CA287F"/>
<path transform="translate(313,120)" d="m0 0 2 1-8 8-1 2h-2l-4 8h-2v4h-2l-3 9-6 11-3 10-1 7-1 49v158l-1 37-4 10-1-2 3-10 1-237 2-14 4-12 8-16 7-10 9-10z" fill="#CA287F"/>
<path transform="translate(765,1720)" d="m0 0 4 1-22 12-32 16-19 10-34 17-6 2 2-3 16-8 19-10 48-24 3-2 5-2 4-2 4-1v-2l7-3z" fill="#E03E83"/>
<path transform="translate(921,1641)" d="m0 0 4 1-28 14-19 10-36 18-11 6-3-1 10-6 16-8 19-10 32-16z" fill="#E03E83"/>
<path transform="translate(571,1819)" d="m0 0 3 2-15 8-16 8-45 23-17 9-5 1 3-3 15-8 16-8 19-10 32-16 3-2 5-2z" fill="#E03E83"/>
</svg>
