<?xml version="1.0" encoding="UTF-8"?>
<svg version="1.1" viewBox="0 0 2048 2048" width="1280" height="1280" xmlns="http://www.w3.org/2000/svg">
<path transform="translate(116,93)" d="m0 0h616l20 2 15 4 16 8 15 9 13 11 5 4v2l4 2 16 16v2l4 2v2l4 2v2l4 2v2l4 2v2l4 2v2l4 2v2l4 2 6 7 6 5 6 7 6 5 6 7 6 5 6 7 6 5 6 7 6 5 6 7 6 5 6 7 6 5 6 7 6 5 6 7 6 5 6 7 6 5 5 6 7 6 6 7 6 5 8 8v2h2v2h2l3 3 2 1 907 1 18 2 18 5 17 8 12 8 10 8 13 13 9 13 6 10 6 15 6 21 1 5v1399l-7 26-7 16-7 12-10 13-13 13-16 11-16 8-16 5-15 3-10 1h-1820l-14-2-18-5-19-9-11-8-12-11-11-11-10-15-8-17-5-15-3-12v-1655l8-24 8-17 10-14 11-13 13-11 15-9 11-5 15-5 16-3z" fill="#96E5A8"/>
<path transform="translate(125,464)" d="m0 0h1797l2 3v119l-1 1h-558l-62 1-14 3-14 5-17 9-14 10-10 9-12 11-13 13-5 6-7 6-5 6-8 7-131 131-5 6h-2v2h-2l-2 4-11 11-6 5-10 2-84 1h-760l-47-1-1-1v-367z" fill="#FDFDFD"/>
<path transform="translate(1822,340)" d="m0 0h110l18 2 18 5 17 8 12 8 10 8 13 13 9 13 6 10 6 15 6 21 1 5v234l-3-3-8-19-5-10-8-12-9-11-8-7v-2l-5-2-9-7-16-9-10-4-20-6-20-3-1-1-1-120-2-4-1-14-3-17-3-11-4-9-8-16-10-13-4-5-3-2v-2l-4-2-12-9-13-8-14-5-25-5-2-3z" fill="#71DF90"/>
</svg>
