<?xml version="1.0" encoding="UTF-8"?>
<svg version="1.1" viewBox="0 0 2048 2048" width="1280" height="1280" xmlns="http://www.w3.org/2000/svg">
<path transform="translate(143,90)" d="m0 0h596l21 2 21 5 15 6 21 11 14 11 16 15 188 188 2 1 866 1 20 2 15 3 15 5 16 8 13 7 9 7 12 11 8 8 12 16 8 14 8 16 7 25 2 14v1355l-5 24-5 17-9 19-8 13-9 11-9 10-10 9-14 10-18 10-14 6-19 5-15 2-17 1h-1746l-27-2-23-6-12-5-18-10-12-9-11-9-10-10-11-14-10-17-7-16-7-25-2-12v-1602l6-25 4-12 8-16 8-13 13-16 3-4h2l2-4 8-7 10-8 22-12 14-6 18-5z" fill="#98E49A"/>
<path transform="translate(143,90)" d="m0 0h596l21 2 21 5 15 6 21 11 14 11 16 15 188 188 2 1 866 1 20 2 15 3 15 5 16 8 13 7 9 7 12 11 8 8 12 16 8 14 8 16 7 25 2 14v1355l-5 24-5 17-9 19-8 13-9 11-9 10-10 9-14 10-18 10-14 6-19 5-15 2-17 1h-1746l-27-2-23-6-12-5-18-10-12-9-11-9-10-10-11-14-10-17-7-16-7-25-2-12v-1602l6-25 4-12 8-16 8-13 13-16 3-4h2l2-4 8-7 10-8 22-12 14-6 18-5zm1172 540-16 1-14 3-17 8-12 9-10 9-200 200-11 7-7 2-881 1-14 1-15 4-17 9-14 11-9 10-10 16-6 17-1 3-1 11v858l2 18 4 14 7 14 11 14 8 8 13 9 15 7 12 3 10 1h1763l14-2 15-5 13-7 10-8 10-10 9-13 7-15 4-16 1-9v-1090l-1-16-4-16-5-13-9-14-9-10-10-8-10-6-14-6-10-3-8-1z" fill="#010000"/>
<path transform="translate(620,149)" d="m0 0h107l24 2 16 5 16 8 12 9 13 12 167 167 5 6 19 19 12 9 5 2 7 1 880 1 14 2 16 5 15 8 13 10 9 10 8 14 5 11 4 17 1 23v108h-3l-18-11-15-7-22-6-2-2-1-94-2-9-6-9-7-6-7-3-58-1-148-1h-356l-1189 1-11 1-9 4-5 4-5 7-3 9-1 337-2 2-16 4-13 5-17 9-10 7h-2v-607l2-13 4-13 9-17 9-11 10-9 13-8 10-5 17-5 8-1z" fill="#86D86E"/>
<path transform="translate(180,510)" d="m0 0h1687l1 1v57l-1 1-572 1h-840l-71 1-9 4-7 6-5 9-1 4v13l6 12 9 7 7 2 14 1h794l-6 7-174 174h-831l-1-1-1-16v-160l2-4h88l12-2 9-6 5-6 4-11v-9l-4-10-6-8-6-4-7-2-96-1z" fill="#FBFCFB"/>
<path transform="translate(1863,630)" d="m0 0h45l11 2 15 5 13 7 9 7 10 9 9 13 6 12 5 16 1 6 1 16v1090l-2 14-5 16-7 13-9 12-11 11-14 9-11 5-14 4-10 1h-108l-4-2 68-1 4-1 1-5 8-10 10-17 5-11 3-9 3-22 1-21v-965l1-97 1-106h-35z" fill="#86D86E"/>
<path transform="translate(180,510)" d="m0 0h1687l1 1v57l-1 1-572 1h-840l-71 1-9 4-7 6-5 9-2 16h-1v-6h-60l-3-11-5-9-9-7-7-2-96-1z" fill="#78D6ED"/>
<path transform="translate(1024,390)" d="m0 0h879l14 2 16 5 15 8 13 10 9 10 8 14 5 11 4 17 1 23v108h-3l-18-11-15-7-22-6-2-2-1-94-2-9-6-9-7-6-7-3-58-1v-1l48-1-5-13-10-17-11-16-7-7-1-4h-837z" fill="#57B37A"/>
<path transform="translate(1781,510)" d="m0 0h86l1 1v57l-1 1h-487v-1l417-1-14-1-4-5-1-26 1-24z" fill="#57B37B"/>
<path transform="translate(1857,511)" d="m0 0h10v20l-3-3-3-11 1-4-5-1z" fill="#78D6EE"/>
<path transform="translate(109,160)" d="m0 0 2 1-11 7-14 11-9 11v-3l7-9 10-9 13-8z" fill="#83D48E"/>
<path transform="translate(1945,405)" d="m0 0 4 1 11 8 9 10-1 3-4-5v-2h-2l-5-5-7-5v-2l-5-2z" fill="#78CC7B"/>
<path transform="translate(1968,586)" d="m0 0 6 2 8 5-3 1-11-7z" fill="#77CC72"/>
<path transform="translate(1866,560)" d="m0 0h1v8h-6v-3l5-2z" fill="#79D7F0"/>
</svg>
