<?xml version="1.0" encoding="UTF-8"?>
<svg version="1.1" viewBox="0 0 2048 2048" width="1280" height="1280" xmlns="http://www.w3.org/2000/svg">
<path transform="translate(116,93)" d="m0 0h616l20 2 15 4 16 8 15 9 13 11 5 4v2l4 2 16 16v2l4 2v2l4 2v2l4 2v2l4 2v2l4 2v2l4 2v2l4 2 6 7 6 5 6 7 6 5 6 7 6 5 6 7 6 5 6 7 6 5 6 7 6 5 6 7 6 5 6 7 6 5 6 7 6 5 6 7 6 5 5 6 7 6 6 7 6 5 8 8v2h2v2h2l3 3 2 1 907 1 18 2 18 5 17 8 12 8 10 8 13 13 9 13 6 10 6 15 6 21 1 5v1399l-7 26-7 16-7 12-10 13-13 13-16 11-16 8-16 5-15 3-10 1h-1820l-14-2-18-5-19-9-11-8-12-11-11-11-10-15-8-17-5-15-3-12v-1655l8-24 8-17 10-14 11-13 13-11 15-9 11-5 15-5 16-3z" fill="#97E5AA"/>
<path transform="translate(836,462)" d="m0 0 1064 1 22 1 2 2v72l-1 40-1 7-2 2-48 1h-528l-38 1-22 5-15 6-14 8-12 9-3 1v2l-8 7-10 9-189 189-8 6-4 2-6 1-17 1h-791l-50-1-29-1-3-1-1-7-1-39v-318l2-4 12-1z" fill="#E6D57C"/>
</svg>
