<?xml version="1.0" encoding="UTF-8"?>
<svg version="1.1" viewBox="0 0 1024 1024" width="1280" height="1280" xmlns="http://www.w3.org/2000/svg">
<path transform="translate(72,46)" d="m0 0h285l17 1 14 4 11 7 13 11 80 80v2l4 2 4 4v2l4 2v2l4 2 5 4h399l58 1 16 4 11 6 12 11 7 10 5 10 3 10v706l-6 16-7 11-5 6-10 8-13 6-13 3-53 1-864-1-16-4-10-6-10-8-9-12-5-11-3-8v-833l8-18 7-10 8-8 14-8 13-4z" fill="#96E5AA"/>
<path transform="translate(72,46)" d="m0 0h285l17 1 14 4 11 7 13 11 80 80v2l4 2 4 4v2l4 2v2l4 2 5 4h399l58 1 16 4 11 6 12 11 7 10 5 10 3 10v706l-6 16-7 11-5 6-10 8-13 6-13 3h-62l1-2 16-2 4-3 7-3 5-5 8-9 7-12 4-18 2-31v-54l-1-50v-414l1-45v-32l1-2-10 1h-164l-131-1 1-2h241l1-60h-576l-263-1v59l-1 114-1 12-12 2-11 4-11 6-3 3h-2v2h-2l-2 4-9 11-5 9-3 3v-366l8-18 7-10 8-8 14-8 13-4z" fill="#6ED98A"/>
<path transform="translate(61,292)" d="m0 0h53l526 1 3 1v2l-13 7-13 10-12 12h-2l-2 4-50 50-6 5-2 3h-2l-2 4-20 20h-2v2l-5 3-4 1-48 1h-393l-6-2z" fill="#FEFEFE"/>
<path transform="translate(62,232)" d="m0 0h839l1 1-1 60-1 1h-241l-12 1-4 1v-2l-529-1-53-1v-58z" fill="#A0EAFE"/>
<path transform="translate(962,293)" d="m0 0 17 3 10 3 10 6 8 6 10 13 7 11v592l-6 16-7 11-5 6-10 8-13 6-13 3h-62l1-2 16-2 4-3 7-3 5-5 8-9 7-12 4-18 2-31v-54l-1-50v-414l1-45z" fill="#6ED98A"/>
<path transform="translate(917,170)" d="m0 0h53l16 4 11 6 12 11 7 10 5 10 3 10v114l-4-4-7-11-6-7v-2l-4-2-10-7-10-4-13-3-7-1-1-5-1-61-3-17-6-11-7-9v-2h-2l-5-5-5-4-10-5-5-3z" fill="#5EB679"/>
<path transform="translate(63,230)" d="m0 0h898l1 1 1 62-1 2-9 1h-164l-131-1 1-2h241l1-60h-576l-263-1-1 5-1-4z" fill="#5FD5B8"/>
</svg>
