<?xml version="1.0" encoding="UTF-8"?>
<svg version="1.1" viewBox="0 0 1600 1600" width="1280" height="1280" xmlns="http://www.w3.org/2000/svg">
<path transform="translate(663,394)" d="m0 0h59l25 2 35 5 37 8 43 11 8 1 122 1 29 3 29 4 34 7 33 9 29 10 21 9 32 16 18 11 17 12 14 11 15 13 7 7 7 8 11 13 10 14 13 22 8 17 8 21 5 18 8 40 1 19 3 26 5 27 3 35v11l-2 25-4 24-6 21-7 19-7 16-1 30-3 26-5 27-7 25-8 22-12 25-9 16-11 16-13 16-14 15-13 13-14 11-14 10-18 11-20 11-33 14-25 8-25 6-23 4-30 3h-57l-30-2-32-4-43-8-10 2-22 5-49 15-46 14-18 5-6 1h-41l-27-3-26-5-36-9-32-11-25-11-34-17-27-16-16-11-19-14-16-13-15-13-35-35-9-11-12-14-12-17-13-20-13-24-12-25-11-28-11-30-10-34-7-30-6-45-2-25v-28l2-28 5-33 7-27 11-31 12-25 10-17 10-15 13-17 13-16 9-10 23-23 11-9 12-10 20-15 24-16 17-10 29-15 30-13 25-9 31-9 32-7 30-5 26-3z" fill="#FB9324"/>
<path transform="translate(663,394)" d="m0 0h59l25 2 35 5 37 8 43 11 8 1v78h-8l-7-2-14-2-8-2-10-2-19-3-1-1-14-2-7-2-28-5-16-3-17-2h-21l-39 2v2l-13 4-13 3-13 5-6 2v3l-10 5-16 9-15 11-14 12-9 9-8 7-18 18-7 8-16 17-9 11-6 8-3 3-4 6-11 14-4 4-10 15-2 7-6 10-2 5-4 8-2 8v16l4 21 4 15 12 31 10 24 10 23 13 29 12 27 13 27 10 19 12 23 24 40 15 23 11 16 11 14 9 10 7 8 12 13 16 16 8 7 10 9 10 8 18 14 27 18 15 9 18 10 28 14 11 5 26 10 33 11 10 3v3h-3v2l-22 5-49 15-46 14-18 5-6 1h-41l-27-3-26-5-36-9-32-11-25-11-34-17-27-16-16-11-19-14-16-13-15-13-35-35-9-11-12-14-12-17-13-20-13-24-12-25-11-28-11-30-10-34-7-30-6-45-2-25v-28l2-28 5-33 7-27 11-31 12-25 10-17 10-15 13-17 13-16 9-10 23-23 11-9 12-10 20-15 24-16 17-10 29-15 30-13 25-9 31-9 32-7 30-5 26-3z" fill="#25EEF7"/>
<path transform="translate(618,545)" d="m0 0h5l-3 5 3 1h2l3-1 8 2 6-2 13-1 14 1 7 2 10 4 9 5 10 7 12 5 10 5 1 3h10l5-2 2 2 9-1 19 6 17 6 26 11 29 15 17 9 20 12 4 4 7 4 16 11 7 6 8 7 10 8 9 10 14 14 11 15 11 17 12 23 11 33 7 30 5 35 2 26 1 10-2 5-2 15-6 25-7 18-10 8-7 7-13 10-15 10-23 11-15 6-14 4-17 4h-5l-6 3h-46l-20-3-19-5-24-10-16-10-16-13-9-9-7-6-11-14-7-10-10-17-9-20-7-21-5-26-1-8-4-2-12-13-9-11-8-10-8-11-4-7-10-15-12-20-10-18-15-30-9-20-10-26-6-17-8-25-4-15-1-8h-4l1-5 3-7 13-13 10-7 10-6 13-5 11-5 5-1 6-1h6l5-1z" fill="#82115D"/>
<path transform="translate(909,507)" d="m0 0h13l52 3 39 4 38 6 33 7 27 7 22 7 24 8 24 10 25 12 24 13 19 13 9 7 8 7 10 9 19 19 6 8 8 10 11 17 10 19 2 5v3h2l6 19 3 5 6 34 3 35v11l-2 25-4 24-6 21-7 19-7 16-1 30-3 26-5 27-7 25-8 22-12 25-9 16-11 16-13 16-14 15-13 13-14 11-14 10-18 11-20 11-33 14-25 8-25 6-23 4-30 3h-57l-30-2-32-4-43-8-10 1 3-3-26-8-28-10-20-8-42-21-22-13-27-18-17-13-17-14-8-7-10-9v-2l8 1 7 2 5 4 5 2 6 4v2h6l4 4-3-6-7-2-4-5 3-1-1-7-2-1h2l-1-4 1-2-5 1-2 1v-7l-4 1 1-3h2v-2l5 2 1 5 2 1v-4-3h2v-2h-7l-1-2 1-4 8 1 2-3-2-1 4-3 3 1 2 3 3-2 1-7 3-2-2-6-3-4-1-9-3-7-3-2-2-2v-3h-2l-2-3v-5l-3-1-1-6h-2v-3l-3-1-2-2v-3h-2l-5-9-13-19-7-14-8-15-4-10-18-35-11-24-12-27-5-11 1-3-3-7-4-16-2-4-2-7-5-8-1-5h-2l-3-7-7-12-4-8-3-1-7-16-5-10v-3h-2l-7-16-2-7-4-9-3-11-1-7-2-3v-27l2-10 8-19 8-14 9-11 11-12 9-7 9-6 21-11 14-5 14-3 1-1 19-3h23l23 5v2h7l25 5 18 4 13 2 12 3 10 3 11 2 7 2 16 3 13 3 2 3h-2l1 8 2 1 1 2-1 4 7 2 8 6v2l5 1v2h2v2h2l5 8v3h2l4 6 5 3 2 1v2l6 2 11 7 5 4 4 4-5-2-17-10-27-14-19-10-19-8-14-5-10-4-17-5-10 1-5-2-1 2-2-1-1 2v-2h-7l-4-4-16-7-8-4-8-6-10-5-6-2-7-2-16-1-13 1-6 2-7-2-4 2-3-3 1-4-3-1-1 3-11 1-6 1-5 1-11 5-13 5-13 8-10 8-10 10-3 9 3 2 6 23 9 28 6 16 7 19 8 18 7 16 10 18 8 16 13 22 14 21 7 11 13 16 11 13 9 10 2 1v-8h1l2 23 5 23 8 22 9 19 12 19 11 14 7 8 8 7 10 9 12 9 13 8 19 8 15 5 13 3 16 2h46l6-3 9-1 18-4 19-7 20-9 16-9 13-10 10-8 7-7 5-3-1 5h-2l-1 7-6 12-9 15-5 10-9 14-8 11-8 10-8 9-7 8-15 15-11 9-15 12-5 2v2h-3l-1 3-7 4h-3v2l-9 5-7 1v2l-12 6h-9l-18-5-22-9-15-8-11-6-11-7-6-4v-2l-5-2-14-9 3 5 16 13 12 8v2l4 2 15 10 16 10 24 13 7 3 24 10 27 9 30 7 27 4 24 2h14l29-2 25-4 24-6 13-4 12-5 10-4 16-8 17-9 10-7 14-11 12-11 11-11 11-14 7-10 5-7 5-10h2l2-6 5-11 4-12 3-6 5-18 2-6 2-10 2-8 2-20 1-5v-48l-2-19v-12l4 5 2 3h16l23 3 7 1 10 1 9 2 11 1 9 3 3 2-1-14-6-25-7-22-8-22-12-25-12-22-13-20-4-6-8-11-9-12-11-14-30-32-15-14-10-9-14-11-11-9-16-11v-2l-4-1-19-12-5-2v-2l-5-2-5-3v-2l-5-1-22-12-29-14-12-5-27-11-36-12-35-10-21-5z" fill="#F84F1D"/>
<path transform="translate(1197,658)" d="m0 0 6 2 7 7 7 8 8 8 7 8 11 14 9 12 8 11 20 32 15 29 7 16 9 26 7 24 3 14v14l-10-3-7-1-13-2-2-1-13-1-19-3-11-1h-13l-5-7v10l2 19v48l-2 11-1 14-3 11-2 11-3 8-3 12-5 12-7 17-3 6h-2l-1 5-7 10-6 9-9 12-12 13-12 12-14 11-11 8-12 7-11 6-18 8-7 3-17 6-17 5-24 5-26 3-17 1h-14l-24-2-27-4-30-7-30-10-23-10-16-8-20-11-15-10-13-9v-2l-5-2-14-11-10-8-3-4 1-2 14 9 5 3v2l5 2 10 7 9 5 26 13 21 8 12 3h9l10-5h2v-2l11-4 5-2v-2l10-5 1-2h3v-2l14-10 13-11 12-11 12-12 5-7h2l2-4 10-12 6-9 10-16 12-22 5-8 4-12 2-1 5-13 5-14 6-25 1-11 2-5-1-10-2-26-5-35 1-9h12l7-3 13-7 3-1v-2l5-5 5-9 7 1 10 9 5 2 5-1 8-11 7-7 8-6 10-9 8-6 11-8 6-5 4-9h7l11 7 3 1-2-5h-2l-4-5-3-2v-2l-3-1v-2h-2l-7-8-6-6v-2l-3-1-2-3 1-5h9l8-3 12-1 5-4 10-2 9-4 7-2 3-3 5-1h7l-2-9h-2l-2-5z" fill="#FEC32B"/>
<path transform="translate(657,475)" d="m0 0h4v2l-13 4-13 3-13 5-6 2v3l-10 5-16 9-15 11-14 12-9 9-8 7-18 18-7 8-16 17-9 11-6 8-3 3-4 6-11 14-4 4-10 15-2 7-6 10-2 5-4 8-2 8v16l4 21 4 15 12 31 10 24 10 23 13 29 12 27 13 27 10 19 12 23 24 40 15 23 11 16 11 14 9 10 7 8 12 13 16 16 8 7 10 9 10 8 18 14 27 18 15 9 18 10 28 14 11 5 26 10 33 11 10 3v3h-3v2l-22 5-49 15-46 14-18 5-6 1h-41l-27-3-26-5-36-9-32-11-25-11-34-17-27-16-16-11-13-10-1-4-7-5 2-1-1-3 10-2 18-8 3-2 11-2 2-5 6-4 2-3 5 1 8 4 22 13 26 12 15 6 29 9 29 7 14 2-1-3-12-6-17-7-19-10-19-12-9-7-9-5-15-12-11-9-20-20v-2h-2l-6-8-9-10-11-16v-2h-2l-13-21-3-6-7-13-11-20-12-31-7-17-3-7-17-51-8-23-3-14-6-22-5-20-7-42-2-9-1-36-4 1-8 15-8 20-5 13-4-1 1-18 2-12 2-21 4-18 6-18 8-18 5-9 11-17 8-12 4-4 3-5h2l2-4 7-8 20-20h2l1-3 14-11 13-10 17-11 24-14 25-12 20-8h2v-2l25-7 16-4 8-3 9-1 1-1 30-6z" fill="#018E9C"/>
<path transform="translate(744,622)" d="m0 0h11l20 3 4 1-3 9-6 10-7 17-5 15-2 7-3 31v22l2 20 2 28v47l-1 5-2 22-2 15 12-6 11-9 19-19 14-16 13-20 9-16 14-29 2-5h3l1-7 3-1 1-4 1-2 5-3 3-3 8-2 3-1h8l9 2 11 7 14 7 9 4v2l9 3 4 2 1 13-7 16-2 6h-2l-3 9-14 27-13 21-12 16-13 16-9 11-13 12-7 6-3 1-1 2 4-2 19-4 4 1-1 3v8l5 10 6 8 7 5v2l5 2 14 9 11 8 9 6 5 4 3 1-1 4-9 8h-2v2l-8 7-15 10-4 4-6 2-1 2-10 4h-46l-20-3-19-5-24-10-16-10-16-13-9-9-7-6-11-14-7-10-10-17-9-20-7-21-5-26v-28l4-30 6-28 2-5 4-16 9-26 7-17 5-12 17-34 11-19 8-13z" fill="#016B78"/>
<path transform="translate(530,504)" d="m0 0 3 1-28 12-25 13-21 13-17 12-14 11-5 4-28 28-4 6h-2l-2 5-3 4h-2l-2 4-10 16-6 9-6 11-8 18-7 23-3 18-2 23-1 3-1 18 3 1 1-6 8-20 8-17 5-7 4 1 1 36 4 20 3 19 4 20 4 16 7 25 2 10 7 20 19 57 4 9 6 14 7 18 4 9 8 15 8 16 3 4 4 8 9 14v2h2l7 11 8 10 9 10 2 5h2l6 7v2l4 2 13 13 14 11 11 8 11 7 8 6 18 11 17 9 26 11 4 3v3h-9l-30-7-27-8-16-6-27-12-23-13-6-4-5-2-5-1-9 9-1 2-13 4-4 3-14 5-6 2-4 1 1 4 3 2 2 4-1 2-16-13-11-9-13-12-31-31-9-11-12-14-12-17-13-20-13-24-12-25-11-28-11-30-10-34-7-30-6-45-2-25v-28l1-3h2l1-3 5 5 2 8h3l5 9 11 5 7 1v2l10 1 2 1 7 1 10 3 4-1 7 2 4-17 3-38 4-24 5-21 6-18 9-20 10-18 10-15 10-13 12-14 9-10 11-10 14-11 11-9 15-10 16-10 18-10 25-12z" fill="#05C4D0"/>
<path transform="translate(633,532)" d="m0 0h23l23 5v2h7l25 5 18 4 13 2 12 3 10 3 11 2 7 2 16 3 13 3 2 3h-2l1 8 2 1 1 2-1 4 7 2 8 6v2l5 1v2h2v2h2l5 8v3h2l4 6 5 3 2 1v2l6 2 11 7 5 4 4 4-5-2-17-10-27-14-19-10-19-8-14-5-10-4-17-5-10 1-5-2-1 2-2-1-1 2v-2h-7l-4-4-16-7-8-4-8-6-10-5-6-2-7-2-16-1-13 1-6 2-7-2-4 2-3-3 1-4-3-1-1 3-11 1-6 1-5 1-11 5-13 5-13 8-10 8-10 10-3 9 3 2 6 23 9 28 6 16 7 19 8 18 7 16 10 18 8 16 13 22 14 21 7 11 13 16 11 13 9 10 2 1v-8h1l2 23 5 23 8 22 9 19 12 19 11 14 7 8 8 7 10 9 12 9 13 8 19 8 15 5 13 3 16 2h46l6-3 9-1 18-4 19-7 20-9 16-9 13-10 10-8 7-7 5-3-1 5h-2l-1 7-6 12-9 15-5 10-9 14-8 11-8 10-8 9-7 8-15 15-11 9-15 12-5 2v2h-3l-1 3-7 4h-3v2l-9 5-7 1v2l-6 3-8 1-7-1-1-2h-3v-2l-10-3-9-2-3 1-6-2-4-3-2-1v-2l-5-1-8-4-3-1v-2l-4 1-2-1v-2l-7-2-9-6v-4l-3 1-6-3v-2l-4-2-16-12v-2l-5-2-6-5v-2l-3-1-6-7-8-8v-2l-3-1v-2l-3-1-7-8-9-10-9-12v-2h-2l-7-11-10-14-11-17-10-16-12-22-17-33-11-24-12-27-5-11 1-3-3-7-4-16-2-4-2-7-5-8-1-5h-2l-3-7-7-12-4-8-3-1-7-16-5-10v-3h-2l-7-16-2-7-4-9-3-11-1-7-2-3v-27l2-10 8-19 8-14 9-11 11-12 9-7 9-6 21-11 14-5 14-3 1-1z" fill="#E9101E"/>
<path transform="translate(1203,823)" d="m0 0 5 1 7 7 5 11 6 19 3 21 1 11v48l-2 11-1 14-3 11-2 11-3 8-3 12-5 12-7 17-3 6h-2l-1 5-7 10-6 9-9 12-12 13-12 12-14 11-11 8-12 7-11 6-18 8-7 3-17 6-17 5-24 5-26 3-17 1h-14l-24-2-27-4-30-7-30-10-23-10-3-2 1-4 14 4 19 5 19 3h24l16-2 23-7 16-8 22-13 5-4 22-14 24-18 14-11 14-12 18-14 5-4 3-5 4-5 5-5 4-2v-7l-12-17v-2h-2v-3h-2v-3h-2v-3h-2v-3l-3-1v-3h-2l-3-5-7-10-8-12-9-12-22-33-3-3-3-6-1-1v-5l4-5v-2h3v2l15 1 5 1 18-7 10-4 12-6 10-8 3-8 4 1 10 15 6 5 10-2 14-9 4-3 14-4 13-6 12-7 6-5h2l2-4z" fill="#FEF348"/>
<path transform="translate(870,422)" d="m0 0h122l29 3 29 4 34 7 33 9 29 10 21 9 32 16 18 11 17 12 14 11 15 13 7 7 7 8 11 13 10 14 13 22 8 17 8 21 5 18 8 40 1 19 1 16-3-2-5-17v-2h-2l-7-16-9-16-11-16-10-12-7-8-19-19-8-7-22-16-13-8-24-13-25-12-20-8-24-8-25-8-42-10-32-6-38-5-35-3-39-2h-15l-19-4-21-4 3-1-1-2v-73z" fill="#FD99CE"/>
<path transform="translate(520,571)" d="m0 0 2 1-2 4-6 4-3 8-3 3h-2l-1 4-13 16-4 5h-2l-1 5-3 1-1 4-5 14-3 10-1 14 5 5 12-2 8-4 10-2v-23h1l1 23 2 3 3 15 4 11 2 2 2 8 5 12v2h2l5 12 5 10 2 7 4 1 8 15 5 8v4h2l9 18 1 5 2 6 3 11 3 9v3l9 20 11 24 8 18 10 19 8 16 6 14 11 20 4 8 8 11 6 9v3h2l3 5 2 1v3h2l2 6 2 1 2 8h2l1 3 5 4 4 10v6l5 8-2 4-3 8-4 2-1-4-5 1-1 5-2 2v-2l-3 1v-2h-4v5l7 1v2h-2l2 5h-2v2l-3-1-1-5-4-2v2l-2 2h3l1 6 3-2 3 1v7l2 7-3 2 4 4 7 2 4 8-4-2-2-3-6-1v-2l-5-2-2-2-7-3-3-3-12-2-4-1-20-20-7-8-9-10-11-14-9-12-12-18-12-19-17-29-8-14-12-22-8-16-14-29-11-25-13-29-14-33-15-38-4-13-4-20-1-6v-16l4-13 3-4 4-10 4-5 2-8 10-14 7-8 8-10 5-8h2l2-4 9-11 11-12 9-10z" fill="#F86C2C"/>
<path transform="translate(657,475)" d="m0 0h4v2l-13 4-13 3-13 5-6 2v3l-10 5-16 9-15 11-14 12-9 9-8 7-18 18-7 8-16 17-9 11-6 8-3 3-4 6-11 14-4 4-10 15-2 7-6 10-2 5-4 8-2 8v16l4 21 4 15 12 31 10 24 10 23 13 29 12 27 13 27 10 19 12 23 24 40 15 23 11 16 11 14 9 10 7 8 12 13 16 16 8 7 10 9 10 8 18 14 3 3h-5l-7-4-14-7-19-3-15-5-15-4-20-8-19-10v-2l-5-2-16-13-2-4h-2l-7-9v-2l-4-2v-2h-2l-4-5v-2l-3-1-8-11-14-21-6-11-2-3v-3h-2l-1-4h-2l-6-12-6-11-16-32-7-17-8-18-4-10-4-8-12-31-4-8-6-17-5-11-6-18-3-7-6-17-8-22-5-22-2-11v-28l3-16 6-16 8-16-1-3-9 8-1-4 4-8 7-11 12-16 10-13 5-5 11-12 7-9 9-7 11-10 7-5h2v-2l10-7h2v-2l7-4h2v-2l15-9 18-10 14-6 4-2 2-3h3v-2l19-5 8-3 9-1 1-1 30-6z" fill="#04333B"/>
<path transform="translate(909,507)" d="m0 0h13l52 3 39 4 38 6 33 7 27 7 22 7 24 8 24 10 25 12 24 13 19 13 9 7 8 7 10 9 19 19 6 8 8 10 11 17 10 19 2 5v3h2l6 19 3 5 6 34 3 35v11l-2 25-4 24-6 21-7 19-6 12-2-1-5-36-6-25-7-22-8-22-12-25-12-22-13-20-4-6-8-11-9-12-11-14-30-32-15-14-10-9-14-11-11-9-16-11v-2l-4-1-19-12-5-2v-2l-5-2-5-3v-2l-5-1-22-12-29-14-12-5-27-11-36-12-35-10-21-5z" fill="#8A1048"/>
<path transform="translate(894,650)" d="m0 0 6 2 10 7 6 5 8 7 10 8 9 10 14 14 11 15 11 17 12 23 11 33 7 30 5 35 2 26 1 10-2 5-2 15-6 25-7 18-10 8-7 7-13 10-15 10-23 11-15 6-14 4-17 4-3-1h2l1-3 6-1 2-4 16-10 4-4h2l1-3h2v-2l11-9-1-3-5-3-6-5-5-3-5-4-5-3-19-12v-2l-4-2-6-5-8-13-1-3v-8l1-3-11 2-15 3 1-3 7-4 11-11 7-6 8-10 11-14 10-13 13-21 12-23 8-16h2l2-9 6-13-1-13-9-3-3-2v-2l-9-3-16-8-9-6-9-2h-8l-7 2-6 1-2 4-4 1-2 6-2 1-2 7h-2l1-5 11-26 9-13 6-9 11-15 6-8 5-6 5-5-2-5-6-10z" fill="#629957"/>
<path transform="translate(700,472)" d="m0 0h21l25 3 23 5 19 3 7 2 8 1 1 1 19 3 10 2 8 2 20 3 6 2 21 4 33 7v2l4 1v3l2 2-4 2-1 5-1 3 4 2 5 9v3h2l3 12 3 7 2 5 2 10 4 13 4 8-2 4-8-1-17-4-18-6-9-2-15-4-60-15-21-4-10-3-13-2-5-2-16-3-4-2-14-3-14-2-21-5-24-4v-2l-8-1-15-3h-23l-19 3-8 3-10 2-15 6-17 9-9 6-11 9-11 12-7 10-8 14-5 13-3 7-2 11-1 23-12 4-9 4-9 1-6-6 1-16 3-9 5-13 2-4 3-3 1-3 5-5 11-13 4-7 5-4 3-8 4-3h2l1-6 12-13 17-17 8-7 14-13 18-13 12-7 11-6h3v-3l6-3 20-7 8-2 11-2v-2l17-2z" fill="#FEC75A"/>
<path transform="translate(744,622)" d="m0 0h11l20 3 4 1-3 9-6 10-7 17-5 15-2 7-3 31v22l2 20 2 28v47l-1 5-2 22-2 15 10-5h2l2 4 12 4 11 8 3 3v2h2l3 5v2l3 1 7 14 3 9 3 5v4l-5 5-7 3-15 8-18 7-22 6-20 4h-7l-12-15-7-10-10-17-9-20-7-21-5-26v-28l4-30 6-28 2-5 4-16 9-26 7-17 5-12 17-34 11-19 8-13z" fill="#FDFBFB"/>
<path transform="translate(1017,889)" d="m0 0 4 5 3 6 4 5 16 24 10 14 7 10 8 12 5 6v3h2l1 3 2 1v3h2v3h2v3h2v3h2l8 12 5 7v7l-2 2h-3l-2 4-3 1-2 4-3 3-3 5-13 10-12 10-11 9-16 13-11 8-14 10-14 9-9 6-21 13-16 8-11 4-14 4-16 2h-24l-23-4-16-4-13-4-1 3-6-2-22-12-14-9-16-11-3-2v-2l-5-2-14-11-10-8-3-4 1-2 14 9 5 3v2l5 2 10 7 9 5 26 13 21 8 12 3h9l10-5h2v-2l11-4 5-2v-2l10-5 1-2h3v-2l14-10 13-11 12-11 12-12 5-7h2l2-4 10-12 6-9 10-16 12-22 5-8 4-12 2-1 5-13 5-14 6-25 1-11z" fill="#FC9325"/>
<path transform="translate(663,394)" d="m0 0h59l25 2 35 5 37 8 43 11 8 1v78h-8l-7-2-14-2-8-2-10-2-19-3-1-1-14-2-7-2-28-5-16-3-17-2h-21l-33 2-40 5-30 6-1 1h-15l3-22 3-13 5-15 9-15 8-10 11-7 15-5 25-4z" fill="#60F0F2"/>
<path transform="translate(484,527)" d="m0 0 2 1-10 7-11 8-20 15h-2l-1 3h-2l-1 3-4 4h-2v2l-4 4-7 8-8 9-2 3h-2l-3 6h-2l-2 4-3 5h-2l-2 5-8 11-5 9-6 12-4 9-7 18-5 17-2 9 4-1 9-13 4-1 1 2v23l1 21 4 21 8 27 6 19 6 21 4 11 4 13 8 20 5 15 4 9 6 17 9 21 6 16 10 25 6 13 13 28 14 26 10 15 10 13 6 9 11 13 7 8 3 2v2l4 2 9 8 18 13 24 14 13 6 10 3 13 4 19 5 41 6 29 7 12 5 6 4v5l-10 2h-33l-31-2-32-4-29-6-29-8-3-1h-7l-4 1v2l-16 10-4 4-11 4-5 4-7 7v5 2l2 6-19-9-16-9-18-11-20-14-6-5-1-4-7-5 2-1-1-3 10-2 18-8 3-2 11-2 2-5 6-4 2-3 5 1 8 4 22 13 26 12 15 6 29 9 29 7 14 2-1-3-12-6-17-7-19-10-19-12-9-7-9-5-15-12-11-9-20-20v-2h-2l-6-8-9-10-11-16v-2h-2l-13-21-3-6-7-13-11-20-12-31-7-17-3-7-17-51-8-23-3-14-6-22-5-20-7-42-2-9-1-36-4 1-8 15-8 20-5 13-4-1 1-18 2-12 2-21 4-18 6-18 8-18 5-9 11-17 8-12 4-4 3-5h2l2-4 7-8 20-20h2l1-3 14-11 13-10 17-11z" fill="#019CAA"/>
<path transform="translate(1084,437)" d="m0 0 8 1 31 9 25 9 19 8 32 16 18 11 17 12 14 11 15 13 7 7 7 8 11 13 10 14 13 22 8 17 8 21 5 18 8 40 1 19 1 16-3-2-5-17v-2h-2l-7-16-9-16-11-16-10-12-7-8-19-19-8-7-22-16-13-8-24-13-25-12-20-8-24-8-25-8-42-10-10-2v-1h7l26 5 14 3v-21l-2-5 2-10-2-8 1-8-3-3-1-5v-12l-2-8-2-2-4-3-5-2z" fill="#F73399"/>
<path transform="translate(812,567)" d="m0 0 12 2 21 5 16 4 33 8 4 2 9 2 15 4 7 2 13 5 29 10 31 13 28 14 17 9 10 7 6 3 11 8 4 4v6l-6 8-4 13-7 8h-2l-3 10v5l-2 1-2 5-1 11-3 6-4 1-2 7-2 1-5-3v-2l-4-2-4-4v-2h-2l-5-5-7-1-4 8h-2v2h-9v-2l-4-1-7-6-7-9-3-3-7-11-3-2-3 1-5-2-11-12-13-13-4-5-9-7-4-3v-2l-5-2v-2l-4-2-16-11-7-4-8-8-12-9-10-5v-2l-6-2-5-6v-2h-2l-3-7-2-4h-2v-2l-5-2-10-8-7-3-1-6-2-6z" fill="#EE6C17"/>
<path transform="translate(618,545)" d="m0 0h5l-3 5 3 1h2l3-1 8 2 6-2 13-1 14 1 7 2 10 4 9 5 10 7 12 5 10 5 1 3h10l5-2 2 2 9-1 19 6 17 6 26 11 19 10-3 1-15-7-7-1-4 5-3 5h-2v4l-23 1-8 1h-9l1-4-4-2-2-6v-3l-5-2-7-4h-9l4 5h-3v2h2l-1 4h-8l-1 1 6 1 3 1-5 2h-11l-14 1-35 8-24 8-13 5-10 4-16 9-11 4-10 5-6 2-8 6-4 2v15l2 7 7 17-1 3-11-24-10-26-6-17-8-25-4-15-1-8h-4l1-5 3-7 13-13 10-7 10-6 13-5 11-5 5-1 6-1h6l5-1z" fill="#A30D33"/>
<path transform="translate(633,532)" d="m0 0h23l23 5v2h7l25 5 18 4 13 2 12 3 10 3 11 2 7 2 16 3 13 3 2 3h-2l1 8 2 1 1 2-1 4 7 2 8 6v2l5 1v2h2v2h2l5 8v3h2l4 6 5 3 2 1v2l6 2 11 7 5 4 4 4-5-2-17-10-27-14-19-10-19-8-14-5-10-4-17-5-10 1-5-2-1 2-2-1-1 2v-2h-7l-4-4-16-7-8-4-8-6-10-5-6-2-7-2-16-1-13 1-6 2-7-2-4 2-3-3 1-4-3-1-1 3-11 1-6 1-5 1-11 5-13 5-13 8-10 8-10 10-3 9 3 2 6 23 9 28 6 16 7 19 8 18 7 16 10 18 8 16 13 22 4 6 3 8 12 19-1 2-9-2-2-2-13-1-3 2-8-1-2 3h-5l-6-7v-2l-6-2-2-4 2 8 5 12 15 29 2 5-4-4-4-5-2 4 9 20-1 3-11-24-9-20 1-3-3-7-4-16-2-4-2-7-5-8-1-5h-2l-3-7-7-12-4-8-3-1-7-16-5-10v-3h-2l-7-16-2-7-4-9-3-11-1-7-2-3v-27l2-10 8-19 8-14 9-11 11-12 9-7 9-6 21-11 14-5 14-3 1-1z" fill="#E71B34"/>
<path transform="translate(1203,823)" d="m0 0 5 1 7 7 5 11 6 19 3 21v10l-2-4-1-3-3 2-4 21h-2l-6 12-1 3-3 1-8 11-5 4-5 5-6 5-13 8-15 6-2 4-5 1-5-2-5-5-4-23-5-16-4-4h-2l-2 6-7 4h-6l-16 9-7 3h-6l-7 3-6-1-8-5h-5l1 6-5-5-24-36-3-3-3-6-1-1v-5l4-5v-2h3v2l15 1 5 1 18-7 10-4 12-6 10-8 3-8 4 1 10 15 6 5 10-2 14-9 4-3 14-4 13-6 12-7 6-5h2l2-4z" fill="#FEDB35"/>
<path transform="translate(520,571)" d="m0 0 2 1-2 4-6 4-3 8-3 3h-2l-1 4-13 16-4 5h-2l-1 5-3 1-1 4-5 14-3 10-1 14 5 5 12-2 8-4 10-2v-23h1l1 23 2 3 3 15 4 11 2 2 2 8 5 12v2h2l5 12 2 3 2 13h2l6 13 12 29 2 7 2 1 3 7 2 13v2l-4 1-5-6h-3v-2h-7l-3 2-3-2-2-6-3 1-1 3h-7v7l-1 7v2h-2l1 4-6 3-4-1v2l-3 3-1 7 2 1-3 10-3 1-3-2-1 2-3 1-2 4h2l1 7 3 10-3-3-2-5v-3h-3l-16-36-11-25-17-41-9-25-4-18-2-12v-16l4-13 3-4 4-10 4-5 2-8 10-14 7-8 8-10 5-8h2l2-4 9-11 11-12 9-10z" fill="#FA7C36"/>
<path transform="translate(700,472)" d="m0 0h21l25 3 23 5 19 3 7 2 8 1 1 3h2v5l-4 3-13 1-12 5-9 4-5 4-7 3-8 3-9 6-6 3-5 4h-3l-2 5h-4l-1 2-7 1v2h-2v3l2 1-21-3-11-2v-2l-8-1-15-3h-23l-19 3-8 3-10 2-15 6-17 9-9 6-11 9-11 12-7 10-8 14-5 13-3 7-2 11-1 23-12 4-9 4-9 1-6-6 1-16 3-9 5-13 2-4 3-3 1-3 5-5 11-13 4-7 5-4 3-8 4-3h2l1-6 12-13 17-17 8-7 14-13 18-13 12-7 11-6h3v-3l6-3 20-7 8-2 11-2v-2l17-2z" fill="#FDAB34"/>
<path transform="translate(776,1173)" d="m0 0 6 1 8 4 26 10 33 11 10 3v3h-3v2l-22 5-49 15-46 14-18 5-6 1h-41l-27-3-26-5-16-4-3-3-1-2-7-3-1-2 2-1v-11l5-3-1-4-7-6 1-5 4-4 8-6 8-4 8-3 8-4h14l29 3 13 1h65l24-2 2-2z" fill="#017785"/>
<path transform="translate(610,870)" d="m0 0 2 1 2 5v3h4l3 6 4 5v2l3 1 2 5 7 10v2l10 5 1 4 3 1 3 5 3 2v3h3v3l4 2v2l4 2 11 11v2l4 2 9 9 1 2 5 3 5 4 1 2 3 1v2h2l5 5 10 8 21 13 15 7 15 6 25 6 8 1h20l5-3 30-1 10-1 8-4 9-1 18-4 19-7 20-9 16-9 13-10 10-8 7-7 5-3-1 5h-2v3l-4 4-1 6-10 14-5 8-3 7h-2l-1 3h-2v2h-2l-1 5h-2l-2 5-1 2-3 2-3 1-2 5-3 3h-2l-1 4-11 12-3 4-9 4-10 5-3 3-7 3-13 6-13 4-11 2h-13l-13-2-10-3-14-4-12-5-14-7-4-4-9-3-10-7-12-7-11-6-14-13-9-6-4-3v-2l-6-3v-2l-5-2-2-4-4-1v-2h-2l-4-4-4-2-7-9-3-5-5-5-9-10-6-4-15-20-11-16-5-10v-2h-2v-2h-2l-4-7-3-4h-3l-3-5-2-7v-4l-2-1 1-4z" fill="#DF0D1D"/>
<path transform="translate(797,631)" d="m0 0h7l20 4 3 2 1-1h10l30 5 7-1 3-1 14 7 5 5-3 1 7 12 1 3-4 5-5 5-6 7-7 10-10 14-7 11-4 6-16 38-16 33-12 19-5 5 1-8h-2v-8l1-3-4-1-3-16-4-10-2-7-3-7-4-24-3-8-3-5-1-7-4-2-1-22v-7l4-16 2-9 4-7 7-11 2-8z" fill="#6F165D"/>
<path transform="translate(863,908)" d="m0 0 4 1-1 3v8l5 10 6 8 7 5v2l5 2 14 9 11 8 9 6 5 4 3 1-1 4-9 8h-2v2l-8 7-15 10-4 4-6 2-1 2-10 4h-46l-20-3-19-5-24-10-16-10-16-13-10-10 4-2 25-5 27-9 23-11 21-14 18-13 13-3z" fill="#C2E1B3"/>
<path transform="translate(894,650)" d="m0 0 6 2 10 7 6 5 8 7 10 8 9 10 14 14 11 15 11 17 12 23 11 33 7 30 5 35v23l-3-2-5-14-6-8-6-1-9-5v-2l-2-1v-6l-5-6-2-5h-2l-2-6h-2v-2h-3l-5-8-4-4-4-8-7-5-3-5-3-3-8 1-2-2 7-16-1-13-9-3-3-2v-2l-9-3-16-8-9-6-9-2h-8l-7 2-6 1-2 4-4 1-2 6-2 1-2 7h-2l1-5 11-26 9-13 6-9 11-15 6-8 5-6 5-5-2-5-6-10z" fill="#035F6A"/>
<path transform="translate(587,487)" d="m0 0 4 1-5 2v2l-29 12-20 11-14 8-12 8-13 10-9 7h-2v2h-3v2h-2v2l-8 7h-2v2l-8 7-12 11-6 5-2 3h-2l-2 5h3v-2l5-4h2v-2l8-6 2 1-1 5-9 12-10 14-9 14-10 16-8 17-7 21-2 9v28l5 21 4 11 4 13 11 30 2 7 3 7 6 16 7 18 5 10 6 16 13 30 11 23 8 17 6 12 6 11 10 17 6 9 4 5 4 7 9 12v2l4 1 5 7 5 5 8 7v2l5 2 14 10 15 6 13 5 10 4 13 10 3 1v2l10 5 17 16 17 14 18 14 3 3h-5l-7-4-14-7-19-3-15-5-15-4-20-8-19-10v-2l-5-2-16-13-2-4h-2l-7-9v-2l-4-2v-2h-2l-4-5v-2l-3-1-8-11-14-21-6-11-2-3v-3h-2l-1-4h-2l-6-12-6-11-16-32-7-17-8-18-4-10-4-8-12-31-4-8-6-17-5-11-6-18-3-7-6-17-8-22-5-22-2-11v-28l3-16 6-16 8-16-1-3-9 8-1-4 4-8 7-11 12-16 10-13 5-5 11-12 7-9 9-7 11-10 7-5h2v-2l10-7h2v-2l7-4h2v-2l15-9 18-10 14-6 4-2 2-3h3v-2l19-5z" fill="#034E55"/>
<path transform="translate(1250,718)" d="m0 0h3l7 10 20 32 15 29 7 16 9 26 7 24 1 11-6-2-7-2-18-3-16-2-18-2h-8l-7 1-11 1-2-1-10-30-11-24-10-19-14-21-10-13-6-8-1-3 4-1 7 4 4 2h8l31-3 12-3 6-4 7-1 2 1v-2h3z" fill="#FEC75A"/>
<path transform="translate(1071,969)" d="m0 0 3 2v3h2l1 3 2 1v3h2v3h2v3h2v3h2l8 12 5 7v7l-2 2h-3l-2 4-3 1-2 4-3 3-3 5-13 10-12 10-11 9-16 13-11 8-14 10-14 9-9 6-21 13-16 8-11 4-14 4-16 2h-24l-23-4-16-4-13-4-1 3-6-2-22-12-14-9-16-11-3-2v-2l-5-2-14-11-10-8-3-4 1-2 14 9 5 3v2l5 2 10 7 9 5 26 13 21 8 12 3h9l6-3h3v2l-2 2v2l10 1h8l18-4 17-6 9-4 22-12 11-7 16-12 13-11 11-9 1-2h2l2-4 6-5 5-6 6-5 6-8 5-5 3-1 2-4 8-7 9-11 9-8 9-11 5-6 4-1z" fill="#FFBA2C"/>
<path transform="translate(616,782)" d="m0 0 4 4 7 10 4 7 7 9 8 10 11 13 9 10 2 1v-8h1l2 23 5 23 8 22 9 19 12 19 11 14 7 8 8 7 10 9 12 9 13 8 19 8 15 5 13 3 16 2 44 1v1l-10 1-30 1-5 3h-20l-17-3-18-5-20-8-15-8-18-12-11-9v-2h-2v-2l-4-1v-2l-4-2-3-3-4-2-7-8-6-5v-2l-3-1-7-8-5-4-4-4v-3h-3l-1-3-5-4-1-3-2-1-2-4-2-2-6-8v-3h-2l-5-6-7-11-5-5-12-19-13-21-17-33-4-12 1-3 4 4v2l4 1 1 4 4 2 1 2 5 1 2-4 9 1 3-2 12 1 2 2 9 2-6-11-8-13z" fill="#FB6F86"/>
<path transform="translate(556,496)" d="m0 0 4 1-3 1-2 3-26 12-15 9-8 5h-2v2l-7 4h-2v2l-10 7h-2v2l-11 8-10 9-6 5h-2l-2 4-9 10-10 12h-2l-2 4-11 14-10 14-8 13-1 6 9-8 2 1-1 5-8 16-5 14-3 16v28l4 20 4 16 4 11 7 20 4 11 4 10 5 13 9 24 5 11 11 28 4 8 5 12 12 27 4 10 16 32 9 16v3h2l1 4h2l6 11 8 14 7 10 8 11 8 9v2h2l5 6 6 7v2h2l5 6 13 10 5 3v2l6 2 15 8 24 9 19 5 9 3 15 2 20 10 9 3 21 14 11 7 1 2-5-2-16-2-9-1-13-5-24-5-15-4-25-5-18-6-13-6-7-4-5-3-3-3-12-9-15-14-6-7-5-5-9-10-7-10-4-5-4-7v-2h-2l-5-8v-3h-2l-14-26-26-52-4-10-6-13-5-13-8-18-5-13-10-25-3-9v-3h-2l-3-10-6-13-4-14-11-32-9-27-5-23-1-11v-20l5-25-1-2-4 2-5 6-2-1 1-7 4-10 6-12 7-12 7-11 7-10 1-3h2l2-4 12-14 8-10 8-7 12-12h2l2-4 5-2v-2l4-3h2v-2l6-4h2v-2l9-6 23-15 11-6 8-2 11-6 3-3 8-4z" fill="#017684"/>
<path transform="translate(870,422)" d="m0 0h122l29 3 29 4 34 7 1 6 6 1 5 5 2 3 1 9v9l2 6 2 4-1 7 2 8-2 11v2l2 1v15l-1 6-11-1-24-5-17-2v-1l9-1 2-13-2-6-2-14-3-7-4-11-3-5v-2l-3-1-4-6-5-5-7-8v-2h-6l-2-1v-2l-6-1v-2l-19-1-5-2-15-1-4-1-1 1-18 2-15 5h-2l-1 3-4 4-3 4h-2l-2 5-4 4-1 3h-2l-2 6-3 4-4 17v13l-4 5 16 2v1l-13 1-19-4-21-4 3-1-1-2v-73z" fill="#FD80C7"/>
<path transform="translate(1197,658)" d="m0 0 6 2 7 7 7 8 8 8 7 8 11 14 9 12-2 1-1 11-1 2h-3v2l-9 1-6 4-12 3-31 3h-8l-8-4-3-2-3 1 4 6 14 18 2 5-10-5-4-3-6-1-4 6-11 11-8 6-13 5-10 6-8 5-13 12-7 6-7-1-5-5-9-11-3-3h-5l-2 9-5 4h-2l-2 4-9 7-8 3-11 4-7-1-4-3h-3l-1-6 1-5h12l7-3 13-7 3-1v-2l5-5 5-9 7 1 10 9 5 2 5-1 8-11 7-7 8-6 10-9 8-6 11-8 6-5 4-9h7l11 7 3 1-2-5h-2l-4-5-3-2v-2l-3-1v-2h-2l-7-8-6-6v-2l-3-1-2-3 1-5h9l8-3 12-1 5-4 10-2 9-4 7-2 3-3 5-1h7l-2-9h-2l-2-5z" fill="#FEB53E"/>
<path transform="translate(812,567)" d="m0 0 12 2 21 5 16 4 33 8 4 2 9 2 15 4 7 2 13 5 23 8v2l7 2 4 4-2 4h-7v2l-4-1 4 8-1 4 4 12-1 3 1 8-1 9v4l2 1-3 2 1 3-2 1 2 2-4 3-2 3 3 2-1 3 2 2-2 5 2 6v5l-3 1-5-2-11-12-13-13-4-5-9-7-4-3v-2l-5-2v-2l-4-2-16-11-7-4-8-8-12-9-10-5v-2l-6-2-5-6v-2h-2l-3-7-2-4h-2v-2l-5-2-10-8-7-3-1-6-2-6z" fill="#F84E1D"/>
<path transform="translate(1154,620)" d="m0 0 7 3 11 9 14 12 8 8 7 6-3 1 3 10 1 3h2l2 5v4l-7 1-6 2-3 3-9 2-6 3-12 3-3 3-12 1-8 3h-9l1 5 7 8 9 9v2h2l4 5 6 5v2h2l2 5-4-1-10-6h-7l-4 9-10 8-9 7-12 9-7 7-8 6-7 8-5 7-5 1-6-3-11-9-5-1-2 6-6 8h-2v2l-14 8-5 3-4 1h-7l-5-1v5h-2l-7-30v-8l5 2 10-1v-3l9-6 9-8 3-6h5l6 7 7 8 6 5v2l6-1 3-6 6-5 1-4 5-12 5-5 2-3h2l2-6 5-3 2-4 11-7 6-11 3-2 8-1-3-5-9-10-2-1v-2l-3-1-3-4-1-9 4-2 5-6 6-4 5-1 2 1v-2l9-1 1-3 5-2 8-1 2-4 2-2 5-1 1-1h10l-1-7-9-11v-2h-2l-5-6z" fill="#FC9C29"/>
<path transform="translate(909,507)" d="m0 0h13l52 3 39 4 10 2 14 4 4 3 3 2h3 2v3h10l4 4 11 2 4 5-1 2 10 6 5 4 5 2v2l14 11 5 4 1 5 5 2 8 6 1 3 8 4 6 7 5 2v2l10 5 5 1 1 2 6 2 21 2h20l23 2 5 4 3 5 2 1v7l2 12v16h-2v6h-2v10h5l-2 1v2l-7 2 1 4 2 2 3 13 2 5h2l2 5 3 4-1 3-4-1-9-12-11-14-30-32-15-14-10-9-14-11-11-9-16-11v-2l-4-1-19-12-5-2v-2l-5-2-5-3v-2l-5-1-22-12-29-14-12-5-27-11-36-12-35-10-21-5z" fill="#760B4B"/>
<path transform="translate(481,558)" d="m0 0 3 1 1 4-7 7-7 8-9 13h-2l-2 5-1 2h-2l-2 5-2 3h-2l-2 4-5 9-3 3-1 3h-2v3h-2l-2 7-6 12-4 16-1 1-2 13h2l-2 7 5 2 1-5h8l1 5v10l2 12v19l2 7v9l1 8-5 2-2 12v12l4 16 6 17 4 12 4 10 2 8 9 22 7 15 5 13 8 16 5 12 10 19 9 17 6 10 7 11 6 7 3 5v2h2l5 6 4 2h2v-4h-2l1-6 2-3h2l-2-4-1-13-4-11-3-8-6-12-4-10-8-15-10-22-2-5v-3l5 1 8 16 14 27 13 24 21 35 15 23 11 16 11 14 9 10 7 8 12 13 8 8-1 2-7-5v-2l-5-1-11-9-18-7-12-5-10-4-13-10-4-2-11-11v-2l-4-2-3-4v-2l-4-1-4-6-9-12-3-5-7-11-6-9-12-22-6-12-10-21-9-19-13-31-5-13-6-13-11-27-3-10-2-3-4-13-11-30-3-11-3-8-4-18v-30l7-23 4-9 8-17 24-36 10-13 3-5-1-3-5 2-1 3h-2v2l-5 4h-2v2l-5 2 4-7 8-7 10-10 8-7 4-2 2 1 5-4h2z" fill="#033D43"/>
<path transform="translate(779,626)" d="m0 0 13 3 5 2 1 5-4 9-5 8-4 7-3 12-3 13v16l1 13 4 4 2 7 3 4v6l2 1 4 24 4 9 4 13 2 7 1 11 4 1v10l2 1-1 9-8 10-7 7-7 8-17 17-13 9-8 3 3-24 1-14 1-5v-47l-3-41-1-7v-22l3-31 10-30 8-16z" fill="#851F6F"/>
<path transform="translate(1100,1011)" d="m0 0 4 4 15 25 1 5-11 14-6 8-9 9-10 8-13 9-15 10-10 7-19 9-12 7-17 8-16 8-18 6-15 3-16 1h-21l-16-2-14-2-18-5-14-3-4 1-16-7-3-2 1-4 14 4 19 5 19 3h24l16-2 23-7 16-8 22-13 5-4 22-14 24-18 14-11 14-12 18-14 5-4 3-5 4-5 5-5 4-2z" fill="#FEDB35"/>
<path transform="translate(849,827)" d="m0 0h17l21 5 12 4 3 2-2 9-13 18-10 12-11 14-16 15-6 5-3 1-3 5-14 10-15 10-14 8-17 8-25 8-29 6-4-4 30-6 21-6 21-9 11-6 5-2 3-4h2l-3-8-3-7-4-9-4-8-4-4-1-4h-2l-4-5-10-7-12-4-2-2 1-5 9-7 5-3 7-5 10-4 16-7 14-8 16-5z" fill="#04C3CF"/>
<path transform="translate(734,600)" d="m0 0h10l9 5 3 2 2 5 1 4 3 2v3h12l7-1h20v-4h2l2-6 6-5 8 2 13 6 9 3 21 11 20 12v3l-6-2-3 2-11-1-24-4-10-1-1 2-6-3-29-5-11-3-26-4-18-1-15 2-16 6-7 4-8 4h-4l-1 2-6 4h-2v2l-11 6-13 10h-2l-1 3-4 2-5 7-5 2-1 3h-4l-1 3-4 5-3 3h-2l-1 5-5 4-6 2-1 4h-6l-1 8-3 1v9l-2 3 1 3h-2v6l2 5 2 9v5l-3-4-12-23-6-11-2-8-6-15-2-7v-15l11-8 3-2 9-3 8-4 9-3 12-7 10-5 15-5 6-3 12-3 8-3 35-8 14-1h12l1-1-6-1-1-2 7-1h3l1-3h-2v-4z" fill="#8C1556"/>
<path transform="translate(1226,884)" d="m0 0 2 4 2 5v48l-1 5-4-1-2 4-6 15-6 11-2-2-5 9-3 1-2 3-6 3-8 7-5 5-7 6-9 6-9 7-2 3h-3v2h-3l-1 6-6 7h-2l-1 6-2 2v-8l-2-3 4-28 1-13v-18l-2-16-1-5-6-1-4 4h-6l-17 9-8 3-4 3-7-3-9-7-7-1-3-3-8-12-3-6v-4l5-1 8 5 6 1 7-3 9-1 15-8 5-3h7l4-3h2l1-6h4l5 6 5 18 3 19 4 4 6 2h4l1-4 8-4 12-5 9-6h2l2-4 4-3h2l1-3 6-5 7-10h3l1-5 5-10 2-1 4-20z" fill="#FFEB40"/>
<path transform="translate(1227,862)" d="m0 0 4 5 2 3h16l23 3 7 1 10 1 9 2 11 1 9 3 3 2v-8h1l4 30 1 2-1 3-2 1-1 23-2 9-5 1-1 2v-2l-7 3-2 1-1-2-8 4h-2v2l-11 2-5-2 1 6-4 1-2-4 1-2-8-2-5 1-2 1-8-1-3 3v2l-8 5-2 7h-2l-1 7-4 4v-12l2-4h-2l-1-12 2-13-2-1-1 9-2 12h-1l1-13 1-5v-48l-2-19z" fill="#F86D2C"/>
<path transform="translate(762,869)" d="m0 0h2l2 4 12 4 11 8 3 3v2h2l3 5v2l3 1 7 14 3 9 3 5v4l-5 5-7 3-15 8-18 7-22 6-20 4h-7l-12-15-5-7v-7h-2l-9-24 1-8 12-5 19-7 21-9 9-5 4-4z" fill="#CEF6EB"/>
<path transform="translate(680,410)" d="m0 0h12l13 2 12 6 13 11 10 17 2 5v12l-2 5v5l3 2-22-2h-21l-33 2-40 5-4 1h-10l-1-4 1-13 7-16 9-11 5-5 10-9 10-6 16-5z" fill="#A2F6F5"/>
<path transform="translate(997,956)" d="m0 0 1 4-3 1v3l-4 4-1 6-9 12-5 5-6 9-4 5-8 8h-2v2h-2l-1 4-8 7-12 9-19 12-13 7-9 5-20 4-16 1-16-4-20-8-11-4-5-5-7-2-8-7-2-7 1-4h11l20 2 18-1 9-2v-2l27-2 8-4 9-1 18-4 19-7 20-9 16-9 13-10 10-8 7-7z" fill="#CD0E1B"/>
<path transform="translate(795,406)" d="m0 0 6 1 5-1 56 14 8 1v78h-8l-7-2-14-2-8-2-10-2-19-3-1-1-14-2-7-2-5-1v-2l-2-1 3-3 7-2 2-5 3-12-1-16-1-20-2-10-1-2 7-1z" fill="#07C5D0"/>
<path transform="translate(1193,801)" d="m0 0 4 1 8 10 1 4h2l4 4v3l4 1 6 16 4 13v3l17-1 9-1 15 1 9 2 18 2 17 3 8 4 1-2 1 5v14l-10-3-7-1-13-2-2-1-13-1-19-3-11-1h-13l-5-7-1 7h-1l-1-10-8-24-5-8-6-5h-3l-7 8-5 5-9 7-10 6-12 5-14 4-9 6-11 7-8 1-8-7-7-11-1-3h-4l-3 8-10 8-16 8-24 9-7-1-11-1-2-1v-2h-3l1 3-5 6-2-3v-25h2l1-5h5l-2 1v4l11 1 4-2 2-5 6-1 4 1 10-3 10-6 9-9 4-12 5 1 7 9v3h2l4 6 6 8 3 2 5 1 2-5 16-8 9-4 4-1h7l9-4 2-2 6-1 3-5 7 1 2-7 4-4 3-6z" fill="#FECB31"/>
<path transform="translate(1084,437)" d="m0 0 8 1 31 9 25 9v2l-4-1 2 3 3 1v2h5l1 3 5 3v2h2v2l2 1-2 1 5 7 2 2 1 6-3 1 1 2-3 1-1 5h2l3 5-1 3-2 1-1 8h2v3h2l1 4-1 5h-2l1 5-1 2 2 1 1 4-2 2-4 2 4 2 4 5 3 3v1l-9-1-13-5-25-9-17-5-40-10-15-3v-1h7l26 5 14 3v-21l-2-5 2-10-2-8 1-8-3-3-1-5v-12l-2-8-2-2-4-3-5-2z" fill="#FB50A8"/>
<path transform="translate(921,511)" d="m0 0 9 1 42 12 29 10 12 5 1 3h4v2h-6v2l-9 2 2 4v10l1 4v22l-4 17-3 7-1 3-4 2h-7l-5-2-9-2-27-10-10-3 4-1 8 1 1-3-5-10-4-13-2-10-3-9-3-7v-6h-2l-6-12-3-2 1-8-2-2h6l-2-4z" fill="#FEB53E"/>
<path transform="translate(633,532)" d="m0 0h23l23 5v2h7l25 5 18 4 13 2 12 3 10 3 11 2 7 2 16 3 13 3 2 3h-2l1 8 2 1 1 2-1 4 7 2 8 6v2l5 1v2h2v2h2l5 8v3h2l4 6 5 3 2 1v2l6 2 11 7 5 4 4 4-5-2-17-10-27-14-19-10-19-8-14-5-10-4-17-5-10 1-5-2-1 2-2-1-1 2v-2h-7l-4-4-16-7-8-4-8-6-10-5-6-2-7-2-16-1-13 1-6 2-7-2-4 2-3-3 1-4-3-1-1 3-11 1-6 1-5 1-11 5-13 5-13 8-10 8-7 6 2-4 9-9 1-2h2l2-4 6-5 7-4 13-7 3-3 7-2v-2l6-2 14-3 1-1z" fill="#CF0F1B"/>
<path transform="translate(960,718)" d="m0 0h5l8 11 2 4h3l13 25 11 33 7 30 5 35v23l-3-2-5-14-6-8-6-1-9-5v-2l-2-1v-6l-5-6-2-5h-2l-2-6h-2v-2h-3l-5-8-4-4-4-8-7-5-3-5-3-3-8 1-2-2 14-33 12-31z" fill="#26694D"/>
<path transform="translate(828,636)" d="m0 0h10l30 5 7-1 3-1 14 7 5 5-3 1 7 12 1 3-4 5-5 5-6 7-7 10-10 14-7 11-4 6-16 38-7 15-1-3 5-13 3-6-1-7-6 1-4-8-4-14-3-20-1-13-1-3v-18l1-7 2-5 4-20z" fill="#520C42"/>
<path transform="translate(544,499)" d="m0 0 3 1-11 8-9 5h-6l-9 6-9 5-17 11-7 5h-2v2l-6 4h-2v2l-4 3h-2v2l-6 4-21 21h-2l-2 4-9 10-9 11-2 3h-2l-1 4-10 15-8 13-10 20-3 8v5l8-8 3 1 1 4-3 12-2 14v17l2 16 5 22 9 26 13 38 3 10 4 8 2 5v5h2l6 17 6 15 5 13 5 12 7 16 8 20 4 8 6 14 6 10 5 11 9 19 10 18 4 7v2h2l5 9v2h2l7 12 5 6 10 13 5 5v2l3 1 7 8 7 7 11 9 10 7v2l5 2 7 4 11 5 20 7 25 5 15 4 24 5 17 6 15 1 8 2 8 3 16 9 26 13-1 4-4 1-19 1 4-2 15-2-2-2-4-2-7-2-2-1v-2l-6-1v-2h-3v-2h-11l-15-4-17-5-22-5-22-4-19-4-16-3-25-9-14-7-4-3-8-4-10-8-14-11-13-13-18-22-5-8-7-10-12-19-16-32-10-21-7-14-5-13-3-7v-3h-2l-6-16-5-11-6-16-5-13-7-18-6-16-6-14-9-28-8-24-6-19-4-14-3-17-1-15v-19l1-7v-8h-4l-6 7-2-1v-7l6-15 3-5 4-10 10-20 8-12 2-4h2l2-5 5-5 9-11 4-4 6-8 5-4h2v-2h2l1-4 5-4h2l1-3 14-11 11-9 16-11 3-2h3v-2l9-5 5-3 4-4 22-9h2v-2z" fill="#018390"/>
<path transform="translate(587,487)" d="m0 0 4 1-5 2v2l-24 10-8 2-14 6-3 2h-3v2l-14 7-9 7-5 3-18 13-14 11-10 9-4 4h-2v2l-4 4h-2l-2 4-14 14-7 9-8 10-1 2h-2l-2 4-4 9 5-4 1-2h2l2-4 5-6h2l-1 7-5 8-6 11-6 10-9 23-3 10-1 12-1 5 2 27 5 21 10 29 8 21 4 12 11 27 5 13 5 11 8 20v3h2l7 17 7 16 6 13 4 10 2 3v3h2l4 10 5 9 9 16 5 7 4 7 11 17 5 7v2l3 1 5 9 4 3v3l4 2 6 6v2h2v2l4 2 2 4 4 2 8 8 12 9 18 9 13 5 20 7 15 4 9 4v2h3l3 3 13 8 6 3 12 9v1h-5l-7-4-14-7-19-3-15-5-15-4-20-8-19-10v-2l-5-2-16-13-2-4h-2l-7-9v-2l-4-2v-2h-2l-4-5v-2l-3-1-8-11-14-21-6-11-2-3v-3h-2l-1-4h-2l-6-12-6-11-16-32-7-17-8-18-4-10-4-8-12-31-4-8-6-17-5-11-6-18-3-7-6-17-8-22-5-22-2-11v-28l3-16 6-16 8-16-1-3-9 8-1-4 4-8 7-11 12-16 10-13 5-5 11-12 7-9 9-7 11-10 7-5h2v-2l10-7h2v-2l7-4h2v-2l15-9 18-10 14-6 4-2 2-3h3v-2l19-5z" fill="#03606A"/>
<path transform="translate(520,571)" d="m0 0 2 1-2 4-6 4-3 8-3 3h-2l-1 4-13 16-4 5h-2l-1 5-3 1-1 4-5 14-3 10-1 14 5 5 12-2 8-4 10-2v-23h1l1 23 2 3 3 15 4 11 2 2 2 8 2 5v6h-10l-1 3-7 3-12 6-10 3-11 8-5 3-7 1-7-3-2 1-4-8-4-10-3-14-1-13 4-14h2l1-9 6-10 3-9 10-14 7-8 8-10 5-8h2l2-4 9-11 11-12 9-10z" fill="#FD9038"/>
<path transform="translate(1340,721)" d="m0 0 2 1 4 21 3 16 3 35v11l-2 25-4 24-6 21-7 19-6 12-2-1-5-36-6-25-7-22-8-22-12-25-5-9 1-2 5 7 5 9 2 5 3 1v4l7 2v-7l1-4 3-13 4-4h2l4-10h2v-2l6-2 4-4 4-1-1-7h4l-1-7z" fill="#A40E34"/>
<path transform="translate(709,472)" d="m0 0h12l25 3 23 5 19 3 7 2 8 1 1 3h2v5l-4 3-13 1-12 5-9 4-5 4-7 3-8 3-9 6-6 3-5 4h-3l-2 5h-4l-1 2-7 1v2h-2v3l2 1-21-3-11-2v-2l-8-1-4-4 2-2 9-1v-2h2l1-12 4-2 3-7 2-2h3l2-10-2-1 5-6h2v-5l18-6 1-1-10-2z" fill="#FEB63F"/>
<path transform="translate(1124,1041)" d="m0 0 5 1v7l-2 2 4 2 1 7-4 8-16 20-7 8-14 10-11 7-15 10-14 8-16 7-13 6-9 3h-3v3l-13 4-7 3-27 2h-43l-3 2-9-1-32-8-28-10v-2l3-1 21 5 10 3 26 3 10 1h15l16-1 19-4 19-7 25-13 24-12 15-8 12-9 16-10 13-11 8-7 7-8 8-11 4-5 2-3 2 3z" fill="#FEEB40"/>
<path transform="translate(668,608)" d="m0 0h11l7 2 12 1h9l27 3 3 1-5 2h-11l-14 1-35 8-24 8-13 5-10 4-16 9-11 4-10 5-6 2-8 6-4 2v15l2 7 7 17-1 3-11-24-5-13-3-12-8-24 1-10 2-7 5 1 4-3 7-2 4-1 2 1 9-2h13l9-3 1-1 14-1 7-1 17-1 4-1z" fill="#9E1045"/>
<path transform="translate(863,908)" d="m0 0 4 1-1 3v8l5 10 6 8 7 5v2l5 2 14 9 11 8 9 6 5 4 3 1-1 4-9 8h-2v2l-8 7-15 10-4 4-6 2-1 2-10 4h-25l-12-1 5-9 8-4 10-4 5-5 3-5-1-7-2-9-7-10-1-4h-2l-6-12-6-11-4-14 2-8-2-1 4-2z" fill="#9CD3A6"/>
<path transform="translate(556,496)" d="m0 0 4 1-3 1-2 3-26 12-15 9-8 5h-2v2l-7 4h-2v2l-10 7h-2v2l-11 8-10 9-6 5h-2l-2 4-9 10-10 12h-2l-2 4-11 14-10 14-8 13-1 6 9-8 2 1-1 5-8 16-5 14-3 16v28l4 20 4 16 4 11 7 20 4 11 4 10 5 13 9 24 5 11 11 28 4 8 5 12 12 27 4 10 16 32 9 16v3h2l1 4h2l6 11 8 14 7 10 8 11 8 9v2h2l5 6 6 7v2h2l5 6 13 10 5 3v2l6 2 15 8 24 9 19 5 9 3 15 2 20 10 9 3 10 7-3 1-9-1-11-4-21-5-17-5-26-6-15-5-16-8-12-7-4-3v-2l-4-2-8-7-5-4-7-8-4-4v-2h-2l-4-6-5-5-1-3h-2l-8-11-1-4h-2l-1-5h-2l-6-11-13-22v-2h-2l-3-7-4-8-9-17-11-23-7-16-5-13-4-8-9-21-8-21-7-17-4-10-8-21-6-18-5-13-3-8-6-18-5-16-3-18-1-4v-27l5-22 5-15-5 1v2l-5 4h-1v-6l7-13 15-24 11-15h2l2-4 9-11 5-6 5-5 3-1v-2l5-5 4-2 2-4 11-9 10-8 9-7 15-10 12-7 10-6 12-6 6-5 8-4z" fill="#016C78"/>
<path transform="translate(1086,990)" d="m0 0 4 5 10 14v7l-2 2h-3l-2 4-3 1-2 4-3 3-3 5-13 10-12 10-11 9-16 13-11 8-14 10-14 9-9 6-21 13-16 8-11 4-14 4-16 2h-24l-23-4-16-4-15-5-1-2 9 2 17 4 13 1h25l20-3 21-7 17-9 18-11 11-8 20-16 21-18h2l2-4 12-10 9-9h2l1-3 8-7 13-12 6-5 9-11 4-4z" fill="#FFCC31"/>
<path transform="translate(1137,597)" d="m0 0 1 3h3l1 2 3-1 5 3 3 1 2-1 10 3 1 2 6 2 21 2h20l23 2 5 4 3 5 2 1v7l2 12v16h-2v6h-2v10h5l-2 1v2l-7 2 1 4 2 2 3 13 2 5h2l2 5 3 4-1 3-4-1-9-12-11-14-30-32-15-14-10-9-14-11-11-9-8-6-1-3-2-1v-2l-3-1z" fill="#750B4C"/>
<path transform="translate(600,513)" d="m0 0 9 1v4h3l2 7 4 2v5l-3 1-8-1-14 3-9 4-10 6-2 1v4h-2l-2 4-12 7-7 6-8 7-11 13-10 16-5 11-5 13-2 11-1 23-12 4-9 4-9 1-6-6 1-16 3-9 5-13 2-4 3-3 1-3 5-5 11-13 4-7 5-4 3-8 4-3h2l1-6 12-13 17-17 8-7 14-13 6-3 11-1 10-2z" fill="#FEB23D"/>
<path transform="translate(866,783)" d="m0 0 21 2 16 3 8 4 12 3 3 2-1 5-14 27-10 16-1-2 2-5-10-3-16-5-10-2h-17l-15 3-16 7-9 5-13 6-12 5-7 6-2-1 19-19 14-16 1-2h3l2-4 6-5 6-3 4-4h2v-2l6-5 4-4h2v-2l9-7 6-2z" fill="#018290"/>
<path transform="translate(616,782)" d="m0 0 4 4 7 10 4 7 7 9 8 10 11 13 9 10 2 5 3 21 1 8-1 2h-2v-2l-2-1-2-2-5-1-10 2-7-2-6-2h-8l-1-2h-5l-3 1-2-1-2 4-11-17-12-20-15-29-5-14 1-3 4 4v2l4 1 1 4 4 2 1 2 5 1 2-4 9 1 3-2 12 1 2 2 9 2-6-11-8-13z" fill="#F83E5E"/>
<path transform="translate(1165,758)" d="m0 0 7 2 15 9 11 18 3 5v2h-2v-2h-2v-2h-2l-3-5-6-5-1-2h-5l-7 8-11 9-14 7-11 5-11 4-14 9-12 9h-6l-6-4v-2l-3-1-5-6-3 1-1 7h-2l-2 5-12 10-4 2 1 2-16 6-10 2-13-1-4-2v8h-1l-4-28v-5h4l5 3 8-1 15-5 6-5 5-4 8-8 1-7 1-1h5l7 7 8 10v2l9 1 15-14 9-7 13-7 11-5 7-4 12-11 4-4z" fill="#FEB92D"/>
<path transform="translate(658,975)" d="m0 0 3 1 6 8v2l4 1-1 2h2l3 5 6 4 10 9 3 2v2h3v2h2l1 2 7 4 4 4v2l5 2 4 4 4 5 7 3 4 3 7 3 5 5 7 5 3 1 2 3 7 1 2 2v4h6v3l6 1 4 2 7 2 5 3 5 1 2 4h5l4 2h6v5h8l3 2h5l7 3 12 2 4-2v2h2l1-2 7 1h3l1 2 4 1 2 3 3 1-3 2h-3v2l-9 5-7 1v2l-6 3-8 1-7-1-1-2h-3v-2l-10-3-9-2-3 1-6-2-4-3-2-1v-2l-5-1-8-4-3-1v-2l-4 1-2-1v-2l-7-2-9-6v-4l-3 1-6-3v-2l-4-2-16-12v-2l-5-2-6-5v-2l-3-1-6-7-8-8v-2l-3-1v-2l-3-1-7-8-9-10-9-12v-2h-2l-7-11-6-8z" fill="#F62124"/>
<path transform="translate(776,1173)" d="m0 0 6 1 8 4 23 9-4 2-4-2-14-1-2-1v2h-2l-1 4-3 1-9-1-12 2-20 11-12 3-9-1-3 1-31 2h-23l-11-1-12-2-13-3-3-1 1-5 6-6 12-5 13-4 8-3 85-1 24-2 2-2z" fill="#016C78"/>
<path transform="translate(1014,540)" d="m0 0 9 3 23 10 21 10v3l-6-1-3-1-10 3 2 10 4 11-1 6-2 1 1 5 1 4h-2l-2 4-4 4-3 7-8 6-6 4h-15l-10-5-8-2-17-7 4-1 5 2h7l4-1 1-7 2-3 4-17v-22l-1-10-1-6-1-3 10-1v-2h6v-2h-4z" fill="#FC9C29"/>
<path transform="translate(1017,889)" d="m0 0 4 5 3 6 4 5 22 33v2l-9 1-5 3-6 15-3 2-2-1-10 15-10 13-9 12-14 18-4 5-5 5-4 3h-2v2l-8 1-3 5-1 3-3-1-1 3-3 1-7 8-10 10-6 5-3 6h-2l-2 4-4 3h-2l-1 3-6 4h-2v2l-5 4-5-1 5-5 16-13 13-12 12-12 5-7h2l2-4 10-12 6-9 10-16 12-22 5-8 4-12 2-1 5-13 5-14 6-25 1-11z" fill="#F86D2C"/>
<path transform="translate(1227,862)" d="m0 0 4 5 2 3h16l23 3 7 1 10 1 9 2 11 1 9 3 3 2v-8h1l3 22v7l-4 11-4 2-4-4h-5l-3 1-17 1-10-2-6-2-9-1-7-3h-14l-3-3v-2l-4-2-3-3v21l-1 19h-1l-1-44-2-19z" fill="#FD9138"/>
<path transform="translate(1291,560)" d="m0 0 4 5 9 14 9 16 11 25 7 22 9 45 1 19 1 16-3-2-5-17v-2h-2l-7-16-9-16-11-16-2-2-2-5-4-5-9-11-3-3v-13l-1-4 1-3-1-9 1-7v-7l-1-3 1-6-1-4 1-3h3l1-7z" fill="#FD97CC"/>
<path transform="translate(1071,969)" d="m0 0 3 2v3h2l1 3 2 1 1 7-3 4-5 3-11 12-5 5-16 15-10 9-7 8-8 7-12 11-15 15-5 4-5 5-14 11-10 7-15 9-17 9-13 5-12 3-16 2h-19l-13-1-15-4 1-2h7v-2l10-4h3v2l-2 2v2l10 1h8l18-4 17-6 9-4 22-12 11-7 16-12 13-11 11-9 1-2h2l2-4 6-5 5-6 6-5 6-8 5-5 3-1 2-4 8-7 9-11 9-8 9-11 5-6 4-1z" fill="#FEB63E"/>
<path transform="translate(1055,946)" d="m0 0 5 5 9 14 2 3-1 6-4 2-9 11-10 11-5 4-8 10-8 7-5 5-3 4h-2l-2 4-8 9-5 4-5 6-5 5h-2l-2 4-13 11-15 12-18 13-12 6-15 9-25 9-18 4h-11l-7-2-1-3 3-1-1-3 4-1v-2l11-4 5-3 2 1-6 9h6l10-4 5-3 8-3 6-2 16-8 20-14 9-7 6-5v-2l9-7 6-3 12-11 5-5 12-11 10-11 8-11h2l2-4 5-6h2l2-4 14-15 8-10 4-6 1-4-1-3h-2l-1-7z" fill="#FC9C2A"/>
<path transform="translate(1023,516)" d="m0 0 17 2 35 7 36 9 22 7 24 8 24 10 25 12 9 5v3l5 2 13 8v2l5 2 5 3v2h2v2l6 2 1 4-1 4-5-1-3-1-1-4-8-4-7-2-9-2-10-3-8-4-17-5-8-3-7-4-5-4-6-2-4-4-8-1-7-4v-2l-4-1v-2l-10-3-4-2-9-2-8-2-1-3-4-1-7-3-9-3-7-2-1-1-9-2-2-1-1 2-3-4v-2l-7 1-3-1-2-2-5 1-2-2v-1l-3-3-14-4z" fill="#8C1556"/>
<path transform="translate(1151,741)" d="m0 0 10 4 7 3 2 2 1-2 9 11 5 7-1 2-9-5-4-3-6-1-4 6-11 11-8 6-13 5-10 6-8 5-13 12-7 6-7-1-5-5-9-11-3-3h-5l-2 9-5 4h-2l-2 4-9 7-8 3-11 4-7-1-4-3h-3l-1-6 1-5h12l7-3 13-7 3-1v-2l5-5 5-9 7 1 7 7 6 7 6 3 4-1 3-1 2-4 6-8 9-8 8-6 10-9 13-8 8-7z" fill="#FEB53E"/>
<path transform="translate(762,869)" d="m0 0h2l2 4 12 4 11 8 3 3v2h2l3 5v2l3 1 7 14 3 9 3 5v4l-5 5-7 3-15 8-18 7-10 2v-2l5-2v-4l-4-2 1-5 5-7 3-8-1-22-4-13-6-9-2-2v-6z" fill="#A0F6F5"/>
<path transform="translate(1297,644)" d="m0 0 6 5 10 14 8 13 9 17 2 5v3h2l6 19v5l-2 6v7h-4l2 8-7 2-2 3-6 1v2h-2l-1 5-3 5-4 2-2 5-2 13-1 1-1 7-5-1-3-3v-2l-3-3-6-9-3-6-5-6-4-8h2v-2l6 1v-2l4-4 1-4 11-1 3-3 9-1 2-7v-2h-2l1-5h1v-6l-4-5 4-1 5 1h4l-1-5-2-1-1-4-5-1-1-5 2-6 2-9-2-4h2l-8-16-4-5-8-11z" fill="#9D1146"/>
<path transform="translate(1012,905)" d="m0 0h2l-2 11-5 21-7 18-10 8-7 7-13 10-15 10-23 11-15 6-14 4-17 4-3-1h2l1-3 9-4 15-9 12-9 22-18 10-10 6-5 7-3 10-9 1-3 9-7 14-13 6-3 2-3h2z" fill="#05353B"/>
<path transform="translate(1197,658)" d="m0 0 6 2 7 7 7 8 8 8 7 8 1 3h-2l-1 6-2 4-11 1-3 3-11 4-10 2-12 1-9 2-4-1-11 3-11-3 2 6 2 4h-2l-7-8-6-6v-2l-3-1-2-3 1-5h9l8-3 12-1 5-4 10-2 9-4 7-2 3-3 5-1h7l-2-9h-2l-2-5z" fill="#FDAC34"/>
<path transform="translate(562,1156)" d="m0 0h7l24 7 21 5v1h-16l-10 3-12 7h-2l-2 4-7 6-6 9-3 7v9l2 6-9-3-21-9-11-6-4-8h2l-1-5 6-7 6-4 8-4 5-2 7-6 10-6h2v-2z" fill="#018E9C"/>
<path transform="translate(598,1168)" d="m0 0h10l17 2 28 4 25 2 21 2v1h-14l-34-3-8-1h-14l-8 4-12 5-7 4h-2l-1 3-5 2-1 7 8 7-1 4-4 2v12l-2 1 8 4 1 4-10-2-20-6-14-5-3-4-1-6 1-9 5-9 6-7 6-5 4-4 14-7z" fill="#018391"/>
<path transform="translate(982,528)" d="m0 0 11 3 20 8 1 3h4v2h-6v2l-9 2 2 4v10l1 4v22l-4 17-3 7-1 3-4 2h-7l-5-2-9-2-5-2v-1l9-2-1-9 2-8v-13l1-9-2-12-2-10-3-13 7-4 4 1z" fill="#FDAC34"/>
<path transform="translate(1266,531)" d="m0 0 12 12 9 11 4 5-3 9h-3v6l1 5-1 3 1 4v10h-2l1 5 1 8-1 4 1 4v10l11 12 4 6 2 4-6-5-6-8-22-22-8-7-11-8-8-6-3-5 7 1h3l4-2v-8l3-1 1-11 2-7 2-2-2-8v-9l3-5 1 2 3 1v3h4l1-4-3-1v-3h-2z" fill="#FB50A8"/>
<path transform="translate(709,395)" d="m0 0h28l33 4 27 5 5 1-1 3-6-1-5 3h-4l2 4 1 12 1 22 1 9-3 12-3 5-9 3 1 4h-5l-6-2-7-2-1-3 4-4h2l2-7v-10l-7-32-8-16-4-3-16-4-22-2z" fill="#25EFF7"/>
<path transform="translate(734,600)" d="m0 0h10l9 5 3 2 2 5 1 4 3 2v3h12l7-1h20v-4h2l2-6 6-5 8 2 13 6 9 3 21 11 20 12v3l-6-2-3 2-11-1-24-4-10-1-1 2-6-3-29-5-11-3-26-4-14-1-6-1-12-1h-25l4-2 5-1 14-1h12l1-1-6-1-1-2 7-1h3l1-3h-2v-4z" fill="#8A1049"/>
<path transform="translate(864,761)" d="m0 0h11l10 3 12 2 18 6 17 9-1 9-1 3h-2l-1 5-11-4-9-3-4-2-16-3-21-2-10 2-6 3-4 4h-2v2l-5 2-2 4-3 3h-2v2h-2l-1 3-6 4-5 1-2 4-4 4-2-1 11-17 9-16 2-4 5-4 1-2 7-3 2-3h2v-2l6-4z" fill="#017684"/>
<path transform="translate(894,650)" d="m0 0 6 2 10 7 6 5 8 7 10 8 9 10 14 14 11 15 9 14v2l-3-1-6-10-3-3v-2h-5l-4-7v-2l-5-2-6-6v-2h-2v-2l-5-2v-2l-4-2-5 1-47 20-17 7h-2l2-4 6-10 9-12 10-14 6-7 5-5-2-5-6-10z" fill="#04333B"/>
<path transform="translate(1201,613)" d="m0 0h12l23 2 5 4 3 5 2 1v7l2 12v16h-2v6h-2v10h5l-2 1v2l-7 2 1 4 2 2 3 13 2 5h2l2 5 3 4-1 3-4-1-9-12-11-14-3-4h2l1-3-1-2-2-8-4-5-1-4 1-2h3v-5l-9-3-2-5-3-1-1-2h-2v-2l4-1-2-4 2-7 3 1 3-3-6-9-4-2v-2l-10-2z" fill="#7D0C52"/>
<path transform="translate(1050,939)" d="m0 0 5 5v5l-7 3-5 2-2 5-8 11-5 7h-2v2h-2l-2 4-1 3-5 5-2 3h-2l-2 5-8 10-2 3h-2l-2 4-6 8-5 5-7 8h-2l-2 4-5 5-9 8-5 2-1 3-11 8-9 7h-2v2l-10 5v-2l2-1 2-7 4-5-3-1 12-11 11-11 4-2 1-3h2l1-4 1-1h8v-2l6-4 4-2 2-5 7-8 10-13 9-12 7-9 8-12 5-7 3 1 4-8 4-9 5-3z" fill="#FA7D36"/>
<path transform="translate(975,511)" d="m0 0h11l35 4 16 5 4 3 3 2h3 2v3h10l4 4 11 2 4 5-1 2 10 6 5 4 5 2v2l14 11 5 4 1 5 5 2 8 6 1 3 8 4 6 7 5 2v2l4 2v2l2 2-5-1-3-3-5-1-2 1v-3h-3l-1-2v4l2 1v2l3 1v2l-5-2-3-2v-2l-4-1-6-4v-4l-3-1v-2l-6-2-5-2-3-1-4-4-16-9-6-3 3-1 5-1 2 1-1-3-3-1-2-4h3l-10-9-1-2-14-7-18-7v-2l-8-1-15-5-7-3-7-5-2 1-7-3-1-2-13-2-10-1z" fill="#7D0C53"/>
<path transform="translate(1086,990)" d="m0 0 4 5 3 4v3h-2l-1 5-5 1-1 5-14 15-6 5-5 2-2 4-11 10-4 2-5 5h-2v2l-10 7-3 2-1 3h-2l-1 2-9 6-8 6-5 5-16 12-17 11-10 6h-2v2l-17 8-7 3-16 4-19 2h-11l-19-2-2-2h29l20-3 21-7 17-9 18-11 11-8 20-16 21-18h2l2-4 12-10 9-9h2l1-3 8-7 13-12 6-5 9-11 4-4z" fill="#FFC42B"/>
<path transform="translate(676,444)" d="m0 0h9l13 3 8 5 6 9 3 5 4 4 10 2v1h-29l-33 2-25 3h-14l4-4 5-2h3l1-4 3-9 9-7 11-5z" fill="#CEF6EB"/>
<path transform="translate(1231,885)" d="m0 0 6 3 13-1 16 3 9 1 5 2h9l11 2 13 1 10 2v-9h1l1 15-4 11-4 2-4-4h-5l-3 1-17 1-10-2-6-2-9-1-7-3h-14l-3-3v-2l-4-2-3-3v21h-1l-1-32z" fill="#FA7C36"/>
<path transform="translate(1190,651)" d="m0 0 4 1 7 6-3 1 3 10 1 3h2l2 5v4l-7 1-6 2-3 3-9 2-6 3-12 3-3 3-12 1-8 3h-9l1 7-7-6-3-4-1-9 14-7 11-3 11-4 2-1-2-2 12-3 3 1-1 2h3l1-3 3-2 10-2-1-2 2-5-1-6h2z" fill="#FDA42C"/>
<path transform="translate(860,811)" d="m0 0h25l16 5 11 1 2 3-3 9-10 16-1-2 2-5-10-3-16-5-10-2h-17l-15 3-16 7-9 5-13 6-10 4-2-1 5-5 5-3 3-2 9-3 11-8h2v-2l20-12 9-4z" fill="#019BA9"/>
<path transform="translate(1215,824)" d="m0 0 3 4 8 25v3l17-1 9-1 15 1 9 2 18 2 17 3 8 4 1-2 1 5v14l-10-3-7-1-13-2-2-1-13-1-19-3-11-1h-13l-5-7-1 7h-1l-1-10-5-15-2-10-1-7h-2l-1-3z" fill="#FEB53E"/>
<path transform="translate(1071,969)" d="m0 0 3 2v3h2l-2 7-9 6-11 12-22 22h-2l-2 4-6 5-7 8-8 8-7 8-8 8-8 7-11 10-17 13-11 8-28 15-12 5-21 5-8 1h-24l-5-2v-6l5-2h3v2l-2 2v2l10 1h8l18-4 17-6 9-4 22-12 11-7 16-12 13-11 11-9 1-2h2l2-4 6-5 5-6 6-5 6-8 5-5 3-1 2-4 8-7 9-11 9-8 9-11 5-6 4-1z" fill="#FEAD34"/>
<path transform="translate(1068,965)" d="m0 0 3 3-1 6-4 2-9 11-10 11-5 4-8 10-8 7-5 5-3 4h-2l-2 4-8 9-5 4-5 6-5 5h-2l-2 4-13 11-15 12-18 13-12 6-15 9-25 9-18 4h-11l-7-2-1-3 3-1-1-3 4-2 4 1-1 6 6 1 16-3 20-7 16-8 13-8 11-7 7-4 3-1v-2h2v-2l11-8h2v-2l6-5 5-5 6-4 6-8 10-10 4-7h2l1-3h2l2-5 13-14 7-8 5-6 5-4 7-8 5-7 4-2 3-3 5-1z" fill="#FDA52D"/>
<path transform="translate(497,604)" d="m0 0v3l-3 6v8l6 2 6 10 3-2-1 7-1 23-12 4-9 4-9 1-6-6 1-16 3-9 5-13 2-4 3-3 1-3 5-5z" fill="#FEC75A"/>
<path transform="translate(778,1173)" d="m0 0 7 3 10 4v1l-9 2-18 5-35 9-25 4-14 1h-11l-5-3 1-4 12-5 16-8 22-2 23-1 25-2z" fill="#03606A"/>
<path transform="translate(1014,540)" d="m0 0 9 3 11 5v6l-8 3-3-1-3 1v-2l-2 1 3 14h3v12l-2-3-2 12-1 1-1 8-5 6-3 14-2 3h-3v-2l-6 1-11-3-10-4 4-1 5 2h7l4-1 1-7 2-3 4-17v-22l-1-10-1-6-1-3 10-1v-2h6v-2h-4z" fill="#FDA32C"/>
<path transform="translate(1017,889)" d="m0 0 4 5 3 6 4 5 7 11-1 4-6-4h-2l-1 6-2 10-6 15-2 4-3 3-3 7-3 3h-3v5l-2-1-1 2h-2v4h-3l-1 5-3 6-1 1-3 1-2 4-9 17-6 7-8 12-7 9-8 8v-3l8-9 6-8 3-5 10-16 12-22 5-8 4-12 2-1 5-13 5-14 6-25 1-11z" fill="#F7501D"/>
<path transform="translate(762,869)" d="m0 0h2l2 4 12 4 11 8 3 3v2h2l3 5v2l3 1 7 14 3 9 3 5v4l-5 5-7 3-15 8-3-1 8-5-1-7-3-18-6-14-10-15-4-4v-2l-5-2-3-3v-4z" fill="#5FF0F2"/>
<path transform="translate(931,690)" d="m0 0 4 1 3 2v2l5 2v2h2l7 8 4 2 4 7-1 4-6 16-8-6-12-6v-2l-6-2-6-5-7-4-3-5-2-1h-11l3-2z" fill="#034D55"/>
<path transform="translate(861,799)" d="m0 0h22l12 2 7 3 13 3 4 3-1 5-4 8-1-4-1-1-11-1-16-5h-25l-12 2-16 8-11 7h-2v2l-12 8-8 4-3-1 6-7 5-3h3v-2l7-4 11-10 15-10 10-5z" fill="#018D9B"/>
<path transform="translate(1291,560)" d="m0 0 4 5 9 14 9 16 6 13-1 3-11-19-3-6-4-1v24 3l1 9v6l1 3 1 9-1 2h-2l-1 3-6-8-8-9v-13l-1-4 1-3-1-9 1-7v-7l-1-3 1-6-1-4 1-3h3l1-7z" fill="#FE81C8"/>
<path transform="translate(1045,773)" d="m0 0 9 1v2h2l2 5 5 5-1 2-3-2-5-1-2 6-6 8h-2v2l-14 8-5 3-4 1h-7l-5-1v5h-2l-4-18v-10h3v2h7l5-1 10-4 7-3 8-9z" fill="#FDA32C"/>
<path transform="translate(483,617)" d="m0 0h3l-2 5h-2l-1 4-5 14-3 10-1 14 5 5 12-2 8-4 10-2v-23h1l1 23 1 2 1 13-5 1-7 1-15 7-7 3h-10l-5-5-2-7 2-10 1-9h2l1-10 4-8 3-5 7-10 2-6z" fill="#FEB43E"/>
<path transform="translate(546,564)" d="m0 0 1 4-8 8-11 14-8 13-5 11-5 13-3 7-5-5-2-6-6-1-1-1v-8l4-7 2-5 6-7 8-7 5-6h2l1-3 5-4 3-3h8l7-6z" fill="#FEE942"/>
<path transform="translate(1135,727)" d="m0 0h7l10 5v3l4 1-1-4 5 4v2h2l2 5-4-1-10-6h-7l-4 9-10 8-9 7-12 9-7 7-8 6-7 8-5 7-5 1-6-3-7-6 2-1 6 3h4l4-8 2-2h4l2-6 8-8 7-3 6-7h2v-2h2l2-4 7-3 1-2h2l1-7 4-5h2l2-4z" fill="#FDA52D"/>
<path transform="translate(590,542)" d="m0 0 3 1-9 3-2 4-14 7-11 8-2 3h-2l-2 4-9 9-3 5-5 7-3 1-8 16-3 7h-2v7l-3 9v18l1 6 1 8-1 1 1 22-2-3-4-14-1-7-2-3v-27l2-10 8-19 8-14 9-11 11-12 9-7 9-6 21-11z" fill="#F62524"/>
<path transform="translate(1143,735)" d="m0 0h7l11 7 6 1 3 3 1 5-4-2-15-7-5 5-6 7-9 7-11 7-12 11-11 8-7 8-4 6-4 3-5-1-6-4-4-4 1-2 4 3 6 1 5-5 6-8 9-8 8-7 10-8 12-9 10-8z" fill="#FEAD35"/>
<path transform="translate(755,623)" d="m0 0h9l15 3-3 9-6 10-7 17-5 15-2 7-2 21h-1l1-61z" fill="#FB97C8"/>
<path transform="translate(1015,883)" d="m0 0 2 3-1 10-1 1-1 8h-2l-1 10-4 4-7 4-16 15-4 3h-2l-1 4-10 9-3 2-3-1 11-13 9-11 10-13 16-24 7-10z" fill="#018A98"/>
<path transform="translate(734,1067)" d="m0 0 8 4 10 7 2 1v2l5 2 10 7 9 5 26 13 21 8 17 4v2l-7 1-1 1-7-1-14-5-12-5-7-3 2 5-5-2-12-8-13-9v-2l-5-2-14-11-10-8-3-4z" fill="#FDA92F"/>
<path transform="translate(1325,636)" d="m0 0 4 4 2 12 3 4 6 31 1 19 1 16-3-2-6-19-3-10-1-5h-2l-4-11 2-6h2l-1-5-1-12-2-5v-9z" fill="#FDFDFD"/>
<path transform="translate(755,996)" d="m0 0 5 2 22 10 16 5 21 4 15 2-4 4-6 1h-16l-17-3-18-5-13-5 3-2v-4l-7-4v-2h-2z" fill="#F93F5F"/>
<path transform="translate(553,544)" d="m0 0 16 1 3 1v4h-2l-2 4-12 7-7 6h-2l-1-2-6 4-3 3h-10l-2 4-7 6-7 8-5 4v-3l5-4 3-8 4-3h2l1-4 5-3 5-4 1-2h2l1-3 8-7 5-6z" fill="#FEC758"/>
<path transform="translate(729,645)" d="m0 0 1 3-10 18-13 26-5 12-8 20-6 17h-3l-2-9 1-7 4-7 1-6 4-2-1-4h2v-2l5-2 2-4h-2v-9l10-18 4-8h2v-3l4-1v-2h2l4-8z" fill="#7C0C53"/>
<path transform="translate(1052,778)" d="m0 0 5 1 6 7-1 2-3-2-5-1-2 6-6 8h-2v2l-14 8-5 3-4 1h-7l-5-1v5h-2l-1-5v-12l9 2 15-4 10-7 9-9z" fill="#FDAB34"/>
<path transform="translate(767,557)" d="m0 0 8 1 7 2 16 3 13 3 2 3h-2l1 8 2 1 1 2-1 2-6-2-2-2-10-3-5-1-7-3-10-2-8-3-4-2v-2l-2-1 4-2z" fill="#DF101D"/>
<path transform="translate(553,971)" d="m0 0 4 1 9 15 14 22 11 15 10 13 5 6h-3l-8-4-3-6-1-5-4-1-8-7-4-6v-2h-2l-7-13-2-4h-2l-10-14-2-3 1-5z" fill="#05363C"/>
<path transform="translate(869,424)" d="m0 0h7l2 13-1 5v20l-1 3 1 2-2 7 1 6-1 1-1 16 1 2-2 1h-6l3-1-1-2z" fill="#FC58AB"/>
<path transform="translate(763,870)" d="m0 0 3 3 12 4 11 8 3 3v2h2l3 5v2l3 1 7 14 3 9 3 5v4l-5 5-2-1-1-6-8-18-7-12-12-14-5-4-11-6z" fill="#24EEF7"/>
<path transform="translate(967,707)" d="m0 0 1 2 3 1 7 11v2l3 1 3 4v2l3 1 5 6 6 3v2l7-1-1 3-12 5-3 1-1 4-11-21-15-22-1-3z" fill="#F97B33"/>
<path transform="translate(445,673)" d="m0 0 1 4h-2l-2 9-1 8 2 13 3 15 3 6 4 10 6 25 6 16 4 9 6 15 4 9-1 3-2-2-15-36-13-33-4-13-4-20-1-6v-16l4-13z" fill="#F76B28"/>
<path transform="translate(837,914)" d="m0 0 3 1-13 10-15 10-13 8-21 10-25 8-29 6-4-4 30-6 21-6 21-9 11-6 12-6 17-12z" fill="#249283"/>
<path transform="translate(503,881)" d="m0 0 5 1 8 16 14 27 1 6 4 6 2 8-4-1-11-19-9-19-7-15-3-7z" fill="#054B52"/>
<path transform="translate(1240,867)" d="m0 0h15l21 3 19 2 13 1 12 3v-7h1v14l-10-3-7-1-13-2-2-1-13-1-19-3-11-1h-13v-3z" fill="#FDAB34"/>
<path transform="translate(590,542)" d="m0 0 3 1-9 3-2 4-14 7-11 8-4 4-8 7-6 5-7 9-2 2-1 4-5 4-8 15-5 14-1 5h-1v-7l8-20 6-11 10-14 14-15 8-6 9-6 21-11z" fill="#F7591C"/>
<path transform="translate(542,743)" d="m0 0 3 1 8 15 5 8v4h2l9 18 1 5 2 6 3 11 3 9-3-3-13-26-4-11v-3h-2l-2-9h-2l-3-9-4-7z" fill="#F93F5F"/>
<path transform="translate(993,964)" d="m0 0 2 1-4 10-10 17-10 18-7 10-6 9-9 11-8 9-4 4 2-5 1-3 4-4h2v-3h3l1-5h2l-1-4 3-3h2v-2h2l-1-4h2l2-5 1-2h2l1-5h2v-2l3-3h2l3-9 9-13 6-9v-5z" fill="#F62125"/>
<path transform="translate(681,474)" d="m0 0h8l-4 2-19 4h-4v2l-21 5-15 4-9 4-9 3 3-3 5-1v-3l6-3 20-7 8-2 11-2v-2z" fill="#B6102E"/>
<path transform="translate(1012,905)" d="m0 0h2l-2 11-6 8-2 3-5 3-22 18-8 7-5 5-11 7-2-1 3-5 6-5 7-3 10-9 1-3 9-7 14-13 6-3 2-3h2z" fill="#016B78"/>
<path transform="translate(1015,883)" d="m0 0 2 3-1 10-1 1-1 8h-2l-2 4-7 3-4 4h-2l-1 3h-3l2-7 12-18 7-10z" fill="#06BFCA"/>
<path transform="translate(692,676)" d="m0 0h4v5l-4 6-4 10-4 7-1 2-5 5-2-1-1-4 2-6-1-4 4-5 2-5h2l2-5z" fill="#7D0C53"/>
<path transform="translate(701,699)" d="m0 0 2 1-1 4-8 20-6 17h-3l-2-9 1-7 4-7 1-6 4-2-1-4h2v-2l5-2z" fill="#7D0D53"/>
<path transform="translate(607,531)" d="m0 0 8 1 1 2-9 1v2l-24 9-13 6v-2h2l-1-5 7-3 7-5 11-4z" fill="#FEBE2B"/>
<path transform="translate(938,688)" d="m0 0 5 3v2l4 2 4 5 3 3h3l11 15 9 14v2l-3-1-6-10-3-3v-2h-5l-4-7v-2l-5-2-6-6v-2h-2v-2l-5-2v-2l-4-2-2-2z" fill="#043E43"/>
<path transform="translate(633,521)" d="m0 0 16 1 8 3-1 7h-30l2-2h7l2-2v-2h-10l4-4z" fill="#FEB43D"/>
<path transform="translate(793,1109)" d="m0 0 7 2 3 2v2l6 2 8 4 8 2 15 5v1h-6l-8-2 2 2-1 3-6-2-22-12-4-4z" fill="#FEBD2C"/>
<path transform="translate(921,511)" d="m0 0 9 1 35 10v3h-18l-5-3-8-3 2-3-6 1-3 1-3-2v-3z" fill="#FDB42B"/>
<path transform="translate(536,732)" d="m0 0 3 4 6 12 4 10 3 7v3h2l2 9h2l3 9 7 15 8 16-1 4-8-15-5-11v-3l-3-1-3-9-11-27-5-11v-2h-2l-2-6z" fill="#F73F20"/>
<path transform="translate(520,571)" d="m0 0 2 1-2 4-6 4-3 8-3 3h-2l-1 4-13 16-5 5 3-11 9-11 11-12 9-10z" fill="#F88F27"/>
<path transform="translate(664,937)" d="m0 0 4 2 11 11v2l4 2 9 9 1 2 5 3 5 4 1 2 3 1v2h2l5 5 6 5-2 1-8-5-6-6-5-2-3-3v-2l-3-1v-2l-4-2-3-3v-2l-5-2-5-5-3-4-3-5z" fill="#ED1F28"/>
<path transform="translate(1325,636)" d="m0 0 4 4 2 12 1 2-3 1-1 8 1 6v7l1 4-2 6-2-3-3-9 2-5h2l-1-5-1-12-2-5v-9z" fill="#C3E1B3"/>
<path transform="translate(831,738)" d="m0 0 5 10v2l6-2 2 3v5l-2 6h-2l-1 6-3 3-1-11-2-4v-6l-3-1v-10z" fill="#730B4D"/>
<path transform="translate(587,487)" d="m0 0 4 1-5 2v2l-24 10-8 2-5 1 3-4 3-1 2-3h3v-2l19-5z" fill="#02626D"/>
<path transform="translate(1e3 927)" d="m0 0 3 1-14 12-9 7-10 9-15 12-10 6-8 5-2-1 13-12 4-3v3l12-8 3-1 2-4 14-12 14-11z" fill="#034E56"/>
<path transform="translate(528,519)" d="m0 0 3 1-9 6h-2v2l-9 6-3 1v2l-5 3-12 11-3 3h-5v2l-4 1v2l-4 1 5-6h2v-2h2v-2h3v-2l19-14 12-9z" fill="#033C42"/>
<path transform="translate(765,954)" d="m0 0h4v2l-24 7-22 4-3-4 30-6z" fill="#168A86"/>
<path transform="translate(1287,779)" d="m0 0h3l11 23 5 14-2 4-5-6-2-8v-5h-2l-1-7h-2z" fill="#FDD13E"/>
<path transform="translate(503,881)" d="m0 0 5 1 8 16 1 3-1 2v4l2 1 1 7h-2l-12-26-2-5z" fill="#074E53"/>
<path transform="translate(794,1107)" d="m0 0 4 1 8 3 1 2 12 3 1 1h9l13 3v2l-7 1-1 1-7-1-14-5-12-5-7-5z" fill="#FEB33C"/>
<path transform="translate(1215,577)" d="m0 0 6 2 15 9 14 10 12 9 3 4-4-1v-2l-4-2-9-4-3-2v-2l-4-1v-2l-8-4v-2l-5-2-13-8z" fill="#9E1042"/>
<path transform="translate(1011,907)" d="m0 0 1 2-2 4-7 3-5 6-8 6h-2l-2 4-3 1 1-6 9-12 1 2-1 2 3-1 8-8z" fill="#019AA8"/>
<path transform="translate(909,507)" d="m0 0h13l52 3v1l-12 1-1 3-6-1v-2h-8v-2h-17v2l-9-1-12-3z" fill="#861256"/>
<path transform="translate(624,526)" d="m0 0h13l1 3-3 2h-7l5 1v1l-19 3-8 3-4-1 5-1v-2l9-2 2-6h5z" fill="#FDA72B"/>
<path transform="translate(1343,798)" d="m0 0 1 4v7l-2 5-3 3-2-1-2-2-1 7-4 6-1-2h-2l1-4 3-5 2-5 4-3 3-9z" fill="#8A1048"/>
<path transform="translate(544,499)" d="m0 0 3 1-11 8-9 5h-6l-9 6-3-1 3-4 4-3 20-8h2v-2z" fill="#018593"/>
<path transform="translate(1333,657)" d="m0 0 2 4 5 26 1 19 1 16-3-2-4-12 1-3 3 6-1-17-2-9-1-12-3-9z" fill="#FD96CD"/>
<path transform="translate(556,496)" d="m0 0 4 1-3 1-2 3-26 12-15 9-8 5-2-1 5-4 15-9 12-6 6-5 8-4z" fill="#016C79"/>
<path transform="translate(1077,568)" d="m0 0 6 1 12 7 11 6 2 3 5 1 8 4 3 3v3l-5-2-10-6-3-1v-2l-5-2-5-3v-2l-5-1-14-8z" fill="#AB1436"/>
<path transform="translate(734,1067)" d="m0 0 8 4 10 7 2 1v2l5 2 1 2h-3v2h2l1 3-4-2-17-13-5-6z" fill="#FB8D2C"/>
<path transform="translate(774,1094)" d="m0 0 4 1 26 13 21 8v1l-6 1v-2l-7-1-6-2v-2l-8-2-17-9-7-5z" fill="#FB8A2B"/>
<path transform="translate(921,1071)" d="m0 0 1 3h-2l-2 4-4 3h-2l-1 3-6 4h-2v2l-5 4-5-1 5-5 16-13 3-3z" fill="#FC8534"/>
<path transform="translate(457,763)" d="m0 0h2l6 16 4 9 6 15 4 9-1 3-2-2-15-36-4-10z" fill="#F66B26"/>
<path transform="translate(983,940)" d="m0 0 2 1-12 11-8 7-12 8-2-1 3-5 6-5 7-3 11-10z" fill="#026B76"/>
<path transform="translate(750,1160)" d="m0 0 5 1 22 11-1 4-4 1-19 1 4-2 15-2-2-2-4-2-7-2-2-1-1-3-6-3z" fill="#04828D"/>
<path transform="translate(729,645)" d="m0 0 1 3-10 18-13 26-2-2 3-7h2l1-5 3-7h2l2-8v-4l1-2h2l4-8z" fill="#771056"/>
<path transform="translate(535,590)" d="m0 0 1 3-1 4 3 1v5l-3-1-5 4-3 4-3-1 1-4 7-14z" fill="#D20D1B"/>
<path transform="translate(967,707)" d="m0 0 1 2 3 1 6 10-6 1-1 2-8-12-1-3z" fill="#F76D2A"/>
<path transform="translate(1239,701)" d="m0 0 5 5 8 11-2 1v3h-3l-5-6-2-1-2-11z" fill="#FCB42C"/>
<path transform="translate(776,1173)" d="m0 0h2l1 3-2 2-25 2h-62v-1l60-1 24-2 2-2z" fill="#017381"/>
<path transform="translate(833,1020)" d="m0 0h13v2l-9 3-19 1-19-2-3-2 12 1h20z" fill="#EA1C30"/>
<path transform="translate(623,884)" d="m0 0 5 5 4 7 4 4v2h2l3 5 4 6-2 1-6-4-7-11-3-5-2-2z" fill="#ED212B"/>
<path transform="translate(922 1e3)" d="m0 0 2 1-9 4-16 5-8 2-10 3-6-1 3-2 5-2 11-2 16-4z" fill="#7D0E40"/>
<path transform="translate(1100,572)" d="m0 0 5 2 1 5h8l-1 3h2l1-2 3 3-2 3h-9l-5-5-2-4 1-2-3-1z" fill="#740B4C"/>
<path transform="translate(584,546)" d="m0 0 2 1v2l-18 10-6 4-9 10-8 7-4 3 2-4 9-9 1-2h2l2-4 6-5 7-4 13-7z" fill="#DE0F1D"/>
<path transform="translate(1006,938)" d="m0 0h1l1 7-3 12-4 1v2h-3l1-5 6-16z" fill="#F56229"/>
<path transform="translate(1215,824)" d="m0 0 3 4 8 25 1 6v12h-1l-1-10-5-15-2-10-1-7h-2l-1-3z" fill="#FEB539"/>
<path transform="translate(468,632)" d="m0 0 1 2-7 11-2 2v7l-6 7-1 2h-2l-1 5-1 2h-2l2-6 5-7 2-8 10-14z" fill="#F4562A"/>
<path transform="translate(509,663)" d="m0 0h1l1 13-5 1-7 1-15 7-7 2 4-4 13-5 10-5h5z" fill="#FDA935"/>
<path transform="translate(456,657)" d="m0 0 1 2-7 12-4 13-5 9-1-2 4-14h2l1-7h2l2-7h2l2-5z" fill="#FA7934"/>
<path transform="translate(700,472)" d="m0 0h9v1l-31 6h-7v-1l14-3h-18v-1z" fill="#F66942"/>
<path transform="translate(787,620)" d="m0 0h14l4 5-4 1-13-1-2-1v-2l-2-1z" fill="#9D1146"/>
<path transform="translate(587,487)" d="m0 0 4 1-5 2v2l-17 7-3-1 3-3 1-3 9-2z" fill="#025C65"/>
<path transform="translate(797,629)" d="m0 0 11 1 19 3 17 3v1l-16-1-1 2-6-3-17-3-7-2z" fill="#760B4F"/>
<path transform="translate(944,1044)" d="m0 0 3 1-2 4-14 14-6 5-4 4-2-1 20-20z" fill="#F96126"/>
<path transform="translate(786,945)" d="m0 0h2l-1 4-15 6h-11l3-2 17-6z" fill="#1B8D84"/>
<path transform="translate(655,481)" d="m0 0h7v1l-21 5-10 3h-5l4-2h3v-2l10-4z" fill="#E62E1F"/>
<path transform="translate(657,475)" d="m0 0h4v2l-13 4-13 3-9 4-2-1 9-5 11-3-2-2z" fill="#542346"/>
<path transform="translate(664,937)" d="m0 0 4 2 11 11v2l4 2 3 3v3l-5-2-5-5-3-4-3-5z" fill="#F2302E"/>
<path transform="translate(1056,521)" d="m0 0h7l26 5 10 3v1h-8l-30-7-5-1z" fill="#FA45A2"/>
<path transform="translate(993,964)" d="m0 0 2 1-4 10-10 17-4 3-2-1 9-13 6-9v-5z" fill="#EE1E2C"/>
<path transform="translate(474,626)" d="m0 0v3l-4 9-9 13h-2l1-5 7-10 6-9z" fill="#F4592A"/>
<path transform="translate(551,569)" d="m0 0 2 1-11 11-3 5-5 7-5 2 1-4 7-8 5-5z" fill="#F42025"/>
<path transform="translate(580,827)" d="m0 0 4 5 5 5-1 5 9 20-1 3-11-24-5-11z" fill="#F62125"/>
<path transform="translate(747,554)" d="m0 0 7 1 1 5h4l-2 4h-3v-2h-5l-3-4z" fill="#DE0D1C"/>
<path transform="translate(736,960)" d="m0 0h5l-1 4-17 3-3-4z" fill="#1F867B"/>
<path transform="translate(891,1093)" d="m0 0 2 1-1 3h-2l-2 4-10 6-4 1v-3l4-3 6-3 1-2h3v-2z" fill="#FC902A"/>
<path transform="translate(968,1015)" d="m0 0v3l-11 16-10 10v-3l8-9 6-8 3-5z" fill="#F94F1D"/>
<path transform="translate(818,800)" d="m0 0 1 4-2 5h-2l-2 6-2-1-2-4v-6h5z" fill="#82115E"/>
<path transform="translate(528,506)" d="m0 0h2l-1 3-11 6-6 4-3-1 3-4 4-3z" fill="#018795"/>
<path transform="translate(825,1117)" d="m0 0 8 1 9 2v2l-7 1-1 1-7-1v-2l-2-1z" fill="#FC9833"/>
<path transform="translate(556,496)" d="m0 0 4 1-3 1-2 3-13 6-3-1 8-7z" fill="#01717F"/>
<path transform="translate(606,490)" d="m0 0 3 1 1 3-2 4-7 2-4-1 2-4 4-3h3z" fill="#093942"/>
<path transform="translate(734,1067)" d="m0 0 8 4 7 5-2 1 1 4-9-6-5-6z" fill="#FA7A35"/>
<path transform="translate(668,838)" d="m0 0h1l2 23 2 10v5l-2-1-2-8-2-17-1-4h2z" fill="#F67D91"/>
<path transform="translate(445,673)" d="m0 0 1 4h-2l-2 9-1 8 2 15-2 1-2-5v-16l4-13z" fill="#F35E21"/>
<path transform="translate(1211,673)" d="m0 0 4 2 5 3 3 3 1 6-3 1-4-6-4-5z" fill="#FDA939"/>
<path transform="translate(771,628)" d="m0 0h7l-3 9-4 6-2-4v-2h3l-2-4z" fill="#FC6D8B"/>
<path transform="translate(489,606)" d="m0 0 1 3-3 7-5 3-1 5h-4v2h-2l2-4 6-8 3-5h2z" fill="#F46526"/>
<path transform="translate(837,914)" d="m0 0 3 1-13 10-13 9-2-1 4-4 12-8z" fill="#259382"/>
<path transform="translate(1287,779)" d="m0 0h3l8 16-1 3-3-2v-2h-2z" fill="#FCC23E"/>
<path transform="translate(509,895)" d="m0 0 4 2 3 6v4l2 1 1 7h-2l-8-17z" fill="#035963"/>
<path transform="translate(808,566)" d="m0 0 4 1 1 2h-2l1 8h-3v-2l-3 1v-2l-2-1h2l-3-6h5z" fill="#EA141E"/>
<path transform="translate(562,794)" d="m0 0 3 1 11 22-1 4-8-15z" fill="#F8421F"/>
<path transform="translate(985,529)" d="m0 0 10 3 6 2-4 2h-9z" fill="#FB9C35"/>
<path transform="translate(1055,946)" d="m0 0 5 5 2 7h-5v-2h-2l-1-7z" fill="#FD9735"/>
<path transform="translate(1297,644)" d="m0 0 6 5 10 14 1 3-4-2-10-14-3-4z" fill="#9B1249"/>
<path transform="translate(1e3 927)" d="m0 0 3 1-14 12-9 7h-3l8-8 12-9z" fill="#034E56"/>
<path transform="translate(750,1160)" d="m0 0 5 1 16 8-4 2-8-3-2-1-1-3-6-3z" fill="#117F80"/>
<path transform="translate(976,735)" d="m0 0h3l8 15-1 3-6-8-4-8z" fill="#0A3F3E"/>
<path transform="translate(622,488)" d="m0 0h8l-4 1-1 3-8 3-9 3 3-3 5-1v-3z" fill="#B8192C"/>
<path transform="translate(804,1110)" d="m0 0 8 1 13 5v1l-6 1v-2l-7-1-6-2v-2z" fill="#FB8C2C"/>
<path transform="translate(975,944)" d="m0 0 2 1-10 9-3 2-3-1 8-10h5z" fill="#017785"/>
<path transform="translate(683,746)" d="m0 0h2l-1 8-3 6-3 1 2-13z" fill="#7E0E56"/>
<path transform="translate(1335,705)" d="m0 0 2 2 2 3v-4h2l1 16-3-2-4-12z" fill="#FC88B3"/>
<path transform="translate(518,605)" d="m0 0h2l-2 6-7 18-1 5h-1v-7l8-20z" fill="#F6621D"/>
<path transform="translate(520,571)" d="m0 0 2 1-2 4-6 4-2 7-3-1-3 3-2-1 7-7 7-8z" fill="#F79626"/>
<path transform="translate(1110,585)" d="m0 0 9 4 5 4v3l-5-2-8-5z" fill="#9C103E"/>
<path transform="translate(536,732)" d="m0 0 3 4 6 12 2 9-3-3-4-10v-2h-2l-2-6z" fill="#F84E21"/>
<path transform="translate(963,713)" d="m0 0 5 5 9 14v2l-3-1-6-10-3-3z" fill="#093E3E"/>
<path transform="translate(921,511)" d="m0 0 9 1 5 2-2 2-6 2-3-2v-3z" fill="#FBAA2B"/>
<path transform="translate(661,475)" d="m0 0h16l-3 2-12 2-2 1h-6v-1h5v-2h2z" fill="#9D143A"/>
<path transform="translate(509,585)" d="m0 0 2 1-2 4-3 1-1 4-4 4v-2l-2-1 4-5 5-5z" fill="#FEAE35"/>
<path transform="translate(949,509)" d="m0 0h12l13 1v1l-12 1-1 3-6-1v-2h2v-2h-8z" fill="#811560"/>
<path transform="translate(757,1085)" d="m0 0h5l7 5-4 2 1 2-5-2-2-5h-2z" fill="#FD9F2F"/>
<path transform="translate(1194,652)" d="m0 0h5v2l3 1 3 3 3 5 3 3-1 3-7-8-7-7z" fill="#8E0E47"/>
<path transform="translate(518,576)" d="m0 0 1 2-4 8-8 8-1-3 5-4 3-8z" fill="#FFC443"/>
<path transform="translate(1231,938)" d="m0 0 3 1-2 13-3 2v-7z" fill="#F8531D"/>
<path transform="translate(1207,806)" d="m0 0 3 4 5 11-1 3-2-1-5-11z" fill="#FEB735"/>
<path transform="translate(729,645)" d="m0 0 1 3-5 9h-2l-3 5-2-3 1-2h2l4-8z" fill="#711D5A"/>
<path transform="translate(499,675)" d="m0 0m-2 1h2l-1 3-19 8-2-1 6-4 11-4z" fill="#FEAD35"/>
<path transform="translate(480,819)" d="m0 0h2l7 15v5l-3-4-6-14z" fill="#F56A25"/>
<path transform="translate(693,719)" d="m0 0h1l-1 8-3 9h-2v-7l1-2h2l-1-3 1-3h2z" fill="#741452"/>
<path transform="translate(824,702)" d="m0 0 2 4 2 21-2-2-2-12-1-10z" fill="#730B4D"/>
<path transform="translate(468,632)" d="m0 0 1 2-7 11-2 2-2 5-3 1 2-5z" fill="#9C1034"/>
<path transform="translate(483,617)" d="m0 0h3l-2 5h-2l-1 4-2 5-5 3 2-5 4-5 2-6z" fill="#FEAC36"/>
<path transform="translate(494,603)" d="m0 0 4 1-10 12v-3l2-7z" fill="#FEAA33"/>
<path transform="translate(477,624)" d="m0 0 3 1-6 9-3 5-2-1 6-12h2z" fill="#FD9133"/>
<path transform="translate(613,496)" d="m0 0 2 1-2 2-7 3-3 2h-6l5-4z" fill="#F87C2B"/>
<path transform="translate(1124,1041)" d="m0 0 5 1v7l-2 1-3-3z" fill="#FFEC41"/>
<path transform="translate(952,963)" d="m0 0v3l-5 5-5 6-6 2 5-5z" fill="#156157"/>
<path transform="translate(966,955)" d="m0 0h2v2l-15 10-2-1 4-4z" fill="#02606B"/>
<path transform="translate(941,515)" d="m0 0h11l1 3 8 1 3 3-16-4-7-2z" fill="#980F40"/>
<path transform="translate(615,874)" d="m0 0 4 4 6 9-1 3-6-8v-3h-3l-1-3z" fill="#E71426"/>
<path transform="translate(1254,601)" d="m0 0 6 2 12 11-1 2-11-10-6-4z" fill="#F73491"/>
<path transform="translate(814,1116)" d="m0 0h5l1 1h5v3l3 1-4 1-6-2-1-2z" fill="#FEAC35"/>
<path transform="translate(776,949)" d="m0 0 2 1-3 4-6 1h-8l3-2z" fill="#129898"/>
<path transform="translate(977,936)" d="m0 0v3l1 5-4 2h-4l2-4z" fill="#01818F"/>
<path transform="translate(471,798)" d="m0 0h2l6 14-1 3-2-2-5-12z" fill="#F56A24"/>
<path transform="translate(979,986)" d="m0 0 1 2-5 8-3 7h-2l-1 3-1-2 4-6 3-7z" fill="#E40F20"/>
<path transform="translate(1223,849)" d="m0 0 2 1 2 9v12h-1l-1-10-2-6z" fill="#FEA931"/>
<path transform="translate(569,691)" d="m0 0 3 2 7 17-1 3-9-19z" fill="#A10E3A"/>
<path transform="translate(791,1103)" d="m0 0 5 1 11 5v1h-7l-7-4v-2z" fill="#FA832C"/>
<path transform="translate(881,1014)" d="m0 0 8 1v2l-8 2-6-1 3-2z" fill="#952D3D"/>
<path transform="translate(1212,823)" d="m0 0 3 1v5h2l3 10-1 3-7-17z" fill="#FFC12C"/>
<path transform="translate(655,481)" d="m0 0h7v1l-16 4h-5l3-1v-2z" fill="#F96029"/>
<path transform="translate(811,932)" d="m0 0 2 1-4 4-3 2h-6l4-4z" fill="#169692"/>
<path transform="translate(1012,905)" d="m0 0h2l-2 11-5 5h-3l5-6h2z" fill="#117876"/>
<path transform="translate(822,681)" d="m0 0 2 1v10l1 8-2 2-1-6z" fill="#730B4D"/>
<path transform="translate(538,584)" d="m0 0 2 1-6 8-5 2 1-4z" fill="#EE1D29"/>
<path transform="translate(686,958)" d="m0 0 6 5 1 2 4 2-2 1-5-2-4-4z" fill="#F02624"/>
<path transform="translate(983,940)" d="m0 0 2 1-12 11-2-1 7-8z" fill="#026470"/>
<path transform="translate(1077,568)" d="m0 0 6 1 8 5v2l-5-2-9-5z" fill="#A10F39"/>
<path transform="translate(646,527)" d="m0 0h6l3 3-1 2-7-1v-2l-3-1z" fill="#FFBA2D"/>
<path transform="translate(623,884)" d="m0 0 5 5 4 7-2 1-5-5z" fill="#F02B35"/>
<path transform="translate(734,1067)" d="m0 0 8 4 1 2-2 1 1 2-4-2-4-5z" fill="#F96D2D"/>
<path transform="translate(765,954)" d="m0 0h4v2l-9 3-3-1 1-3z" fill="#288A78"/>
<path transform="translate(521,698)" d="m0 0 3 2 4 10-1 4-6-14z" fill="#F73822"/>
<path transform="translate(467,639)" d="m0 0v3l-6 9h-2l1-5 5-5z" fill="#F87032"/>
<path transform="translate(481,556)" d="m0 0m-2 1h2v3l-7 5-2-1v-3l7-2z" fill="#03363C"/>
<path transform="translate(904,1083)" d="m0 0 2 1-9 9-4-1z" fill="#FA6F2C"/>
<path transform="translate(673,713)" d="m0 0 4 1-3 10-3-2 2-5-1-2z" fill="#7D0C53"/>
<path transform="translate(1010,912)" d="m0 0 1 3-4 1-2 2-6 2 5-6z" fill="#018C9A"/>
<path transform="translate(766,621)" d="m0 0 11 1v2h-13v-2z" fill="#97134C"/>
<path transform="translate(765,1090)" d="m0 0 5 2 3 3-7 1-2-5z" fill="#FEAD3B"/>
<path transform="translate(1007,915)" d="m0 0 2 1-2 3-7 4-3 2 1-5 8-4z" fill="#018290"/>
<path transform="translate(489,606)" d="m0 0 1 3-3 7h-3l1-3 1-4h2z" fill="#E9722B"/>
<path transform="translate(933,515)" d="m0 0 4 1-3 4-7-1 3-3z" fill="#FFC85B"/>
<path transform="translate(708,980)" d="m0 0 5 1 7 6-2 1-8-5z" fill="#EA1524"/>
<path transform="translate(993,964)" d="m0 0 2 1-4 10-2 3-2-1 3-5v-5z" fill="#EE1A23"/>
<path transform="translate(1032,949)" d="m0 0 1 3-4 8h-3l2-1 1-6z" fill="#EE6D17"/>
<path transform="translate(502,875)" d="m0 0h3l2 6-5 1-1-4z" fill="#074143"/>
<path transform="translate(1218,657)" d="m0 0 1 2 3 1-1 6-5-4z" fill="#7D0C53"/>
<path transform="translate(1142,608)" d="m0 0h5l5 6-1 2-9-7z" fill="#960E41"/>
<path transform="translate(1130,600)" d="m0 0 9 3v2l3 1v2l-5-2-3-2v-2l-4-1z" fill="#9D0F3B"/>
<path transform="translate(591,487)" d="m0 0 3 1-4 4-7 1 3-1v-2z" fill="#02434A"/>
</svg>
