<?xml version="1.0" encoding="UTF-8"?>
<svg version="1.1" viewBox="0 0 2000 2000" width="1280" height="1280" xmlns="http://www.w3.org/2000/svg">
<path transform="translate(959,256)" d="m0 0h11l5 5 1 6 11 2v2h13l8 3h13l11 2 23 2 16 4 10 4 13 3 8 3 11 2 16 2 9 1h20l4-2 1-2 1-12 5-5h11l5 6 1 6 3 2 13 4 5 3 8 1 5 3 7 2 4 2 8 2 12 5 5 3 7 3 10 5 15 4 18 8 6 4 10 3v2l7 1 5 3 8 3v2l5-2 7-6 2-1h10l6 4 4 4 2 5v7l-2 7 5 2 7 6 5 3v2l5 2 9 7 7 6 5 3 10 7v2h2v2l5 2 2 1v2h2v2l5 2 9 8 5 3 12 9v2l5 2 2 1v2h2v2l4 1 6 5 5 3 9 7 9 6 3 3v2l6 3 13 1 5 4v12l4 7 3 3 3 5 6 4 5 10 7 7 3 7 7 8 6 11 5 7v2h2l4 7 8 10 4 6 8 11 7 10 16 22 10 1 6 5 2 4-1 6-4 5 3 12 2 2 2 6v4h2l3 10 4 8 5 15 4 8 5 14 3 7 4 11 5 11 12 30 4 9v3l9 1 2 4h2l1 8-3 7-5 3h-8l-5-2v2l4 4 1 2 4 2v10l5 9 7 24 3 11 1 8 8 5 1 1-1 8-3 2v106l2 36 6 5 2 3v9l-5 5-6 3-1 1-1 9-1 2-1 9-2 5-2 8-1 10-1 1-1 10-1 2-1 9-1 2-2 12-3 12-1 9-1 2-3 20-1 6 3 3 1 8-4 5-7 1-3-1-3-4v-7h-3l-2 3-4 14-3 8-3 13-4 11-3 12-3 8-8 28-3 8-2 7-2-2 1-6 6-23 3-8 3-12 3-10 3-9 4-13 3-9 2-12-11 3-4 5-5 16-1 6 2 19-3 7-5 9-2 10-3-1-5-10h-1l1 18v19l-2-1-3-18-1-2-4 6-6 11-2 2-5-1-5-8-3-1 1-8 3 1v-10l3-19 1-5v-7l-4 8-4 10-3 6-3 10-4 8-2 11-4 5-2 6h-2v6h-2l1 2 33 1 2 5 7 1 5-6 10-3 4 1 7 8v7l-2 4-3 3-5 2h-5l-5-2-2 6-6 7-8 11-3 3-3 5-7 10h-2l-2 6-6 6-3 5-7 9-4 7-4 4-3 5h-2l-2 5-12 16-4 6h-2l-1 4-2 3h-2l-2 6h-2l-2 4-10 14-3 3v6l2 6-4 8-4 2h-8l-5-2-10 8-11 8-3 1v2l-6 3-4 4-10 7-7 6-5 3-5 4h-3v2h-2v2l-5 3h-2v2h-2v2l-8 5-13 10-4 3h-2v2l-6 2v2l-11 8-16 12-7 5h-2v2h-2v2l-6 3-4 4-5 3-1 14-2 3h-2v2l-9 2-7-2v-2h-2l-2-3v-13h2l1-4 7-3 1-6-10 4-8 4h-13l-16 8h-2v2l-24 12-10 6-11 6-4 3-6 3-5 1v2l-11 6-12 7h-3l-1 3h-6v2l-16 8-6 4-2 2-1 8-5 5h-10l-5-4-3-8-8-2v-2h-10l-8-3-7-1-2-2h-11l-2 1-15 1-3-2v-2l-38 1-107 1-4 4-5-1-4-5-23-4 3 5 3 3v2h2v2l4 2 9 8h6l3-1 7 3 4 6v6l-6 7h-10l-5-5-1-6-12-2-12-3-10-2-1-1-8-1-1-1-18-3-13-4-18-3-1-1-9-1-15-4-16-3-1-1-9-1-10-2-3 1-5 5-5 2-9-2-6-7-1-12-6-3v-2l-4-1-14-9-11-6-18-12-11-6-7-5-3-1v-2l-4-1-18-11-7-4v-2l-4-1-16-10-9-5v-2h-3v-2l-4-1-7-4v-2l-4-1-3-3 4 1 7 4 4 2v2l4 1 3 1v2l4 1 11 7 3 1v2l5 2 12 7 8 5v2h4v2l4 1 18 11 10 6v2l4 1 11 7 11 6 3 2v2l4 1 11 6v2l4 1 8 4-1-5h-2l-7-10v-2h-2l-7-10-12-16-1-3h-2l-11-16-7-9-2-5h-2l-8-11-10-13v-3h-6l-5-3-2-5-19-5-12-4-13-3-17-5-15-4-1-1-15-3-10-4-7-1-8-3-7-1-18-6-14-3-2-1h-7l8 5 9 6 11 6 3 2v2l4 1 11 7 3 1v2l4 1 7 4v2h3v2l-4-1-11-7-11-6-7-5-11-6-7-5-7-4-12-7-6 3h-7l-4-2-4-7 1-8 1-5-4-5-1-4h-2l-7-10v-3h-2l-15-22-16-23v-2h-2l-7-11-11-15-13-19-12-16-8-12-5-7v-2h-2l-2-3h-8l-6-4-2-2v-11l11-1-4-3 8-1 8 8h8l5-1 30-1 2-1h49l-2 10 15 15 8 7 36 36 2 1v2h2v2l4 2 5 5v2l4 2 19 19 8 7 11 11 2 1v2h2l5 5v2h2v2h2v2l4 2 3 3v2l4 2 10 10 4-1 1-1-1-10-1-19-2-16-1-18-1-7-1-24-1-3-1-22-1-3-1-22-1-7 3 1 1 3 1 21 1 3 1 22 1 4 1 20 2 12 1 18 1 5 1 21 1 3v19l6 1 3-3h2v-2h2l2-4 11-12 1-2h2l2-4 8-8 8-10h2l2-4 8-8 9-11 11-11 1-2h2l2-4 5-7 6-5 1-2h2v-2h2l2-4 9-11h2l1-3h2v-2h2l1-8 5-1 3-9-4 3-4-1-2 4-1-1-1-10-1-2v-7l1-1 33-1 7-9-1-5h-24l-4 1-33 1-20 2-27 1-5 1-37 1-12 2-3 3-6 1-3-3v-2l-17 1-9 1-31 1-3-2 3-1-5-5v-2l-6-2-7-6-16-12-6-4v-2l-4-2-5 1-6 6-3 5-8 6-6 6h-2v2h-2l-2 4h-3l-4-1-2 1v-3h-7l-6 2v2l-4-1-9-10-7-9-5-4-2 1 1 9 3 8 2 6v6l-2-1v-3h-2l-3-9h-2l-1-10-3-8-2-7-1-3h-10l-2 1-2-6 5-1 3-8h-2l-5-6v-2h-2v-2l-4 2-3 3-1-3h-2l-4-8-1-4h-2l-5-11-2-1-1-8h-2l-10-13-3-3v-2h-2l-5-7v-2h-2l-9-11-11-13-4-5v-2h-2v-2h-2l-5-7v-2h-2v-2h-2l-3-3v-2h-2v-2l-2 1 1 10 3 6 2 7 3 7 3 11 5 12 4 13 3 7 4 12 3 7 3 11 4 8 3 11 5 12 3 7 3 11 3 7 3 8-1 4-2-2-4-10-6-17-3-7-3-11-4-10-5-15-8-20-3-11-4-8-3-10-3-7-6-17-1-1v-6h-2l-3-10-4-9-2-6-9-4-4-5v-9l4-5 4-2v-32l-2-15-1-81-1-9v-77l-5-2-4-3-2-4 1-7 4-5 3-2h5v-6l2-4 3-16 1-1 3-17 3-12 2-9 1-1 3-18 3-11 3-12 1-8 1-1 3-19 3-11 1-1 1-7v-4l-5-5-1-7 2-5 5-4 2-1h8l2-6 7-11 2-5h2l1-4 7-12 6-11 7-11 6-12 14-24 3-6v-6l-1-1 1-7 4-4 12-2 2-4 3-5h2v-2h2v-2h2l2-4 6-8 14-16 4-4 3-5 8-8 6-9h2v-2h2v-2h2l2-6 8-8 6-8 11-13 7-7 9-12-1-2v-6l6-5h8l5-2 10-7 6-4h3v-2h2v-2l15-10 11-8 10-7h2v-2l9-7h2v-2l9-6 7-8 4-4h2v-2l14-9 9-5 8-6 12-4 5-4 1-2 2-12 3-5h2v-2l4-2h12l8 6 12-3 9-5 8-2 10-5 5-2 7-1 10-6 10-3 6-3 2-5 6-4 9 1 21-6 26-13 7-5h9l5 3 2 1h8l14-3h18l2-1 12-1 2-1 18-1 1-1 29-3 4-8zm586 435-10 1h-8l-2 4 2 1-2 4-3 3v3l8-1 17-9v-2h2v-3zm-1234 49-2 4-4 23-2 7v6l4-2 4-5 5-2 1-1v-13l-1-11-3-6zm54 25 1 2zm978 59-1 1-1 9-8 10-1 9-1 4-6 8h-13l-8 2h-40l-9 2-8 5-11 11-7 8v2l-4 2-8 5-9 5-10 9-14 12-9 10-5 10-1 4v15l3 10 7 10 3 5 7 8 10 6 3 3 7 2v2l5 2 4 3 8 3 5 3 9 3 21 3 4 2-4 5 2 3h4v2l10 4 10 5 4-1 8-5 9-2 3-6 1-8 1-1 2-10 4-17 3-11 4-17 2-9 1-1 1-7 1-1 3-15v6l-2 9-1 1-1 8-1 1-3 15-5 21-2 9-1 1-2 10-4 18-1 5 7 5h6l-2 3 1 10 2 3-3 2v2h-2l-5 6-6 3v13l1 3 1 18 1 3 4 44 1 4 1 20 1 3 1 17 1 3 1 13 1 3 1 22 2 9 1 19 2 13 5 3h2l-3 8-2 2v19l1 2v12l-2-13-1-17-7-8h-6l-16 4-10 2-10 1-1 1-18 3-6 2-10 2-6 2-15 2-24 5-19 3-12 3-11 2-13 3-11 1-1 1-10 1-1 1-11 1v-2l6-1-1-3h-13l-1-1h-9v-3h-6v4l-3 2v8l1 1 59 1 16 4 11 4 20 5 5-1 3-2h6l1 9-3 5-4-1-3 7-3 13v3l5-2 11-6-1-4h-3l1-5 4 6 3 8h2l1 4 4 8h2v4h2v4h2l1 5 4 7h-2l-1-3-3-2h-7l1 4h3v2l8 1 3-1 1 4 5 5 17 8 15 8 17 8 5 3 8 3 6 4h4v2l10 3 4 1 1 2h9l4-3 5-2 1-2v-120l12-1v-3l-1-5-9-3-2-6v-36l22-3 2-1 10-1 12-3 11-2 2-1 9-1 1-1 8-1 2-4 2-13 1-1 3-17 1-1 1-8 1-1 2-10 1-1 3-17 1-1 3-17 4-14 5-25 5-21 1-11-1-3-6-4-5-2-5 1-8 7 1-4h2l1-4 3-1 3-7-8-3-20-4-11-3-18-3-2-1-9-1-24-6h-6v-5l6 2h10v2l2 1 10 1 8 3 19 4 2 1h12l4-1v2l10 2v-5l-2-4 6-4v-4h-2v-3l-6-2-2-1-13-1-8-2h11l2 1 14 2 13 1 10 1 7-1 4 1-1-2h-2v-6l-7-12-4-7-10-14-3-7h-2l-2-6-6-9-3-7-5 1-11 6-14 9-3 1v2l-6 2-8 5v2l-4 1-14 9-9 6h-4l1-3 6-2 15-10 9-5 25-16 11-7 7-5-2-4-12-21-11-18-7-10-3-7-8-11-18-28-2-5-5 1-3 8-1 6-1-2-1-73zm108 32-5 5-1 5 4 5 2 1h10l7-6-1-5-3-3-4-2zm-19 6 1 2zm2 3-2 2v6l3 4 1-5-1-7zm-78 8 1 2zm112 24-2 1v4l4 1 1-5zm235 6 1 5 8 4 1 2v8l-4-2-4-4-1 2 1 13 2 14 3 11 3 2 1-1 2-26 3 3 4 9 2-1 2-13v-13l-7-8-11-4zm-256 26-1 1 1 20 3 6 1-2 4-1 4 2v2l-5-1 1 4-4 1 4 2 12-6v-2l5-2 3-3-4-1-4 1 2-4-2-9-6-5h-7v2l-4-1-2-4zm-4 18 1 2zm-8 6v4l-4 2-4 1-13 1-2 3v5h2l1 5 5 9 4 1 11-7v-2h4l4-9-1-6-3-6zm26 14-2 4 3-1zm-4 6-1 1v5l2-1v-5zm270 3-2 6-3 2-6-1 4 28 4 5 4-2 1-5v-26l-1-7zm-268 7v3h2v6l4 8h3l-2-9-3-1-2-6zm213 0-6 2v4l1 2h2v2h2v2h3l-1-12zm-247 6 2 4v-3zm249 6 1 2zm6 8 1 4 4 1-3-5zm-241 6 1 6 1 2 4-1-1-4zm33 2v6l3 5 2 6 4 6 2-1-1-5-6-10-3-7zm-7 6-1 5h2v-5zm-20 1v5l6 8 2 1v-5l-5-5-2-4zm24 6-1 2 2 2zm-15 10 1 5 3 1-1-5zm20 6 1 3zm244 0-1 1v5l6 12h3v-6l-4-10zm-228 13 1 3zm228 6-1 7h2l2-5zm-224 4v3l2-1zm220 11-3 2 1 3h3l2 7-2 11-3 6-2 7-6 11-3 1-3-3-7 1-4 2h-8l-3-2-4 5-4 15-1 2v10l9 6 7 4h9l2 3-1 5-4 6-2 7-2 3v3l-5 5-1 5 1 5h2l1 3h5l1-1 1-7 1-1 1-8 3-8 3-7 3-12 3-8 4-14 7-24 4-16 3-7 3-11v-4l-5-5zm-420 2-5 6v2h-2l-6 8-3 9-7 17-7 23-3 12-3 9-8 27-6 21-3 10-3 9-4 22-2 4v7l5 1v19l-4 6-6 3h-2l-2-3-3 8-2 4-4-1-5-1-6 5v3l-16 2v7h8l14-2 5-2 17-2 15-4 21-3 2-1 9-1 2-1 9-1 1-1 11-2 21-4 5-5v-7l-2-9-1-15-1-4-1-18-1-3-1-20-1-2-1-17-1-5-2-22-1-7-1-17-1-4-1-15-1-5-1-19-1-2-1-15-1-2-8-2zm215 1-3 1 1 4 5-1v-3zm-68 7-1 2 4-1zm64 1v3h3l1-3zm-9 2 1 4v-4zm-2 31-4 6-4 2-9-1-1 1v29l2 3 4-1 5-7 4-10 6-18zm-34 6-1 1v5l3-1v-5zm158 9v10l2 3 3-1 2-5-1-6-1-1zm96 6m-5 14-2 2-5 14-3 13-3 9-5 16 1 4 3 2 7-3 3-19 2-6 3-17 1-2v-13zm-456 3-7 3-1 3v18l2 4 2-4 2-7 4-9v-8zm-949 4-4 3 1 4 9 11 8 10h3l1 2 2-2-1-4-3-8-2-5h-2l-1-4-5-7zm43 0 1 6 3 3 2 9 2 3 1 9 2 2h4v-10l-3-6-1-7-4-8-1-1zm-25 10-1 5 3 4h2l1 3 11 2 4-1h-2l-2-4-12-9zm40 27-1 1 1 7 2 3 2 12 3 15-11-2 1 4 9 10 10 13h2v2l4-1 2-2-2-9-3-8-2-7-4-12-3-8-1-7-3-6-4-5zm1320 15v5h2v-4l2-1zm-1101 9 1 2h2v-2zm-225 11m2 9m1278 0-2 1v6l2-1v-2l3 1 1-4zm-8 1-4 7-2 11 5 11 2 6h2l2-7v-7l-1-4-1-16zm-1043 4v5h1v-5zm-209 17m1 2 2 2v-2zm1262 0-1 5 2 8 3 1 2-10-1-2zm-14 31 1 4zm-35 5m-842 4-1 3 7 1-1-4zm844 0-4 8v2l-5 2-11 11 1 5 1 4 2 1h12l1-3h2l3-12 1-2 1-12-1-4zm-836 6-4 4 4 2h8l2-3-4-3zm424 1-5 2 1 4 5-1 3-2v-3zm-590-5-7 10-9-1-10-3-7 4-7-1-7 11 2 4h15l5-1 23-1 8-7-3-14zm13 9-5 1v7l5 2 19-2 1-3-8-1h-5l-4-4zm-173 2 2 6 3-4zm694 5-6 4v1l8 1 12-3v-3zm-591 2m-111 15-3 5 1 8 5 12 3 9 3 12 9 6 1 5 5 3 2 2 4-1-1-11-1-1-1-11-1-1-4-24-10-3-4-5-2-5zm-44 2-3 1-12 1-2 4 6 5 11 6 12 8h3v2l14 7 4 4 11 6 6 3 1-5-6-16-5-17-9-9zm-18 9-2 2h2l2 5 7 11h2l2 5 10 14 11 16 8 12h2l2 5 5 8h2l2 5 1 2h2l2 5 12 17 10 14 5 8h2l2 5 9 13h2l2 5 3 1-1-6-4-14-3-8-8-26-3-8-5-14-3-10-2-3-3-12-3-3-4-2-2-7-6-4h-4v-2l-10-7-11-6-11-7-13-8-7-4h-2v-2zm92-2-5 2v8l1 2 1 11 1 1 1 10 1 2 2 13 2 2 6 2 1 6v3l14 9h3v2l11 6 4 1v2l7 4 8 5h3v2l21 12 9 6 9 5 9 6 9 5 17 10 4 1-2-4-54-54h-2v-2h-2v-2h-2l-1-3h-2v-2l-5-2-2-4-19-19h-2v-2l-8-7-3-1-2-4-19-19h-2v-2h-2v-2h-2v-2l-6-5zm731 5 1 2 6 1-1-3zm9 7m-465 15-9 9v2h-2l-9 11-4 5-5 4v2h-2l-9 11-7 7v2h-2l-9 11-5 5v2h-2v2h-2l-7 8-11 13-5 5-11 12-6 7 2 5 1 1h46l6-1 55-1 23-2 2-1-4-21-3-12-6-33-2-9h-2v-12l-4-15-3-16zm649 22-3 7 2 2 3-5v-4zm-938 1-1 3 5 18 4 8 3 13 3 8 5 14 3 11 4 10 2 3 1-7-2-6-3-21-2-9-2-15-4-15-5-9-9-6zm767 4m-747 9v10l1 1 3 23 2 5 3 23 1 2 1 9 1 2 1 10 1 2 1 9 8 3 4 5h12l18-3h6l1-1 16-1 2-1 15-1 3-1 15-2 18-2 9-2v-5l-12-8h-3v-2l-14-8-11-7-16-10-9-5-11-7-15-9-4-1v-2l-11-6-31-19zm889 43v5l3 2 3-2v-4zm15 29-7 8-7 3v4l5-1 6-4 9-4 2-2v-3l-2-1zm-771 3 2 2v-2zm102 13-6 1-51 1-12 1-2 3 5 4 13 8 11 6 12 7 12 6 13 8 7 4h3v2l12 6 21 12 22 11 2-2 2-9 2 1 1-3 1-37-1-10-3-12-1-7-1-1zm-226 4 1 3v-3zm129 1-20 3-14 1-2 1-13 1-24 4-16 2-15 1-5 2v2l16 5 12 3 1 1 7 1 9 3 23 6 1 1 7 1 7 2 4 2 14 3 8 3 24 6 9 3 10 2 8 3 10 2 1-2-4-6-3-1-2-6-8-10-12-16-7-10h-2l-2-4-1-1-10-1-4-1-3-6zm25 4-1 4 8 10 11 15 1 2h2l2 5 11 14 5 7 8 2 3 5 16 5 14 3 8 3 8 1 9 3 9 2 15 5 5-1 3-2v-5l-5-3h-2v-2l-10-5-13-8-12-6-19-11-13-8-14-7-20-12-9-5h-3v-2l-12-6-4-1zm866 11-1 1-7 1-7 6-5 3-5 6-8 5-9 6-7 6 1 3 5 1 10-6 8-3v-2l4-1 12-7 11-6 13-7 3-2-2-4zm-1e3 5m953 2-1 4h7l2-4zm-20 2-2 1-13 1-2 1-15 1-6 2-10 1-2 1-9 1-3 2v7l-2 8-1 9-2 4-2 9-2 19v6l2 2 10 1 9-6 7-4 3-2v-2l4-2 3-2v-2l5-2 2-1v-2l5-2 4-4 6-3v-2h2v-2l5-2 4-4 3-5 6-3 5-2 3-4-2-3-7 1-7 6-5 1-5-5-3-4 1-1 9-2 13-5 3-2v-3l-2-1zm36 24-1 2-4 1v2l-6 2-9 5-5 2v2l-4 1-10 6-17 9-10 6-11 8-2 3 9 2-1 3v8l9-5 8-6 7-4v-2h2v-2l5-2 2-1v-2l5-2 12-9 5-4 13-9 4-4 3-1v-2h2l2-4-2-3zm-113 18v25h1v-25zm-673 5 1 4 6 8 1 3h2l2 4 10 14 8 11h2l2 5 7 10 4 4 5 8h2l2 5 7 10h2l2 4 8 11 2 3h6l2-2 1-29 2-11 1-31-2-3h-2l-2-6-15-5-13-3-9-3-23-6-1-1-15-3zm95 16-1 4 3 4h5v-4l-3-3zm606 10-2 1v3l6-1-1-3zm-606 1-5 4-1 17-1 7-1 29-1 5v15l7 3 3 5 2 6 4 2 18 3 1 1 18 3 1 1 10 2 11 3 8 1 1 1 18 3 5 2 17 3 1 1 9 1 1 1 9 1 14 4h8l1-3-1-2h-2v-2l-10-8-13-12-7-6-6-1-11-2-10-2-1-1-8-1 1-2-4-1v-3l-12-5-8-3-12-3-10-4-6-2h-9v-3l12-2 5 5 5 3 10 2 2-2-1-10-8-6-4-2-8 1-2-5h2l4-10 1-5-1-1-15-1-6-4-1-2h-2l-1-4-2-11-4 3h-6l-5-3-1-4zm578 20-1 1v14l2 2v-17zm-513 18 1 8 4 4h7l-1-4-8-8zm513 7v7h1v-7z" fill="#767676"/>
<path transform="translate(379,609)" d="m0 0h2l-1 18-3 32-5 3v7l-19 19 7-6 12-11h3v5l-8 7 8-5-1 17 2 1 1-20 14-11 26-20 14-11 6 2h7l4-1 39 39 6 5v2h2v2l4 2 4 4v2l4 2 4 4v2l4 2 10 10v2h2v2l4 2 12 12v2l4 2 41 41v2l4 2 4 5-4 7-1 2-8-1-77-19-69-17v2l8 1 60 15 25 6 60 15v7l1 9-9 5 4-1 4-2 4 1 8 7 9 4v10l-11 147-3 41-1 2-22 8-43 16-5 2-31 11-9 4 10-3 30-11 40-15 20-7 10-3v10l-4 49-2 30-2 27h2v-12l7-95 1-10 20-8 17-6 37-14 20-7 30-11 5 5v2l7 1 4 1 7 61 2 18 1 13-15 10-17 11-27 18-16 10-54 36 3-1 52-34 17-11 15-10 20-13 21-14 2 3 18 158 4 34v-9l-16-140-5-44v-4l16-10 15-10 20-13 3 1 7 8 11 12 9 10 10 11 7 8 9 10 11 12 7 8 11 12 9 10 7 8 11 12 7 8 11 12 7 8 11 12 7 8 12 13 7 8 10 11 7 8 13 14 7 8 18 20 11 12 4 5v2l4 2 8 9-5 10h-9v2h9l3 10v4l-71 71-7 8-37 37h-2l-2 4-12 12h-6l-4 4h-11l2-1-1-4-3-2-4 2 1 2h-2l1 3-1 1-51 2h29l40-1v5h-2v2l-5 5h-2v2h-2l-2 4-6 6h-2l-2 4-21 21h-2l-2 4-28 28-6 7-16 16-7-3h-12l-8 5-2 2-25-14-1-1v-43l2-31v-8l-3-3-1-2h-6l-1-2 1-2h2l-4-14-3-17-3-12-4-23-1-2v-7h-2l-1-12-4-15-3-16-3-2 4-5-2 1 1-8 5-1 3-9-4 3-4-1-2 4-1-1-1-10-1-2v-7l1-1 33-1 7-9-1-5h-24l-4 1-33 1-20 2-27 1-5 1-37 1-12 2-3 3-6 1-3-3v-2l-17 1-9 1-31 1-3-2 3-1-5-5v-2l-6-2-7-6-16-12-6-4v-2l-4-2-5 1-6 6-3 5-8 6-6 6h-2v2h-2l-2 4h-3l-4-1-2 1v-3h-7l-6 2v2l-4-1-9-10-7-9-5-4-2 1 1 9 3 8 2 6v6l-2-1v-3h-2l-3-9h-2l-1-10-3-8-2-7-1-3h-10l-2 1-2-6 5-1 3-8h-2l-5-6v-2h-2v-2l-4 2-3 3-1-3h-2l-4-8-1-4h-2l-5-11-2-1-1-8h-2l-10-13-3-3v-2h-2l-5-7v-2h-2l-9-11-11-13-4-5v-2h-2v-2h-2l-5-7v-2h-2v-2h-2l-3-3v-2h-2v-2l-2 1 1 10 3 6 2 7 3 7 3 11 5 12 4 13 3 7 4 12 3 7 3 11 4 8 3 11 5 12 3 7 3 11 3 7 3 8-1 4-2-2-4-10-6-17-3-7-3-11-4-10-5-15-8-20-3-11-4-8-3-10-3-7-6-17-1-1v-6h-2l-3-10-4-9-2-6-9-4-4-5v-9l4-5 4-2v-32l-2-15-1-81-1-9v-77l-5-2-4-3-2-4 1-7 4-5 3-2h5v-6l2-4 3-16 1-1 3-17 3-12 2-9 1-1 3-18 3-11 3-12 1-8 1-1 3-19 3-11 1-1 1-7v-4l-5-5-1-7 2-5 5-4 2-1 9-1 3-1 2-5 14-25 12-21 14-25 11-19zm-6 87m-62 44-2 4-4 23-2 7v6l4-2 4-5 5-2 1-1v-13l-1-11-3-6zm54 25 1 2zm361 221m-1 1m-1 1m-137 154m-283 18-4 3 1 4 9 11 8 10h3l1 2 2-2-1-4-3-8-2-5h-2l-1-4-5-7zm43 0 1 6 3 3 2 9 2 3 1 9 2 2h4v-10l-3-6-1-7-4-8-1-1zm-25 10-1 5 3 4h2l1 3 11 2 4-1h-2l-2-4-12-9zm40 27-1 1 1 7 2 3 2 12 3 15-11-2 1 4 9 10 10 13h2v2l4-1 2-2-2-9-3-8-2-7-4-12-3-8-1-7-3-6-4-5zm219 24 1 2h2v-2zm-225 11m2 9m227 5v5h1v-5zm-209 17m1 2 2 2v-2zm371 40-1 3 7 1-1-4zm8 6-4 4 4 2h8l2-3-4-3zm-166-4-7 10-9-1-10-3-7 4-7-1-7 11 2 4h15l5-1 23-1 8-7-3-14zm13 9-5 1v7l5 2 19-2 1-3-8-1h-5l-4-4zm-173 2 2 6 3-4zm103 7m194 46 2 1-2 1z" fill="#797979"/>
<path transform="translate(1404,810)" d="m0 0 12 5 49 22 20 9 36 16 39 18 9 4 1 10-3 3 5-2 3 3-2 9-60 180h2l2-9 12-35 48-144 4 1 11 74 15 105-1 4-3 5-76 12 13-1 58-9h5l2 3 4 2 4 25 3 21v-8l-5-34v-5l3-3 1-3 17-3 73-11 15-2v3h-6l-3 1 1 2 3 1 3 7-2 11-3 6-2 7-6 11-4 2-3-3-7 1-4 2h-8l-3-2-3 4-4 15-1 2v10l11 7 4 2h9l3 4-1 5-4 6-2 7-2 3-1 4-4 4-1 5v5h2l1 2h5l1-7 1-1 1-8 3-8 3-7 3-12 3-8 4-14 7-24 4-16 3-7 1 4-6 20h2l2-10 3-10 1 4-5 26 1 9-1 2-1 9-1 2-2 12-3 12-1 9-1 2-3 20-1 6 3 3 1 8-4 5-7 1-3-1-3-4v-7h-3l-2 3-4 14-3 8-3 13-4 11-3 12-3 8-8 28-3 8-2 7-2-2 1-6 6-23 3-8 3-12 3-10 3-9 4-13 3-9 2-12-11 3-4 5-5 16-1 6 2 19-3 7-5 9-2 10-3-1-5-10h-1l1 18v19l-2-1-3-18-1-2-4 6-6 11-2 2-5-1-5-8-3-1 1-8 3 1v-10l3-19 1-5v-7l-4 8-4 10-3 6-3 10-4 8-2 11-4 5-2 6h-2v6h-2v-6l3-8 1-16-3 1-4 9-8 6-7 7 1 5 2 4h13l-3 10-11 29-3 3-29 13-35 15-34 15-35 15-41 18-26 11-9 4-3-1-5-5-2-3v-5l-3 1-2-1v5h-2l-2-8v-114l1-1 12-1-2-3 1-3-9-3-2-2-1-5v-36l1-1 22-3 2-1 10-1 12-3 11-2 2-1 9-1 1-1h8l3-17 1-1 3-17 1-1 1-8 1-1 2-10 1-1 3-17 1-1 3-17 4-14 5-25 5-21 1-14-4-2-7-3-5 1-8 7v-3l1-2h2l1-4 4-4 1-3-7-3-20-4-11-3-18-3-2-1-9-1-24-6-6-1v-5h5l1 1 10 1v2l12 1 8 3 19 4 2 1h12l5-1v2l8 2-1-5v-4l5-3 1-4h-2v-3h-5l-3-2-13-1-9-3v-1h12l2 1 14 2 13 1 10 1 7-1h1l-2-8-6-10-4-7-10-14-2-4v-3h-2l-8-14-3-6v-2l-8 3-16 10-6 4h-3v2l-12 7h-2v2l-9 5-18 12h-5l2-4 14-8 7-5 9-5 25-16 11-7 6-4-2-4-12-21-11-18-7-10-3-7-8-11-18-28-1-5-6 2 2-11 11-44 15-1 8-1 13 28 18 41 18 40 2 4-3-9-16-35-18-41-12-27 1-4 8-6 6-7zm47 46-5 5-1 5 4 5 2 1h10l7-6-1-5-3-3-4-2zm-19 6 1 2zm2 3-2 2v6l3 4 1-5-1-7zm-78 8 1 2zm112 24-2 1v4l4 1 1-5zm-21 32-1 1 1 20 3 6 1-2 4-1 4 2v2l-5-1 1 4-4 1 4 2 12-6v-2l5-2 3-3-4-1-4 1 2-4-2-9-6-5h-7v2l-4-1-2-4zm-4 18 1 2zm-8 6v4l-4 2-4 1-13 1-2 3v5h2l1 5 5 9 4 1 11-7v-2h4l4-9-1-6-3-6zm26 14-2 4 3-1zm-4 6-1 1v5l2-1v-5zm2 10v3h2v6l4 8h3l-2-9-3-1-2-6zm-34 6 2 4v-3zm14 20 1 6 1 2 4-1-1-4zm33 2v6l3 5 2 6 4 6 2-1-1-5-6-10-3-7zm-7 6-1 5h2v-5zm-20 1v5l6 8 2 1v-5l-5-5-2-4zm24 6-1 2 2 2zm-15 10 1 5 3 1-1-5zm20 6 1 3zm16 13 1 3zm4 10v3l2-1zm15 14-3 1 1 4 5-1v-3zm-68 7-1 2 4-1zm64 1v3h3l1-3zm-9 2 1 4v-4zm16 0m-18 31-4 6-4 2-9-1-1 1v29l2 3 4-1 5-7 4-10 6-18zm221 0m-255 6-1 1v5l3-1v-5zm158 9v10l2 3 3-1 2-5-1-6-1-1zm99 0m-3 6m-5 14-2 2-5 14-3 13-3 9-5 16 1 4 3 2 7-3 3-19 2-6 3-17 1-2v-13zm-27 59v5h2v-4l2-1zm-46 29-2 1v6l2-1v-2l3 1 1-4zm-8 1-4 7-2 11 5 11 2 6h2l2-7v-7l-1-4-1-16zm11 23-1 5 2 8 3 1 2-10-1-2zm-14 31 1 4zm-35 5m-214 97-3 7 2 2 3-5v-4z" fill="#777"/>
<path transform="translate(1589,1335)" d="m0 0h2l1 2 33 1 2 5 7 1 5-6 10-3 4 1 7 8v7l-2 4-3 3-5 2h-5l-5-2-2 6-6 7-8 11-3 3-3 5-7 10h-2l-2 6-6 6-3 5-7 9-4 7-4 4-3 5h-2l-2 5-12 16-4 6h-2l-1 4-2 3h-2l-2 6h-2l-2 4-10 14-3 3v6l2 6-4 8-4 2h-8l-5-2-10 8-11 8-3 1v2l-6 3-4 4-10 7-7 6-5 3-5 4h-3v2h-2v2l-5 3h-2v2h-2v2l-8 5-13 10-4 3h-2v2l-6 2v2l-11 8-16 12-7 5h-2v2h-2v2l-6 3-4 4-5 3-1 14-2 3h-2v2l-9 2-7-2v-2h-2l-2-3v-13h2l1-4 7-3 1-6-10 4-8 4h-13l-16 8h-2v2l-13 6-2-1 23-13 35-19 4 1 3 2 1 11 1 2v-17l3 1-1-6 15-9 16-9 9-5 2 1-9 7 9 2-1 4v7l14-9 6-5h3v-2h2v-2l5-3h2v-2l16-11 6-5 11-8h2l1-3 3-2h3v-2h2l1-4-1-3h-6l-1 3h-4v2l-15 8-5 1v2l-11 6-10 6-10 5-10 6h-2v-2l-12 7-2-1 4-3h2v-2l5-4h2v-2l5-3h2v-2l8-6 5-3h2v-2h2v-2l6-4 6-8 6-3 5-2 2-3-1-2-9 1-2 4-5 3-5-1-7-8 2-3 9-2 13-5 3-1v-3h-14l-2 1-13 1-2 1-15 1-6 2-10 1-2 1-9 1-2 1v7l-2 8-1 9-2 4-2 9-2 19v6l7 2 3 2-15 8h-2v-20l-2 21h-3l-1 3-14 8-39 22-27 15-23 13-45 25-16 9h-2l1-4 13-17 8-10 12-16 10-13 13-17 14-18 50-65 3-4 35-5h7v-2l-39 5 2-5 4-5h2l2-5 14-18 10-13-5 4-7 10h-2l-2 5-9 11-10 13-2 3-26 4-127 17-10 1-4-3-3-1-4-15-9-35-4-17 1-5 2-3 5-1 148-5h-30l-93 3h-31l-2-3-4-2-18-71-12-49 3-3 5-4 1-2 6 2 28 14 23 11 16 8 17 8 46 23 17 8 26 13 4-1 15 8 12 6 8 3 6 4 4 1v2l5 1 9 2 1 3 9-1 4-3 4-1 2-5h1v5l9-1v4l4 2 2 3 9-3 25-11 35-15 71-31 60-26 11-5h2l3-10 11-29zm-324 144m97 5-7 8-7 3v4l5-1 6-4 9-4 2-2v-3l-2-1zm125 36-1 1-7 1-7 6-5 3-5 6-8 5-9 6-7 6 1 3 5 1 10-6 8-3v-2l4-1 12-7 11-6 13-7 3-2-2-4zm-47 7-1 4h7l2-4zm-103 11m52 50m-1 1m-17 13-2 1v3l6-1-1-3zm-28 46v7h1v-7z" fill="#797979"/>
<path transform="translate(1026,929)" d="m0 0 6 2 14 7 24 11 16 8 28 13 33 16 28 13 39 19 15 7 23 11 34 16 3 2v9l3 8 2 3-10 11-9 11-12 14-11 13-9 11-12 14-9 11-13 15-9 11-12 14-9 11-13 15-9 11-13 15-9 11-12 14-9 11-12 14-9 11-13 15-4-1-9-2-6-35-13-81-32-200-10-64 10-4 7-6z" fill="#FAFAFA"/>
<path transform="translate(801,1047)" d="m0 0 3 1 7 8 11 12 9 10 10 11 7 8 9 10 11 12 7 8 11 12 9 10 7 8 11 12 7 8 11 12 7 8 11 12 7 8 12 13 7 8 10 11 7 8 13 14 7 8 18 20 11 12 4 5v2l4 2 8 9-5 10h-10l-252-19-3-1-3-7-8-4-4-30-17-150-5-44v-4l16-10 15-10z" fill="#FAFAFA"/>
<path transform="translate(975,933)" d="m0 0 4 1 7 6 7 3 11 1 1 1 9 57 7 43 11 69 32 200 1 11-7 3-7-7-7-8-12-13-7-8-10-11-7-8-12-13-7-8-10-11v-2h-2l-7-8-11-12-7-8-11-12-7-8-10-11-7-8-12-13-18-20-7-8-11-12-7-8-11-12-7-8-11-12v-2h-2l-7-8-9-10-7-8-4-4v-2l11-7 18-12 52-34 20-13 27-18 16-10 18-12z" fill="#FAFAFA"/>
<path transform="translate(590,812)" d="m0 0 4 1 8 7 9 4v10l-11 147-3 41-1 2-22 8-43 16-5 2-31 11-10 4-4-2-8-1-12-13-9-10-7-8-11-12-63-70-7-8-2-4 2-5v-6l17-9 122-61 17-9 16-8z" fill="#FAFAFA"/>
<path transform="translate(1045,698)" d="m0 0 8 1 94 28 46 14 47 14 70 21 23 7v13l1 8-10 4-108 36-49 16-36 12-61 20-39 13-4-1-6-9-10-6-4-3 2-14 17-95 10-56 4-21z" fill="#FAFAFA"/>
<path transform="translate(787,1321)" d="m0 0 109 8 94 7 53 4 9 1 3 10v4l-71 71-7 8-37 37h-2l-2 4-12 12h-6l-4 4h-11l2-1-1-4-3-2-4 2 1 2h-2l1 3-1 1-82 3-42 1-2-3-3-1v-14l9-144 1-4 7-3z" fill="#FAFAFA"/>
<path transform="translate(871,645)" d="m0 0 16 4 29 9 31 9 86 26 2 6 3 1-1 9-5 29-2 3-5-2-3 1 2 7h4 1l-1 13-18 101-5 26-12 1-10 5-4-1-7-8-8-8-7-8-9-9-7-8-8-8-7-8-11-11-7-8-8-8-7-8-9-9-7-8-8-8-7-8-3-3v-2l-4-2-9-10-8-8v-2h-2l-7-8-8-8-7-8-9-9-7-8-4-4 1-8 18-11 19-12 21-13 6-4 9 1z" fill="#FAFAFA"/>
<path transform="translate(790,397)" d="m0 0 7 1 28 12 117 49 45 19 60 25 7 3-1 10-16 4-111 23-203 42-17 3-3-4v-2h-2l2-6 19-41 15-33 32-70 15-33z" fill="#FAFAFA"/>
<path transform="translate(1613,1235)" d="m0 0h6l5 5-1 7-21 57-6 17h-1v-16l-3 1-4 9-8 6-7 7 1 5 2 4h13l-3 10-11 29-3 3-29 13-35 15-34 15-35 15-41 18-26 11-9 4-3-1-5-5 1-6 12-28 7-17 6-13 12-28 11-25 13-31 13-30 6-12 5-1 4-5 127-25z" fill="#FAFAFA"/>
<path transform="translate(1085,528)" d="m0 0 4 2 8 7 9 9 8 7 9 9 8 7 10 10 8 7 9 9 8 7 8 8 8 7 7 7 2 4 6 3 4 5 11 9 15 15 2 1v2l4 2 12 12 8 7 8 8 2 1v2l4 2 11 11 2 1v2l4 2 13 13 8 7 8 8 8 7 13 13 8 7-6 10-1 3-8-1-46-14-54-16-100-30-53-16-27-8-2-7h-2l1-13 17-95 8-45 1-3 10-2z" fill="#FAFAFA"/>
<path transform="translate(782,695)" d="m0 0 11 1 12 12 7 8 9 9v2l3 1 7 8 16 17 6 6v2h2l7 8 7 7 7 8 9 9 7 8 10 10 7 8 9 9 7 8 8 8 7 8 8 8 7 8 9 9 7 8 8 8 1 3-7 10-12-3-60-18-22-7-21-6-70-21-123-37-26-8-1-5-2-14 10-7 18-11 19-12 24-15 18-11 14-9 26-16z" fill="#FAFAFA"/>
<path transform="translate(1091,519)" d="m0 0 8 1 56 13 98 23 25 6 31 7 47 11 7 7 2 1 2 83 1 59v26l-12 3-10 6-3 2-7-6v-2l-4-2-12-12-8-7-9-9-8-7-9-9-3-2v-2l-4-2-13-13-8-7-9-9-8-7-9-9-8-7-7-7-2-1v-2l-4-2-14-14 1-7-3-1-6 1-8-8-8-7-10-10-8-7-9-9-8-7-8-8-8-7-9-9-2-1v-2l-4-2v-2l-4-2-8-8-7-6 2-6z" fill="#FAFAFA"/>
<path transform="translate(351,1333)" d="m0 0 6 1 6 7h8l5-1 30-1 2-1h49l-2 10 15 15 8 7 36 36 2 1v2h2v2l4 2 5 5v2l4 2 19 19 8 7 11 11 2 1v2h2l5 5v2h2v2h2v2l4 2 3 3v2l4 2 10 10 4-1 1-1-1-10-1-19-2-16-1-18-1-7-1-24-1-3-1-22-1-3-1-22-1-7 3 1 1 3 1 21 1 3 1 22 1 4 1 20 2 12 1 18 1 5 1 21 1 3v19l6 1 3-3h2v-2h2l2-4 11-12 1-2h2l2-4 8-8 8-10h2l2-4 8-8 9-11 11-11 1-2h2l2-4 5-7 6-5 1-2h2v-2h2l2-4 9-11h2l1-3 5-3 3-2-2 4-12 13-1 2h-2l-2 4-9 10-5 5-2 3h-2l-2 4-11 12-3 4h-2l-2 4-11 12-1 2h-2v2h-2l-2 4-12 13-4 5h-2l-2 4-11 12-6 7 2 5h46l6-1 55-1 7-1h16v2h6l2 5 3 1-1 22-1 17v43l25 14 8-6 2-1h12l7 3 12-12 2-3h2l2-4 3-1 2-4 58-58 6-7h2v-2l5-5h2v-2h2v-5l-9 1-31 1h-30l1-2 51-2v-5l5-3 1 2 3 1v4l9 1 2-4 6-1 4-2 121-121v3l-59 59-5 6-57 57v3h7v2h-7v4l-3 2h-8l-10 10-6 7h-2l-2 4-59 59-7 8-3 3h-2l-2 4-4 5 3 6v2l6-1h9v2l-14 2-1 5 11 3 42 12 166 49 21 6 88 26 1 3-8-1v-2h-10l-8-3-7-1-2-2h-11l-2 1-15 1-3-2v-2l-38 1-107 1-4 4-5-1-4-5-23-4 3 5 3 3v2h2v2l4 2 9 8h6l3-1 7 3 4 6v6l-6 7h-10l-5-5-1-6-12-2-12-3-10-2-1-1-8-1-1-1-18-3-13-4-18-3-1-1-9-1-15-4-16-3-1-1-9-1-10-2-3 1-5 5-5 2-9-2-6-7-1-12-6-3v-2l-4-1-14-9-11-6-18-12-11-6-7-5-3-1v-2l-4-1-18-11-7-4v-2l-4-1-16-10-9-5v-2h-3v-2l-4-1-7-4v-2l-4-1-3-3 4 1 7 4 4 2v2l4 1 3 1v2l4 1 11 7 3 1v2l5 2 12 7 8 5v2h4v2l4 1 18 11 10 6v2l4 1 11 7 11 6 3 2v2l4 1 11 6v2l4 1 8 4-1-5h-2l-7-10v-2h-2l-7-10-12-16-1-3h-2l-11-16-7-9-2-5h-2l-8-11-10-13v-3h-6l-5-3-2-5-19-5-12-4-13-3-17-5-15-4-1-1-15-3-10-4-7-1-8-3-7-1-18-6-14-3-2-1h-7l8 5 9 6 11 6 3 2v2l4 1 11 7 3 1v2l4 1 7 4v2h3v2l-4-1-11-7-11-6-7-5-11-6-7-5-7-4-12-7-6 3h-7l-4-2-4-7 1-8 1-5-4-5-1-4h-2l-7-10v-3h-2l-15-22-16-23v-2h-2l-7-11-11-15-13-19-12-16-8-12-5-7v-2h-2l-2-3h-8l-6-4-2-2v-11l11-1-4-3zm71 7-3 5 1 8 5 12 3 9 3 12 9 6 1 5 5 3 2 2 4-1-1-11-1-1-1-11-1-1-4-24-10-3-4-5-2-5zm-44 2-3 1-12 1-2 4 6 5 11 6 12 8h3v2l14 7 4 4 11 6 6 3 1-5-6-16-5-17-9-9zm-18 9-2 2h2l2 5 7 11h2l2 5 10 14 11 16 8 12h2l2 5 5 8h2l2 5 1 2h2l2 5 12 17 10 14 5 8h2l2 5 9 13h2l2 5 3 1-1-6-4-14-3-8-8-26-3-8-5-14-3-10-2-3-3-12-3-3-4-2-2-7-6-4h-4v-2l-10-7-11-6-11-7-13-8-7-4h-2v-2zm92-2-5 2v8l1 2 1 11 1 1 1 10 1 2 2 13 2 2 6 2 1 6v3l14 9h3v2l11 6 4 1v2l7 4 8 5h3v2l21 12 9 6 9 5 9 6 9 5 17 10 4 1-2-4-54-54h-2v-2h-2v-2h-2l-1-3h-2v-2l-5-2-2-4-19-19h-2v-2l-8-7-3-1-2-4-19-19h-2v-2h-2v-2h-2v-2l-6-5zm-14 50-1 3 5 18 4 8 3 13 3 8 5 14 3 11 4 10 2 3 1-7-2-6-3-21-2-9-2-15-4-15-5-9-9-6zm20 13v10l1 1 3 23 2 5 3 23 1 2 1 9 1 2 1 10 1 2 1 9 8 3 4 5h12l18-3h6l1-1 16-1 2-1 15-1 3-1 15-2 18-2 9-2v-5l-12-8h-3v-2l-14-8-11-7-16-10-9-5-11-7-15-9-4-1v-2l-11-6-31-19zm133 75 2 2v-2zm102 13-6 1-51 1-12 1-2 3 5 4 13 8 11 6 12 7 12 6 13 8 7 4h3v2l12 6 21 12 22 11 2-2 2-9 2 1 2-9v-31l-1-10-3-12-1-7-1-1zm-226 4 1 3v-3zm129 1-20 3-14 1-2 1-13 1-24 4-16 2-15 1-5 2v2l16 5 12 3 1 1 7 1 9 3 23 6 1 1 7 1 7 2 4 2 14 3 8 3 24 6 9 3 10 2 8 3 10 2 1-2-4-6-3-1-2-6-8-10-12-16-7-10h-2l-2-4-1-1-10-1-4-1-3-6zm25 4-1 4 8 10 11 15 1 2h2l2 5 11 14 5 7 8 2 3 5 16 5 14 3 8 3 8 1 9 3 9 2 15 5 5-1 3-2v-5l-5-3h-2v-2l-10-5-13-8-12-6-19-11-13-8-14-7-20-12-9-5h-3v-2l-12-6-4-1zm-134 16m183 51 1 4 6 8 1 3h2l2 4 10 14 8 11h2l2 5 7 10 4 4 5 8h2l2 5 7 10h2l2 4 8 11 2 3h6l2-2 1-29 2-11 1-31-2-3h-2l-2-6-15-5-13-3-9-3-23-6-1-1-15-3zm95 16-1 4 3 4h5v-4l-3-3zm0 11-5 4-1 17-1 7-1 29-1 5v15l7 3 3 5 2 6 4 2 18 3 1 1 18 3 1 1 10 2 11 3 8 1 1 1 18 3 5 2 17 3 1 1 9 1 1 1 9 1 14 4h8l1-3-1-2h-2v-2l-10-8-13-12-7-6-6-1-11-2-10-2-1-1-8-1 1-2-4-1v-3l-12-5-8-3-12-3-10-4-6-2h-9v-3l12-2 5 5 5 3 10 2 2-2-1-10-8-6-4-2-8 1-2-5h2l4-10 1-5-1-1-15-1-6-4-1-2h-2l-1-4-2-11-4 3h-6l-5-3-1-4zm65 38 1 8 4 4h7l-1-4-8-8z" fill="#8F8F8F"/>
<path transform="translate(637,808)" d="m0 0 8 1 59 18 47 14 173 52 46 14 2 1v13l-35 8-75 16-87 19-24 5-3-5v-2l-4-2-3-1h-8l-4 1-8-10-13-19-24-34-13-18-13-19-11-15-13-19-5-7 6-8z" fill="#FAFAFA"/>
<path transform="translate(679,594)" d="m0 0h6l3 5 2 1-1 6-19 49-18 46-12 30-15 39-3 6h-14l-7 3-4 2-52-52-5-4-6-7-7-6-7-8-5-5-8-7v-2l-4-2-1-3-4-2-7-7v-2l-3-1v-2l-4-2-6-6v-2l-4-2-2-4-4-2-11-11v-2l-4-2-4-4 3-9 59-8h3v2h-3l1 7h4 4v-5l-1-3-3 1-1-2 33-5 123-17z" fill="#FAFAFA"/>
<path transform="translate(1112,1570)" d="m0 0h8l1 4 5 1 6 21 16 64 11 45-6 7-7-1-123-36-163-48-37-11-2-1v-5l1-1 126-17 120-16z" fill="#FAFAFA"/>
<path transform="translate(1085,1487)" d="m0 0h13l3 4 5 1 16 65 1 7h-2l-2 4-276 37-16 2h-6l-4-9 7-8 5-4 4-5h2l2-4 59-59 1-2h2l2-4 3-1 2-4 9-9h8l3-1v-4l7-1 121-4z" fill="#FAFAFA"/>
<path transform="translate(814,346)" d="m0 0h98l81 1 1 3 7 2 7 15 36 82 17 39 3 8-6 4-3 4-5-1-36-15-88-37-112-47-21-9-3-9 15-33 1-2 7-3z" fill="#FAFAFA"/>
<path transform="translate(378,742)" d="m0 0 30 7 110 27 72 18v7l1 9-35 18-120 60-19 10-52 26-4-1-5-3v-11l13-146 2-16 6-4z" fill="#FAFAFA"/>
<path transform="translate(1334,806)" d="m0 0 2 2 3 6 8 9 13 7-2 10-7 30-5 21h2v-5h1v6l-3 9-2-4-1-72-1 9-8 10-1 9-1 4-7 9h-13l-8 2h-40l-9 2-8 5-10 10-8 10-8 6-13 7-10 9-14 12-8 9-5 10-1 4v15l3 10 7 10 3 5 6 7 10 6 3 3 7 3v2l-9-3-37-18-23-11-24-11-16-8-28-13-16-8-28-13 1-16v-5l35-12 43-14 48-16 43-14 93-31z" fill="#FAFAFA"/>
<path transform="translate(359,1155)" d="m0 0 18 2 81 12 94 14 1 2 1 11 6 12 2 3-9 9-1 2h-2l-2 4-12 12-7 8-8 8-5 6h-2l-2 4-13 13-7 8-9 9-5 6h-2l-2 4-9 9-7 8-4 4h-5l-2 1v-3h-7l-6 2-1 2-10-13-12-14-9-11v-6l-3-3-3-1-14-41-10-30-4-13-11-33 1-5zm71 163 2 6 3-4z" fill="#FAFAFA"/>
<path transform="translate(747,1082)" d="m0 0 2 3 18 158 7 61v5l-5 1v2l-5-2-24-16-14-10-23-16-19-13-20-14-22-15-20-14-9-6 3-9 1-4v-11l-4-12 32-21 29-19 17-11 15-10 20-13z" fill="#FAFAFA"/>
<path transform="translate(1519,1112)" d="m0 0 4 1 29 17 18 11 32 19 13 8 1 7 5 3 4 25 2 17-6 5-2 7-12 3-122 24-41 8-3-4 3-10 12-27 30-70 13-30 4-9h8l6-3h2z" fill="#FAFAFA"/>
<path transform="translate(431,634)" d="m0 0 6 2h7l4-1 39 39 6 5v2h2v2l4 2 4 4v2l4 2 4 4v2l4 2 10 10v2h2v2l4 2 12 12v2l4 2 41 41v2l4 2 4 5-4 7-1 2-8-1-77-19-16-4-49-12-60-15-3-1-3-5-3-1 3-38 2-20 14-11 26-20z" fill="#FAFAFA"/>
<path transform="translate(1280,404)" d="m0 0 4 2 6-1 5-1 54 20 7 3 3 6 3 2v18l-5 3v5l5 2 1 13v16l-4 4-2 3-251 12h-14l-1-7 29-15 22-12 29-15 22-12 27-14 22-12 27-14z" fill="#FAFAFA"/>
<path transform="translate(1083,1350)" d="m0 0 6 2 28 14 23 11 16 8 17 8 46 23 17 8 32 16 29 14 34 17-1 6-7 1-182 6h-31l-2-3-4-2-18-71-12-49 3-3 5-4z" fill="#FAFAFA"/>
<path transform="translate(1055,525)" d="m0 0 4 2 6 4 3 1-1 9-10 57-9 50-7 39-6 4-8-1-153-46-3-2 1-3 18-11 19-12 24-15 21-13 19-12 24-15 26-16 19-12z" fill="#FAFAFA"/>
<path transform="translate(1052,518)" d="m0 0h2l1 5-10 7-20 12-22 14-21 13-14 9-7 4-19 12-18 11-22 14-26 16-5 3h-9l-5 1-54-16-9-3-50-15-24-7-13-4-1-2 2-3 334-69z" fill="#FAFAFA"/>
<path transform="translate(1550,698)" d="m0 0 5 1 2 4 14 115 3 25v10l-3 3-10-2-44-14-93-30-18-6 1-14-3-14 23-12 44-24 12-6 22-12 34-18z" fill="#FAFAFA"/>
<path transform="translate(358,940)" d="m0 0 4 1 16 17 9 10 12 14 15 16 7 8 12 13 7 8v2h2l7 8 11 12 7 8 5 6-1 7-44 16-46 17-30 11-4-1-7-3-22-66v-3l4-4-1-5-2-4 18-50 13-36 1-1z" fill="#FBFBFB"/>
<path transform="translate(626,820)" d="m0 0h2l12 17 13 18 11 16 12 17 13 18 9 13 10 14 13 19 6 8-2 5-2 4-1 8-12 5-35 13-49 18-25 9h-2v-13l13-175 1-10 11-3z" fill="#FBFBFB"/>
<path transform="translate(1327,1479)" d="m0 0h3l5 10-1 4-10 13-4 6h-2l-2 5-9 11-10 13-2 3-26 4-127 17-10 1-4-3-3-1-4-15-9-35-4-17 1-5 2-3 5-1z" fill="#FAFAFA"/>
<path transform="translate(1280,1092)" d="m0 0 1 2-3 10-5 12-5 15-4 15-3 8-3 12-7 23-6 21-3 10-3 9-4 22-2 4-1 7 5 1 1 3v16l-4 6-7 4-4-1-3 7-2 3-4-1-5-1-5 4-1 3-16 2v7l13-2h8v1l-43 8-34 7h-5l4-2 8-1v-3l-14 1-5 3 6 2-4 2-10 2v-2l6-1-1-2h-13l-1-1-9-1v-3h-6l1 5-3 1-2 4-2-5 13-15 9-11 12-14 11-13 12-14 9-11 12-14 11-13 9-11 12-14 9-11 13-15 9-11 12-14 6-8h2l2-4 12-14 9-11 12-14zm-27 64-7 3-1 3v18l2 4 2-4 2-7 4-9v-8zm-73 156-5 2 1 4 5-1 3-2v-3z" fill="#FAFAFA"/>
<path transform="translate(562,504)" d="m0 0 5 2 96 64 16 11 6 4-1 7-86 12-145 20h-2l-2-4 1-4 11-14 14-17 9-11 13-16 1-1 8-1 2-4v-5l13-13 8-7 15-14 9-8h8z" fill="#FAFAFA"/>
<path transform="translate(1475,609)" d="m0 0 9 1 56 13 3 5 5 2 6 48v10l-2 3-1 5-7 4-2-1 5-2v-2h2v-3l-16 1h-6l-2 3 3 1-2 4-3 1-1 5 10-2-3 3-27 14-22 12-34 18-14 8-16 8-11 6-4-1-4-5v-2l-4-2-4-3 2-5 9-17 10-19 10-18 7-14 12-22 10-19 12-22 7-12 5-2z" fill="#FAFAFA"/>
<path transform="translate(471,1071)" d="m0 0 5 3h6l14 15 7 8 12 13 12 14 14 15 7 8 12 13 2 5-6 8-3 8-14-1-135-20-40-6-4-1-2-5-6-2-7-21 2-4 2-5 33-12 46-17 41-15z" fill="#FBFBFB"/>
<path transform="translate(1505,493)" d="m0 0h19l3 6-6 11-4 5-2 6-9 17-5 9-7 14-12 22-9 17-8 1-1 3-40-9-50-12-3-1-2-5-2-1-1-8-1-45v-18l5-5 10-1z" fill="#FAFAFA"/>
<path transform="translate(1155,353)" d="m0 0 10 3 49 18 64 24 2 1-1 4-25 13-13 7-22 12-25 13-22 12-31 16-18 10-11 6-20 10h-4l-7-7 15-37 16-38 15-36 9-22 4-1 7-1 6-4z" fill="#FAFAFA"/>
<path transform="translate(701,600)" d="m0 0 4 2 3 3v2h2v2h2l7 8 8 8 7 8 7 7 7 8 9 9 7 8 4 4v2l4 2 11 12 1 2-1 6-19 12-21 13-9 6-9 5-23 15-15 9-14 9-7 4-30 19-4-2-8-6 7-20 12-30 16-41 18-46 12-31 3-7z" fill="#FAFAFA"/>
<path transform="translate(1404,810)" d="m0 0 12 5 49 22 20 9 36 16 39 18 9 4 1 10-20 12-23 15-21 13-22 14-24 15-3 2-10-1-7-15-18-40-32-72-3-7 1-4 8-6 6-7zm47 46-5 5-1 5 4 5 2 1h10l7-6-1-5-3-3-4-2zm-19 6 1 2zm2 3-2 2v6l3 4 1-5-1-7zm34 32-2 1v4l4 1 1-5zm-21 32-1 1 1 20 3 6 1-2 4-1 4 2v2l-5-1 1 4-4 1 4 2 12-6v-2l5-2 3-3-4-1-4 1 2-4-2-9-6-5h-7v2l-4-1-2-4zm-4 18 1 2z" fill="#FAFAFA"/>
<path transform="translate(1057,1355)" d="m0 0 6 2 9 1 5 18 25 100-1 5-3 4-44 2-120 4h-8l-1-3 20-20h2l2-4 29-29 3-4h2l2-4h2l2-4 20-20h2l2-4 34-34 6-7h2v-2z" fill="#FAFAFA"/>
<path transform="translate(1285,1547)" d="m0 0h7l-18 24-14 18-30 39-13 17h-2l-1 4-14 18-10 13h-2l-1 4-14 18-4 5-8-1-9-35-23-92 1-6 2-5 12-2 73-10z" fill="#FAFAFA"/>
<path transform="translate(1571,1381)" d="m0 0 1 3-15 41-6 16-16 43-7 19-2 1-6 1-5 4-1 2-8-1-14-3-45-9-82-17-2-1-1-8 29-13 35-15 39-17 49-21 29-13z" fill="#FAFAFA"/>
<path transform="translate(715,365)" d="m0 0 5 1 29 12 31 13 2 9-11 24-18 40-18 39-16 35-16 36-4 7-4-1-14-133-4-39v-9l4-3v-8l8-8 8-7 7-6 7 1 4-1z" fill="#FAFAFA"/>
<path transform="translate(670,398)" d="m0 0 5 2 4 39 14 133v8l-5 4-5-2-10-7-44-29-22-15-42-28-2-7 16-15 7-6h2l2-4 13-12 12-11 10-9 8-7 8-8 8-7 13-12z" fill="#FAFAFA"/>
<path transform="translate(1584,898)" d="m0 0 4 1 13 15 9 11 11 13 9 11 11 13 8 10 12 14 9 11 11 13 8 10 12 14 9 11 11 13 2 4-3 8-17 3-85 13-4-1-5-3-5-31-19-132-2-14v-6zm134 161-1 7h2l2-5z" fill="#FAFAFA"/>
<path transform="translate(611,1207)" d="m0 0 4 2 22 15 16 11 13 9 23 16 19 13 23 16 19 13 11 8v1l-6 2-1 2 2 1h8l2-1-1 4-4 1-112 6-33 2h-14l-1-3 9-1 12-1 1-2h-13l-4-4-5 1-3-1v7h-1l-8-97v-7l11-4 6-4zm137 98-1 3 7 1-1-4z" fill="#FAFAFA"/>
<path transform="translate(1357,500)" d="m0 0 6 5 1 20 1 50-5 3-4 1-252-59-12-3 1-4 99-5z" fill="#FAFAFA"/>
<path transform="translate(1e3 347)" d="m0 0h97l25 1 3 7 1 3 4 2-6 16-16 38-10 24-13 32-10 24h-15l-17-38-13-30-7-17-7-15-13-30-5-11 1-4z" fill="#FAFAFA"/>
<path transform="translate(1368,1536)" d="m0 0 4 1-2 1-9 1-2 1v7l-2 8-1 9-2 4-2 9-2 19v6l7 2 3 2-15 8h-2v-20l-2 21h-3l-1 3-14 8-39 22-27 15-23 13-45 25-16 9h-2l1-4 13-17 8-10 12-16 10-13 13-17 14-18 50-65 3-4 42-6h6l1 18 2-19z" fill="#FAFAFA"/>
<path transform="translate(969,923)" d="m0 0h4l3 8-58 38-52 34-52 34-9 6-5-1-3-3v-2h-2l-7-8-9-10-10-11-7-8-8-9v-2l-3-1-3-4 3-9 1-5 23-5 84-18 68-15z" fill="#FAFAFA"/>
<path transform="translate(948,269)" d="m0 0h6l4 6 10 2 5 10 22 50-1 5-1 3h-49l-129-1-3-4 3-9 17-37 9-1 3-1 3-9 71-10z" fill="#FAFAFA"/>
<path transform="translate(1570,895)" d="m0 0 4 2 1 4-62 186-1 2h-9l-8-16-11-25-4-9-18-40-8-18-1-6 2-3 2-6 26-16 22-14 40-25 19-12zm-109 72-2 4 3-1zm-4 6-1 1v5l2-1v-5zm2 10v3h2v6l4 8h3l-2-9-3-1-2-6zm13 28v6l3 5 2 6 4 6 2-1-1-5-6-10-3-7zm18 42 1 3zm4 10v3l2-1zm15 14-3 1 1 4 5-1v-3zm-4 8v3h3l1-3z" fill="#FBFBFB"/>
<path transform="translate(722,979)" d="m0 0 5 5-2 4-6 9-24 34-13 18-8 11h-4l-2 9-14 20-10 14-36 51-4 6-5-2-10-3v-13l8-107 1-10 20-8 17-6 37-14 20-7z" fill="#FAFAFA"/>
<path transform="translate(1370,584)" d="m0 0 12 2 55 13 26 6 3 6-2 6-30 56-17 32-12 22-17 32-2 1-7-3-8-1-1-1-3-137v-31z" fill="#FAFAFA"/>
<path transform="translate(905,1493)" d="m0 0h9v5h-2v2l-5 5h-2v2h-2l-2 4-6 6h-2l-2 4-21 21h-2l-2 4-28 28-6 7-16 16-7-3h-12l-8 5-2 2-25-14-1-1 1-26 3-49 1-7 5-3 1-3 41-2z" fill="#FAFAFA"/>
<path transform="translate(1618,874)" d="m0 0 12 3 31 10 34 11 12 57 2 13 4 16 13 64-1 4-4-10-3-1v5l3 9-5-5-9-10-9-11-3-4v-2h-2l-9-11-3-3v-2h3l-4-4-1 3-8-10 3-1-2-9-1-1-5 1-2 2-11-13-14-17-11-13-9-11-12-14-18-22v-4l1-9 3-3 13-7 3 1h7zm56 121 1 2z" fill="#FAFAFA"/>
<path transform="translate(1577,899)" d="m0 0 4 1 11 74 15 105-1 4-3 5-57 9-20 3h-4l-4-7-4-3 2-9 13-38 45-135z" fill="#FBFBFB"/>
<path transform="translate(1642,658)" d="m0 0 4 1 20 96 2 12 1 5-1 6v2l3 1 10 48v4l-26 14-20 11-11 6-7 3-1-1h-7l-4 2-17-6 4-17 13-48 11-42 12-45 8-28 1-1 2-12z" fill="#FAFAFA"/>
<path transform="translate(820,1617)" d="m0 0 16 4 26 8 32 9 23 7 62 18 26 8 31 9 72 21 6 2v1l-10 1-2 1-15 1-3-2v-2l-38 1-107 1-4 4-5-1-4-5-23-4-1 3-7-7-4-3v-2l-4-2-6-5v-2l-4-2-10-10-16-14v-2l-4-2-8-8-8-7-14-13z" fill="#FAFAFA"/>
<path transform="translate(728,986)" d="m0 0 10 2 7 61 2 18 1 13-15 10-17 11-27 18-16 10-45 30-14 9-4-1-5-5 2-4 13-19 13-18 14-20 12-17 8-11 4-5 3-1 2-7 4-5 7-11 12-16 11-16 14-20z" fill="#FAFAFA"/>
<path transform="translate(594,1026)" d="m0 0h2v10l-4 49-2 30-3 39-1 1-12 2-9 5-4-2-7-8-1-3h-2l-7-8-11-12-7-8-11-12-7-8-9-10-11-12-5-6 2-7 41-15 40-15 20-7z" fill="#FAFAFA"/>
<path transform="translate(1429,1271)" d="m0 0 4 1 1 2-17 39-6 14-5 12-17 39-12 28-13 30-10 24-1-4-3 1-2-1v5h-2l-2-8v-114l1-1 12-1-2-3 1-3-9-3-2-2-1-5v-36l1-1 22-3 2-1 10-1 12-3 11-1 2 1zm-53 127-3 7 2 2 3-5v-4z" fill="#FAFAFA"/>
<path transform="translate(1634,653)" d="m0 0 6 4-1 7-3 10-2 2v-2l-4 3 1 6h2l-1 7-13 49-11 42-6 22-15 57-4 1-3-7-4-4-8-67-7-57-3-26 4-3 2-6 10-6 12-6 22-12z" fill="#FAFAFA"/>
<path transform="translate(1717,1072)" d="m0 0 4 1-1 2h-6l-3 1 1 2 3 1 3 7-2 11-3 6-2 7-6 11-4 2-3-3-7 1-4 2h-8l-3-2-3 4-4 15-1 2v10l11 7 4 2h9l3 4-1 5-4 6-2 7-2 3-1 4-4 4-1 5v5h2l-1 2-24-14-30-18-2-7-4-2-3-18 1-4 1 3 2-1 2-5-1-6-5-1v9h-1l-6-43v-5l3-3 1-3 17-3 73-11z" fill="#FAFAFA"/>
<path transform="translate(563,1212)" d="m0 0 12 6 12 2 4 44 4 49v5l-2-3v-7h-3l-7 10-9-1-10-3-7 4-7-2-2 4-4 7 1 3 3 2h-12l-5 1 1-2h2l-5-5v-2l-6-2-7-6-16-12-6-4v-2l-4-2-5 1-6 5 2-4 5-5h2l2-4 8-8 7-8 10-10 1-2h2l2-4 11-11 1-2h2v-2h2l2-4 12-12 7-8zm18 9 1 2h2v-2zm4 25v5h1v-5z" fill="#FAFAFA"/>
<path transform="translate(311,736)" d="m0 0h3l1 7-2-1v-2h-2l-2 12-1 2-2 13-3 13 8-8 5-2v-19l2 4 20 101 12 59v5l-5 4-1 2-12-3-28-9-21-7-3-9-5-4 4-20 21-92 5-22v-3l-2 8h-1v-7l3-11 1-1 1-7 4-1z" fill="#FAFAFA"/>
<path transform="translate(1381,829)" d="m0 0h4l13 28 18 41 18 40 11 25-1 10-22 14-5 2-1-4-9-15-4-7-11-18-7-10-3-7-8-11-18-28-1-5-6 2 2-11 11-44 15-1zm-25 44 1 2zm79 80v4l-4 2-4 1-13 1-2 3v5h2l1 5 5 9 4 1 11-7v-2h4l4-9-1-6-3-6z" fill="#FAFAFA"/>
<path transform="translate(1047,1363)" d="m0 0v3l-59 59-5 6-57 57v3h7v2h-7v4l-3 2h-8l-10 10-6 7h-2l-2 4-59 59-7 8-3 3h-2l-2 4-4 5 3 6v2l6-1h9v2l-14 2-1 5 11 3 42 12 166 49 21 6 88 26 1 3-8-1v-2h-10l-8-3-7-1-5-4-35-10-34-10-21-6-98-29-28-8-26-8-28-8-22-7-2 6 16 15 13 12 12 11 17 16 5 4v2l4 2 6 5 5 5 13 12v2h2v2l4 2 9 8h6l3-1 7 3 4 6v6l-6 7h-10l-5-5-1-6-8-2v-2l8-1v-4h-2v-2l-4-2-14-12-10-10-5-2-11-1-6-2-7-1-1-1-9-1v-3l-2-1v-3l-10-3-10-4-12-3-10-4-6-2h-9l-2-4 11-3 5 1 5 6 13 3 1-4-1-7-9-6-5-1-5 1-2-2v-4h2l1-6 3-6v-3l-15-1-6-4-1-3h-2l-3-7-1-7-3 3h-6l-4-2-6-1v-1h5l-1-4-6 3-1 1-1 17-4 1v-18l-4-5-1-6h3l1-3 2-1 1-5-5-2-2-1v-2l-4-1-7-4-1-3 6 1 8 4 2-4 1-8 2 2 3-8h1v25l25 14 8-6 2-1h12l7 3 12-12 2-3h2l2-4 3-1 2-4 58-58 6-7h2v-2l5-5h2v-2h2v-5l-9 1-31 1h-30l1-2 51-2v-5l5-3 1 2 3 1v4l9 1 2-4 6-1 4-2 16-16zm-282 229-1 4 3 4h5v-4l-3-3zm65 49 1 8 4 4h7l-1-4-8-8z" fill="#7B7B7B"/>
<path transform="translate(1535,499)" d="m0 0h2l12 17 13 18 11 15 10 14 52 72 2 4-3 4-8-1-51-12-21-5-2-5-4-3-4-31-9-74-1-12z" fill="#FAFAFA"/>
<path transform="translate(705,596)" d="m0 0 8 1 47 14 30 9 53 16 16 5v5l-12 7-22 14-24 15-8 4-7-1-7-6-16-17-14-15-7-7-7-8-9-9-7-8-7-7-7-8-1-2z" fill="#FAFAFA"/>
<path transform="translate(1368,432)" d="m0 0 5 1 49 18 38 14 10 4 52 19v3l-19 1h-12l-10 1-66 3-17 1-27 1-4-5-2-1-1-30 1-6-1-1v-20z" fill="#FAFAFA"/>
<path transform="translate(322,729)" d="m0 0 9 1 32 8 2 1 3 6 1 5-15 169h-2l-36-180v-4l5-4zm43 36 1 2z" fill="#FAFAFA"/>
<path transform="translate(1373,371)" d="m0 0 9 6 14 11 38 29 18 14 12 9 26 20 16 12 18 14-2 1-64-24-44-16-35-13-10-4-2-6-3-1-1-2v-44l8-4z" fill="#FAFAFA"/>
<path transform="translate(974,272)" d="m0 0 6 2 71 32 15 7 16 7 15 7 31 14-2 5h-22l-98-1-2-5-7-1-17-39-10-23v-2z" fill="#FAFAFA"/>
<path transform="translate(656,354)" d="m0 0 3 1-6 9-12 14-11 14-12 14-10 13-11 13-11 14-10 12-11 14-11 13-5 6-5-2-6-4v-2l-4-1-11-7-15-10v-8l17-12 29-20 20-14 32-22 23-16 19-13z" fill="#FAFAFA"/>
<path transform="translate(496,468)" d="m0 0 1 2-21 57-15 41-9 24-6 3-1 7-10 10-8 7-6-2-27-12-3-3-1-8 22-26 9-11 12-14 9-11 13-15 9-11 12-14 9-11z" fill="#FAFAFA"/>
<path transform="translate(1435,1089)" d="m0 0 12 2 44 9 3 1 2 9 5 6-3 10-6 14-1-4 5-14-2-3-4 6-4 2-9-1v29l1 3 5-3 2-2-1 5-7 16-5 12-11 25-13 30-9 21-6 2-2 5-9 2 3-17 1-1 3-17 1-1 1-8 1-1 2-10 1-1 3-17 1-1 3-17 4-14 5-25 5-21 1-14-4-2-7-3-5 1-8 7v-3l1-2h2l1-4 4-4 1-3-7-3zm25 35-1 1v5l3-1v-5z" fill="#FBFBFB"/>
<path transform="translate(1443,975)" d="m0 0 8 1 5 12 13 28 13 30 13 29 6 13-1 4-4 4-2 3-8-1-82-17v-1l15-2v2l8 2-1-5v-4l5-3 1-4h-2v-3h-5l-3-2-13-1-9-3v-1h12l2 1 14 2 13 1 10 1 7-1h1l-2-8-6-10-4-7-10-14-2-4v-3h-2l-8-14-3-6v-2l-5 2-3-1 18-11zm-18 14 2 4v-3zm14 20 1 6 1 2 4-1-1-4zm26 8-1 5h2v-5zm-20 1v5l6 8 2 1v-5l-5-5-2-4zm24 6-1 2 2 2zm-15 10 1 5 3 1-1-5zm20 6 1 3zm-33 44-1 2 4-1zm55 3 1 4v-4z" fill="#FAFAFA"/>
<path transform="translate(1362,1482)" d="m0 0 12 2 92 19 18 4 3 1 1 6 6 2v-2h2v-3l-3-1h7l13 3v2l-20 3-127 17-14 2h-6v-23l1-16 6-1 6-4 9-4 2-4-8-1z" fill="#FBFBFB"/>
<path transform="translate(1088,1338)" d="m0 0h56l16 4 11 4 20 5 5-1 3-2 6 1 1 9 2 1h-3l-1 5-5-1-3 12-2 7-1 3 9-5 6-3v-3l-3-1v-8l4 5 4 8v4h2l5 9v3h2v4h2v4h2l5 10v2h-2l-4-4-7-1 1 3 3 1v2l-6-2-19-9-15-8-23-11-11-6-7-3-25-12-28-14-3-1 1-10zm95 16 1 2 6 1-1-3z" fill="#FAFAFA"/>
<path transform="translate(1528,500)" d="m0 0h4l2 12 9 76 3 24v6l-4 3-10-1-55-13-3-6 12-23 7-12 8-16 8-14 6-11 3-5h6l-1-5h2l-2-3 1-5z" fill="#FAFAFA"/>
<path transform="translate(281,909)" d="m0 0 9 2 35 11 18 6 2 9 4 3-3 10-20 55-8 23-4 1-4-9-14-43-20-61v-2z" fill="#FAFAFA"/>
<path transform="translate(1156,349)" d="m0 0h14l46 3 35 2 15 1 34 2 15 1 29 2 2 7-14 8-17 9-22 12-4-2h-5l-4 3-44-16-51-19-17-6-12-5z" fill="#FAFAFA"/>
<path transform="translate(273,915)" d="m0 0 2 2 19 57 14 43 4 12-1 9 1 6-17 48-14 38h-3l-5-188z" fill="#FBFBFB"/>
<path transform="translate(769,1329)" d="m0 0 5 1v18l-7 113-2 30-5 5-7 1v-2h2l-4-14-3-17-3-12-4-23-1-2v-7h-2l-1-12-4-15-3-16-3-2 13-14 7-8 12-13 7-8z" fill="#FBFBFB"/>
<path transform="translate(506,466)" d="m0 0 9 5 16 11 15 10v3l-11 14-12 14-11 14-7 8-7 2-1 1-1 7-10 10h-2v2l-7 6h-2l-2 4-8 7-10 9-1-2 17-47 13-35 12-33 3-7z" fill="#FAFAFA"/>
<path transform="translate(1598,1090)" d="m0 0h5l2 3 4 2 4 25 6 41v4l-5 1-32-19-28-17-32-19-1-2 2-7 17-3z" fill="#FAFAFA"/>
<path transform="translate(1636,1353)" d="m0 0 3 2-1 4-98 133-9 12-1-3 18-49 11-29 16-43 12-6 35-15z" fill="#FAFAFA"/>
<path transform="translate(660,357)" d="m0 0 10 3 1 3v10h-1v-7l-5 2v5l3 2 4-1 1 14-3 2-1 7-14 13h-2v2l-8 7-10 9-5 5-12 11-20 18-14 13-8 7-14 13-5-1-4 1-2-4 11-13 8-10 9-11 13-16 9-11 8-10 14-17 8-10 13-16 11-14z" fill="#FAFAFA"/>
<path transform="translate(1625,1175)" d="m0 0 5 2 20 12 13 8 15 9 9 5-2 10-4 13-1-4 1-6-11 3-4 5-5 16-1 6 2 19-3 7-5 9-2 10-3-1-5-10h-1l1 26h-1l-6-38-2-14-2-13v-8l5-3 2-5-1-7-4-4-6-2-4-25-2-18zm57 37v5h2v-4l2-1zm-46 29-2 1v6l2-1v-2l3 1 1-4zm3 24-1 5 2 8 3 1 2-10-1-2z" fill="#FAFAFA"/>
<path transform="translate(351,1333)" d="m0 0 6 1 6 7h8l5-1 30-1 2-1h19l-1 2-5 2-1 6 3 10 4 9 3 13 2 6 8 5 1 5 5 3 2 2h3l2-6 3 4 6 2 2 3-1 7 5 2 9 6 3 1v2l4 1 11 6v2l4 1 11 7 3 1v2l4 1 11 7 7 4 8 5v3l-5-2-11-7-10-6-9-6-3-1v-2l-6-2-9-6-11-6-13-8-8-4 1 10 1 1 3 23 2 5 3 23 1 2 1 9 1 2 1 10 1 2 1 9 7 2 4 5 14 1v2l-12 2v2l5 1 3 3h-7l10 6 10 7 11 6 3 2v2l4 1 11 7 3 1v2l4 1 7 4v2h3v2l-4-1-11-7-11-6-7-5-11-6-7-5-7-4-12-7-6 3h-7l-4-2-4-7 1-8 1-5-4-5-1-4h-2l-7-10v-3h-2l-15-22-16-23v-2h-2l-7-11-11-15-13-19-12-16-8-12-5-7v-2h-2l-2-3h-8l-6-4-2-2v-11l11-1-4-3zm27 9-3 1-12 1-2 4 6 5 11 6 12 8h3v2l14 7 4 4 11 6 6 3 1-5-6-16-5-17-9-9zm-18 9-2 2h2l2 5 7 11h2l2 5 10 14 11 16 8 12h2l2 5 5 8h2l2 5 1 2h2l2 5 12 17 10 14 5 8h2l2 5 9 13h2l2 5 3 1-1-6-4-14-3-8-8-26-3-8-5-14-3-10-2-3-3-12-3-3-4-2-2-7-6-4h-4v-2l-10-7-11-6-11-7-13-8-7-4h-2v-2zm78 48-1 3 5 18 4 8 3 13 3 8 5 14 3 11 4 10 2 3 1-7-2-6-3-21-2-9-2-15-4-15-5-9-9-6zm29 105 1 3v-3z" fill="#8D8D8D"/>
<path transform="translate(1166,315)" d="m0 0 19 4 84 20 4 2 7 1 31 7 33 8v1l-26-1-97-6-26-2-38-2-4-10-3-2 2-6 6-10 7-3z" fill="#FAFAFA"/>
<path transform="translate(825,278)" d="m0 0 1 2v7l2 4 2 1-1 5-8 18-7 15-4 8-7 3-1 3h-42l-25-1-1-4 13-12 10-9 8-7 9 1 3-3 1-7-2-4 23-7 16-8z" fill="#FAFAFA"/>
<path transform="translate(979,271)" d="m0 0 11 2 68 16 32 8 36 8 25 6 3 2 2 6-8 14h-11l-6 4-2 2-5-1-37-17-23-10-10-5-36-16-39-18z" fill="#FAFAFA"/>
<path transform="translate(1553,627)" d="m0 0 8 1 16 4 18 4 38 9 1 6-12 7-11 6-23 12-16 9-8 4-5-1-3-3-6-49v-6z" fill="#FAFAFA"/>
<path transform="translate(288,1144)" d="m0 0 49 7 10 2 3 5 3 2h-6l1 6 3 1 3 11 2 3 1 9 5 2v-9l2 3 4 13-1 3-3-4h-2l1 7 2 3 2 12 2 8v7l-8-1-7-2-13-16-13-15-9-11-1-2 4 1 1-4-5-10v-4h-2l-5-9-1-1h-6l-3 2-2 3-13-15 1-4zm34 26-1 5 3 4h2l1 3 11 2 4-1h-2l-2-4-12-9z" fill="#FBFBFB"/>
<path transform="translate(745,985)" d="m0 0 4 2 9 10 10 11 7 8 11 12 7 8 5 6v2h2l-1 3-37 24-11 7-2-2-9-80v-9z" fill="#FBFBFB"/>
<path transform="translate(1334,937)" d="m0 0h1v9l-2 9-1 1-1 8-1 1-3 15-5 21-2 9-1 1-2 10-4 18-2 5 5 2 2 2 6 1-1 9 2 6 8 1v1l-10 1-1 2h-2l-2 4-5 4-4 1 1 13 1 3 1 18 1 3 4 44 1 4 1 20 1 3 1 17 1 3 1 13 1 3 1 22 2 9 1 19 2 13 6 3-1 7-3 3v19l1 2v13l-2-1-2-13-1-17-6-7h-6l-16 4-10 2-10 1-1 1-18 3-6 2-10 2-6 2-15 2-24 5-19 3-12 3-11 2-13 3-11 1-1 1-10 1-1 1h-10l4-2 49-10 43-8 6-3 17-2 15-4 21-3 2-1 9-1 2-1 9-1 1-1 11-2 21-4 4-4v-7l-2-9-1-15-1-4-1-18-1-3-1-20-1-2-1-17-1-5-2-22-1-7-1-17-1-4-1-15-1-5-1-19-1-2-1-17h-6l-6-1-5 7h-2l-2 4-5 5-6 7-2-1 9-11 12-14-4-7-1-9v-4l-25-12v-2h4v2l6 1 5 3 8 3 4 1 5-4 9-3 4-1 2-5 1-8 1-1 2-10 4-17 3-11 4-17 2-9 1-1 1-7 1-1 2-10z" fill="#7C7C7C"/>
<path transform="translate(1589,1335)" d="m0 0h2l1 2 33 1 2 5 7 1 5-6 10-3 4 1 7 8v7l-2 4-3 3-5 2h-5l-5-2-2 4h-2l2-4-1-4-17 7-44 19-14 37-6 17-24 64h-2l2-9 19-51 20-54v-2l-41 18-42 18-25 11-76 33-3-1 6-4 26-11 39-17 23-10 92-40 4-1 3-10 11-29z" fill="#747474"/>
<path transform="translate(314,1042)" d="m0 0h2l12 35 11 35-2 2-2 6-44 16-3 1-5-5 2-9 20-56z" fill="#FBFBFB"/>
<path transform="translate(735,346)" d="m0 0h67l2 3-1 5-15 33-10 2-28-12-31-13-3-2-1-5 7-6 1-2h9z" fill="#FAFAFA"/>
<path transform="translate(1649,663)" d="m0 0 2 3 18 45 15 38 16 40 7 18-4 4-1 9-4 4-13 7h-2l-6-27-4-20v-4l2-1v-5l-4-2-3-13-17-82-2-10z" fill="#FBFBFB"/>
<path transform="translate(1184,291)" d="m0 0 16 6 38 15 83 33 20 8-4 1-54-13-12-3-2-7-5-1-1 3-2-1 1 3-9-1-85-20-2-2-2-5 6-11h8l4-2z" fill="#FAFAFA"/>
<path transform="translate(1405,806)" d="m0 0 9 2 87 28 57 18 12 4 2 5 4 2 2 12-7 5-5-1-58-26-71-32-18-8-14-7z" fill="#FBFBFB"/>
<path transform="translate(1680,835)" d="m0 0h2l6 28 6 29-1 4-72-23-2-1v-4l17-9 22-12z" fill="#FAFAFA"/>
<path transform="translate(1346,369)" d="m0 0 9 6 5 2 1 8v38l-3 2-6-1-8-4-11-3-40-15v-5l19-10 11-6z" fill="#FAFAFA"/>
<path transform="translate(1472,1522)" d="m0 0h7l-4 5-6 4h-2l-2 4-5 4-15 10-6 5v3l7-1 12-7h4v-2l31-17 9-5h3l-1 4-11 8-28 21-3 2 1-4-1-3h-6l-1 3h-4v2l-15 8-5 1v2l-11 6-10 6-10 5-10 6h-2v-2l-12 7-2-1 4-3h2v-2l5-4h2v-2l5-3h2v-2l8-6 5-3h2v-2h2v-2l6-4 6-8 6-3 5-2 2-3-1-2-9 1-2 4-5 3-5-1-7-8 2-3 9-2 13-5 3-1v-3l-10-1v-1l33-4zm-32 5-1 4h7l2-4z" fill="#F9F9F9"/>
<path transform="translate(1702,823)" d="m0 0 6 4 7 1v1h-8l-5-2v2l4 4 1 2 4 2v10l5 9 7 24 3 11 1 8 4 3-7 2-3 1-24-8-2-5-11-55v-4z" fill="#FBFBFB"/>
<path transform="translate(815,1624)" d="m0 0 2 1v2l4 2 8 7 4 5h-3l2 10 10 2-2-6 7 6 10 9 8 7v2l4 2 9 9 2 1v2l4 2 1 3 6 3-1 2-6-1-11-2-10-2-1-1-9-1v-3l-2-1v-3l-10-3-10-4-12-3-10-4-6-2h-9l-2-4 11-3 5 1 5 6 13 3 1-4-1-7-9-6-5-1-5 1-2-2v-4h2l1-6 3-6v-3l-4-2 7-3z" fill="#FAFAFA"/>
<path transform="translate(374,678)" d="m0 0h1l-1 18-3 34-2 5-5 2-40-10-2-7 4-5 16-12 18-14z" fill="#FAFAFA"/>
<path transform="translate(379,609)" d="m0 0h2l-1 18-3 32-5 3v7l-7 7-8 7-16 15-8 7-12 11h-2l2-5 16-28 13-23 14-25 11-19z" fill="#FBFBFB"/>
<path transform="translate(1307,1088)" d="m0 0 3 3 1 3 1 18 1 3 4 44 1 4 1 20 1 3 1 17 1 3 1 13 1 3 1 22 2 9 1 19 2 13 6 3-1 7-3 3v19l1 2v13l-2-1-2-13-1-17-6-7h-6l-16 4-10 2-10 1-1 1-18 3-6 2-10 2-6 2-15 2-24 5-19 3-12 3-11 2-13 3-11 1-1 1-10 1-1 1h-10l4-2 49-10 43-8 6-3 17-2 15-4 21-3 2-1 9-1 2-1 9-1 1-1 11-2 21-4 4-4v-7l-2-9-1-15-1-4-1-18-1-3-1-20-1-2-1-17-1-5-2-22-1-7-1-17-1-4-1-15-1-5-1-19-1-2z" fill="#A3A3A3"/>
<path transform="translate(1337,1492)" d="m0 0 8 2v18l-1 25-7 2-39 5 2-5 4-5h2l2-5 14-18 10-13z" fill="#FBFBFB"/>
<path transform="translate(390,606)" d="m0 0 5 1 23 10 6 3-6 7-16 15-12 11-8 7-3-1 1-19 3-30 6-3z" fill="#FAFAFA"/>
<path transform="translate(1591,1337)" d="m0 0 34 1 2 5 7 1 2-1v8l-10 5-19 8-27 12h-3l3-10z" fill="#FAFAFA"/>
<path transform="translate(611,834)" d="m0 0h1v14l-12 161-1 13 114-42h3v2l-40 15-20 7-56 21h-2v10l-8 107h-2v-14l3-38 1-15 4-49-26 10-17 6-22 8-8 3-35 13-3-1 5-3 38-14 8-3 57-21h3l4-57 9-120 1-12z" fill="#747474"/>
<path transform="translate(371,1208)" d="m0 0h2l12 35 11 34v2l5 1 2 3v6l12 14 18 22v2l-4-2-7-8-8-10-5-4-2 1 1 9 3 8 2 6v6l-2-1v-3h-2l-3-9h-2l-1-10-3-8-2-7-1-3h-10l-2 1-2-6 5-1 3-8h-2l-5-6v-2h-2v-2l-4 2-3 3-1-3h-2l-4-8-1-4h-2l-5-11-2-1-1-8h3l5 5 9 10 4 5v2h2v2l5-3-2-9-3-8-2-7-4-12-3-8zm-13 33m18 22m1 2 2 2v-2z" fill="#888"/>
<path transform="translate(421,1445)" d="m0 0h3l11 16 12 17v2h2l11 16v2h2l3 5 2 1-5-15-5-18-1-1v-5l4 4 3 11 3 4 2-4 3 7 1 10 1 2 1 9 7 2 4 5 14 1v2l-12 2v2l5 1 3 3h-7l10 6 10 7 11 6 3 2v2l4 1 11 7 3 1v2l4 1 7 4v2h3v2l-4-1-11-7-11-6-7-5-11-6-7-5-7-4-12-7-6 3h-7l-4-2-4-7 1-8 1-5-4-5-1-4h-2l-7-10v-3h-2l-15-22-13-19zm46 59 1 3v-3z" fill="#8E8E8E"/>
<path transform="translate(1698,899)" d="m0 0 24 8 1 5-5-4-15-5 2 5 7 3 2 3v8h-4l-4-5-1 1 1 13 2 14 3 11 2 1 2-22 1-4 3 1 5 10 2-13v-15l2 1 1 21v47l-2-4-2 4-3 2-4-1-2-1 2 7 2 11v9h-1l-8-42 2-7-3-1-2-4-5-27-6-28z" fill="#FBFBFB"/>
<path transform="translate(1014,274)" d="m0 0h7l11 2 23 2 16 4 10 4 13 3 8 3 11 2 16 2 9 1h20l4-2 2-6 4 8-5 9-9 2v2l-15-3-38-9-4-2-1-3-5-1h-1-2v2l-8-1-59-14-13-3v-1z" fill="#FBFBFB"/>
<path transform="translate(336,1121)" d="m0 0 6 2 4 9 4 13-1 4-1 2-24-3-33-5-2-1v-4z" fill="#FBFBFB"/>
<path transform="translate(1385,1593)" d="m0 0 2 1-9 7 9 2-1 4v7l5-2-4 4-19 14-16 12-5-2-3-1-1-18 3 1-1-6 15-9 16-9zm-14 9-2 1v3l6-1-1-3z" fill="#FBFBFB"/>
<path transform="translate(1169,276)" d="m0 0h11l5 6 1 6 3 2 13 4 5 3 8 1 5 3 7 2 4 2 8 2 12 5 5 3 7 3 10 5 15 4 18 8 6 4 10 3v2l7 1 5 3 8 3 2 4h-3v-2l-10-3-43-17-85-34-18-7-5 4-2 1h-10l-3-4-1-4v-8z" fill="#7E7E7E"/>
<path transform="translate(1631,1248)" d="m0 0h1l7 49 1 9-2-2-4 6-6 11-2 2-5-1-5-8-3-1 1-8 3 1v-10l3-19 1-5v-7l-4 8-3 7-1-3 10-26 1 4-1 5 5 11 1 6h2l1-14-1-4zm-6 48 1 4z" fill="#FBFBFB"/>
<path transform="translate(1391,1612)" d="m0 0v3l-5 5-5 3-5 4-5 2v2h-2v2l-6 3-4 4-5 3-1 14-2 3h-2v2l-9 2-7-2v-2h-2l-2-3v-13h2l1-4 7-3 1-6-10 4-8 4h-13l-16 8h-2v2l-13 6-2-1 23-13 35-19 4 1 3 2 1 11 2 3 5 1h4l19-14 12-9zm-48 36v7h1v-7z" fill="#797979"/>
<path transform="translate(1566,895)" d="m0 0m-1 1m-2 1h2l-1 3-24 15-7 5-9 5-38 24-21 13-8 5-2 7-1 5 8 17 8 18-1 3-8-16-9-19-1-6h-8l-13 8-14 9h-2l-1 3-12 7-9 6h-3v2l-12 7h-2v2l-9 5-18 12h-5l2-4 14-8 7-5 9-5 25-16 11-7 4-3 7-3 19-12 3-1-1-5 1-5-8-18v-2h2l9 20 10 1 24-15 22-14 41-26z" fill="#747474"/>
<path transform="translate(761,309)" d="m0 0 3 1-12 11-3 1v2l-8 7-4 2v2l-4 3h-6l-3 2-1 3h-38v-4l30-12 37-14z" fill="#FBFBFB"/>
<path transform="translate(1332,1496)" d="m0 0v3l-20 26-6 9-5 5-2 4 30-4h8v2l-42 6-13 17-30 39-13 17-14 18-20 26-3 1 2-4 9-12 2-4 5-5 30-39 14-18 10-13 13-17 4-5-14 1-112 15-15 1 1-2 140-19 4-1 8-11 8-10 7-10h2l2-5z" fill="#747474"/>
<path transform="translate(1721,1094)" d="m0 0 1 4-6 20h2l2-10 3-10 1 4-5 26 1 9-1 2-1 9-1 2-2 12-3 12-1 9-1 2-3 20-2 4-3 1v-8l3-14 3-12 2-10 1-13-3 2-5 14-3 13-3 9-5 16-3-2v-6l1-1 1-8 3-8 3-7 3-12 3-8 4-14 7-24 4-16z" fill="#AFAFAF"/>
<path transform="translate(1037,519)" d="m0 0m-5 1h5v2l-72 15-111 23-141 29h-5l1-2 38-8 159-33 73-15z" fill="#747474"/>
<path transform="translate(1717,1070)" d="m0 0m-116-33h2l6 41v4l4 1 2 2 23-3 45-7 27-4h7v2l-85 13-17 2-1 4-2 2 1 12 4 27v9l-2-1-6-42-1-4-5-3v-2l-44 7-26 4h-7l1-2 71-11h5l1-4 2-2-3-24-2-14z" fill="#747474"/>
<path transform="translate(773,1364)" d="m0 0h1v17l-5 83-2 28 4 1 1 2 42-1h30v2l-56 2h-16l-1 4-2 2h-3l-1 24-2 32-2 1v-18l2-31v-8l-3-3-1-2h-6l-1-2 9-3 3-3 2-30 6-96z" fill="#747474"/>
<path transform="translate(1672,719)" d="m0 0h3l6 16 3 7 4 11 5 11 12 30 4 9v3l9 1 2 4h2l1 8-3 7-4 2h-8l-6-4-9 5-2-1 5-4 5-3v-7l3-5 2-2-18-46-11-27-5-13z" fill="#828282"/>
<path transform="translate(684,351)" d="m0 0 19 8v7h-2v2l-8 7-13 12h-5l-2-19v-9l6-3 3-1z" fill="#FAFAFA"/>
<path transform="translate(1316,810)" d="m0 0m-3 1h3v2l-43 14-81 27-43 14-114 38-4-1 9-4 54-18 37-12 78-26 43-14 36-12z" fill="#747474"/>
<path transform="translate(1272,1100)" d="m0 0v3l-9 10-9 11-11 13-1 2h-2l-2 4-12 14-11 13-9 11-12 14-9 11-13 15-9 11-12 14-11 13-9 11-13 15-9 11-18 21h-2l2-4 8-9 9-11 12-14 9-11 12-14 11-13 9-11 13-15 9-11 13-15 9-11 12-14 11-13 9-11 12-14 9-11 11-12z" fill="#747474"/>
<path transform="translate(910,272)" d="m0 0h8v2l-65 9h-6l-1 6-5 5-6 1-3-1-3 9-5 10h-2l1-5 7-16-3-1-2-4v-7l2-4 5-3h9l5 5v3l20-3z" fill="#767676"/>
<path transform="translate(1112,1568)" d="m0 0m-7 1h7v2l-104 14-165 22h-7l1-2 79-11 69-9z" fill="#747474"/>
<path transform="translate(1503,1524)" d="m0 0 2 1-1 4-11 8-28 21-3 2 1-4-1-3h-6l-1 3h-4v2l-15 8-5 1v2l-11 6-10 6-10 5-10 6h-2l2-4 25-14 23-13 6-2v-2l10-6 4-2h4v-2l31-17 9-5z" fill="#979797"/>
<path transform="translate(1649,1335)" d="m0 0 4 1 7 8v7l-2 4-3 3-5 2h-5l-5-2-2 4h-2l2-4-1-4-17 7-16 7-3-1 3-3 17-7 14-6 1-9 3-4z" fill="#797979"/>
<path transform="translate(1011,983)" d="m0 0h2l14 87 22 138 6 37v7l-2-1-19-118-16-100-6-37z" fill="#747474"/>
<path transform="translate(545,497)" d="m0 0v3l-11 13-8 10-9 11 4-1-2 4-10 10-1 8-2 2-8 1-11 13-11 14-11 13-5 6h-2l2-4 11-14 9-11 6-7-7 6-16 15-2-1 21-21h2v-2l8-7 3-3 1-7 3-3 7-2 11-13 8-10 14-17z" fill="#757575"/>
<path transform="translate(283,1151)" d="m0 0h2l6 7v2l-2 1 1 10 3 6 2 7 3 7 3 11 5 12 4 13 3 7 4 12 3 7 3 11 4 8 3 11 5 12 3 7 3 11 3 7 3 8-1 4-2-2-4-10-6-17-3-7-3-11-4-10-5-15-8-20-3-11-4-8-3-10-3-7-6-17-1-1v-6h-2l-3-10-4-9z" fill="#A8A8A8"/>
<path transform="translate(1315,1291)" d="m0 0h5l-4 3-16 4-10 2-10 1-1 1-18 3-6 2-10 2-6 2-15 2-24 5-19 3-12 3-11 2-13 3-11 1-1 1-10 1-1 1h-10l4-2 49-10 43-8 6-3 17-2 15-4 21-3 2-1 9-1 2-1 9-1 1-1 11-2z" fill="#ADADAD"/>
<path transform="translate(595,1322)" d="m0 0h2v2h4l1 4 67-4 20-1h15v2l-20 2-27 1-5 1-37 1-12 2-3 3-6 1-3-3v-2l-17 1-9 1-31 1-1-2 3-1h12l2-1h10l5-1 23-1z" fill="#878787"/>
<path transform="translate(425,622)" d="m0 0 5 1 1 10-16 12-18 14-8 6-7 5 1-9 17-16 20-18z" fill="#FAFAFA"/>
<path transform="translate(649,596)" d="m0 0m-7 1h7v2l-123 17-9 2h2l2 4-1 4h-4l-1 2-4-2v-7h3v-2l-16 3-36 5h-9l1-2 49-7 51-7z" fill="#747474"/>
<path transform="translate(726,1338)" d="m0 0h32l-6 7-9 10-7 8-5 6h-1v-6l5-1 3-9-4 3-4-1-2 4-1-1-1-10-1-2v-7z" fill="#FBFBFB"/>
<path transform="translate(727,986)" d="m0 0v3l-28 40-13 18-7 11-3 3-2 7-5 3-8 12-11 15-14 20-24 34-3 1 2-5 11-15 13-19 8-11 13-18 11-16 1-6 2-3 5-2 13-19 11-15 12-17 10-14z" fill="#747474"/>
<path transform="translate(581,814)" d="m0 0m-1 1m-3 1h3v2l-60 30-23 12-104 52-9 5-3-1 8-5 16-8 17-9 154-77z" fill="#747474"/>
<path transform="translate(969,921)" d="m0 0m-5 1h5v2l-184 40-28 6h-5l1-2 22-5 129-28z" fill="#747474"/>
<path transform="translate(494,1524)" d="m0 0 9 2 12 3 1 1 7 1 9 3 23 6 1 1 7 1 7 2 4 2 14 3 8 3 24 6 9 3 10 2 8 3 7 2v3l-11-2-18-6-13-3-17-5-15-4-1-1-15-3-10-4-7-1-8-3-7-1-18-6-14-3-2-1h-9l-1-2 6-1z" fill="#9C9C9C"/>
<path transform="translate(830,1323)" d="m0 0h13l121 9 78 6 1 2h-14l-121-9-78-6z" fill="#747474"/>
<path transform="translate(1273,405)" d="m0 0m-1 1m-2 1h2v2l-26 14-22 12-16 8-32 17-23 12-22 12-27 14-11 6-2-1 5-4 42-22 28-15 27-14 22-12 25-13 7-4z" fill="#747474"/>
<path transform="translate(916,1716)" d="m0 0 4 2 4 3h6l3-1 7 3 4 6v6l-6 7h-10l-5-5-1-6-8-2v-2l8-1v-4h-2v-2l-4-2z" fill="#7F7F7F"/>
<path transform="translate(1389,1588)" d="m0 0m-1 1m-2 1h2v3l-16 8-19 11-7 4v6h-2l-1 2-1 12h-1l-1-11-3-2-5 1-28 15-21 12-11 6-2-1 5-4 22-12 19-11 21-12 1-2h3v-13l1-8 2 4v14l-1 2 18-10 9-6 9-4z" fill="#757575"/>
<path transform="translate(1431,1281)" d="m0 0 1 3-11 25-14 33-11 25-18 42-13 30-9 21h-2l1-5 15-35 13-30 18-42 8-20 6-12 11-26 4-8z" fill="#747474"/>
<path transform="translate(1347,1044)" d="m0 0 18 3 12 3 11 2 1 1 10 1-1 2-25-3-4-1-2 6-8 4-10 1-4-8v-10z" fill="#FBFBFB"/>
<path transform="translate(1051,525)" d="m0 0m-1 1m-2 1h2v2l-21 13-19 12-26 16-19 12-48 30-21 13-11 7-2-1 6-5 21-13 11-7 26-16 17-11 20-12 38-24z" fill="#747474"/>
<path transform="translate(654,347)" d="m0 0 2 3v3l-38 26-17 12-12 8-14 10-2-1 7-6h2v-2l9-6 7-8 4-4h2v-2l14-9 9-5 8-6 12-4 5-4z" fill="#FBFBFB"/>
<path transform="translate(780,405)" d="m0 0 1 2-13 29-17 37-16 35-9 20-18 39-5 11h-2l3-9 18-39 9-20 17-37 15-33 11-24 5-10z" fill="#747474"/>
<path transform="translate(1636,1362)" d="m0 0h2l-2 4-9 12-6 7-3 5-7 10h-2l-2 6-6 6-3 5-7 9-4 7-4 4-3 5h-2l-2 5-12 16-4 6h-2l-1 4-2 3h-2l-2 6h-2l-2 4-10 14h-3l4-7 10-13 13-18 12-16 56-76z" fill="#929292"/>
<path transform="translate(973,932)" d="m0 0m-2 1h2l-2 4-16 10-18 12-23 15-27 18-16 10-12 8-26 17-15 10-2-1 7-6 72-47 49-32z" fill="#747474"/>
<path transform="translate(1569,920)" d="m0 0 1 3-33 99-13 38-9 27h-2l2-9 52-156z" fill="#747474"/>
<path transform="translate(690,604)" d="m0 0 1 4-5 11-6 16-20 51-16 41-5 13-12 30h-2l1-5 11-28 6-16 17-43 16-41 12-31z" fill="#747474"/>
<path transform="translate(732,1368)" d="m0 0v3l-13 14-1 2h-2l-2 4-9 10-5 5-2 3h-2l-2 4-11 12-3 4h-2l-2 4-11 12-1 2h-2v2h-2l-2 4-9 10-4 2-5 4 2-4 8-8 8-10h2l2-4 8-8 9-11 11-11 1-2h2l2-4 5-7 6-5 1-2h2v-2h2l2-4 9-11h2l1-3 5-3zm-94 101 2 1-2 1z" fill="#9F9F9F"/>
<path transform="translate(1270,1655)" d="m0 0m4 0 2 1-10 6-8 4-12 7-4 3-6 3-5 1v2l-11 6-12 7h-3l-1 3h-6v2l-16 8-5 2 2-4 16-9 25-14 18-10 16-9 14-8z" fill="#747474"/>
<path transform="translate(1689,1213)" d="m0 0 4 2-3 1-2 3-4 14-3 8-3 13-4 11-3 12-3 8-8 28-3 8-2 7-2-2 1-6 6-23 3-8 3-12 3-10 3-9 4-13 8-24 3-7z" fill="#BFBFBF"/>
<path transform="translate(1345,1066)" d="m0 0h5l1 1 10 1v2l12 1 8 3 19 4 9 3 33 7 1 2-15-1-16-4-16-3-12-3-9-1-24-6-6-1z" fill="#bbb"/>
<path transform="translate(487,477)" d="m0 0v3l-9 10-9 11-12 14-9 11-12 14-11 13-9 11-18 21-4 2 2-5h2v-2h2v-2h2l2-4 6-8 14-16 4-4 3-5 8-8 6-9h2v-2h2v-2h2l2-6 8-8 6-8 11-13z" fill="#9A9A9A"/>
<path transform="translate(1334,1622)" d="m0 0 4 1 3 2v12h-1v-6l-10 4-8 4h-13l-16 8h-2v2l-13 6-2-1 23-13 24-13z" fill="#FBFBFB"/>
<path transform="translate(1463,619)" d="m0 0 1 2-13 25-6 10-8 16-12 22-18 34-8 15-8 14h-2l2-6 16-30 12-22 18-34 24-44z" fill="#747474"/>
<path transform="translate(795,1700)" d="m0 0 6 1 8 1 1 1 10 2 11 3 8 1 1 1 18 3 5 2 17 3 1 1 9 1 1 1 9 1 14 4v3l-6-1-20-4-1-1-8-1-1-1-18-3-13-4-18-3-1-1-9-1-15-4-8-2z" fill="#B7B7B7"/>
<path transform="translate(1628,706)" d="m0 0 1 4-14 53-12 45-11 41h-2l1-8 11-43 6-21 13-49 6-21z" fill="#747474"/>
<path transform="translate(1607,1234)" d="m0 0m-5 1h5v2l-75 15-67 13h-5l1-2 34-7 77-15z" fill="#747474"/>
<path transform="translate(305,756)" d="m0 0 1 4-11 48-15 66-3 13-2 1-2 4 1-7 3-10 1-8 1-1 3-17 3-12 2-9 1-1 3-18 3-11 3-12 1-8 1-1 2-10 3-10z" fill="#9E9E9E"/>
<path transform="translate(653,364)" d="m0 0v3l-11 13-7 9-8 10-9 11-11 13-7 9-14 17-16 20-6 7h-2l2-4 13-16 9-11 13-16 9-11 6-8 9-11 11-13 11-14z" fill="#747474"/>
<path transform="translate(686,345)" d="m0 0h31l6 1-6 7-4 3-11 1-17-7z" fill="#FBFBFB"/>
<path transform="translate(745,1081)" d="m0 0m-1 1m-2 1h2l-1 3-37 24-12 8-20 13-29 19-26 17-2-1 6-5 23-15 27-18 16-10 18-12 26-17z" fill="#747474"/>
<path transform="translate(1068,536)" d="m0 0h1l-1 12-16 89-8 45h-2l1-12 11-61 12-68z" fill="#747474"/>
<path transform="translate(1296,501)" d="m0 0m-22 1h22v2l-125 6h-22l1-2z" fill="#747474"/>
<path transform="translate(272,942)" d="m0 0 2 1 3 113v39h-1l-1-7-1-28-1-52-1-24z" fill="#747474"/>
<path transform="translate(550,1224)" d="m0 0v3l-13 13-1 2h-2v2h-2l-2 4-11 11-1 2h-2l-2 4-14 14-7 8-5 6-8 7-3 7-9 7-6 6h-2v2h-2l-2 4h-3l6-7 14-15 5-5 12-13 7-7 7-8 9-9 1-2h2l2-4h2l2-4z" fill="#747474"/>
<path transform="translate(586,1589)" d="m0 0 4 1 7 4 4 2v2l4 1 3 1v2l4 1 11 7 3 1v2l5 2 12 7 8 5v2h4v2l4 1 18 11 10 6v2l4 1 5 3-1 3-9-6-11-6-7-5-3-1v-2l-4-1-18-11-7-4v-2l-4-1-16-10-9-5v-2h-3v-2l-4-1-7-4v-2l-4-1z" fill="#A0A0A0"/>
<path transform="translate(378,609)" d="m0 0 1 2-16 28-14 25-12 21-15 26-4 2 2-6 7-11 2-5h2l1-4 7-12 6-11 7-11 6-12 14-24 3-6z" fill="#959595"/>
<path transform="translate(767,702)" d="m0 0m-1 1m-2 1h2l-1 3-23 14-14 9-26 16-19 12-21 13-8 5-2-1 8-6 10-7 11-6 49-31 20-12z" fill="#747474"/>
<path transform="translate(578,1504)" d="m0 0h10l4 3-16 2-14 1-2 1-13 1-24 4-16 2h-8v-2l-2-1 18-3h6l1-1 16-1 2-1 15-1 3-1 15-2z" fill="#A4A4A4"/>
<path transform="translate(1532,705)" d="m0 0m-1 1m-2 1h2v2l-32 17-16 9-14 7-22 12-30 16-2-1 5-4 25-13 22-12 28-15z" fill="#747474"/>
<path transform="translate(1415,989)" d="m0 0 2 1-4 6-12 7-9 6h-3v2l-12 7h-2v2l-9 5-18 12h-5l2-4 14-8 7-5 9-5 25-16 11-7z" fill="#B6B6B6"/>
<path transform="translate(1441,1258)" d="m0 0 1 3 2 4 1 1 9-2h6v2l-15 3-4 5-5 1-3 6h-2l1-5 1-3-4-1-25 5-3-1 3-3 9-1 1-1 17-2 2-6 6-1z" fill="#747474"/>
<path transform="translate(1134,364)" d="m0 0 1 3-18 43-17 41-13 31h-2l1-5 14-34 13-31 12-29 7-17z" fill="#747474"/>
<path transform="translate(548,495)" d="m0 0 4 1v8l-7 7-8 7-16 15-5 3 2-4 18-22z" fill="#FBFBFB"/>
<path transform="translate(1334,937)" d="m0 0h1v9l-2 9-1 1-1 8-1 1-3 15-5 21-2 9-1 1-2 10-4 18h-2l-2 2 2-12 1-1 2-10 4-17 3-11 4-17 2-9 1-1 1-7 1-1 2-10z" fill="#A1A1A1"/>
<path transform="translate(656,1527)" d="m0 0 6 2 10 6 11 6 12 7 3 1v2l4 1 12 6 20 12 7 3-2 1-1 2-10-6-12-6-19-11-13-8-14-7-13-8z" fill="#9F9F9F"/>
<path transform="translate(1054,1486)" d="m0 0m-30 1h30v2l-89 3h-32l1-2z" fill="#747474"/>
<path transform="translate(1719,1132)" d="m0 0h1l-1 7-1 9-1 2-2 12-3 12-1 9-1 2-3 20-2 4-3 1v-8l3-14 3-12 2-10 1-1 6-31z" fill="#A1A1A1"/>
<path transform="translate(283,1151)" d="m0 0h2l6 7v2l-2 1 1 10 3 6 2 7 3 7 3 11 5 12 1 5h-2l-1 2-3-10-3-7-6-17-1-1v-6h-2l-3-10-4-9z" fill="#A1A1A1"/>
<path transform="translate(466,1071)" d="m0 0m-3 1h3v2l-76 28-30 11-3-1 10-5 47-17 38-14z" fill="#747474"/>
<path transform="translate(1487,1152)" d="m0 0 1 2-11 25-15 35-13 30-6 14h-2l1-5 16-37 12-28 5-13 11-22z" fill="#747474"/>
<path transform="translate(485,567)" d="m0 0 2 1-11 13-2 3h-2l-2 5-11 13-11 14h-3l4-11 6-2 2-5-1-4 16-15 8-7z" fill="#FAFAFA"/>
<path transform="translate(1327,1276)" d="m0 0h2l1 9 6 3-1 7-3 3v19l1 2v13l-2-1-2-13-1-17-6-7-4-2 6-4 2-2z" fill="#888"/>
<path transform="translate(1723,1098)" d="m0 0 1 4-11 56-1 7h-1v-12l-3 2-2 6-1-3z" fill="#FBFBFB"/>
<path transform="translate(1027,766)" d="m0 0h1l-1 11-18 101h-2l1-12 16-89 2-10z" fill="#747474"/>
<path transform="translate(752,1498)" d="m0 0h7l2 5 3 1-1 22-2 35h-1v-31l-1-10-3-12-1-7-39-1v-1z" fill="#FBFBFB"/>
<path transform="translate(1587,864)" d="m0 0 11 3 8 3-1 4-16 8-5-4z" fill="#FBFBFB"/>
<path transform="translate(1503,1527)" d="m0 0 2 1-16 12-19 14-8 6 1-4-1-3-4-1 26-14z" fill="#FBFBFB"/>
<path transform="translate(1460,1560)" d="m0 0 4 2-5 3-5 4h-3v2h-2v2l-5 3h-2v2h-2v2l-8 5-13 10-4 3h-2v2l-6 2v2l-11 8-4 2-1-3 10-7 5-4h3v-2h2v-2l5-3h2v-2l16-11 6-5 11-8h2l1-3 3-2h3z" fill="#aaa"/>
<path transform="translate(493,481)" d="m0 0 1 3-14 39-14 38-6 16h-2l2-9 12-32 7-20 12-32z" fill="#747474"/>
<path transform="translate(1315,1291)" d="m0 0h5l-4 3-16 4-10 2-10 1-1 1-18 3-6 2-10 2-6 2h-9v-1l11-1v-2l-3-1 8-2 21-3 2-1 9-1 2-1 9-1 1-1 11-2z" fill="#BCBCBC"/>
<path transform="translate(667,1071)" d="m0 0v3l-7 10-48 68-3 1 2-5 11-15 13-19 8-11 13-18 8-11z" fill="#747474"/>
<path transform="translate(737,1496)" d="m0 0h16l-1 3-59 2-6 1h-23v-1h5v-2l6-1 55-1z" fill="#989898"/>
<path transform="translate(693,1579)" d="m0 0 8 1 8 3 8 1 9 3 9 2 15 5 4 2h-3v2l-10-2-12-4-13-3-12-4-13-3z" fill="#ADADAD"/>
<path transform="translate(357,1238)" d="m0 0 5 5 9 11 9 10 2 4-4 2-3 3-1-3h-2l-4-8-1-4h-2l-5-11-2-1zm1 3m18 22m1 2 2 2v-2z" fill="#FBFBFB"/>
<path transform="translate(651,355)" d="m0 0m-1 1m-1 1m-2 1h2l-1 3-19 13-20 14-19 13-17 12-2-1 8-7 19-13 17-12 16-11z" fill="#747474"/>
<path transform="translate(571,409)" d="m0 0 3 1-4 5-16 11-23 16-16 11-4 3-2-1 5-6 5-3 9-6h3v-2h2v-2l15-10 11-8 10-7h2z" fill="#8F8F8F"/>
<path transform="translate(596,1339)" d="m0 0 3 1 1 3 1 21 1 3 1 22 1 4 1 20 1 9h-2v5h-1l-1-7-1-24-1-3-1-22-1-3-1-22z" fill="#9D9D9D"/>
<path transform="translate(1728,1009)" d="m0 0h1l1 23v24l-2-4-8-38 1-3 3 4 4-1z" fill="#FBFBFB"/>
<path transform="translate(476,1419)" d="m0 0 4 1v2l4 1 11 6v2l4 1 11 7 3 1v2l4 1 11 7 7 4 8 5v3l-5-2-11-7-10-6-9-6-3-1v-2l-6-2-9-6-11-6-3-2z" fill="#ABABAB"/>
<path transform="translate(689,1323)" d="m0 0h15v2l-20 2-27 1-5 1h-26v-1l9-2z" fill="#A4A4A4"/>
<path transform="translate(649,596)" d="m0 0m-7 1h7v2l-79 11h-8l1-2 42-6z" fill="#747474"/>
<path transform="translate(437,1402)" d="m0 0h1l5 18 4 8 3 13 3 8 5 14-1 3h-2l-4-11-5-17-4-10-3-10-2-3-1-10z" fill="#A1A1A1"/>
<path transform="translate(1493,1517)" d="m0 0m16 0h5l-2 4-7 3-2-3h-16l-1 1-21 2-15 2h-10l1-2 45-6h16z" fill="#7D7D7D"/>
<path transform="translate(751,309)" d="m0 0 4 1-3 4-32 12-15 6-5-1 1-2 4-2 8-2 10-5 5-2 7-1 10-6z" fill="#A1A1A1"/>
<path transform="translate(1444,1558)" d="m0 0 1 3-9 5-5 1v2l-11 6-10 6-10 5-10 6h-2l2-4 25-14 23-13z" fill="#959595"/>
<path transform="translate(349,942)" d="m0 0 1 3-14 39-9 24-4 12h-2l2-9 20-56 5-12z" fill="#747474"/>
<path transform="translate(757,1624)" d="m0 0h2l-1 36-3 14-2 1v-26l2-11 1-13z" fill="#A1A1A1"/>
<path transform="translate(459,1423)" d="m0 0h1l3 23 2 5 3 23 1 7-3-1-2-6-3-21-2-9-1-5v-10z" fill="#ACACAC"/>
<path transform="translate(1322,1219)" d="m0 0 2 3 1 22 2 9 1 23-2 3-2-9-1-15-1-4-1-18-1-3v-9z" fill="#9A9A9A"/>
<path transform="translate(494,1524)" d="m0 0 9 2 12 3 1 1 7 1 9 3 23 6-1 2h-7l-8-3-7-1-18-6-14-3-2-1h-9l-1-2 6-1z" fill="#A2A2A2"/>
<path transform="translate(1612,1277)" d="m0 0h1v6l-3 6-3 10-4 8-2 11-4 5-2 6h-2v6h-2v-6l3-8h2l1-7 13-35z" fill="#949494"/>
<path transform="translate(1632,1249)" d="m0 0h2l3 17 3 22 4 26v11l-2-1-2-10-1-13-5-31-2-14z" fill="#747474"/>
<path transform="translate(400,1290)" d="m0 0 5 5 6 7-4 2 1 9 3 8 2 6v6l-2-1v-3h-2l-3-9h-2l-1-10-1-6 1-3z" fill="#B7B7B7"/>
<path transform="translate(1668,1272)" d="m0 0 3 2-2 10-4 10-5 19-3 8-2 7-2-2 1-6 6-23 3-8 3-12z" fill="#BFBFBF"/>
<path transform="translate(1434,1525)" d="m0 0h6v2l-20 3-2 1-13 1-2 1-15 1-6 2h-10v-2l9-2z" fill="#999"/>
<path transform="translate(795,1700)" d="m0 0 6 1 8 1 1 1 10 2 11 3 8 1 1 1 10 2 7 2v1h-8l-12-3-8-1-1-1-9-1-15-4-8-2z" fill="#B2B2B2"/>
<path transform="translate(309,1053)" d="m0 0 1 3-21 59-2 5h-2l2-9 14-39 6-17z" fill="#747474"/>
<path transform="translate(1231,1024)" d="m0 0 7 1 2 1 21 3 8 3v1l-6 2-2 4-27-13z" fill="#FBFBFB"/>
<path transform="translate(904,271)" d="m0 0h16v1l-70 9h-4l-2-5 4 1h8l14-3h18l2-1 12-1z" fill="#FBFBFB"/>
<path transform="translate(1233,1307)" d="m0 0h8v2l-13 3-28 6-16 1 2-2 22-4 6-3 17-2z" fill="#B5B5B5"/>
<path transform="translate(1315,1162)" d="m0 0 3 1 1 20 1 3 1 17 1 3v17l-2-2-1-11-1-2-1-17-1-5-1-14z" fill="#A8A8A8"/>
<path transform="translate(1033,732)" d="m0 0h1v7l-5 27h-2l1-17-6-2v-7h2l1-2 5 2z" fill="#808080"/>
<path transform="translate(1629,653)" d="m0 0m-1 1m-2 1h2l-1 3-27 14-23 13-5 1 5-5 23-12 12-7z" fill="#747474"/>
<path transform="translate(498,1279)" d="m0 0v3l-18 18-3 7-9 7-6 6h-2v2h-2l-2 4h-3l6-7 14-15 5-5z" fill="#929292"/>
<path transform="translate(371,1208)" d="m0 0h2l12 35 1 10-1 3-4-13-3-8-4-12-3-8z" fill="#A3A3A3"/>
<path transform="translate(492,1487)" d="m0 0h3v4h2l4 6 3-1 5 6 1 6-9 1-3-3v-8l-6-9z" fill="#A8A8A8"/>
<path transform="translate(1677,834)" d="m0 0m-1 1m-2 1h2l-1 3-27 14-14 8-10 5-2-1 10-7 16-8z" fill="#747474"/>
<path transform="translate(446,1352)" d="m0 0h1l2 9 1 11 1 1 1 10 1 2v11l-2 4-1-10-1-1-1-11-1-1-2-12-1-4v-7z" fill="#A3A3A3"/>
<path transform="translate(732,1368)" d="m0 0v3l-13 14-1 2h-2l-2 4-9 10-2 2h-2l-3 2 1-4 7-6 1-2h2v-2h2l2-4 9-11h2l1-3 5-3z" fill="#B4B4B4"/>
<path transform="translate(1208,298)" d="m0 0h7l5 3 7 2 4 2 8 2 12 5 5 3 7 3 1 2-5-1-48-19z" fill="#FBFBFB"/>
<path transform="translate(1637,672)" d="m0 0h1v9l-3 7-5 18h-2l1-8 4-15-4-1v-5l3-3 4-1z" fill="#7B7B7B"/>
<path transform="translate(378,609)" d="m0 0 1 2-16 28-11 19-3 1 2-5 6-10 7-14 5-8 6-11z" fill="#969696"/>
<path transform="translate(372,671)" d="m0 0h3v5l-16 12-14 11-2-1 9-9 8-7z" fill="#FBFBFB"/>
<path transform="translate(1708,1176)" d="m0 0 1 3h2l-1 6-3 20-2 4-3 1v-8l3-14z" fill="#bbb"/>
<path transform="translate(1088,1696)" d="m0 0 16 4 10 3v1l-10 1-2 1-15 1 3-2 2-1v-6h-2l1 3h-2z" fill="#FBFBFB"/>
<path transform="translate(487,477)" d="m0 0v3l-9 10-9 11-7 8-8 7v-3l7-7 6-8 11-13z" fill="#9F9F9F"/>
<path transform="translate(429,633)" d="m0 0m-1 1m-1 1m-2 1h2l-2 4-18 14-17 13-5 4-2-1 9-9 6-4 18-14z" fill="#747474"/>
<path transform="translate(1341,369)" d="m0 0m-1 1m-2 1h2l-1 3-42 22-4 1 5-5 14-8 16-8z" fill="#747474"/>
<path transform="translate(1509,533)" d="m0 0 1 3-12 22-11 20h-2l2-6 10-19 7-14z" fill="#747474"/>
<path transform="translate(853,648)" d="m0 0m-1 1m-1 1m-2 1h2l-1 3-20 12-22 14-5 2 4-5 20-12z" fill="#747474"/>
<path transform="translate(1502,1529)" d="m0 0m-1 1 1 3-9 7h-2v2l-6 3-4 4-10 7-6 5-3-1 9-8 14-10 13-10z" fill="#898989"/>
<path transform="translate(331,1291)" d="m0 0h2l5 11 3 11 3 7 3 8-1 4-2-2-4-10-6-17-3-7z" fill="#929292"/>
<path transform="translate(305,756)" d="m0 0 1 4-10 44h-2l1-9 3-17 1-1 2-10 3-10z" fill="#828282"/>
<path transform="translate(1270,1655)" d="m0 0m4 0 2 1-10 6-8 4-11 6-7 2 5-5 23-13z" fill="#AFAFAF"/>
<path transform="translate(1721,1094)" d="m0 0 1 4-5 16v8l-5 16-3 1 1-7 6-22 2-9z" fill="#939393"/>
<path transform="translate(1334,937)" d="m0 0h1v9l-2 9-1 1-1 8-1 1-3 15-2 4-2-1 2-10 2-9 1-1 1-7 1-1 2-10z" fill="#9A9A9A"/>
<path transform="translate(1672,719)" d="m0 0h3l6 16 3 7 4 11 1 4-3-1-14-35z" fill="#969696"/>
<path transform="translate(1522,509)" d="m0 0 3 4v2h-2v2l2 1-1 2-6 1-7 12h-2l2-6 4-7 2-6z" fill="#7E7E7E"/>
<path transform="translate(295,1185)" d="m0 0h1l3 11 3 7 3 9 2 4v3h-2l-1 2-3-10-3-7-5-13 1-3z" fill="#B7B7B7"/>
<path transform="translate(1636,1362)" d="m0 0h2l-2 4-9 12-6 7-3 5-6 8-2-2 14-19 9-12z" fill="#929292"/>
<path transform="translate(1391,1612)" d="m0 0v3l-5 5-5 3-5 4-5 2v2h-2v2l-6 3-4 4-3-1 9-8 18-13z" fill="#8F8F8F"/>
<path transform="translate(565,1329)" d="m0 0h19v1h-17v2l-2 1-31 1-1-2 3-1h12l2-1h10z" fill="#939393"/>
<path transform="translate(1443,1089)" d="m0 0 9 1 38 8 1 2-10-1-38-8z" fill="#747474"/>
<path transform="translate(1406,1081)" d="m0 0 13 2 23 5 1 2-15-1-16-4-6-1z" fill="#A5A5A5"/>
<path transform="translate(1366,1020)" d="m0 0 2 1v3l-14 9-6 4h-5l2-4 14-8z" fill="#C3C3C3"/>
<path transform="translate(330,1121)" d="m0 0m-3 1h3v2l-38 14-3-1 5-3z" fill="#747474"/>
<path transform="translate(656,1527)" d="m0 0 6 2 10 6 11 6 5 3-1 3-10-6-12-6-9-6z" fill="#9B9B9B"/>
<path transform="translate(788,1669)" d="m0 0 5 1 2 5-4 5h-5l-3-5 3-5z" fill="#909090"/>
<path transform="translate(625,1560)" d="m0 0 14 3 8 3 7 2v3l-11-2-18-6z" fill="#A8A8A8"/>
<path transform="translate(1610,1397)" d="m0 0 1 3h-2l-2 6-6 6-3 5-7 9-3 5-3-1 10-14 12-16z" fill="#8F8F8F"/>
<path transform="translate(1345,1068)" d="m0 0 12 2 23 5 2 2-17-1-4-2-16-3z" fill="#949494"/>
<path transform="translate(1313,1127)" d="m0 0h1l3 32v3h-2l-1 2-1-7-1-17-1-4v-8z" fill="#B5B5B5"/>
<path transform="translate(311,736)" d="m0 0h3l1 7-2-1v-2h-2l-2 12-5 7-1 6h-1v-7l3-11 1-1 1-7 4-1z" fill="#D2D2D2"/>
<path transform="translate(586,1589)" d="m0 0 4 1 7 4 4 2v2l4 1 3 1v2l4 1 11 7 2 4-18-10v-2h-3v-2l-4-1-7-4v-2l-4-1z" fill="#909090"/>
<path transform="translate(476,1419)" d="m0 0 4 1v2l4 1 11 6v2l4 1 8 5v2l-6-2-25-15z" fill="#9F9F9F"/>
<path transform="translate(600,1385)" d="m0 0 3 4 1 4 1 20 1 9h-2v5h-1l-1-7-1-24-1-3z" fill="#A9A9A9"/>
<path transform="translate(758,1338)" d="m0 0h2l-2 4-16 17-7 8h-3l7-8 9-10 7-8zm-27 30m-2 1 2 1-2 1zm-2 2 2 1-2 1z" fill="#777"/>
<path transform="translate(766,1234)" d="m0 0h2l4 34v10l-2-1-4-34z" fill="#747474"/>
<path transform="translate(1556,1470)" d="m0 0h2l-2 5-3 1-2 6h-2l-2 4-10 14h-3l4-7 10-13 7-9z" fill="#9E9E9E"/>
<path transform="translate(1264,1436)" d="m0 0 6 2 15 8 8 4 8 3-4 2-21-10-11-6z" fill="#9B9B9B"/>
<path transform="translate(305,1219)" d="m0 0h2l2 3 3 11 4 10 3 9-2 2-4-9-3-10-5-12z" fill="#ACACAC"/>
<path transform="translate(939,267)" d="m0 0h10l-1 3-22 3h-8l5-4z" fill="#9E9E9E"/>
<path transform="translate(1418,1591)" d="m0 0 2 1-1 3-4 3h-2v2l-6 2v2l-11 8-4 2-1-3 10-7 5-4h3v-2h2v-2l5-3h2z" fill="#A8A8A8"/>
<path transform="translate(756,1567)" d="m0 0 2 2 2-2v9l-1 8-6-2-11-6 3-1 8 4 2-4z" fill="#FBFBFB"/>
<path transform="translate(649,1325)" d="m0 0h11v2l-8 2h-26v-1l9-2z" fill="#A7A7A7"/>
<path transform="translate(1710,1138)" d="m0 0 1 3-5 17-3 11-2-2 1-11 4-10 2-7z" fill="#969696"/>
<path transform="translate(681,1051)" d="m0 0 1 2-4 6-2 2-2 7-5 3h-2v-5l3-6 5-2z" fill="#7A7A7A"/>
<path transform="translate(293,800)" d="m0 0 2 4-1 9-6 26-3 1 2-12 1-1 3-18z" fill="#909090"/>
<path transform="translate(750,1547)" d="m0 0h3l1 4v11l-1 8-2-1-2-10v-11z" fill="#FBFBFB"/>
<path transform="translate(386,1256)" d="m0 0 2 3 5 16-1 2-12-14 5-4z" fill="#FBFBFB"/>
<path transform="translate(1307,1634)" d="m0 0m-1 1m-2 1h2v2l-25 14-9 5-2-1 5-4 22-12z" fill="#747474"/>
<path transform="translate(1369,1280)" d="m0 0h10v2l-30 6h-4v-2l9-1v-2l13-2z" fill="#8F8F8F"/>
<path transform="translate(1356,850)" d="m0 0 1 4-9 37h-2l1-8 6-25z" fill="#747474"/>
<path transform="translate(1503,1524)" d="m0 0 2 1-5 5-24 13h-3l5-5 11-6 13-7z" fill="#969696"/>
<path transform="translate(1601,1306)" d="m0 0h1v7l-2 6-4 7-1 3h-2v6h-2v-6l3-8h2l1-7z" fill="#A4A4A4"/>
<path transform="translate(446,603)" d="m0 0 1 3-4 10-8 1-3 1-1 3-2-2 8-8 8-7z" fill="#FBFBFB"/>
<path transform="translate(1413,1575)" d="m0 0m-2 1 5 1-4 3-12 6-10 6h-2l2-4z" fill="#9D9D9D"/>
<path transform="translate(702,1401)" d="m0 0 1 3-5 5h-2l-2 4-9 10-4 2-3 2 2-4 10-10 1-2h2l2-4z" fill="#A8A8A8"/>
<path transform="translate(1315,1291)" d="m0 0h5l-4 3-16 4-10 2-4-1h3l1-3 11-2z" fill="#B2B2B2"/>
<path transform="translate(1345,1066)" d="m0 0h5l1 1 10 1v2l12 1 8 3 5 1v1l-10-1-31-7z" fill="#FBFBFB"/>
<path transform="translate(797,1047)" d="m0 0m-1 1m-2 1h2l-1 3-25 16-4 3-2-1 7-6 22-14z" fill="#747474"/>
<path transform="translate(1389,1588)" d="m0 0m-1 1m-2 1h2v3l-16 8-10 6-2-1 3-4 18-9z" fill="#7A7A7A"/>
<path transform="translate(818,592)" d="m0 0 5 2 2 4-2 3-5 1h-2l-2-5 2-4z" fill="#7D7D7D"/>
<path transform="translate(757,1624)" d="m0 0h2l-1 36-1 5h-1v-21h-1l1-19z" fill="#BABABA"/>
<path transform="translate(1467,1063)" d="m0 0h6l2 2-1 7-5 1-3-2-1-4z" fill="#7F7F7F"/>
<path transform="translate(1589,1335)" d="m0 0h2l-1 7-9 24h-2l2-9 7-18z" fill="#797979"/>
<path transform="translate(1689,1213)" d="m0 0 4 2-3 1-2 3-4 14-2 5-3 1 1-5 6-19z" fill="#B3B3B3"/>
<path transform="translate(725,321)" d="m0 0m-5 1h5v2l-20 8-5-1 1-2 4-2 8-2z" fill="#9D9D9D"/>
<path transform="translate(1661,1300)" d="m0 0h1v6l-6 18-2 4-1-6 4-13 3-8z" fill="#B4B4B4"/>
<path transform="translate(1318,1191)" d="m0 0h2l1 12 1 3v17l-2-2-1-11-1-2z" fill="#8C8C8C"/>
<path transform="translate(514,618)" d="m0 0h5l2 4-1 4h-4l-1 2-4-2v-7z" fill="#7B7B7B"/>
<path transform="translate(673,454)" d="m0 0 5 2v6l-1 2-4 1-3-1-1-6z" fill="#777"/>
<path transform="translate(624,1611)" d="m0 0h2v2l5 2 12 7 8 5-1 3-10-6-4-2v-2l-4-1-7-4z" fill="#989898"/>
<path transform="translate(494,1524)" d="m0 0 9 2 12 3 2 4-17-4-2-1h-9l-1-2 6-1z" fill="#A6A6A6"/>
<path transform="translate(1232,1025)" d="m0 0 6 2 25 12v2l-9-3-19-9-3-2z" fill="#757575"/>
<path transform="translate(1273,324)" d="m0 0 9 1 12 4 4 3 6 2 5 4-5-1-27-11z" fill="#FBFBFB"/>
<path transform="translate(1618,1339)" d="m0 0h2l2 5v5l-2 2h-5v-2l-2-1 2-6h3z" fill="#858585"/>
<path transform="translate(408,803)" d="m0 0h6l1 7-2 2h-5l-2-2v-5z" fill="#919191"/>
<path transform="translate(460,509)" d="m0 0v3l-13 15-6 7-2-1 6-9h2v-2h2v-2h2l2-4z" fill="#8A8A8A"/>
<path transform="translate(571,409)" d="m0 0 3 1-4 5-16 11-2-1v-2l17-12h2z" fill="#A4A4A4"/>
<path transform="translate(1065,369)" d="m0 0h5v2h2l1 4-3 3h-5l-2-2v-5z" fill="#797979"/>
<path transform="translate(1241,1671)" d="m0 0m-1 1m4 0 2 1-4 3-6 3-5 1v2l-7 4-3-1 7-4 4-5 6-3z" fill="#C9C9C9"/>
<path transform="translate(514,1512)" d="m0 0 2 2 7 1v1l-16 2h-8v-2l-2-1z" fill="#bbb"/>
<path transform="translate(1330,1298)" d="m0 0h1l1 19 1 2v13l-2-1-2-13v-18z" fill="#A5A5A5"/>
<path transform="translate(330,755)" d="m0 0 5 1 2 5-3 3-4 1v-2h-2l-1-5z" fill="#858585"/>
<path transform="translate(350,658)" d="m0 0 1 2-12 21-4 2 9-18 4-6z" fill="#9D9D9D"/>
<path transform="translate(861,296)" d="m0 0h5l2 3-1 5-1 1h-5l-2-2v-5z" fill="#8B8B8B"/>
<path transform="translate(1325,1447)" d="m0 0 4 1 2 5v6l-4 2-3-9z" fill="#FBFBFB"/>
<path transform="translate(626,435)" d="m0 0m-1 1m-1 1m-1 1m-1 1m-1 1m-1 1m-1 1m-1 1m-1 1m-2 1h2l-2 4-8 8-8 7-4 4-2-1z" fill="#747474"/>
<path transform="translate(721,1321)" d="m0 0h18l-3 2-13 1h-19l2-2z" fill="#747474"/>
<path transform="translate(1696,1184)" d="m0 0 1 4-2 10-3 9-3-2v-6l3-1 1-7z" fill="#969696"/>
<path transform="translate(308,1150)" d="m0 0 4 1 1 6-2 2-7-1v-6z" fill="#747474"/>
<path transform="translate(1316,1016)" d="m0 0h2l-2 10-3 13h-2l-2 2 2-12 1-1 2-10z" fill="#A9A9A9"/>
<path transform="translate(1582,862)" d="m0 0 3 1-1 8-2 6h-2l-2-10 2-4z" fill="#FBFBFB"/>
<path transform="translate(690,777)" d="m0 0 5 1 2 4-2 4-4 1-4-3v-2h2l-1-3z" fill="#868686"/>
<path transform="translate(496,486)" d="m0 0 6 1 1 1v5l-3 2-5-1-1-1v-5z" fill="#848484"/>
<path transform="translate(1174,1680)" d="m0 0 7 2v6l-4 2-4-2-1-5z" fill="#848484"/>
<path transform="translate(1107,1553)" d="m0 0 5 1 1 6-2 2h-6l-1-4 1-4z" fill="#828282"/>
<path transform="translate(669,1499)" d="m0 0h21v2l-3 1h-23v-1h5z" fill="#A7A7A7"/>
<path transform="translate(939,1288)" d="m0 0h5l3 7h-2l-1 3h-3l-4-3v-2-1z" fill="#8C8C8C"/>
<path transform="translate(1623,1247)" d="m0 0 1 4-10 26h-2l1-6 9-23z" fill="#747474"/>
<path transform="translate(293,928)" d="m0 0 4 1 1 6-3 3-5-2-1-4z" fill="#8B8B8B"/>
<path transform="translate(578,1504)" d="m0 0h10l4 3-16 2h-6l-1-3z" fill="#B4B4B4"/>
<path transform="translate(1079,994)" d="m0 0 7 1 1 4-1 2h-2v2h-5l-2-6z" fill="#9F9F9F"/>
<path transform="translate(1195,1697)" d="m0 0m-2 1h5v2l-16 8-5 2 2-4z" fill="#aaa"/>
<path transform="translate(719,1562)" d="m0 0 5 2 10 6 7 3-2 1-1 2-10-6-8-4z" fill="#ACACAC"/>
<path transform="translate(1415,989)" d="m0 0 2 1-4 6-12 7-3-1 4-4z" fill="#ABABAB"/>
<path transform="translate(1690,835)" d="m0 0 5 1 2 4-3 4-5-1-2-5z" fill="#7E7E7E"/>
<path transform="translate(1383,398)" d="m0 0h5l2 3-1 4-3 2-4-1-1-7z" fill="#9B9B9B"/>
<path transform="translate(558,1507)" d="m0 0h12v2l-10 2-15 1 1-3z" fill="#959595"/>
<path transform="translate(400,1290)" d="m0 0 5 5 6 7-4 2-2 4-5-16z" fill="#FBFBFB"/>
<path transform="translate(1394,698)" d="m0 0 5 2-1 5-1 1v3l-5-1-1-4v-4z" fill="#8F8F8F"/>
<path transform="translate(910,272)" d="m0 0h8v2l-22 3h-7l1-2z" fill="#747474"/>
<path transform="translate(675,1643)" d="m0 0 5 2 7 4v2l4 1 5 3-1 3-9-6-11-6z" fill="#9A9A9A"/>
<path transform="translate(771,1594)" d="m0 0 12 6 3 2v2l-7-1v-2l-6 1-4-2 3-1z" fill="#FBFBFB"/>
<path transform="translate(1144,1325)" d="m0 0m-3 1h3v2l-10 2-1 1-10 1-1 1h-10l4-2z" fill="#8D8D8D"/>
<path transform="translate(1551,515)" d="m0 0 5 2 5 10 7 7 1 6-4-4-13-18z" fill="#FBFBFB"/>
<path transform="translate(829,1709)" d="m0 0h10l1 1 10 2 7 2v1h-8l-12-3-8-1z" fill="#9E9E9E"/>
<path transform="translate(1038,704)" d="m0 0h1l-1 11-3 17h-2l1-11 3-16z" fill="#747474"/>
<path transform="translate(413,565)" d="m0 0v3l-9 10-6 7-4 2 2-5h2v-2h2v-2h2l2-4 5-5z" fill="#909090"/>
<path transform="translate(1434,1525)" d="m0 0h6v2l-20 3h-9l1-2z" fill="#747474"/>
<path transform="translate(1509,1517)" d="m0 0h5l-2 4-7 3-2-3-10-1v-1z" fill="#FBFBFB"/>
<path transform="translate(1199,1350)" d="m0 0 4 2 1 5-4 3-4-1-1-5 2-2z" fill="#898989"/>
<path transform="translate(1233,1307)" d="m0 0h8v2l-13 3-4 1h-10l2-2 15-3z" fill="#949494"/>
<path transform="translate(1630,1130)" d="m0 0 4 1v3l1 1-2 4-3 1-3-4v-5z" fill="#919191"/>
<path transform="translate(604,1555)" d="m0 0 10 2 7 2 5 2v1h-7l-9-3-6-1z" fill="#999"/>
<path transform="translate(663,1619)" d="m0 0 5 1 2 4-3 3-6-1v-5z" fill="#FBFBFB"/>
<path transform="translate(305,756)" d="m0 0 1 4-4 17-4 5 3-15 3-10z" fill="#909090"/>
<path transform="translate(737,1496)" d="m0 0h16l-1 3h-19z" fill="#9A9A9A"/>
<path transform="translate(283,1151)" d="m0 0h2l6 7v2l-2 1v8l-2-3-4-11z" fill="#FBFBFB"/>
<path transform="translate(1323,344)" d="m0 0 6 1 5 3 8 3 2 4h-3v-2l-10-3-7-3z" fill="#9A9A9A"/>
<path transform="translate(732,1368)" d="m0 0v3l-13 14-1-4 4-5h2l1-3 5-3z" fill="#A8A8A8"/>
<path transform="translate(1326,1253)" d="m0 0h1l1 23-2 3-2-9v-11h1z" fill="#D0D0D0"/>
<path transform="translate(380,1235)" d="m0 0h2l4 12v9l-2-2-3-11-1-1z" fill="#B0B0B0"/>
<path transform="translate(1721,1094)" d="m0 0 1 4-8 27h-1l1-8 4-16z" fill="#FBFBFB"/>
<path transform="translate(527,1450)" d="m0 0 7 3 9 6v3l-5-2-11-7z" fill="#A4A4A4"/>
<path transform="translate(801,359)" d="m0 0 1 3-9 19h-2l1-5 8-16z" fill="#747474"/>
<path transform="translate(1257,1662)" d="m0 0m-1 1m-2 1h2v2h-2l-1 3-9 4-4 1 5-5z" fill="#8D8D8D"/>
<path transform="translate(1443,966)" d="m0 0 1 2v5l-17 11-2-1 8-6h2v-2h4l2-6z" fill="#FBFBFB"/>
<path transform="translate(280,867)" d="m0 0 1 3-4 17-2 1-2 4 1-7 5-17z" fill="#909090"/>
<path transform="translate(1494,1135)" d="m0 0 1 3-7 14-3 2 1-4 4-10h2l1-4z" fill="#949494"/>
<path transform="translate(1345,1068)" d="m0 0 12 2 6 2v2l-10-1-8-2z" fill="#8E8E8E"/>
<path transform="translate(471,496)" d="m0 0v3l-9 10-8 7v-3l12-12z" fill="#9D9D9D"/>
<path transform="translate(853,1713)" d="m0 0 7 1 12 3-4 2-16-3z" fill="#C8C8C8"/>
<path transform="translate(492,1487)" d="m0 0h3v4h2l4 6 3-1 2 4h-6l-1 2-3-7-4-6z" fill="#F8F8F8"/>
<path transform="translate(1636,1362)" d="m0 0h2l-2 4-9 12-2-1 2-4 7-9z" fill="#9B9B9B"/>
<path transform="translate(517,1531)" d="m0 0h6l9 3 3 3-9-1-9-3z" fill="#959595"/>
<path transform="translate(1264,1436)" d="m0 0 6 2 11 6v2l-5-1-11-6z" fill="#9E9E9E"/>
<path transform="translate(1334,1343)" d="m0 0h1l1 15v7h-2l-1-6v-10z" fill="#D0D0D0"/>
<path transform="translate(1246,1304)" d="m0 0h7v1l-6 1v2l-8 3h-9v-1l11-1v-2l-3-1z" fill="#E2E2E2"/>
<path transform="translate(545,497)" d="m0 0v3l-11 13h-2l2-4 9-10z" fill="#747474"/>
<path transform="translate(768,1603)" d="m0 0 5 1 1 4 5 1 3-3 2 1-4 4h-6l-4-2-6-1v-1h5z" fill="#FBFBFB"/>
<path transform="translate(1366,1534)" d="m0 0h6v2l-12 2h-8l1-2z" fill="#747474"/>
<path transform="translate(1545,1485)" d="m0 0 1 2-4 6-6 8-2-2 9-12z" fill="#939393"/>
<path transform="translate(391,1279)" d="m0 0 1 2-1 7 2 3-8 2-2-6 5-1z" fill="#FBFBFB"/>
<path transform="translate(1706,1198)" d="m0 0h1v7l-2 4-3 1v-8l2-3z" fill="#B9B9B9"/>
<path transform="translate(1687,1162)" d="m0 0 4 3v2h2l-1 3-5 1v-2h-2v-6z" fill="#808080"/>
<path transform="translate(1723,1112)" d="m0 0 1 2-1 2-1 10-3 7h-1l1-11 3-9z" fill="#898989"/>
<path transform="translate(471,588)" d="m0 0v3l-11 13h-2l2-4z" fill="#747474"/>
<path transform="translate(923,269)" d="m0 0h11l-1 3-7 1h-8z" fill="#9C9C9C"/>
<path transform="translate(655,1453)" d="m0 0v3l-6 7-4 2-5 4 2-4zm-17 16 2 1-2 1z" fill="#A1A1A1"/>
<path transform="translate(492,1429)" d="m0 0h3v2l4 1 8 5v2l-6-2-8-5z" fill="#9A9A9A"/>
<path transform="translate(1640,1307)" d="m0 0 3 1 1 6v11l-2-1-2-10z" fill="#A1A1A1"/>
<path transform="translate(1612,1277)" d="m0 0h1v6l-3 6-2 6-1-2 1-8 3-7z" fill="#A7A7A7"/>
<path transform="translate(1322,1219)" d="m0 0 2 3v10l-3 1-1-3v-9z" fill="#C4C4C4"/>
<path transform="translate(550,424)" d="m0 0 3 1-5 5-8 6-2-1 5-6 5-3z" fill="#979797"/>
<path transform="translate(931,1699)" d="m0 0h5l2 4-3 3h-5l1-4-2 1z" fill="#7D7D7D"/>
<path transform="translate(1381,1532)" d="m0 0h5v3l-4 1h-10v-2z" fill="#A2A2A2"/>
<path transform="translate(466,1464)" d="m0 0h1l1 10 1 7-3-1-2-6v-6z" fill="#BCBCBC"/>
<path transform="translate(1666,1286)" d="m0 0 1 4-4 11h-3l1-5 2-7z" fill="#B9B9B9"/>
<path transform="translate(1414,1271)" d="m0 0h7v1l-6 1-1 2-13 2 1-3 2-1 9-1z" fill="#AFAFAF"/>
<path transform="translate(1722,1098)" d="m0 0 1 3-5 17h-2l1-6 4-13z" fill="#747474"/>
<path transform="translate(1406,1081)" d="m0 0 13 2 6 2v1l-13-1-6-1z" fill="#8B8B8B"/>
<path transform="translate(736,316)" d="m0 0 2 1-2 3-8 3-6-1 1-2 5-2 7-1z" fill="#A8A8A8"/>
<path transform="translate(1087,1697)" d="m0 0 2 1v3l1-3h2l1 6-3 1-3-1-1-4-1 4-1-3z" fill="#818181"/>
<path transform="translate(1219,1686)" d="m0 0 2 1-9 6-4 2h-3l-1 3h-5l5-4z" fill="#FBFBFB"/>
<path transform="translate(689,1323)" d="m0 0h15v2l-19 1z" fill="#aaa"/>
<path transform="translate(1712,1165)" d="m0 0h1v7l-2 7h-2v-11z" fill="#9F9F9F"/>
<path transform="translate(1423,1116)" d="m0 0 2 1-7 8-5 6h-2v2h-2l2-4 3-4h2v-2h2l2-4 3-1z" fill="#FBFBFB"/>
<path transform="translate(337,681)" d="m0 0 1 2-7 12h-2v-4h2l1-4 2-4z" fill="#8B8B8B"/>
<path transform="translate(1400,1582)" d="m0 0m-1 1 3 2-12 7h-2l2-4z" fill="#A4A4A4"/>
<path transform="translate(693,1579)" d="m0 0 8 1 6 2-2 1-1 2-13-3z" fill="#ABABAB"/>
<path transform="translate(665,1442)" d="m0 0v3l-1 2h-2v2h-2l-2 4-5 3-2 1 2-4z" fill="#9D9D9D"/>
<path transform="translate(1225,1414)" d="m0 0 5 1h3l2 6-5-1-8-4z" fill="#FBFBFB"/>
<path transform="translate(1255,1303)" d="m0 0h11v1l-11 3h-9l1-2z" fill="#A1A1A1"/>
<path transform="translate(1697,1175)" d="m0 0 1 3-6 20h-1v-8l3-8z" fill="#FBFBFB"/>
<path transform="translate(1263,1040)" d="m0 0h4v2l6 1 5 3v2l-9-3-6-3z" fill="#969696"/>
<path transform="translate(870,1718)" d="m0 0h10l8 3v1h-9l-1-1-8-1z" fill="#9E9E9E"/>
<path transform="translate(1115,1704)" d="m0 0 10 2 14 4v1h-7l-8-3-7-1z" fill="#FBFBFB"/>
<path transform="translate(1403,1602)" d="m0 0 2 1-2 4-10 7-2-3 10-7z" fill="#B7B7B7"/>
<path transform="translate(1454,1551)" d="m0 0 2 1-2 2 1 2h-4v2l-3 2h-3l-1-3z" fill="#C2C2C2"/>
<path transform="translate(376,1340)" d="m0 0h15v1l-7 1-4 1-10 1 3-3z" fill="#C5C5C5"/>
<path transform="translate(305,1219)" d="m0 0h2l2 3 3 12h-3l-3-9z" fill="#A5A5A5"/>
<path transform="translate(359,642)" d="m0 0 1 2-8 14-3 1 2-5 6-10z" fill="#7E7E7E"/>
<path transform="translate(1502,1529)" d="m0 0m-1 1 1 3-9 7h-2v2h-2l2-4z" fill="#919191"/>
<path transform="translate(717,1382)" d="m0 0h1v5h-2l-2 4-4 4-1-4h2l2-4zm-10 11 2 1-2 1z" fill="#B5B5B5"/>
<path transform="translate(1596,1320)" d="m0 0h2l-3 9h-2v6h-2v-6l3-8z" fill="#C0C0C0"/>
<path transform="translate(1155,1323)" d="m0 0m-5 1h5v3l-10 2h-7v-1h6l1-3z" fill="#B2B2B2"/>
<path transform="translate(318,1253)" d="m0 0h2l3 11 1 1v5h-2l-3-10-1-1z" fill="#989898"/>
<path transform="translate(1539,700)" d="m0 0 4 1-4 4-6 3-2-1 1-3z" fill="#9F9F9F"/>
<path transform="translate(683,1422)" d="m0 0v3l-3 4h-2l-2 4-5 2 2-4z" fill="#999"/>
<path transform="translate(702,1401)" d="m0 0 1 3-5 5h-2l-2 4h-3v-2h2l2-4z" fill="#A1A1A1"/>
<path transform="translate(1315,1291)" d="m0 0h5l-4 3-9 2-4-1 2-2z" fill="#B7B7B7"/>
<path transform="translate(554,1541)" d="m0 0 9 1 5 3v1l-10-1-4-2z" fill="#8F8F8F"/>
<path transform="translate(451,1453)" d="m0 0 4 2 3 8-1 3h-2l-4-11z" fill="#ADADAD"/>
<path transform="translate(565,1329)" d="m0 0h19v1h-17v2l-7 1v-3z" fill="#FBFBFB"/>
<path transform="translate(1165,1321)" d="m0 0h4v3l-14 2 1-3z" fill="#9A9A9A"/>
<path transform="translate(1673,1261)" d="m0 0 1 4-3 9-2 1v-8z" fill="#9E9E9E"/>
<path transform="translate(1710,1138)" d="m0 0 1 3-2 7-3 3-2 4 1-7 3-9z" fill="#ADADAD"/>
<path transform="translate(1569,540)" d="m0 0 6 5 7 11-1 2-12-16z" fill="#FBFBFB"/>
<path transform="translate(1428,1584)" d="m0 0h3l-1 3-10 7-1-2 5-5z" fill="#ABABAB"/>
<path transform="translate(1684,1224)" d="m0 0h1l-1 9-2 5-3 1 1-5z" fill="#8F8F8F"/>
<path transform="translate(1701,1162)" d="m0 0 1 2v11h-3-1l1-7z" fill="#C3C3C3"/>
<path transform="translate(1319 1e3)" d="m0 0h1v8l-2 6-3 1 2-10z" fill="#939393"/>
<path transform="translate(307,747)" d="m0 0 1 4-2 5-2 3-1 6h-1v-7l2-8h2z" fill="#B3B3B3"/>
<path transform="translate(1509,1515)" d="m0 0m-8 1h8v2l-7 1h-9l1-2z" fill="#747474"/>
<path transform="translate(1395,1078)" d="m0 0 7 1 4 2v2l-10-1-2-2z" fill="#B1B1B1"/>
<path transform="translate(1351,1030)" d="m0 0 2 1-3 5-7 1 2-4z" fill="#A5A5A5"/>
<path transform="translate(450,521)" d="m0 0v3l-9 10-2-1 4-6z" fill="#848484"/>
<path transform="translate(520,445)" d="m0 0 2 1-4 5-7 5-2-1 5-6 5-3z" fill="#A1A1A1"/>
<path transform="translate(571,409)" d="m0 0 3 1-4 5-7 5-2-1 5-6 5-2z" fill="#989898"/>
<path transform="translate(1678,1238)" d="m0 0h4l-3 11-3-1z" fill="#B7B7B7"/>
<path transform="translate(1313,1127)" d="m0 0h1l1 14-3-1-1-4v-8z" fill="#D9D9D9"/>
<path transform="translate(1500,1121)" d="m0 0 1 4-5 10h-2l1-5 4-8z" fill="#747474"/>
<path transform="translate(350,658)" d="m0 0 1 2-5 9-3 1 1-5 4-6z" fill="#959595"/>
<path transform="translate(592,1551)" d="m0 0 10 2 2 1v3l-9-2-1-3z" fill="#A8A8A8"/>
<path transform="translate(1484,1535)" d="m0 0 2 1-4 4-7 4-2-1 5-5z" fill="#898989"/>
<path transform="translate(1391,1612)" d="m0 0v3l-5 5-6 3 2-4z" fill="#868686"/>
<path transform="translate(1370,1598)" d="m0 0 2 1-5 5-5 3-2-1 3-4z" fill="#9C9C9C"/>
<path transform="translate(744,1593)" d="m0 0 6 1 4 2h-3v2l-10-2z" fill="#C9C9C9"/>
<path transform="translate(1490,1538)" d="m0 0m-1 1m-1 1 1 3-4 2-4 4-3 1 2-4z" fill="#8A8A8A"/>
<path transform="translate(1565,1458)" d="m0 0v3l-5 8-4 1 6-9z" fill="#818181"/>
<path transform="translate(1331,1317)" d="m0 0 2 2v13l-2-1-1-13z" fill="#E9E9E9"/>
<path transform="translate(1281,1089)" d="m0 0 1 3-8 8-2-1 7-8z" fill="#787878"/>
<path transform="translate(1336,1040)" d="m0 0h2v2l-11 7-3-1 8-6z" fill="#818181"/>
<path transform="translate(293,800)" d="m0 0 2 4-1 9-3 2v-6z" fill="#aaa"/>
<path transform="translate(366,630)" d="m0 0 1 2-6 10-3 1 2-5 4-6z" fill="#8F8F8F"/>
<path transform="translate(1338,1391)" d="m0 0 2 2v13l-2 1z" fill="#C7C7C7"/>
<path transform="translate(1336,1365)" d="m0 0h1l1 6v9l-1 5h-1z" fill="#BEBEBE"/>
<path transform="translate(1199,1348)" d="m0 0 6 1v5l-3 1-1-4-2 1h-3z" fill="#FBFBFB"/>
<path transform="translate(536,1331)" d="m0 0h8l4 2-14 1-1-2z" fill="#8B8B8B"/>
<path transform="translate(705,1583)" d="m0 0 12 1 1 2-6-1v2l-6-1z" fill="#BCBCBC"/>
<path transform="translate(463,1457)" d="m0 0 3 3v10l-2-2-1-3z" fill="#8C8C8C"/>
<path transform="translate(600,1385)" d="m0 0 3 4 1 10h-2l-2-6z" fill="#CFCFCF"/>
<path transform="translate(1086,1323)" d="m0 0 2 4-3 2-2 4-2-5z" fill="#FBFBFB"/>
<path transform="translate(1688,1161)" d="m0 0 5 1 2 3v3l-4-1-3-4z" fill="#F1F1F1"/>
<path transform="translate(1415,989)" d="m0 0 2 1-4 6-5 2 1-5z" fill="#BCBCBC"/>
<path transform="translate(292,814)" d="m0 0 1 3-2 9-2 1v-8z" fill="#878787"/>
<path transform="translate(1683,747)" d="m0 0h3l3 7v3l-3-1z" fill="#9A9A9A"/>
<path transform="translate(1187,1701)" d="m0 0m-1 1m-2 1h2v3l-9 4 2-4z" fill="#9C9C9C"/>
<path transform="translate(1419,1527)" d="m0 0h6l-1 2-4 1h-9l1-2z" fill="#7E7E7E"/>
<path transform="translate(1661,1300)" d="m0 0h1v6l-3 5h-1l1-9z" fill="#A1A1A1"/>
<path transform="translate(1690,1198)" d="m0 0h3v7l-2 2-2-2v-6z" fill="#BFBFBF"/>
<path transform="translate(1325,973)" d="m0 0 3 1-2 10-3-1z" fill="#ABABAB"/>
<path transform="translate(822,313)" d="m0 0 1 3-4 8h-2l1-5 3-5z" fill="#747474"/>
<path transform="translate(788,1669)" d="m0 0 5 1 2 5-2 2-2-5-5 1-2 1 2-4z" fill="#F0F0F0"/>
<path transform="translate(1460,1560)" d="m0 0 4 2-10 6v-4l3-2h3z" fill="#B7B7B7"/>
<path transform="translate(1222,1310)" d="m0 0 6 1-4 2h-10l2-2z" fill="#989898"/>
<path transform="translate(1369,1280)" d="m0 0h10v2l-10 1-2-2z" fill="#A2A2A2"/>
<path transform="translate(1079,994)" d="m0 0m-1 1 4 2 2 6h-5l-2-6z" fill="#797979"/>
<path transform="translate(1334,937)" d="m0 0h1v9l-3 5-1-4z" fill="#B2B2B2"/>
<path transform="translate(282,857)" d="m0 0 1 4-2 6-3 3 2-12z" fill="#989898"/>
<path transform="translate(528,440)" d="m0 0 2 1-5 5-4 3-2-1 5-5z" fill="#939393"/>
<path transform="translate(1341,1414)" d="m0 0h1v13l-2-1v-11z" fill="#D9D9D9"/>
<path transform="translate(572,1580)" d="m0 0 4 1 7 4v2l-5-2-6-3z" fill="#8C8C8C"/>
<path transform="translate(1338,919)" d="m0 0h2v7l-2 1z" fill="#B3B3B3"/>
<path transform="translate(565,1576)" d="m0 0 4 1 3 3-4-1z" fill="#7F7F7F"/>
<path transform="translate(1336,928)" d="m0 0 2 1-1 7h-1z" fill="#C2C2C2"/>
<path transform="translate(1340,911)" d="m0 0h2v6h-2z" fill="#B7B7B7"/>
<path transform="translate(1335,1067)" d="m0 0h7l-1 2-6-1z" fill="#8F8F8F"/>
<path transform="translate(1652,1329)" d="m0 0h1v5h-2z" fill="#A1A1A1"/>
<path transform="translate(1407,1133)" d="m0 0h2v2l-4 3 1-4z" fill="#FBFBFB"/>
<path transform="translate(561,1573)" d="m0 0 4 1v2l-4-1z" fill="#848484"/>
<path transform="translate(583,1587)" d="m0 0h3v2h-3z" fill="#8A8A8A"/>
<path transform="translate(554,1569)" d="m0 0h3v2h-3z" fill="#8A8A8A"/>
<path transform="translate(491,1483)" d="m0 0 2 1-1 2-3-1h2z" fill="#FBFBFB"/>
<path transform="translate(536,1340)" d="m0 0h2l-2 4z" fill="#FBFBFB"/>
<path transform="translate(1339,1038)" d="m0 0h3v2h-3z" fill="#A1A1A1"/>
<path transform="translate(558,1571)" d="m0 0 3 1-3 1z" fill="#747474"/>
<path transform="translate(501,1481)" d="m0 0h1v5h-1z" fill="#FBFBFB"/>
<path transform="translate(1334,850)" d="m0 0 1 3h-2z" fill="#FBFBFB"/>
<path transform="translate(795,1676)" d="m0 0 4 1z" fill="#FBFBFB"/>
<path transform="translate(767,1654)" d="m0 0 4 1z" fill="#FBFBFB"/>
<path transform="translate(504,1334)" d="m0 0 4 1z" fill="#B7B7B7"/>
<path transform="translate(505,1492)" d="m0 0" fill="#FBFBFB"/>
<path transform="translate(507,1481)" d="m0 0" fill="#FBFBFB"/>
<path transform="translate(1214,1303)" d="m0 0" fill="#FBFBFB"/>
<path transform="translate(1401,1140)" d="m0 0 1 2-2-1z" fill="#FBFBFB"/>
<path transform="translate(1425,1114)" d="m0 0 2 1-2 1z" fill="#FBFBFB"/>
<path transform="translate(1427,1112)" d="m0 0 2 1-2 1z" fill="#FBFBFB"/>
<path transform="translate(1430,1109)" d="m0 0 1 2-2-1z" fill="#FBFBFB"/>
<path transform="translate(808,1678)" d="m0 0 2 1z" fill="#FBFBFB"/>
<path transform="translate(803,1649)" d="m0 0" fill="#FBFBFB"/>
<path transform="translate(509,1472)" d="m0 0 2 1z" fill="#FBFBFB"/>
<path transform="translate(1218,1365)" d="m0 0 2 1z" fill="#FBFBFB"/>
<path transform="translate(1214,1363)" d="m0 0 2 1z" fill="#FBFBFB"/>
<path transform="translate(1332,1338)" d="m0 0" fill="#FBFBFB"/>
<path transform="translate(376,1275)" d="m0 0" fill="#FBFBFB"/>
<path transform="translate(1394,1147)" d="m0 0" fill="#FBFBFB"/>
<path transform="translate(1396,1145)" d="m0 0 2 1z" fill="#FBFBFB"/>
<path transform="translate(1398,1143)" d="m0 0 2 1z" fill="#FBFBFB"/>
<path transform="translate(1403,1138)" d="m0 0" fill="#FBFBFB"/>
<path transform="translate(801,1654)" d="m0 0" fill="#FBFBFB"/>
<path transform="translate(634,1552)" d="m0 0" fill="#FBFBFB"/>
<path transform="translate(1223,1367)" d="m0 0" fill="#FBFBFB"/>
<path transform="translate(1205,1348)" d="m0 0" fill="#FBFBFB"/>
<path transform="translate(545,1347)" d="m0 0" fill="#FBFBFB"/>
<path transform="translate(1207,1345)" d="m0 0" fill="#FBFBFB"/>
<path transform="translate(1203,1343)" d="m0 0" fill="#FBFBFB"/>
<path transform="translate(1340,1287)" d="m0 0" fill="#FBFBFB"/>
<path transform="translate(381,1285)" d="m0 0" fill="#FBFBFB"/>
</svg>
