<?xml version="1.0" encoding="UTF-8"?>
<svg version="1.1" viewBox="0 0 2000 2000" width="1280" height="1280" xmlns="http://www.w3.org/2000/svg">
<path transform="translate(721,116)" d="m0 0h27l12 3 14 7 9 7 8 8 9 16 4 13 2 16 1 31 6 87 3 60 1 6 1 22 9-3 12-5 32-16 17-9 16-9 20-12 22-14 22-13 24-15 13-8 14-9 22-13 10-6 10-5 11-7 14-7 18-10 10-5 43-20 14-6 20-7 18-7 20-6 32-8 33-6 25-3h69l28 3 52 9 30 8 18 5 16 5 12 4 16 6 18 8 7 3 34 17 30 18 20 14 11 8 12 9 10 8 9 8 6 4 6 7 8 7 13 12 7 8 8 9 6 8 9 7 7 8 6 8 9 10 9 13 9 11 8 12 12 17 10 17 9 14 8 14 10 19 8 16 11 25 8 21 9 25 5 18 8 38 3 19 2 23v53l-3 25-6 31-8 35-10 31-3 12-10 29-4 11-8 23-9 23-5 14-4 8-11 30-6 13-5 13-6 16-11 27-6 17-7 18-18 54-6 21-4 15-7 26h-2l-2-13-2 33-3 12-1 22-2 13-2 42-1 13-1 77 2 5 1 5-2 1-1 5v14l4 1-2 5-3 3-2 13-2 18-8 38-7 25-11 29-7 16-5 8-9 19-8 13-14 21-11 15-12 14-8 10-7 7-6 7-5 5-12 11-6 5h-2v2l-14 11-7 6-12 9-18 12-23 14-5 1-1 4 5 1 34-5 6-1h12l13 4 2 4-4 5-11 9-13 10-8 6-17 13-16 12-9 7-4 2h-18l-15-2h-8l2 8 2 5v5l-5 4-14 5-11 2-5 5-8 2h-16l-3-3-1-8-8-26-4-12-4-4-18 4-12 3-38 6-18 3-30 3-28 1h-58l-17-1-2 1v29l-2 3-5 1h-45l-4-2 1-5v-11l-7 1-9 5-2 3v6l-2 2-5 1h-101l-3-3 1-5 1-15 3-3 19-9 12-5 10-10 1-6-30-9-38-13-24-10-10-5-10-4-16-8-13-7-24-14-13-8-13-9-12-7h-4l-2 5-8 16-9 17-4 9-12 25-11 23-10 21-10 19-5 7v2l200 1 8 3v1l-8 1h-283l-1-4-3 1-1 3h-140l-86-1v-2l66-1 139-1h77l3-1-2-4-10-14-10-16-8-11-10-16-7-10-30-45-7-11-7-10-11-17-12-19-13-19-9-14-2-5h-2l-7-11-5-7-1-4-1-13-1-4-1-36-2-20-3-5-24-6-11-3h-6l-4 8-7 18-8 16-7 15-1 3 6-2 16-9 13-4 12-1 9 2 8 5 5 9 1 10-3 8-5 8-10 7-14 5-7 1h-11l-17-3-15-4h-7l-10 17-9 16-10 18-5 10v2l4-1 14-8 16-6 5-1h11l8 3 6 4 5 10v13l-4 8-4 5-11 7-15 5h-21l-20-5-9-2-3 2-8 18-11 33-2 11 8-7 3-1 2-4 13-10 12-6 10-3h10l7 3 7 6 3 6 1 4v10l-3 8-7 9-10 6-12 5-10 2h-14l-20-2h-6l-3 3-8 32v8l1 1 41 2v2l-25 1h-16l-15 1h-90l-86-1v-4l1-1h53l66-1 1-4-7-21-5-14h-11l-13 1h-12l-13-2-13-5-11-8-7-9-2-5v-15l3-6 6-7 8-3h10l10 3 16 9 5 4v2l4 2 7 7v2h4l-4-16-5-22-5-35-10 1-21 4h-18l-14-4-11-6-7-7-4-8v-14l3-7 9-8 3-1h17l12 4 16 9 5 4 8 7 6 8 4 2-1-30-2-31-1-23-1-2h-9l-23 5h-16l-15-4-10-5-7-6-4-6-2-6v-12l4-8 5-5 6-3h19l11 4 15 8 10 9 6 5 4 6v2l6 2-1-25-5-35-2-15-2-5-5-1-21 5-9 1h-14l-14-3-10-5-9-8-5-9-1-9 3-10 4-6 8-5 4-1h10l12 3 19 10 10 8 7 8 4 4v2l3-2-1-8-2-2-7-20-4-8-3-7-4-9 1-5 2 2v3h2l7 16 2 3 2 6 6 14 2 7 3 6 2-4 3-14 6-15 7-12 4-5h2l2-4 6-5 5-3 4-1h10l7 3 6 5 5 10v13l-4 10-8 11-4 4h-2l-1 3-8 5-20 8-15 5-1 1v10l4 16 3 21 1 20 4-2 10-19 8-11 10-8 7-3h12l8 4 6 7 3 9v10l-4 10-6 9-6 7-10 7-15 7-21 7-1 1v16l3 49 1 9 3-1 8-17 8-12 8-8 7-4 5-2h11l10 6 5 6 2 6v13l-5 12-7 9-8 8-14 8-17 6-9 3-1 1v11l7 31 6 20 2 3h2l2-12 5-16 8-16 2-8 3-6 8-7 8-3 10 1 8 4 7 7 7 12 5 14 4 20 5-11 6-17 8-20 8-16 1-8-12-5-19-8-9-6-4-5-5-5-6-9-4-10v-9l3-9 4-6 5-4 7-3h10l8 4 10 9 6 8 7 14 4 11 3 20h2l7-13 16-27 17-28 2-3v-5l-12-5-13-5-13-7-10-9-8-11-4-11-1-10 4-10 6-7 8-4h11l9 4 8 7 9 13 7 15 3 10 2 21 3-1 2-4 7-12 6-11 8-17 9-19 3-11-5-2-27-11-9-6-9-8-9-13-3-8-1-19-24-11-32-16-23-12-26-16-27-18-13-10-11-9-4 1-8 15-8 11-12 10-18 11-7 4-1 6v5l-9 1-19 7-14 3h-15l-13-3-11-6-7-7-3-6-1-12 2-8 7-8 10-4h14l13 4 16 7 10 6 3 1 3-4 1-3 1-17 4-18 5-13 7-12 6-7h2l1-6-9-10-12-14-11-13-10-14-8-11-7-10-8-13-14-23-8-15-3-5-10-19-13-28-7-18-5-11-10-28-6-18-8-26-6-24-4-18-5-25-5-38-3-28-1-16v-51l2-28 2-18 4-26 3-17 4-16 6-23 6-17 10-25 7-16 10-19 5-9 10-15 12-17 4-5 6-8 7-9 5-4 6-8 8-7 6-7 11-9 13-11 14-11 8-6 10-6 14-9 21-12 11-6 16-8 17-8 35-14 17-6 13-5 13-4 42-12 31-8 14-2v-24l-1-30-2-28-2-35-3-44-3-56-1-27-2-30 3-19 4-10 7-11 9-10 8-6 14-7 11-3 10-1 25-1 61-4zm265 681-26 12-16 9-8 4-48 12-40 9-5 3v31l4 60 3 51 2 41 1 10 2 46 6 88 3 61 2 48 2 28 2 36 3 41 3 50 1 35 2 16 2 34 2 13 1 31 4 25 2 6 2-2 1-3 1-12v-21l-1-25 1-13 5-21 5-13 8-31 5-16 5-9 6-5 5-2h20l6 2 6-1 2-16-2-4-17-1 1-5 16-1 1-1 1-17 6 1v15l2 2 15 1 1 5-16 1-1 1v18l2 4 2 1h32l18-2 2 5 3 2 2-4-1-22-7-45-4-26-7-41-5-37-5-30-4-36-1-17v-98l4-22 10-42 4-20 7-32 7-31 4-17 4-22 1-5v-8l-5-7-7-6-11-14-7-10-6-11-8-18-5-14-2-2zm177 472-2 8 1 26 2 25 3 10 11-1 5 5h4l-2-13-3-17-9-23-5-16-3-4zm43 128-4 6-5 2h-13l-11-2-2-5-2 2-2 7-1 9v38l2 40 1 87 1 6 9-1 3-2 4 4 9-2 7-6 4-6v-2l3 1 2 10h9l1-4 5-2-1-3h-4v-18l-1-2-4-1-1-15-2-2h-4v-5h-4l-2 5-6-7-9-6-5 1h-3l-4-9v-22l5-8h10l10-4 7-6 7-10 6-8h7l1-2-5-21-5-16-6-10-6-11zm-651 11-2 2v10l3 30 3 7 3 2 4-8 6-8-1-20-3-10-5-1-6-4zm129 170-16 3-12 5-10 6-15 14-10 10-6 8-4 5-11 16-7 14-1 7 11 19 7 10 8 12 7 11 9 13 7 10 10 15 7 10 3 5 2 1h22l118-7 18-1 7-3 10-21 8-16 10-21 9-17 6-13 8-16 2-5v-8l-10-16-11-14-11-9-7-3h-10l-10 4-15 10-10 9-3 2v2l-3 1-4 5-8 7-5-2-9-14-11-13-14-14-11-8-16-8-15-4zm-315 256-13 9-16 8-6 4v7l8 23 4 10 3 3h33l3-3 11-42v-7l-8-5-12-7z" fill="#D3F5E2"/>
<path transform="translate(718,118)" d="m0 0h31l16 5 9 5 9 7 8 9 8 15 3 9 2 15 3 55 4 65 3 57 4 50 5 102 4 64 4 80 1 8 2 45 4 69v7l8-2 47-16 7-3 44-29 45-30 11-8 10-19 14-21 11-14 12-13 5-6h2v-2l8-7 12-11 11-9 9-9v-8h-2l-5-5-5-6v-2h-2l-6-13-2-4v-16l2-13 6-18 8-17 12-20 10-13 9-10 7-7 11-7 12-6 11-4 23-5 11-1 14-4 13-2h22l15 3 19 8v2h3v2h3v2l5 2v2l4 2 9 9 7 10 7 14 3 5 4 11 2 9v7l-4 10-4 5-7 4h-2v2l-14 6-2 2h-3v2h-2v9l6 9 5 6 3 5 5 10 2 7v11l-4 9-3 4h-2l-2 5h-2l-2 8 3 7 7 11 10 13 34 34 6 5 5 6 5 5 8 11 7 16 5 19 1 8v32l7 7 9 11 7 8 12 13 2 5 4 2 13 15 13 14 4 6 12 12 4 6 10 10 7 8 1 4v8l-4 8-12 11-13 13h-2v2l-29 29-8 7-18 18h-2l-2 4-7 6-7 8-10 10h-2l-1 3-5 5-3-1-4-7-2-1v2l-4 2-4 5-4 1-2 4-7 4v-2h-2l-2-4-3-1v2l-4 1v2l-4 1v2h-2v2h-2l-1 4h-2l-2 5-7 6h-2v2l-7 3-9-1 6 16 5 18 6 22 6 28 3 16 3 18 4 30 5 35 5 49 2 20 7 34 3 17 12 55 11 53 3 17 3 12 10 48 6 28 3 17 7 32 9 43 3 14 3 19h-3l2 9 3 7 3 9 3 11 3 1 15-6 3 1 3 10 4 10 5 16 4 10 3 11 1 3 7 1 14 5 16 5 14 4h10l15-1 21-4 17-3h16l9 4 1 3-4 5-11 9-13 10-8 6-17 13-16 12-9 7-4 2h-18l-15-2h-8l2 8 2 5v5l-5 4-14 5-11 2-5 5-8 2h-16l-3-3-1-8-8-26-4-12-4-4-18 4-12 3-38 6-18 3-30 3-28 1h-58l-17-1-2 1v29l-2 3-5 1h-45l-4-2 1-5v-11l-7 1-9 5-2 3v6l-2 2-5 1h-101l-3-3 1-5 1-15 3-3 19-9 12-5 10-10 1-6-30-9-38-13-24-10-10-5-10-4-16-8-13-7-24-14-13-8-13-9-12-7h-4l-2 5-8 16-9 17-4 9-12 25-11 23-10 21-10 19-5 7v2l200 1 8 3v1l-8 1h-283l-1-4-3 1-1 3h-140l-86-1v-2l66-1 139-1h77l3-1-2-4-10-14-10-16-8-11-10-16-7-10-30-45-7-11-7-10-11-17-12-19-13-19-9-14-2-5h-2l-7-11-5-7-1-4-1-13-1-4-1-36-2-20-3-5-24-6-11-3h-6l-4 8-7 18-8 16-7 15-1 3 6-2 16-9 13-4 12-1 9 2 8 5 5 9 1 10-3 8-5 8-10 7-14 5-7 1h-11l-17-3-15-4h-7l-10 17-9 16-10 18-5 10v2l4-1 14-8 16-6 5-1h11l8 3 6 4 5 10v13l-4 8-4 5-11 7-15 5h-21l-20-5-9-2-3 2-8 18-11 33-2 11 8-7 3-1 2-4 13-10 12-6 10-3h10l7 3 7 6 3 6 1 4v10l-3 8-7 9-10 6-12 5-10 2h-14l-20-2h-6l-3 3-8 32v8l1 1 41 2v2l-25 1h-16l-15 1h-90l-86-1v-4l1-1h53l66-1 1-4-7-21-5-14h-11l-13 1h-12l-13-2-13-5-11-8-7-9-2-5v-15l3-6 6-7 8-3h10l10 3 16 9 5 4v2l4 2 7 7v2h4l-4-16-5-22-5-35-10 1-21 4h-18l-14-4-11-6-7-7-4-8v-14l3-7 9-8 3-1h17l12 4 16 9 5 4 8 7 6 8 4 2-1-30-2-31-1-23-1-2h-9l-23 5h-16l-15-4-10-5-7-6-4-6-2-6v-12l4-8 5-5 6-3h19l11 4 15 8 10 9 6 5 4 6v2l6 2-1-25-5-35-2-15-2-5-5-1-21 5-9 1h-14l-14-3-10-5-9-8-5-9-1-9 3-10 4-6 8-5 4-1h10l12 3 19 10 10 8 7 8 4 4v2l3-2-1-8-2-2-7-20-4-8-3-7-4-9 1-5 2 2v3h2l7 16 2 3 2 6 6 14 2 7 3 6 2-4 3-14 6-15 7-12 4-5h2l2-4 6-5 5-3 4-1h10l7 3 6 5 5 10v13l-4 10-8 11-4 4h-2l-1 3-8 5-20 8-15 5-1 1v10l4 16 3 21 1 20 4-2 10-19 8-11 10-8 7-3h12l8 4 6 7 3 9v10l-4 10-6 9-6 7-10 7-15 7-21 7-1 1v16l3 49 1 9 3-1 8-17 8-12 8-8 7-4 5-2h11l10 6 5 6 2 6v13l-5 12-7 9-8 8-14 8-17 6-9 3-1 1v11l7 31 6 20 2 3h2l2-12 5-16 8-16 2-8 3-6 8-7 8-3 10 1 8 4 7 7 7 12 5 14 4 20 5-11 6-17 8-20 8-16 1-8-12-5-19-8-9-6-4-5-5-5-6-9-4-10v-9l3-9 4-6 5-4 7-3h10l8 4 10 9 6 8 7 14 4 11 3 20h2l7-13 16-27 17-28 2-3v-5l-12-5-13-5-13-7-10-9-8-11-4-11-1-10 4-10 6-7 8-4h11l9 4 8 7 9 13 7 15 3 10 2 21 3-1 2-4 7-12 6-11 8-17 9-19 3-11-5-2-27-11-9-6-9-8-9-13-2-9v-12l3-9 7-7 8-3h7l6 2 5 2v2l5 2 10 13 8 16 4 13 1 12v13h2l2-11 4-12 7-40 2-17-14-2-23-7-11-6-2-3-5-3-5-6v-2h-2l-6-12-1-5v-7l4-11 8-7 8-3 9 1 8 3v2h3v2l5 2 9 11 8 13 6 15 2 14 1-62h1l1 7 1 55 7-15h2l3-9 6-8 2-2v-12l-3-33-3-64-8-135-6-98-4-79-2-26-6-105-2-46-4-63-3-59-2-26-4-77-4-63-5-86-2-43-1-31-2-24-2-35-2-41-3-52-2-36v-27l3-13 7-14 9-10 9-8 16-8 13-3 40-2 29-2 28-1 31-2zm268 679-26 12-16 9-8 4-48 12-40 9-5 3v31l4 60 3 51 2 41 1 10 2 46 6 88 3 61 2 48 2 28 2 36 3 41 3 50 1 35 2 16 2 34 2 13 1 31 4 25 2 6 2-2 1-3 1-12v-21l-1-25 1-13 5-21 5-13 8-31 5-16 5-9 6-5 5-2h20l6 2 6-1 2-16-2-4-17-1 1-5 16-1 1-1 1-17 6 1v15l2 2 15 1 1 5-16 1-1 1v18l2 4 2 1h32l18-2 2 5 3 2 2-4-1-22-7-45-4-26-7-41-5-37-5-30-4-36-1-17v-98l4-22 10-42 4-20 7-32 7-31 4-17 4-22 1-5v-8l-5-7-7-6-11-14-7-10-6-11-8-18-5-14-2-2zm177 472-2 8 1 26 2 25 3 10 11-1 5 5h4l-2-13-3-17-9-23-5-16-3-4zm43 128-4 6-5 2h-13l-11-2-2-5-2 2-2 7-1 9v38l2 40 1 87 1 6 9-1 3-2 4 4 9-2 7-6 4-6v-2l3 1 2 10h9l1-4 5-2-1-3h-4v-18l-1-2-4-1-1-15-2-2h-4v-5h-4l-2 5-6-7-9-6-5 1h-3l-4-9v-22l5-8h10l10-4 7-6 7-10 6-8h7l1-2-5-21-5-16-6-10-6-11zm-522 181-16 3-12 5-10 6-15 14-10 10-6 8-4 5-11 16-7 14-1 7 11 19 7 10 8 12 7 11 9 13 7 10 10 15 7 10 3 5 2 1h22l118-7 18-1 7-3 10-21 8-16 10-21 9-17 6-13 8-16 2-5v-8l-10-16-11-14-11-9-7-3h-10l-10 4-15 10-10 9-3 2v2l-3 1-4 5-8 7-5-2-9-14-11-13-14-14-11-8-16-8-15-4zm-315 256-13 9-16 8-6 4v7l8 23 4 10 3 3h33l3-3 11-42v-7l-8-5-12-7z" fill="#1E3035"/>
<path transform="translate(721,116)" d="m0 0h27l12 3 14 7 9 7 8 8 9 16 4 13 2 16 1 31 6 87 3 60 1 6 1 23 1 2h-2l-1 2-3-37-4-72-4-66-2-39-2-15-5-13-6-11-10-11-9-6-14-6-8-2h-31l-51 3-10 1-46 2-12 1-39 2-16 4-14 8-10 9-6 7-7 14-3 13v27l4 75 2 38 2 29 2 37 1 9 1 31 3 59 6 105 4 63 2 42 2 26 3 59 4 63 3 63 6 105 1 9 4 79 3 52 3 46 8 136 3 63 3 36v9l-6 7-6 12h-2l-3 9-4 8h-1l-1-57-1 55-2 2-2-16-5-13-8-14-9-10v-2l-5-2v-2h-3v-2l-4-1-7-2-10 1-8 5-4 5-3 9v7l3 9 3 6v2h2l6 8 5 3 4 4 11 5 14 4 11 3 9 2-1 17-5 28-3 15-6 20h-2l-2-25-6-18-8-14-7-9-5-3v-2l-5-1-6-2h-7l-9 4-6 7-2 7v12l1 6-2-3-1-2-1-19-24-11-32-16-23-12-26-16-27-18-13-10-11-9-4 1-8 15-8 11-12 10-18 11-7 4-1 6v5l-9 1-19 7-14 3h-15l-13-3-11-6-7-7-3-6-1-12 2-8 7-8 10-4h14l13 4 16 7 10 6 3 1 3-4 1-3 1-17 4-18 5-13 7-12 6-7h2l1-6-9-10-12-14-11-13-10-14-8-11-7-10-8-13-14-23-8-15-3-5-10-19-13-28-7-18-5-11-10-28-6-18-8-26-6-24-4-18-5-25-5-38-3-28-1-16v-51l2-28 2-18 4-26 3-17 4-16 6-23 6-17 10-25 7-16 10-19 5-9 10-15 12-17 4-5 6-8 7-9 5-4 6-8 8-7 6-7 11-9 13-11 14-11 8-6 10-6 14-9 21-12 11-6 16-8 17-8 35-14 17-6 13-5 13-4 42-12 31-8 14-2v-24l-1-30-2-28-2-35-3-44-3-56-1-27-2-30 3-19 4-10 7-11 9-10 8-6 14-7 11-3 10-1 25-1 61-4zm-166 1292-2 2v10l3 30 3 7 3 2 4-8 6-8-1-20-3-10-5-1-6-4z" fill="#D3F5E2"/>
<path transform="translate(810,459)" d="m0 0h6l5 86 6 102 5 93 4 68 8 142 5 85 7 124 11 192 9 159 4 72 3 51v6l-4-5-10-14-9-10-9-8-10-4h-8l-13 5-15 10-14 12-13 13-4-5-11-16-14-15-9-8-14-9-11-5-14-4h-26l-12 3-14 7-12 9-10 9-2 3h-2l-2 4-8 9-14 21-9 15h-1l-2-31-10-176-12-208-3-58-4-68-10-176-7-119-7-126-11-190-1-28 6-1 176-10z" fill="#59E2A6"/>
<path transform="translate(1050,670)" d="m0 0h40l31 3-2 10-1 3 1 19 5 57v6l48-28 4 2 16 11 17 12 11 8 2-3 8-17 9-24 5-18 2-19 13 1 19 4 27 8 14 7 10 8 10 9 9 10 9 11 10 11 9 11 11 12 9 11 13 14 9 11 13 14 7 8 9 10 12 14 12 13 7 8 6 8 1 5-3 7-8 8-8 7-45 45-8 7-46 46-4-2-10-16-10-15-6-10 14-19 39-54 7-10-6-7-12-12-8-7-23-23-8-7-24-24-8-7v-4l18-14 11-8 7-5-1-3-9 6-18 14-2-1 6-7 9-12-1-3-5 5-14 19-5 7h-2l-2 5-5 7 4-2-12 34-18 48-7 17-2 11 2 28 6 45 1 5-2 1-18-5-5 1-22 22-9 11v7l3 1-4 5 1 5 6 1-2 6-20 4-49 7-28 2h-19l-34-2-37-4-19-3-2-2 18-82 15-69 4-19 1-10v-50l-1-62-6-12-11-25-1-5-3 1 1 5 11 24h-3l-18-20-3 1 6 7 9 10 5 5v2l5-2 4 10-28 14-23 11-48 24-9 5-30 8-62 14h-1l-2-34v-17l12-5 43-14 9-4 44-29 57-38 9-9 17-13 12-6z" fill="#59E2A6"/>
<path transform="translate(879,834)" d="m0 0h9v1l-40 9-5 2 1 31 4 60 3 51 2 41 1 10 2 46 6 88 3 61 2 48 2 28 2 36 3 41 3 50 1 35 2 16 2 34 2 13 1 31 4 25 1 5 2-4 1-12v-21l-1-25 1-13 5-21 5-13 8-31 5-16 5-9 7-6 5-2h20l6 2h6l1-18-1-1-17-1-1-5 2-2 16-1 1-15 1-2 6 1 1 15 1 1 15 1 2 4-1 2-16 2v18l1 3 2 1h32l6-1h12l4 6 2-3-1-22-7-45-4-26-7-41-5-37-5-30-4-36-1-17v-98l4-22 10-42 4-20 7-32 7-31 4-17 1-7h1v10l-2 6-3 14-4 19-5 21-2 10-2 14-2 6-3 15-2 6-2 10-6 26-4 24h2l-1 32v37l2 40 4 34 3 21 7 47 14 83 7 43 13 74 2 14 3 15 3 17 11 60 1 9 3 13 4 25 8 42v5h9l7 34v3h-12l7 52v8l-7 7-7 8-12 13-9 10-12 13-8 10-6 7-4 2-3-1 6-4 8-8 1-6-30-9-38-13-24-10-10-5-10-4-16-8-13-7-24-14-13-8-13-9-12-7h-4l-2 5-7 13-1-3 2-4v-4l-2 4-16 2-76 4-31 2h-20v-1l118-7 18-1 6-2 5-11 1 4v4l9-17 11-23 23-46 4-10 6-12v-18l-4-59-4-71-2-25-3-55-3-51-2-25-2-45-1-9-1-27-2-32-2-46-5-85-5-83-3-50-2-36-3-43-1-45 8-4 16-4 9-1z" fill="#D3F5E2"/>
<path transform="translate(726,121)" d="m0 0h20l12 3 9 4 9 6 10 9 8 13 4 10 2 10 8 138 3 53-8 1-135 8-60 3-86 5h-5l-1-1-8-142-2-36v-21l3-12 6-12 6-8 9-9 9-6 14-5 13-2z" fill="#7E7E7E"/>
<path transform="translate(1159,1248)" d="m0 0 2 1 17 47 19 53 11 31 16 44 14 39 9 27 4 10 5 15 3 7 7 21 3 8 4 10 6 18 3 7 6 18 3 8 5 13 6 18 5 12 4 13 3 7 7 21 3 8 17 1 6 10 6 12 4 6v3h2l9 17 2 3v3l-14 5h-3l3 5 6 7 2 1v2h2l7 9 8 8v2h2l5 5 7 8 12 37 5 13v5l-2-4-4-9-3-3-18 4-12 3-38 6-18 3-30 3-28 1h-58l-17-1-3 1-1-7-2-27-3-14-6-27v-12l2-25 2-19 1-3h-18l-2-37h15l-1-14-2-100-1-34-4-200-1-34zm4 21-2 8 1 26 2 25 3 10 11-1 5 5h4l-2-13-3-17-9-23-5-16-3-4zm43 128-4 6-5 2h-13l-11-2-2-5-2 2-2 7-1 9v38l2 40 1 87 1 6 9-1 3-2 4 4 9-2 7-6 4-6v-2l3 1 2 10h9l1-4 5-2-1-3h-4v-18l-1-2-4-1-1-15-2-2h-4v-5h-4l-2 5-6-7-9-6-5 1h-3l-4-9v-22l5-8h10l10-4 7-6 7-10 6-8h7l1-2-5-21-5-16-6-10-6-11z" fill="#D3F5E2"/>
<path transform="translate(646,1751)" d="m0 0 3 3 2 6 3 1 5 8 4 2h42l85-5 38-2 2-6h1v6l-2 4-2 8-8 15-4 9-12 25-11 23-10 21-10 19-5 7v2l200 1 8 3v1l-8 1h-283l-1-4-3 1-1 3h-140l-86-1v-2l66-1 139-1h77l3-1-2-4-10-14-10-16-8-11-10-16-7-10-34-51-2-9-3-1v-3h-2l-3-5-2-4z" fill="#1F3136"/>
<path transform="translate(1268,1051)" d="m0 0 4 1 10 4v3l-13 2-5 2-9 9-7 8-9 10-17 17-11 9-13 10-15 9-16 8-5 2-12 3-8 1h-10l-8-1-1-1-7-1-8-3-17-8v-2l-5-1-7-5v-2l-4-1v-2l-4-2-7-5-19-19-7-8-1-3-3-1-8-11-3-5-4 2-11 9-3 2 1-11 2-8h8l18 2 11 2 34 3 22 1h19l8-1h10l4-1 15-1 41-6 15-3 15-1 6-1 2 6h7z" fill="#FBFCFC"/>
<path transform="translate(1196,471)" d="m0 0h3l6 7 8 7 17 12 23 13 8 3v9l-2 23-1 3-6 3-3 1-4-10-5-5-10-5h-10l-8 3-6 5-4 7-1 4v10l6 12 8 5 4 1h11l9-2 1-3 4-4h2l1-5 3-9 6-4h1l-1 16-2 14-2 20-4 9-5 5-8 7-17 11-13 7-11 4h-9l-6-4v-2l-5-2v-2l-4-2-21-21-7-9-4-7v-41l1-11 4 2 3 4 2 10 4 5v2l10 5h14l10-5 7-10v-14l-6-12-9-5-4-1h-8l-9 3-6 5-3 7-2 4h-2l-4-5-1-4 2-22 7-2v-2l13-8 5-2v-2l4-1 1-3 5-2 1-3 7-5 5-6z" fill="#F9F9F9"/>
<path transform="translate(1348,852)" d="m0 0 4 1 9 10 11 11 8 7 7 6v2l3 1 2 3-1 4-14 19-12 17-14 19-13 18-8 10-12 14-7 8-10 7-11-3-16-4-2-2-6-39-2-18v-30l3-7 13-4 11-5 12-6h3v-2l8-4 3-1v-2l4-1v-2l5-3 5-5 6-5 8-10z" fill="#D3F4E2"/>
<path transform="translate(801,397)" d="m0 0h12l1 20v12l-57 4-76 4-26 2-122 7h-13l-1-5-1-27 22-2 79-4 46-3z" fill="#F9F9F9"/>
<path transform="translate(275,1373)" d="m0 0h8l14 7 6 8 2 5v17l-4 14-7 12-6 7-14 11-15 9-7 4-1 6v5l-9 1-19 7-14 3h-15l-13-3-11-6-7-7-3-6-1-12 2-8 7-8 10-4h14l13 4 16 7 10 6 3 1 3-4 1-3 1-17 4-18 5-13 7-12 5-5 5-3 6-4z" fill="#213338"/>
<path transform="translate(1159,1248)" d="m0 0 2 1 17 47 19 53 11 31 16 44 14 39 2 6 4 11v3l-2 1-2 4-9 2h-5l-5-6v-2l-3-1-1-5-4-1-1 2-1-1-2 4v6l-5 4v-4l-4 1-1-2-2 9-3-1-1 5v16l3 3v9h2l1-6 3-2 1 12 1 7-5-5-11-8-5 1h-3l-3-4-2-6v-22l6-9h10l10-4 6-5 7-10 7-9h7l-3-15-7-23-6-10-5-10-4 5-6 3h-13l-11-2-3-4-2 7-1 9v38l2 40 1 93 9-2 3-2 4 4 9-2 6-5 2-2v9l-4 1-2-1-1 3-3 3-2 9-1 1-3 30-1 23-6 16-5 8-4 1v10l-1 7h-1l-1-13-2-100-1-34-4-200-1-34zm4 21-2 8 1 26 2 25 3 10 11-1 5 5h4l-2-13-3-17-9-23-5-16-3-4z" fill="#C3D1CC"/>
<path transform="translate(796,371)" d="m0 0h15l1 1 1 22-63 4-37 2-44 2-70 4-63 4h-18l-1-12v-10l3-1 59-3 9-1 26-1 45-3z" fill="#F7F8F7"/>
<path transform="translate(807,433)" d="m0 0h8l1 22-1 1-60 3-9 1-25 1-26 2-122 7-29 1-8 1h-15l-1-22 1-1 81-5 46-2 88-5 29-2z" fill="#F7F8F8"/>
<path transform="translate(1154,623)" d="m0 0 7 6 6 5 5 5 11 8 10 1 15-6 12-6h2l2 24 1 5v12l-7 15-7 10-9 10-10 10-15 11-5 2-5-4-3-4v-2l-3-1-10-17-3-9-3-20v-9l2-7 3-18z" fill="#FAFBFB"/>
<path transform="translate(1247,998)" d="m0 0 15 3 24 7 12 4 6-1 4-3h2v-2l4-1v2h2l3 5v2h2v3h2l3 4v3h2v3l-9 6-3 1-2 4-9 11-8 6h-9l-11-4-7-3-5 1-9 5-13 5h-6l1-5 28-14h3l-1-4-26 13-10 4-8 1-2-2 3-4h2v-2l5-1v-2l29-15h2l-1-3-6 2-16 9-16 8h-8l2-4 4-3h2v-2h3v-2l11-7 11-8h3v-2h3v-2h2l-1-3-5 2-5 4-18 12-6 3h-6l4-7 5-5 1-2h2v-2h2l1-3 5-4 1-2h2v-2h2v-2z" fill="#F7F8F7"/>
<path transform="translate(148,1340)" d="m0 0h13l12 6 12 11 10 13 6 12 6 21v6h-11l-17-3-10-2-12-5-9-6-7-6-7-10-3-8v-10l4-10 8-7z" fill="#24363B"/>
<path transform="translate(526,1321)" d="m0 0h12l6 2v2l4 1 7 10 5 16 1 6v24l-4 13-4 11-2 5-1-2-4-1-3-3-11-9-4-5-6-5-2-5h-2l-7-15-3-10v-15l4-9 6-7z" fill="#1E3035"/>
<path transform="translate(1037,907)" d="m0 0h1v10l-2 6-3 14-4 19-5 21-2 10-2 14-2 6-3 15-2 6-2 10-6 26-4 24h2l-1 32v37l2 40 4 34 3 21 7 47 14 83 7 43 13 74 2 14 3 15 3 17 7 38-1 3-3-13v7l-2 3h-2l-7-17-4-17-1-13v-22l-8-17-3-12-5-11-7-21-7-12-4-4-1-3-8-4v2l-4 1-1-4 17-2h12l4 6 2-3-1-22-7-45-4-26-7-41-5-37-5-30-4-36-1-17v-98l4-22 10-42 4-20 7-32 7-31 4-17z" fill="#C4D3CE"/>
<path transform="translate(1229,671)" d="m0 0 6 4 6 10 1 3v20l-6 21-7 19-5 10-4 9-5-1v-2l-5-2-2-1v-2h-3v-2l-5-2-3-2v-2h-3v-2h-3v-2l-5-2-9-6 2-4 10-7h2v-2l5-3 5-5 8-9 3-3 2-3h2l1-4 7-12z" fill="#F8F9F9"/>
<path transform="translate(1398,1699)" d="m0 0h6l4 10 5 17 4 12v2l-16 6-10 4-15 5-4-1-8-15v-2h-2l-3-6-5-9-6-11-3-5v-2l3-1z" fill="#F9FAF9"/>
<path transform="translate(1142,651)" d="m0 0h4l-3 17v11l2 15 5 18 9 13 7 9 3 2v2l-23 13-7 5-12 6-6-63v-14l5-13 6-12h2l2-5 4-1v-2z" fill="#F6F7F7"/>
<path transform="translate(733,893)" d="m0 0h4l8 137 6 106 6 104 5 93 7 119 2 35h-5l-6-104-6-107-7-120-7-125-5-85-2-38z" fill="#1C2F34"/>
<path transform="translate(736,1891)" d="m0 0 8 5 3 1h11l10-5-1 5 200 1 8 3v1l-8 1h-283l-1-4-3 1-1 3h-140l-86-1v-2l66-1 139-1h77l3-1z" fill="#7E7E7E"/>
<path transform="translate(552,1482)" d="m0 0h17l7 1 2 41v11l-17 9-11 9-9 12-4 4 2-11 6-25 4-27 2-20z" fill="#D1F2E0"/>
<path transform="translate(1100,1699)" d="m0 0h50l2 23v14h-45l-3-13-4-22z" fill="#FCFCFC"/>
<path transform="translate(539,496)" d="m0 0h4l1 8 6 111 10 186 4 77 1 21-4 1-1-4-11-204-3-60-3-54-4-77z" fill="#1C2F34"/>
<path transform="translate(721,116)" d="m0 0h27l12 3 14 7 9 7 8 8 9 16 4 13 2 16 1 31 6 87 3 60 1 6 1 23 1 2h-2l-1 2-3-37-4-72-4-66-2-39-2-15-5-13-6-11-10-11-9-6-14-6-8-2h-31l-51 3-10 1-46 2-12 1-39 2-16 4-14 8-10 9-6 7-7 14-3 13v27l4 75 2 38 2 29 2 37 1 9v17l-2-3-2-28-2-35-3-44-3-56-1-27-2-30 3-19 4-10 7-11 9-10 8-6 14-7 11-3 10-1 25-1 61-4z" fill="#ABB5B2"/>
<path transform="translate(1165,528)" d="m0 0h10l9 5 5 6 2 5v10l-3 7-9 7-4 2h-10l-8-4-7-9-1-3v-10l4-8 3-3h2v-2z" fill="#F5F6F6"/>
<path transform="translate(1219,535)" d="m0 0h11l10 6 1 3h2l2 6v10l-3 8-7 6-9 3-11-2-2-1v-2l-4-2-5-9v-11l2-5h2l2-5 4-1v-2z" fill="#F8F9F9"/>
<path transform="translate(879,834)" d="m0 0h9v1l-40 9-5 2 1 31 4 60 3 51 2 41 1 10 2 46 6 88 3 61 2 48 2 28 2 36 3 41 3 50 1 35 2 16 2 34 2 13v52h-1l-4-64-2-33-7-119-2-25-2-45-1-9-1-27-2-32-2-46-5-85-5-83-3-50-2-36-3-43-1-45 8-4 16-4 9-1z" fill="#93BEAB"/>
<path transform="translate(712,533)" d="m0 0h4l2 25 10 174 6 108v10h-4l-5-81-8-139-5-92z" fill="#1C2F34"/>
<path transform="translate(250,1846)" d="m0 0 5 2 10 5 10 3h30l15-1 4 10 11 33-1 3h12v-3l-1-5 4 4h33l3-5 3-12h1v8l-4 11-2 3 13-1 1-1v-7l4-16h1l-1 8-1 4v8l1 1 41 2v2l-25 1h-16l-15 1h-90l-86-1v-4l1-1h53l66-1 1-4-7-21-5-14h-11l-13 1h-12l-13-2-13-5-7-5z" fill="#818282"/>
<path transform="translate(1334,981)" d="m0 0 5 5v3h2v3h2l10 16 1 4h2l-1 4-11 9-6 5-5-5-8-10-7-10-1-4 5-7h2l2-4 7-8z" fill="#F7F8F8"/>
<path transform="translate(1769,762)" d="m0 0 10 2v2l4 1 4 6 1 9-3 8-7 6-3 1h-9l-6-3-5-5-2-5v-9l4-7 5-4z" fill="#D2F3E1"/>
<path transform="translate(1092,329)" d="m0 0h10l6 3 5 6 1 2v12l-4 6-5 4-9 2-9-3-6-7-1-4v-9l5-8z" fill="#D2F2E0"/>
<path transform="translate(423,1070)" d="m0 0h11l8 6 4 8-1 9-4 6-5 4-3 1h-10l-8-5-4-8v-8l4-8 5-4z" fill="#D1F2E0"/>
<path transform="translate(397,634)" d="m0 0h7l6 2v2l4 2 3 5 1 8-3 8-7 6-2 1h-11l-6-3-4-5-2-4v-10l5-8z" fill="#D1F2E0"/>
<path transform="translate(1391,1215)" d="m0 0 7 1 4 2 6 7 1 3v10l-4 7-8 5h-10l-8-5-4-7v-11l4-6 5-4z" fill="#D2F2E0"/>
<path transform="translate(658,1898)" d="m0 0h69v1l-47 1-1 3h-140l-86-1v-2l66-1z" fill="#999F9D"/>
<path transform="translate(1199,1481)" d="m0 0m-2 1 2 1-2 11-3-1-1 5v16l3 3v9h2l1-6 3-2 1 12 1 7-5-5-11-8-5 1h-3l-3-4-2-6v-22l6-9h10z" fill="#C7D6D1"/>
<path transform="translate(1037,907)" d="m0 0h1v10l-2 6-3 14-4 19-5 21-2 10-2 14-2 6-3 15-2 6-2 10-6 26-4 24h2l-1 32v37l2 40 4 34 3 21 7 47 14 83 3 19v4h-2l-2-9-4-27-5-32-7-41-5-37-5-30-4-36-1-17v-98l4-22 10-42 4-20 7-32 7-31 4-17z" fill="#98A8A2"/>
<path transform="translate(1743,1433)" d="m0 0 7 1 5 2v4l-2 1-1 5v14l4 1-2 5-5 2h-7l-8-4-4-5-2-6 1-9 5-7 5-3z" fill="#D2F2E1"/>
<path transform="translate(596,1650)" d="m0 0 1 3-4 9 1 6 10 17 7 10 8 12 7 11 9 13 7 10 10 15 7 10 1 4-4-4-3-5-4-4-2-5-1 2 4 5v3h2l1 3 2 1 2 4-1 3-7-10-13-20-12-19-13-19-9-14-2-5h-2l-7-11-5-7 1-3 5 8v-3l-2-4 1-6z" fill="#888C8B"/>
<path transform="translate(1049,1512)" d="m0 0 1 4 2 2 5 21 1 3 1-3 8 44-1 3-3-13v7l-2 3h-2l-7-17-4-17-1-13v-23z" fill="#C4D3CE"/>
<path transform="translate(834,1600)" d="m0 0 9 1 10 4 5 4 7 8 1 3h2l7 9 5 10 3 3 1 7-3 9-2 2-2 6h-2l-1 7-5 9-3 7h-2l-1 7h-2l-1 5h-2l-1 5-3 6-5 12-3 6h-2l-1 5-6 12h-2l-1 3-1-2 9-17 13-28 9-17 6-13 8-16 2-5v-8l-10-16-10-13-11-9-7-3h-10l-10 4-15 10-10 9-5 4-5 6h-2l2-4 4-4h2l1-3 11-9 14-10 8-4z" fill="#999E9D"/>
<path transform="translate(553,1403)" d="m0 0 4 2 12 4 1 7-2-1v-2l-4 1-7-5-3 1v10l3 30 3 7 1 1 7-11 3-4v-36h1l2 28v9l-6 7-6 12h-2l-3 9-4 8h-1l-1-57-2-9v-5l3-3z" fill="#C2D0CB"/>
<path transform="translate(1769,762)" d="m0 0 10 2v2l4 1 4 6 1 9-3 8-7 6-3 1h-9l-6-3-5-5-2-5v-9l4-7 5-4zm-4 5-4 2-4 8 1 8 5 6 5 2 8-1 5-4 2-4v-9l-6-7-2-1z" fill="#303F43"/>
<path transform="translate(401,1877)" d="m0 0h1l-1 8-1 4v8l1 1 41 2v2l-25 1h-16l-15 1-40-1 1-3-2-4 1-3 3 4h33l3-5 3-12h1v8l-4 11-2 3 13-1 1-1v-7z" fill="#7B7C7C"/>
<path transform="translate(1092,329)" d="m0 0h10l6 3 5 6 1 2v12l-4 6-5 4-9 2-9-3-6-7-1-4v-9l5-8zm2 4-4 1v2l-4 2-2 5v8l5 6 4 2h8l5-3 4-6v-9l-5-6-3-2z" fill="#2B3B3F"/>
<path transform="translate(423,1070)" d="m0 0h11l8 6 4 8-1 9-4 6-5 4-3 1h-10l-8-5-4-8v-8l4-8 5-4zm0 4-2 1v2l-3 1-3 7 1 7 6 7 3 1h7l6-4 3-4v-11l-5-6-2-1z" fill="#2E3D41"/>
<path transform="translate(1109,829)" d="m0 0 4 2 12 17 12 16 13 17 8 10 11 13-2 4-5-5-10-11-12-16-13-17-14-19-6-8v-2z" fill="#1C2F34"/>
<path transform="translate(1391,1215)" d="m0 0 7 1 4 2 6 7 1 3v10l-4 7-8 5h-10l-8-5-4-7v-11l4-6 5-4zm-4 5-4 2v2h-2l-2 5v8l4 6 6 3 9-1 5-5 2-3v-8l-3-6-5-3z" fill="#2D3C40"/>
<path transform="translate(397,634)" d="m0 0h7l6 2v2l4 2 3 5 1 8-3 8-7 6-2 1h-11l-6-3-4-5-2-4v-10l5-8zm2 3-6 2v2l-3 1v2h-2l-1 3v7l3 6 6 4h8l5-3 3-3 1-3v-9l-3-5-5-3z" fill="#2B3B3F"/>
<path transform="translate(1665,556)" d="m0 0h4v20h20l1 4-1 1h-20v20h-4v-20h-21l1-5h20z" fill="#324145"/>
<path transform="translate(967,1380)" d="m0 0 6 1 1 15 1 1 15 1 2 4-2 1h-19v19l-3-2 1-8 1-6h-2v-3h-20l1-5 16-1 1-15z" fill="#747676"/>
<path transform="translate(113,936)" d="m0 0h4v20h20l1 4-1 1h-20v20h-4v-20h-19l1-5h18z" fill="#394649"/>
<path transform="translate(879,834)" d="m0 0h9v1l-40 9-5 2 1 31 4 60 3 51v31h-1l-3-50-2-36-3-43-1-45 8-4 16-4 9-1z" fill="#85B5A1"/>
<path transform="translate(378,1233)" d="m0 0 4 1v20h20v4h-20v21h-4v-21h-21v-4h20v-20z" fill="#374548"/>
<path transform="translate(873,1393)" d="m0 0h1l3 44 1 35 2 16 2 34 2 13v52h-1l-4-64-2-33-4-68z" fill="#A7BDB3"/>
<path transform="translate(255,1482)" d="m0 0 2 2v3h2l7 16 2 3 2 6 6 14 2 7 3 6 2-4 3-14 6-15 2-1-3 9-4 11-3 23-2 1-2-6-2-1 1 9-4-2-6-9 3 1v2l3-2-1-8-2-2-7-20-4-8-3-7-4-9z" fill="#7E7F7F"/>
<path transform="translate(768,1514)" d="m0 0h4l2 26 2 34v15h-4l-2-31-2-34z" fill="#1C2F34"/>
<path transform="translate(1530,1532)" d="m0 0h4v20h20v4h-21l1 20h-4v-20h-21l1-4h19z" fill="#28383D"/>
<path transform="translate(807,230)" d="m0 0h1l6 89 2 45 1 6 1 23 1 2h-2l-1 2-3-37-4-72-2-37z" fill="#B5C1BD"/>
<path transform="translate(683,1899)" d="m0 0h77l2 2-4 2h-74z" fill="#757677"/>
<path transform="translate(504,261)" d="m0 0h2l1 4 2 37 5 87 1 9v17l-2-3-2-28-2-35-3-44z" fill="#B0BAB7"/>
<path transform="translate(736,1891)" d="m0 0 8 5 3 1h11l10-5-1 5 200 1v1h-232l3-2z" fill="#C7D6D1"/>
<path transform="translate(1555,149)" d="m0 0 2 1 1 18 2 1h16l2 4-1 1-20 1-1 5-2-4-2-1-17-1v-3l3-1 12-1 3-4v-13z" fill="#989F9D"/>
<path transform="translate(1743,1433)" d="m0 0 7 1 4 1v4h-16l-2 4h-2v12l3 5 6 3 11-1-1 5-4 1h-7l-8-4-4-5-2-6 1-9 5-7 5-3z" fill="#364448"/>
<path transform="translate(563,949)" d="m0 0h4l1 7 3 55v6l-4 1-2-23-2-39z" fill="#1C2F34"/>
<path transform="translate(721,116)" d="m0 0h27l12 3 14 7 9 7 8 8 9 16 4 13 2 16 1 31v21h-1l-3-55-2-15-5-13-6-11-10-11-9-6-14-6-10-3-26-1z" fill="#AEB9B5"/>
<path transform="translate(875,1670)" d="m0 0 1 4-24 48-16 33-4 4 1-9 2-3h2l1-5 6-12h2l1-5 4-7 2-6 3-6 2-5 2-1 1-4h2l1-7h2l1-6 4-6z" fill="#1E3135"/>
<path transform="translate(1159,1248)" d="m0 0 2 1 17 47 7 21h-2l-11-28-5-16-2-4h-2l-1 8-1 40h-1z" fill="#A8B1AE"/>
<path transform="translate(250,1846)" d="m0 0 5 2 10 5 10 3h30l15-1 4 10 11 33v1h-71v-1l66-1 1-4-7-21-5-14h-11l-13 1h-12l-13-2-13-5-7-5z" fill="#979D9B"/>
<path transform="translate(1168,590)" d="m0 0 14 8 11 2h11l13-3 5-1 2 3-14 5-5 1h-13l-12-3-11-6-3-4z" fill="#29393E"/>
<path transform="translate(1091,826)" d="m0 0 4 4 9 15 18 27-2 3h-2l-14-21-12-19-3-5v-3z" fill="#1C2F34"/>
<path transform="translate(528,1535)" d="m0 0 12 4v7l-7 23h-2l-2-25z" fill="#EFF2F1"/>
<path transform="translate(832,1750)" d="m0 0 1 4v9l-4 8-1-3 2-4v-4l-2 4-16 2-76 4-31 2h-20v-1l118-7 18-1 6-2z" fill="#929694"/>
<path transform="translate(1012,1267)" d="m0 0h1l10 62 9 53 3 19v4h-2l-2-9-4-27-5-32-7-41-3-20z" fill="#9CA3A0"/>
<path transform="translate(701,117)" d="m0 0h46v1l-29 1-51 3-10 1h-23l2-2z" fill="#A6AEAB"/>
<path transform="translate(1220,547)" d="m0 0 6 1 2 3v8l-3 5-4 1-4-2-2-5 1-7z" fill="#26373C"/>
<path transform="translate(544,1543)" d="m0 0 6 1 4 2h2l-2 4-5 5-11 14-1-3 4-15z" fill="#EEF0EF"/>
<path transform="translate(1172,540)" d="m0 0 6 1 3 5v6l-3 5-5 1-4-4-1-2v-6z" fill="#27373C"/>
<path transform="translate(401,1877)" d="m0 0h1l-1 8-1 4v8l1 1 41 2v2l-25 1h-21l1-3v-7z" fill="#7E7E7E"/>
<path transform="translate(636,1735)" d="m0 0h2l10 15 7 10 5 8-1 2-6-9-4-4-2-5-1 2 4 5v3h2l1 3 2 1 2 4-1 3-7-10-13-20-1-4z" fill="#8D9190"/>
<path transform="translate(302,1652)" d="m0 0 3 1-5 3v16l3 49 1 9 3-1 2-2-2 9-1 8-2 1-3-22-4-59v-10z" fill="#909392"/>
<path transform="translate(880,1502)" d="m0 0h1l1 20 2 13v52h-1l-3-47z" fill="#BCD1C6"/>
<path transform="translate(501,183)" d="m0 0h2l2 48 1 16v14h-2l-1-12-1-27-2-30z" fill="#A1A8A6"/>
<path transform="translate(557,1580)" d="m0 0h8l6 2 10 2 2 7 3 58v15h-1l-1-13-1-4-1-36-2-20-3-5-20-5z" fill="#A0A7A4"/>
<path transform="translate(1180,1863)" d="m0 0h1l1 36-2 3-5 1h-45l-4-2 1-5v-11h-7l2-2h6l1 1v17h43l7-2v-28z" fill="#7F7F7F"/>
<path transform="translate(812,319)" d="m0 0h2l2 45 1 6 1 23 1 2h-2l-1 2-3-37-1-21z" fill="#B7C3BF"/>
<path transform="translate(283,1570)" d="m0 0h1l3 17 3 23 1 12v24l-3-1-5-8 6 2-1-25-5-35z" fill="#898B8A"/>
<path transform="translate(1108,1892)" d="m0 0 1 2v6l-2 2-5 1h-101v-1l103-1 1-5z" fill="#858786"/>
<path transform="translate(1220,521)" d="m0 0h14l7 3v2l5 2 1 3-3 2-8-6-2-1h-14l-4 1-2-1 1-3z" fill="#2E3D41"/>
<path transform="translate(863,1692)" d="m0 0 1 2-1 2h-2l-1 5h-2l-1 5-3 6-5 12-3 6h-2l-1 5-6 12h-2l-1 3-1-2 9-17 13-28 4-8z" fill="#9DA4A1"/>
<path transform="translate(242,1415)" d="m0 0h1l-1 9-1 8v25h-2l4 8-2 1-2-5-4-2-5-5-6-3-2-3 5 2 7 3 3-4 1-3 1-17z" fill="#9DA3A1"/>
<path transform="translate(424,1795)" d="m0 0 1 3-7 23-1 7 8-7v3l-6 7-8 15-1-4 7-26z" fill="#A7AEAB"/>
<path transform="translate(310,1543)" d="m0 0 4 1-26 9-1 1v10l4 16 3 21v11h-1l-4-28-5-24v-8z" fill="#8D908F"/>
<path transform="translate(879,834)" d="m0 0h9v1l-40 9-5 2v27h-1l-1-15v-13l8-4 16-4 9-1z" fill="#8FA79D"/>
<path transform="translate(553,1443)" d="m0 0h1l1 11 3 5 3 1-1 5-7 15h-1z" fill="#D2F3E1"/>
<path transform="translate(671,1579)" d="m0 0h6v1l-12 3-16 8-13 11-14 14-6 8-2 1 2-4 6-8 4-5h2l1-3 8-7 12-10 15-8z" fill="#97B7AA"/>
<path transform="translate(1415,1875)" d="m0 0 2 2 5 17 2 7h13l2-1-2-2 12-3 2-1h6v1l-6 2-4 4-8 2h-16l-3-3-1-8-4-13z" fill="#878989"/>
<path transform="translate(439,1761)" d="m0 0 16 4 18 4h16l11-3 3 1-12 4h-21l-20-5-9-2-3 2-6 13-1-3 7-14z" fill="#8E9190"/>
<path transform="translate(834,1600)" d="m0 0 9 1 3 1-1 2-3-1h-10l-10 4-15 10-10 9-5 4-5 6h-2l2-4 4-4h2l1-3 11-9 14-10 8-4z" fill="#A0B9AE"/>
<path transform="translate(971,1381)" d="m0 0h2l1 15 1 1 15 1 2 4-2 1h-17l1-3h-2z" fill="#CADBD5"/>
<path transform="translate(947,1400)" d="m0 0 1 3h20v3h2l-1 14 1 1 1-18h1v20l-5 1-1-17-1-1-17-1z" fill="#BDCEC6"/>
<path transform="translate(992,793)" d="m0 0 2 4 3 8-1 4-4-10-1-1-8 1-23 11-16 9-3-1 6-4 23-11 12-6z" fill="#A6B8B1"/>
<path transform="translate(330,1815)" d="m0 0 1 4-1 4v26l-2-1-9-27v-5l2 4 4 9h2l2-12z" fill="#A6ADAB"/>
<path transform="translate(679,1577)" d="m0 0h17l16 3 10 5 11 7 7 5v2l-4-2-10-7-15-7-13-3-14-1h-7z" fill="#91ACA1"/>
<path transform="translate(1050,1502)" d="m0 0 2 3 3 11 3 20v6l-2-1-4-18-3-9 1-4-1-2z" fill="#CEECDC"/>
<path transform="translate(414,1793)" d="m0 0 1 4-12 36-2 4-1-4 1-8v-10l-1-11 2 3 2 12 5-11z" fill="#A3AAA8"/>
<path transform="translate(468,1849)" d="m0 0 3 1-10 4-10 2h-14l-20-2h-6l-3 3-2 3 1-7 1-2 20 2h27z" fill="#939796"/>
<path transform="translate(846,1603)" d="m0 0 4 1 5 3 10 10 1 3h2l7 9 4 9-1 2-8-12-10-13-11-9z" fill="#919594"/>
<path transform="translate(1027,1840)" d="m0 0h6l13 4 4 4-6 8-7 8-4 2-3-1 6-4 8-8 1-6-17-5z" fill="#C3D1CD"/>
<path transform="translate(1405,1845)" d="m0 0 2 3 5 13v5l-2-4-4-9-3-3-18 4h-4v-2l20-6 3 1z" fill="#BAC6C2"/>
<path transform="translate(1166,518)" d="m0 0h10l8 3v3h-3l-2-1h-18l-2-3z" fill="#28383D"/>
<path transform="translate(1574,1797)" d="m0 0h12v1l-15 2-31 5-5 1h-9v-1h8v-2l34-5z" fill="#979D9B"/>
<path transform="translate(1545,1788)" d="m0 0 3 1-13 8-5 1-1 4 5 2v1l-11 1v-5h2v-2l13-8z" fill="#C7D6D1"/>
<path transform="translate(332,1894)" d="m0 0h2l1 5h-71v-1l66-1z" fill="#C3D1CC"/>
<path transform="translate(736,1891)" d="m0 0 8 5 3 1h11l10-5-1 5 1 2h-33l3-2z" fill="#BDCAC5"/>
<path transform="translate(388,1880)" d="m0 0h1v8l-4 11h-37l-3-3 1-3 3 4h33l3-5z" fill="#B0BAB7"/>
<path transform="translate(472,1724)" d="m0 0 2 1-19 12-7 8-1-2 8-17 2-1-1 7 4-1z" fill="#A8B0AD"/>
<path transform="translate(702,117)" d="m0 0h45v1l-29 1-15 1h-15v-1l13-1z" fill="#929695"/>
<path transform="translate(970,1395)" d="m0 0 2 4 2 1-1 3h-2v19l-3-2 1-8 1-6h-2l-1-3-2-1v-2z" fill="#1C2F34"/>
<path transform="translate(293,1505)" d="m0 0 1 2-7 18-3 23-2 1-1-9 2-5 3-14 6-15z" fill="#848585"/>
<path transform="translate(1e3 1065)" d="m0 0h1v11l-2 12h2l-1 32h-1l-1-26v-16z" fill="#989E9C"/>
<path transform="translate(1475,1865)" d="m0 0h13l12 2v1h-8l-12-1h-2l2 8 2 5v5l-5 4-3-1 5-3 1-4-5-13z" fill="#8E9190"/>
<path transform="translate(832,1750)" d="m0 0 1 4v9l-4 8-1-3 2-4v-4l-2 4-4 1h-21v-1l18-1 6-2z" fill="#A7AFAC"/>
<path transform="translate(1034,869)" d="m0 0 4 2 3 3v2h2l1 2-1 15-4 14h-1l1-9 2-11v-8l-4-5v-2l-3-1z" fill="#92AAA0"/>
<path transform="translate(294,1614)" d="m0 0h1v7l4-2 3-5 1 2-4 11-1 9h-2l-2-13z" fill="#9DA3A1"/>
<path transform="translate(343,1848)" d="m0 0 3 1-11 6v7l7 19-1 4-9-25-1-6z" fill="#989D9B"/>
<path transform="translate(309,1818)" d="m0 0 2 3 6 23-1 3-7-14-3-5h4z" fill="#AEB6B3"/>
<path transform="translate(431,1701)" d="m0 0 2 2 4 11 3 20h3l-2 5-1 2h-2l-1-5-2-21-4-11z" fill="#959A98"/>
<path transform="translate(503,227)" d="m0 0 2 4 1 16v14h-2l-1-12z" fill="#A7B0AD"/>
<path transform="translate(1187,580)" d="m0 0 6 2 11 1-1 4h-9l-9-4z" fill="#2A3A3F"/>
<path transform="translate(277,1555)" d="m0 0h3l3 6v7l-2-4-2-5-5-1-21 5h-9v-1l17-3z" fill="#949997"/>
<path transform="translate(305,1398)" d="m0 0h1v13l6 2 5 5 4 5-4-2-8-6-4 1-3 3 2-9z" fill="#B7C3BF"/>
<path transform="translate(950,1399)" d="m0 0h17l-2 1v2l2 1h-19v-3z" fill="#6B6F70"/>
<path transform="translate(875,1670)" d="m0 0 1 4-10 20-2-1v-4h2l1-6 4-6z" fill="#324145"/>
<path transform="translate(408,1736)" d="m0 0 6 1 18 7 4 2-1 5-4 8-1-2 2-5v-5l-24-10z" fill="#898C8B"/>
<path transform="translate(967,1380)" d="m0 0h1v19l-9 1h-11l1-2 16-1 1-15z" fill="#C8DAD3"/>
<path transform="translate(380,1836)" d="m0 0 6 2 13 8-5 19-2 3 1-7 2-8v-7l-15-9z" fill="#999F9D"/>
<path transform="translate(288,1649)" d="m0 0h3l1 4v25h-1l-1-23-1-2h-9l-8 1 3-2z" fill="#A0A7A4"/>
<path transform="translate(571,1407)" d="m0 0h1l2 28v9l-2-1-1-6z" fill="#A8B3AE"/>
<path transform="translate(1018,994)" d="m0 0h2v7l-2 6-3 15-2 3 1-11z" fill="#8CA59A"/>
<path transform="translate(863,1692)" d="m0 0 1 2-1 2h-2l-1 5h-2l-1 5-3 6-4 6-1-2 10-21z" fill="#A1A6A4"/>
<path transform="translate(509,1631)" d="m0 0 1 3-1 3h5l-4 4h-2v2l-5 5-3 2 2-5z" fill="#B5BEBB"/>
<path transform="translate(758,1617)" d="m0 0 5 4 9 13 4 5 3 1h3l-3 3-5-2-10-15-6-7z" fill="#9CB1A9"/>
<path transform="translate(535,1573)" d="m0 0 12 3v1h-11l-4 8-5 12-1-3 5-14z" fill="#989D9C"/>
<path transform="translate(508,1565)" d="m0 0 7 1 15 6 1 2-2 7-3 4 1-6 1-5-20-8z" fill="#979C9A"/>
<path transform="translate(846,842)" d="m0 0h7v1l-7 2-3 1v27h-1l-1-15v-13z" fill="#9EBCAF"/>
<path transform="translate(1029,1376)" d="m0 0h2l4 25v4h-2l-2-9-2-14z" fill="#A8B0AE"/>
<path transform="translate(972,1399)" d="m0 0 20 1v2l-2 1h-17l1-3z" fill="#808180"/>
<path transform="translate(1160,522)" d="m0 0h19l3 3-1 2-7-2h-13z" fill="#DEE3E1"/>
<path transform="translate(768,125)" d="m0 0 6 1 9 7 8 8 4 8h-2l-8-11-8-7-6-4z" fill="#ABB5B2"/>
<path transform="translate(507,285)" d="m0 0h1l1 17v12h-2l-1-9v-10z" fill="#A4ACA9"/>
<path transform="translate(1555,149)" d="m0 0 2 1v12l-3 3-1-2v-11z" fill="#919593"/>
<path transform="translate(308,1727)" d="m0 0 1 3-2 6-1 8-2 1-1-7v-10l1 2 3-1z" fill="#A5ADAA"/>
<path transform="translate(1551,170)" d="m0 0h5l2 3-3 1-21-1 1-2z" fill="#666C6D"/>
<path transform="translate(701,117)" d="m0 0m-15 1h15v1h-13v2h-17v-2z" fill="#AEB8B4"/>
<path transform="translate(866,1620)" d="m0 0h2l7 9 4 9-1 2-8-12-4-5z" fill="#929795"/>
<path transform="translate(814,367)" d="m0 0 1 3h2l1 23 1 2h-2l-1 2z" fill="#B5C0BC"/>
<path transform="translate(510,158)" d="m0 0h2l-2 5-5 14-1 6h-2l1-10 4-10z" fill="#A9B2AF"/>
<path transform="translate(285,1732)" d="m0 0 7 6 2 1 1-5h1l1 12h-3l-4-6-5-6z" fill="#9EA6A3"/>
<path transform="translate(557,1580)" d="m0 0h8l6 2 10 2v7l-4-5-20-5z" fill="#ADB8B4"/>
<path transform="translate(990,1402)" d="m0 0 1 2-16 2-1 5h-2v-8z" fill="#CDE6DA"/>
<path transform="translate(1181,1866)" d="m0 0h13l1 1 8 1v2l-19-1-3 1z" fill="#C7D6D1"/>
<path transform="translate(250,1466)" d="m0 0 2 1-1 6v5l-9 1-6 1 3-2 9-4-1-6z" fill="#969B99"/>
<path transform="translate(335,1689)" d="m0 0 3 1-8 7-9 9v-3l7-8z" fill="#6C7475"/>
<path transform="translate(794,149)" d="m0 0 4 4 5 12v9h-1l-3-12-5-10z" fill="#9BA29F"/>
<path transform="translate(629,1605)" d="m0 0h2l-2 4-7 7-6 8-2 1 2-4 6-8 4-5h2z" fill="#9AAEA5"/>
<path transform="translate(488,1640)" d="m0 0h1l1 9 3-1 2-4v3l-5 9-2-1z" fill="#9DA3A1"/>
<path transform="translate(439,1761)" d="m0 0 6 1v2l-6 1-7 14-1-3 7-14z" fill="#A1A8A6"/>
<path transform="translate(478,1654)" d="m0 0 5 1 5 2-2 7-6 9-1-2 5-8v-5l-6-3z" fill="#969B99"/>
<path transform="translate(313,1480)" d="m0 0 2 1-15 15v-3l3-4h2l2-4z" fill="#646C6D"/>
<path transform="translate(1586,1798)" d="m0 0 8 1 6 3 1 3-4 5-2-1 3-5-2-2-10-3z" fill="#858786"/>
<path transform="translate(289,1628)" d="m0 0h1l1 18-3-1-5-8 6 2z" fill="#BCC9C5"/>
<path transform="translate(465,1505)" d="m0 0h2v2h2l-1 6v12l1 6-2-3-1-2z" fill="#A4ACA9"/>
<path transform="translate(645,1754)" d="m0 0 5 5v3h2l1 3 2 1 2 4-1 3-7-10-4-6z" fill="#979C9B"/>
<path transform="translate(883,1654)" d="m0 0 1 2-8 16-1-6 2-1 2-6z" fill="#213338"/>
<path transform="translate(1202,1578)" d="m0 0h1v9l-4 1-3-3z" fill="#C7D6D1"/>
<path transform="translate(1535,173)" d="m0 0h22l3 2h-3l-1 5-2-4-2-1-17-1z" fill="#B7C1BE"/>
<path transform="translate(261,1368)" d="m0 0 4 1v2h2l2 5-6 5h-2v-2h2l1-6z" fill="#BAC7C3"/>
<path transform="translate(1568,169)" d="m0 0h8l2 4-4 1v-1l-8-1z" fill="#949897"/>
<path transform="translate(401,1877)" d="m0 0h1l-1 8-1 4v8l1 2h-4l1-11z" fill="#9FA6A3"/>
<path transform="translate(293,1752)" d="m0 0h4l1 3v7h-1l-1-7-15 1 3-2z" fill="#A1A8A6"/>
<path transform="translate(269,1540)" d="m0 0 3 1v2l4-1 3 6v3l-4-2z" fill="#B1BBB8"/>
<path transform="translate(238,1446)" d="m0 0 3 4v7l-5-2-1-3z" fill="#A3ABA8"/>
<path transform="translate(1034,869)" d="m0 0 4 2 3 3v2h2l1 2-1 9h-1l-2-10-3-3v-2l-3-1z" fill="#A8BDB5"/>
<path transform="translate(959,808)" d="m0 0 2 1-8 5-9 5-3-1 6-4z" fill="#8CB0A1"/>
<path transform="translate(1451,1894)" d="m0 0h6v1l-6 2-1 2h-13v-1l12-3z" fill="#A4ACA9"/>
<path transform="translate(343,1848)" d="m0 0 3 1-11 6-1 5h-2l-1-6z" fill="#A2AAA7"/>
<path transform="translate(660,1770)" d="m0 0 3 1 22 1v1l-23 1z" fill="#919593"/>
<path transform="translate(835,1747)" d="m0 0 3 3-4 8-2 1 1-9z" fill="#4D5659"/>
<path transform="translate(1122,1883)" d="m0 0h6l1 1v14h-3l1-2v-11h-7z" fill="#949997"/>
<path transform="translate(767,1892)" d="m0 0v3l1 4h-8l-2-2 8-4z" fill="#B8C4C0"/>
<path transform="translate(649,1754)" d="m0 0 5 5 6 9-1 2-6-9-4-4z" fill="#939796"/>
<path transform="translate(1044,1853)" d="m0 0 2 1-11 11-5 1 5-4z" fill="#9DA4A1"/>
<path transform="translate(491,1665)" d="m0 0 17 5-4 1-7-2h-8z" fill="#8D908F"/>
<path transform="translate(283,1535)" d="m0 0h1v13l-2 1-1-9z" fill="#BAC6C2"/>
<path transform="translate(255,1482)" d="m0 0 2 2v3h2l1 3h-2l-1 4-3-7z" fill="#858786"/>
<path transform="translate(971,1403)" d="m0 0h1v20l-4 1 1-4 1 1z" fill="#7E7E7E"/>
<path transform="translate(311,1760)" d="m0 0 4 1-5 3-1 11h-1l-1-13z" fill="#989D9B"/>
<path transform="translate(838,1749)" d="m0 0 4 2-4 2-2 5-3 3 1-5z" fill="#BFCCC8"/>
<path transform="translate(432,1746)" d="m0 0h4l-1 5-4 8-1-2 2-5z" fill="#9CA3A1"/>
<path transform="translate(879,1639)" d="m0 0 4 3 1 7-3 3z" fill="#AAB5B0"/>
<path transform="translate(1159,1248)" d="m0 0 2 1 2 6v5h-3z" fill="#BAD0C5"/>
</svg>
