<?xml version="1.0" encoding="UTF-8"?>
<svg version="1.1" viewBox="0 0 1823 1172" width="1823" height="1172" xmlns="http://www.w3.org/2000/svg">
<path transform="translate(668,125)" d="m0 0h627l1 1v44l1 4 1 149 7-1h34l35 4 22 3 24 5 17 4 14 4 27 9 24 11 25 15 16 12 10 8 21 21 6 8 10 13 8 13 8 15 12 27 7 22 4 16 5 23 3 24 1 24v52l-1 23-4 35-5 32-7 35-4 13 1 7 11 21 5 13 4 16 2 11 1 20-1 17-5 22-5 14-8 16-6 10-10 13-8 9-11 9-12 9 1 5 7 10 8 17 6 18 5 28 1 7v29l-4 26-4 15h133l2 2-1 4h-1609l1-5 1-1 72-1-2-8-5-16-6-28-3-26v-31l4-31 6-27 2-3v-5l-14-10-11-9-18-18-8-11-8-13-9-17-7-20-3-13-3-22v-24l4-25 6-20 5-11 7-14 9-14 11-14 14-14 14-11 19-12 16-7 10-4 14-4 15-3 27-1 19 1 16 3 26 9 16 8 15 9 13 11 8 7 8 8 11 14 7 10 6 11 2 4 8-1 18-8 12-4 10-3 7-3 13-2 1-154h-18l-3-4 2-6 5-2 13-1v-66l-41-1h-61l-22 1h-52l-7-2-1-1v-10l6-8 3-2 4 1-5 6-3 5v4l6 1h11l9-1-6-9-2-4-7-1-2-3 5-2 9-3 5-5 6-9 8-18 5-9h2l2-4 10-8 16-8 13-7 7-7 4-16 1-19 2-10 3-8 6-8 10-6 17-6 18-3 31-2 3-1 2-6 8-8 7-8 10-8 13-5 5-5 1-5-2-13-1-17 4-6 8-3h9l6 3 7 8 4 4 2 4v10l-4 9-4 6-4 5 1 2 11 2 13 5 5 4 7 11 7 17 5 15 3 14 3 21 1 22-1 2 7 1 1-7 1-31 1-116v-104l3-10 6-8 7-4zm-67 212-2 2v22l2 45 1 1 19 1 4-1v-12l-2-15-7-20-5-8-4-10-4-5zm-27 82-3 3 6 29 3 16 2 8 5 11-2 5-7 5-13 4-4-1 3-9 2-8v-8l-14-25-8-19-3-8-2-1h-16l-1 1v28l2 39v12l1 2 4 1 24 1 3 3h-30l-22-2-2 2v66h4v-2l4-2 11-10 2-1v-2l4-2 13-12 10-8 20-18 8-7 1-3 4-2 8-7 9-7 9-8 11-8v-2l4-2 5-3v3l-16 15-8 7-11 9-14 13-5 3-12 12-11 9-11 10-9 7-4 4-16 14v3l57 1h72l2-2 1-9 1-67-1-37-2-2h-4l3-5 3-4v-31l-4-2zm-181 29-7 3-5 6-2 7 1 6 5 2 12-3 9-6 5-4 10-4v-4l-19-3zm-50 52m159 88v151l2 1 6-2 13-11 10-9 3-2v-2l4-2 11-10 11-9 12-11 8-7 10-9 13-10v-2l4-2 10-9 7-5v-2l4-2 12-11 1-2 1-18-1-14-1-1zm138 42-8 7-12 11-10 9-8 7-15 13-6 5v2l-5 2-7 7-8 7-13 11-7 6v2l-4 2-8 7-3 4 4 1 6-4 17-5 24-6 12-4 24-5 27-5 3-3 1-2v-69zm540 330-7 3-5 6-2 7 1 10 4 5 5 3 5 1h10l6-4 4-7 1-3v-7l-4-6-5-5-8-3z" fill="#FBFBFC"/>
<path transform="translate(668,125)" d="m0 0h627l1 1v44l1 4 1 149 7-1h34l35 4 22 3 24 5 17 4 14 4 27 9 24 11 25 15 16 12 10 8 21 21 6 8 10 13 8 13 8 15 12 27 7 22 4 16 5 23 3 24 1 24v52l-1 23-4 35-5 32-7 35-4 13 1 7 11 21 5 13 4 16 2 11 1 20-1 17-5 22-5 14-8 16-6 10-10 13-8 9-11 9-12 9-6 3h-2v2h-4v2h-4v2h-4v2l-6 2h-4v2l-12 3-10 2-1 1-13 1-4 1h-8v132h-2v-132h-10l-2-1-14-1v-2h-8l-1-1-7-1v-2l-7-1-3 5-3 1v-9l-4-1-11-5v-2l-5-2-13-8-11-11-9 10-11 14-9 11-13 16-8 10h-6l6-9 11-13 11-14 9-11 13-16 1-3-4-4v-2h-2v-2h-2v-2h-2l-2-6h-2v-3h-2v-3h-2l-2-7h-2l-6-14v-3l-2-1-2-5-3-12-1-1-1-10-1-5v-40l1-4 3-14 4-10v-3l-8 7-14 12-10 9-11 9-13 12-8 6v-7l14-12 11-10 11-9 13-12 11-9 10-9h2l1-5 1-2h2v-3h2l1-4 6-9 3-1 1-4 5-5 2-1v-2h2v-2h2l1-2 5-5 9-7h3v-2l3-2h3v-2h4v-2l10-5h2v-3h-48l-2-12v-5h-15l-8-35-7-32-9 8-4 24-4 34-1 1h-14v-39l-8 7-14 12-6 4v-6l13-12 11-9 3-3 1-8 2-43 3-39 2-24h-2v-21l1-31-8 6-11 10-11 9-4 3v-7l14-12 10-9 8-7 2-2v-4l-29-16-4-2v-2h-3v-2h-5l-5-3-11-6-3-2v-7h4v-5l13 3 6 2v-288h-631l-12-6-3-3-1 599 5 1 3 1v2l6 1 9 5v2h3v2l4 1 2 1v2l4 1 4 3v2l4 2 3 2h304v2l-300 1 2 4 1 3h2v2h2v2h2l2 6h2l6 9 2 1 3 9 1 5h2v4h2l3 10 3 9 2 10 1 13 1 2v11l-2 21-4 16-8 21-7 12-10 14-13 14-11 9-10 7-19 10-13 5-17 4-18 2-2 3-1 13-1 108h-4l-1-112-10 11-6 1 4-7 12-14-1-3-22-2-16-4-12-5-4-1v-2l-4-1-11-6-11-7-3-3-8-7-2-2-1 82h-19l-2-1-9-1v-2h-8l-10-2v-2h-40v2l-13 3-5 1v2h-4v2h-4v2l-6 2v2l-6 2v2h-2v2h-2v2h-2v2h-2v2h-2v2h-2v2h-2l-2 6h-2v4h-2v4h-2l-2 8h-2v6h-2v6l-1 2-1 22-2 1h-64l-6-1v-154h-18l-21-4-22-8-9-4-19-10-18-14-19-19-8-11-8-13-9-17-7-20-3-13-3-22v-24l4-25 6-20 5-11 7-14 9-14 11-14 14-14 14-11 19-12 16-7 10-4 14-4 15-3 27-1 19 1 16 3 26 9 16 8 15 9 13 11 8 7 8 8 11 14 7 10 6 11 2 4 8-1 18-8 12-4 10-3 7-3 13-2 1-154h-18l-3-4 2-6 5-2 13-1v-66l-41-1h-61l-22 1h-52l-7-2-1-1v-10l6-8 3-2 4 1-5 6-3 5v4l6 1h11l9-1-6-9-2-4-7-1-2-3 5-2 9-3 5-5 6-9 8-18 5-9h2l2-4 10-8 16-8 13-7 7-7 4-16 1-19 2-10 3-8 6-8 10-6 17-6 18-3 31-2 3-1 2-6 8-8 7-8 10-8 13-5 5-5 1-5-2-13-1-17 4-6 8-3h9l6 3 7 8 4 4 2 4v10l-4 9-4 6-4 5 1 2 11 2 13 5 5 4 7 11 7 17 5 15 3 14 3 21 1 22-1 2 7 1 1-7 1-31 1-116v-104l3-10 6-8 7-4zm-67 212-2 2v22l2 45 1 1 19 1 4-1v-12l-2-15-7-20-5-8-4-10-4-5zm-27 82-3 3 6 29 3 16 2 8 5 11-2 5-7 5-13 4-4-1 3-9 2-8v-8l-14-25-8-19-3-8-2-1h-16l-1 1v28l2 39v12l1 2 4 1 24 1 3 3h-30l-22-2-2 2v66h4v-2l4-2 11-10 2-1v-2l4-2 13-12 10-8 20-18 8-7 1-3 4-2 8-7 9-7 9-8 11-8v-2l4-2 5-3v3l-16 15-8 7-11 9-14 13-5 3-12 12-11 9-11 10-9 7-4 4-16 14v3l57 1h72l2-2 1-9 1-67-1-37-2-2h-4l3-5 3-4v-31l-4-2zm-181 29-7 3-5 6-2 7 1 6 5 2 12-3 9-6 5-4 10-4v-4l-19-3zm-50 52m159 88v151l2 1 6-2 13-11 10-9 3-2v-2l4-2 11-10 11-9 12-11 8-7 10-9 13-10v-2l4-2 10-9 7-5v-2l4-2 12-11 1-2 1-18-1-14-1-1zm138 42-8 7-12 11-10 9-8 7-15 13-6 5v2l-5 2-7 7-8 7-13 11-7 6v2l-4 2-8 7-3 4 4 1 6-4 17-5 24-6 12-4 24-5 27-5 3-3 1-2v-69z" fill="#AECBE7"/>
<path transform="translate(1292,481)" d="m0 0h3v2h3v2l6 2 24 13 4 3-1 5-8 8-11 9-12 11-2 1v6l12-11 11-9 8-7h2v31l-1 21h2v15l-3 32-2 33-1 29-2 6-12 11-11 9-3 3v5l14-12 11-10h2v39l14-1 5-41 3-17 7-7 4-2 14 65v3h15l2 9v8h48v3l-9 5h-3v2h-4v2l-6 2v2l-7 4-6 5-5 5h-2v2h-2l-2 5-5 4-1 3-5 5-1 3h-2l-2 6h-2v3h-2v4h-2v3l-10 8-11 10-11 9-13 12-11 9-13 12-2 1v6l13-12 11-9 12-11 8-7 14-12 3-3h2l1 3-4 10-1 7-2 7-1 4v43l1 2 1 10 3 7 2 7 5 13 3 6v3h2l2 4v3h2v3h2v3h2l2 3v3h2v2h2v2h2l5 7-11 14-14 17-11 14-9 11-6 8h5l14-17 8-10 13-16 11-14 4-4 7 7 4 3v2l5 2 13 8v2l4 1 11 5 1 8 2-1 2-5 8 2v2h7l1 1 8 1v2h14l4 1 8 1v132h2v-132l12-2 13-1 1-1 10-2 6-2h6v-2l6-2h4v-2h4v-2h4v-2h4v-2l5-3h2l2 5 7 10 8 17 6 18 5 28 1 7v29l-4 26-4 15h133l2 2-1 4h-1609l1-5 1-1 72-1-2-8-5-16-6-28-3-26v-31l4-31 6-27 2-3v-6l5 2 11 6 16 6 13 4 22 4 16 1v154h72v-22l2-8h2v-6h2l1-6 1-2h2v-4h2v-4h2l1-4 1-2h2v-2h2v-2h2v-2h2v-2h2v-2h2v-2h2v-2h2l1-2h3v-2l3-2h3v-2h4v-2h4v-2l12-4h6v-2h40v2h8l10 2v2h9l2 1 19 1v-82h3l5 5 1 3 5 2v2l5 2 13 8 12 6 13 5 16 4 21 2 2 4-8 9-8 11 6-2 9-10 1 3v110h4v-108l1-13 3-4 20-2 16-4 12-5 21-11 13-10 13-12 8-10 9-13 7-14 7-18 3-16 2-19v-12h-1l-1-14-2-10-3-9-2-5v-5h-2v-4h-2l-2-5v-3l-2-1v-5h114l1-4v-16h3l1-3 1 1 2-3v3h2v-2h2v12l8-1-2 4-7 7v1l154 1v2l-155 1-3 13-2 12-1 2h161v2h-161v20l-1 8h12l2-17 4-4 7-1 10 3 6 7 1 9 2 6 5 13 1 9-2 9-1 4h2v4h2l4 10v4h2l2 16v8l-3 6-3 1h-12l-4-1v8l-1 6v12l3 28v11h2l-1 3 1 13-1 1h-10l-1 8h-14l-2-3v-5l-16-2v15h16v2h-16l3 25 6 34 4 15 3 9 2-3 1-6h7l3 1 1 4v11h432l-1-22v-652z" fill="#94B9DD"/>
<path transform="translate(703,437)" d="m0 0h534l1 1v234l-1 1h-534z" fill="#BAD9EE"/>
<path transform="translate(270,668)" d="m0 0 29 1 16 3 26 9 16 8 15 9 13 11 8 7 8 8 11 14 7 10 6 11 2 4v5h2v5h2l5 14 2 10 1 4 2 7 1 15 1 1v21l-1 1-1 16-2 9-2 10h-2v6l-3 7-3 9h-2l-1 5-3 7h-2v4h-2v3h-2v3h-2l-2 5-6 9h-2l-2 4-5 5-1 3-10 8-5 5-5 4h-2v2l-5 3h-2v2h-3l-1 2-15 8-9 4-7 3-16 5-16 3-8 1h-14v154h-6v-154h-18l-21-4-22-8-9-4-19-10-18-14-19-19-8-11-8-13-9-17-7-20-3-13-3-22v-24l4-25 6-20 5-11 7-14 9-14 11-14 14-14 14-11 19-12 16-7 10-4 14-4 15-3z" fill="#16B39D"/>
<path transform="translate(1297,321)" d="m0 0 1 2 7-1h34l35 4 22 3 24 5 17 4 14 4 27 9 24 11 25 15 16 12 10 8 21 21 6 8 10 13 8 13 8 15 12 27 7 22 4 16 5 23 3 24 1 24v52l-1 23-4 35-5 32-7 35-4 13v6h-2v-3h-2v-3h-2v-2h-2l-2-6h-2v-2h-2v-2h-2v-2h-2v-2h-2v-2h-2v-2h-2v-2l-4-1-1-2-3-1v-2h-2v-2l-6-2v-2l-6-2v-2h-3v-2h-3v-2l-5-1-4-1v-2l-5-1-6-1-4-2v-2h-7v-2h-8l-1-1-10-1-2-1-34-1v2l-12 1-4 1h-4v2h-8l-1 2-5 2-1-154 1-2h20v-12h-21v-155l-1-3h20v-10h-164v2h-2z" fill="#BAD9EE"/>
<path transform="translate(1440,588)" d="m0 0h4l1 7v150l1-2 10-3 3 1v-2l7-1 1-1h12v-2h34l2 1 10 1 1 1 8 1 9 3 8 3 5 2v2l5 1 4 1v2h3v2l5 1 4 3v2l4 1 2 1v2h2v2l4 1 2 1v2h2v2h2v2h2v2h2v2h2v2h2v2h2v2h2l2 3v3h2v2h2v3h2v3l3 1 11 21 5 13 4 16 2 11 1 20-1 17-5 22-5 14-8 16-6 10-10 13-8 9-11 9-12 9-6 3h-2v2h-4v2h-4v2h-4v2l-6 2h-4v2l-12 3-10 2-1 1-13 1-4 1h-8v132h-2v-132h-10l-2-1-14-1v-2h-8l-1-1-7-1v-2l-7-1-3 5-3 1v-9l-4-1-11-5v-2l-5-2-13-8-11-11-9 10-11 14-9 11-13 16-8 10h-6l6-9 11-13 11-14 9-11 13-16 1-3-4-4v-2h-2v-2h-2v-2h-2l-2-6h-2v-3h-2v-3h-2l-2-7h-2l-6-14v-3l-2-1-2-5-3-12-1-1-1-10-1-5v-40l1-4 3-14 4-10v-3l-8 7-14 12-10 9-11 9-13 12-8 6v-7l14-12 11-10 11-9 13-12 11-9 10-9h2l1-5 1-2h2v-3h2l1-4 6-9 3-1 1-4 5-5 2-1v-2h2v-2h2l1-2 5-5 9-7h3v-2l3-2h3v-2h4v-2l12-6h3z" fill="#16B29C"/>
<path transform="translate(497,756)" d="m0 0h4l1 40 3-1 1-4h3l2-4h2l1-2 5-4h2v-2h4v-2h3v-2h3v-2l12-6h5v-2l10-3 9-3 10-2h44l4 1 6 1v2h8l16 6v2l6 1 9 5v2h3v2l4 1 2 1v2l4 1 4 3v2l4 2 3 2h304v2l-300 1 2 4 1 3h2v2h2v2h2l2 6h2l6 9 2 1 3 9 1 5h2v4h2l3 10 3 9 2 10 1 13 1 2v11l-2 21-4 16-8 21-7 12-10 14-13 14-11 9-10 7-19 10-13 5-17 4-18 2-2 3-1 13-1 108h-4l-1-112-10 11-6 1 4-7 12-14-1-3-22-2-16-4-12-5-4-1v-2l-4-1-11-6-11-7-3-3-8-7-2-2-1 82h-5v-88l-3-4v-2h-2v-2h-2l-6-10v-2h-2v-3h-2l-7-16-3-7-2-7-2-5-2-10-1-16-1-1v-15l1-1 1-15 2-10h2v-6h2v-6h2v-6l8-16h2v-4h2l2-6h2l2-5 2-3h2v-2h2v-2h2z" fill="#16B29C"/>
<path transform="translate(703,437)" d="m0 0h534l1 1v234l-1 1h-534zm2 3v187h3v-63h6v-11h20v13h16v65l7-1v-55h45v83l1 1h5l1-105h38v49l1 2h5v-17h41v53l1 1h5v-119h5v-13h22v14h24v102h6v-72h19l1-7h15l1 79h11v-54l39 1v71l1 1h6l1-1v-102h5l1-9h18v11h21v102h6l1-58 9-9h30l8 8 1 60h35v-91l-1-49h3v-5h37v114h12l-1-175-1-1z" fill="#64A3E2"/>
<path transform="translate(475,747)" d="m0 0h2v10h19l1 2v44h-2v2h-2v2h-2l-2 6h-2v2h-2l-2 6h-2v4h-2l-2 8h-2v4h-2v4h-2v6l-2 6h-2v6h-2v8l-1 2-1 15-1 1v15l1 1 1 16 2 10 3 8 3 10 7 14v3h2v3h2l6 10v2h2v2h2l4 7v85l-1 2h-14l-2-1-9-1v-2h-8l-10-2v-2h-40v2l-13 3-5 1v2h-4v2h-4v2l-6 2v2l-6 2v2h-2v2h-2v2h-2v2h-2v2h-2v2h-2v2h-2l-2 6h-2v4h-2v4h-2l-2 8h-2v6h-2v6l-1 2-1 22-2 1h-64v-155l22-2 16-3 16-5 7-3 9-4 16-9h3v-2l5-3h2v-2l4-1 1-3 5-2 2-4 8-7h2l1-4 7-8h2l2-5 6-9h2v-3h2l1-5 1-2h2l1-4 5-12 3-7 2-7 1-4h2v-7l3-12 1-16 1-1v-21l-1-1-1-15-2-7-1-4v-8l-2-1v-5l-2-1-2-7v-2h-2v-5h-2v-4l10-3 16-7 12-4z" fill="#B9D8ED"/>
<path transform="translate(735,916)" d="m0 0h89l1 3v12l-4 48-5 18-6 26-3 11-117-1v3h116l1 4 8 3 1 21h-125v2h126l2 20 3 18 6 21 1 6h2l4 10v6l-10 7h-2v2h-136l4-10 3-13v-28l-4-16-8-16-11-12-11-7-10-4-7-2h-34l-6 1v2h-2l1-17 3-4 20-2 16-4 12-5 21-11 13-10 13-12 8-10 9-13 7-14 7-18 3-14z" fill="#FCFCFC"/>
<path transform="translate(1065,927)" d="m0 0h173l1 13v45l-1 116h-173zm115 33-7 3-5 6-2 7 1 10 4 5 5 3 5 1h10l6-4 4-7 1-3v-7l-4-6-5-5-8-3z" fill="#BAD9EE"/>
<path transform="translate(662,129)" d="m0 0h634v44h-630l-9-3-6-5-4-8v-13l3-6 5-5 4-3z" fill="#D9E9FB"/>
<path transform="translate(1395,981)" d="m0 0 7 6 5 4v2l5 2 13 8v2l4 1 11 5 1 8 2-1 2-5 8 2v2h7l1 1 8 1v2h14l10 2v134h-196v-105l8-3 8-2h6v-2h14v-2l13-1 14-17 8-10 13-16 11-14z" fill="#F68090"/>
<path transform="translate(502,990)" d="m0 0 7 6 1 3 5 2v2l5 2 13 8 12 6 13 5 16 4 21 2 2 4-8 9-8 11 6-2 9-10 1 3v110h-2v2h-248v-2h-2v-22l2-8h2v-6h2l1-6 1-2h2v-4h2v-4h2l1-4 1-2h2v-2h2v-2h2v-2h2v-2h2v-2h2v-2h2v-2h2l1-2h3v-2l3-2h3v-2h4v-2h4v-2l12-4h6v-2h40v2h8l10 2v2h9l2 1 19 1v-82z" fill="#F68191"/>
<path transform="translate(125,823)" d="m0 0h110l4 1 3-1 1 5h13l11 7v2h3v2h3v75l-12-6-9-6-20-12-13-8-21-13-8-4-2 1 2 4 28 17 22 13 21 13 12 7 1 81h-19l-21-4-22-8-9-4-19-10-18-14-19-19-8-11-8-13-9-17-7-20-3-13-2-13v-30l2 3 3-1 1 5 4-1v-2l3-1z" fill="#159989"/>
<path transform="translate(439,807)" d="m0 0 2 1 1 15 1 1v21l-1 1-1 16-2 9-2 10h-2v6l-3 7-3 9h-2l-1 5-3 7h-2v4h-2v3h-2v3h-2l-2 5-6 9h-2l-2 4-5 5-1 3-10 8-5 5-5 4h-2v2l-5 3h-2v2h-3l-1 2-15 8-9 4-7 3-16 5-16 3-8 1h-15v-43l1-96 10-7 20-13 7-5h3v-2l11-7 3-1h5v-2l5-2h88v4h4v-5l3-4z" fill="#159989"/>
<path transform="translate(517,313)" d="m0 0h2l2 2v4h2v4h2v2h2v2h3v-2l7-5 2 1-1 15 23 1v10h-2v2h-2v2l-4-1-15-1-1 30-21-1-9 2-6 3-6 10-2 14 2 16 1 6 1 78v70l-1 1h-17l3-2 13-1v-66l-41-1h-61l-22 1h-52l-7-2-1-1v-10l6-8 3-2 4 1-5 6-3 5v4l6 1h11l9-1-6-9-2-4-7-1-2-3 5-2 9-3 5-5 6-9 8-18 5-9h2l2-4 10-8 16-8 13-7 7-7 4-16 1-19 2-10 3-8 6-8 10-6 17-6 18-3 31-2 3-1 2-6zm-124 135-7 3-5 6-2 7 1 6 5 2 12-3 9-6 5-4 10-4v-4l-19-3z" fill="#FCFCFC"/>
<path transform="translate(840,798)" d="m0 0 1 3h2v-2h2v12l8-1-2 4-7 7v1l154 1v2l-155 1-3 13-2 12-1 2h161v2h-161v20l-1 8h12l2-17 4-4 7-1 10 3 6 7 1 9 2 6 5 13 1 9-2 9-1 4h2v4h2l4 10v4h2l2 16v8l-3 6-3 1h-12l-4-1v8l-1 6v12l3 28v11h2l-1 3 1 13-1 1h-10l-1 8h-14l-2-3v-5l-16-2v4h-2l-1 3-9 2-4-2-1-5v-8l1-2h-2v-2h-7l-1-4h1l2-16 5-22 5-18 3-40 1-8v-15h-90l2-20v-12h-1l-1-14-2-10-3-9-2-5v-5h-2v-4h-2l-2-5v-3l-2-1v-5h114l1-4v-16h3l1-3 1 1z" fill="#EAD4A9"/>
<path transform="translate(1292,481)" d="m0 0h3v2h3v2l6 2 24 13 4 3-1 5-8 8-11 9-12 11-2 1v6l12-11 11-9 8-7h2v31l-1 21h2v15l-3 32-2 33-1 29-2 6-12 11-11 9-3 3v5l14-12 11-10h2v39l14-1 5-41 3-17 7-7 4-2 14 65v3h15l2 9v8h48v3l-9 5h-3v2h-4v2l-6 2v2l-7 4-6 5-5 5h-2v2h-2l-2 5-5 4-1 3-5 5-1 3h-2l-2 6h-2v3h-2v4h-2v3l-10 8-11 10-11 9-13 12-11 9-13 12-4 1 1-119h-2l-1-12v-261z" fill="#9FC0E0"/>
<path transform="translate(1353,857)" d="m0 0h2l1 16h3v-2h78v2h7l2-1v2l7 1 10 7 15 10 11 7 4 3 1 38v83h-9l-2-1-14-1v-2h-8l-1-1-7-1v-2l-7-1-3 5-3 1v-9l-4-1-11-5v-2l-5-2-13-8-11-11-9 10-11 14-9 11-13 16-8 10h-6l6-9 11-13 11-14 9-11 13-16 1-3-4-4v-2h-2v-2h-2v-2h-2l-2-6h-2v-3h-2v-3h-2l-2-7h-2l-6-14v-3l-2-1-2-5-3-12-1-1-1-10-1-5z" fill="#159989"/>
<path transform="translate(1638,869)" d="m0 0h1l1 12v17l-5 22-5 14-8 16-6 10-10 13-8 9-11 9-12 9-6 3h-2v2h-4v2h-4v2h-4v2l-6 2h-4v2l-12 3-10 2-1 1-13 1-10 1v-85l15-9 13-8 15-9 7-5 8-4v-4l-5 1-26 16-22 13-5 2v-56l4-1 1-3h120l10 6v2h3v-2l-2-1h2v-6z" fill="#159989"/>
<path transform="translate(553,375)" d="m0 0h9l15 2 19 5 4 2 1 5-1 16-3 4-11 1h-11l-6-1 6 27 5 27 3 12 5 11-2 5-8 6-13 4-4-1-1-3 4-9 1-6v-8l-14-25-8-19-2-8h-18v28l2 39v14l28 1 3 2v2l-15 1h-15l-22-2-1 1v66h2l5-5 11-10h2v-2l11-9 7-7 9-7 20-18 8-7 5-5 8-7 9-7 4-2 1-3 13-10h2v-2l9-6 2 3-7 7-8 7-7 7-9 7-20 18-5 2-1 3-8 7-10 9-11 9-9 8-16 14-7 6-1 3h57l74 1v9h-141l1 152 7-2 13-11 10-9 3-1v-2l11-9 10-9 8-7 15-13 13-12 11-8 5-5 10-9 4-3 3 1-1 4-10 10-10 8-12 11-11 9-3 3-8 7-12 11-10 8-6 6h-2v2l-9 7-10 9-11 9 135 1-1 12-68 1-13 3h-5l-1 2h-5l-1 2h-4v2h-5l-1 2h-3l-1 2h-3l-1 2h-3v2h-3v2h-3v2h-4v2h-2l-1 2-5 4-4 4-3 1-1 3h-2l-1 2-1-1v-40h-4l-1 3v-2h-19v-11l5-2 13-2 1-154h-18l-3-4 2-6 19-1v-72l-1-76-2-11-1-12 2-13 6-10 10-5 13-1 13 2h5l6-3z" fill="#EED1A8"/>
<path transform="translate(693,427)" d="m0 0h555v256h-555zm10 10v236h534l1-1v-234l-1-1z" fill="#FAFBFC"/>
<path transform="translate(463,869)" d="m0 0h2l1 17 124 1v-6l3 1 1 4 2-3v75l-6-4-13-11-14-12-10-8v-2l-4-2-11-9-2-2-6-1 1 4 2 1v2l6 3v2l4 2 7 6 11 9 13 11 11 9 9 7v2h2l1 48v17h-14l-10-1-16-4-12-5-4-1v-2l-4-1-11-6-11-7-3-3-8-7-2-2-1 82h-5v-88l-3-4v-2h-2v-2h-2l-6-10v-2h-2v-3h-2l-7-16-3-7-2-7-2-5-2-10-1-16-1-1v-15l1-1z" fill="#159989"/>
<path transform="translate(736,883)" d="m0 0 1 2v11l-2 21-4 16-8 21-7 12-10 14-13 14-11 9-10 7-19 10-13 5-17 4-18 2-4 4v-29l1-98 16-8 16-7h3v-2l11-5 2 1 5 1 1-1 78-1z" fill="#159989"/>
<path transform="translate(190,978)" d="m0 0 5 2 11 6 16 6 13 4 22 4 16 1v155h-77l-73 1-1 3h14v1h-16l1-5 1-1 72-1-2-8-5-16-6-28-3-26v-31l4-31 6-27 2-3z" fill="#BAD9EE"/>
<path transform="translate(1572 1e3)" d="m0 0h2l2 5 7 10 8 17 6 18 5 28 1 7v29l-4 26-4 15 2 1-3 1h-93l-2-1v-133l10-2 13-1 1-1 10-2 6-2h6v-2l6-2h4v-2h4v-2h4v-2h4v-2z" fill="#F68191"/>
<path transform="translate(609,1047)" d="m0 0h37v2l6 1 10 4 11 8 7 7 7 11 6 15 2 10v28l-4 17-4 7h-84v-2h-2v-104h2v-2z" fill="#F68292"/>
<path transform="translate(1052,915)" d="m0 0h199v197l-1 1h-198zm13 12v174h173l1-116v-45l-1-13z" fill="#F6F9FC"/>
<path transform="translate(1159,1035)" d="m0 0h14l1 1h9l6 1v2h12v2l5 1 3 1v2h5l5 2v2l6 2v2h2v2h2v2h2v2h2v2h2l1 37-1 1h-168v-34l6-4 8-4 5-2h3v-2h4v-2l6-2h6v-2h4v-2l7-1 9-3 8-2h8v-2l13-1 5 1z" fill="#159989"/>
<path transform="translate(1297,923)" d="m0 0h2v2h58v-2h2l4 8 5 13 1 4h2l2 4v3h2v3h2v3h2l2 3v3h2v2h2v2h2l5 7-11 14-14 17-11 14-9 11-7 9h-7v2h-14v2l-16 4-6 1z" fill="#B9D8ED"/>
<path transform="translate(1370,567)" d="m0 0h4l1 2 5 61 1 2 14-12 10-9 11-9 14-13 2-1h6l-2 4-11 9-12 11-8 7-14 12-10 9 6 84v4h-15l-8-35-7-32-9 8-4 24-4 34-1 1h-14v-39l-8 7-14 12-6 4v-6l13-12 11-9 3-3 1-8 2-43 3-39 2-19 1-4z" fill="#2A2B65"/>
<path transform="translate(563,242)" d="m0 0h9l6 3 7 8 4 4 2 4v10l-4 9-4 6-4 5 1 2 11 2 13 5 5 4 7 11 7 17 1 5h-3v2h-4v2h-4v2h-4l-1 3-5-8-3 1v45l-10-3-18-4-10-1h-9l-9 2-3 2h-5l2-31h17l2 2v-2h2v-2h2v-10h-20l-3-1v-15l-6 4h-2v2h-3v-2h-2v-2h-2v-4h-2l-3-7 7-8 10-8 13-5 5-5 1-5-2-13-1-17 4-6z" fill="#66A4E2"/>
<path transform="translate(1297,755)" d="m0 0h124v2l-6 2v2l-7 4-6 5-5 5h-2v2h-2l-2 5-5 4-1 3-5 5-1 3h-2l-2 6h-2v3h-2v4h-2v3l-10 8-11 10-11 9-13 12-11 9-13 12-4 1z" fill="#BCD8EB"/>
<path transform="translate(1433,419)" d="m0 0h6l-6 7-14 12-11 10-11 9-13 12-11 9-8 7 1 3 8 6 7 8 5 11 9 41 4 20 1 9 2 4v7l-10 2-3-8v-5h-2l-4-11-7-20v15l-2 2v-2l-4 1-17 1h-20l-1 4v-5h-2v-21l1-31-8 6-11 10-11 9-4 3v-7l14-12 10-9 8-7 2-2v-4l-29-16-4-2v-2h-3v-2h-5l-5-3-11-6-3-2v-7h4v-5l13 3 7 3 17 5 33 11 2 1v4h2v2l8-1 5-6h-4l-1-11 4-4v-4l-3-1-5 3h-2l-3-7-7-1-1 3-3-4v-6l5-5 4-2 8 1 8 5 6 3 5 8-1 8-1 7 7-7 11-9 13-12 11-9 13-12z" fill="#65A3E2"/>
<path transform="translate(553,375)" d="m0 0h9l15 2 19 5 4 2 1 5-1 16-3 4-11 1h-11l-6-1 6 27 5 27 3 12 5 11-2 5-8 6-13 4-4-1-1-3 4-9 1-6v-8l-14-25-8-19-2-8h-18v62h-13l-8-27-1 39-4 2-1-65-3-15-1-12 2-13 6-10 10-5 13-1 13 2h5l6-3z" fill="#2C2C66"/>
<path transform="translate(1438,589)" d="m0 0h2v158h-3v-2h-48l-3-22-6-83 7-7 11-9 13-12 11-9 12-11z" fill="#B9D8ED"/>
<path transform="translate(1439,419)" d="m0 0h1v158l-2 1h-37l-1 7h-1l-2-16-11-52-4-11-6-9-8-7-4-3 2-4 11-9 13-12 11-9 13-12 11-9z" fill="#BAD8EE"/>
<path transform="translate(1136,222)" d="m0 0h4v5l-5 1v2l-6 4-5 12-8 26-10 31-2 9-3 7-5 17-4 13-5 17h-5l-5-16-3-9-5-13-3-9-7-22-4-10-5-17-2-6-3 9-5 18-4 12-4 14-9 27-3 12-2 5-1 5-5-1-4-10-3-10-9-27-4-10-3-11-4-10-4-14-3-8-4-11-4-13-6-11-8-3v-4h43v4l-6 2-2 1v7l9 30 9 28 4 10 3 11 3 8 2 7 7-22 4-14 3-7 9-31-1-8-3-9-4-8v-2h-2v-2l-6-1v-4h46v4l-12 2-1 1v9l7 20 6 21 10 29 3 11 2 4 1 7 2-4 5-16 6-19 5-15 4-13 5-15 1-6v-8l-4-5-4-2-8-1v-4z" fill="#6AA6E2"/>
<path transform="translate(1065,927)" d="m0 0h173l1 13v45l-1 116h-173zm164 2-161 1-1 1v78l4-1 14-4h26l6 1v2l6 2v2l5 4 1 2h2l2 7 3 6 1 9-6 1-14 3-1 1-7 1v2h-4v2h-6l-6 2v2h-4v2l-4 1-8 3-9 5-1 1v34h168l1-1-1-37h-2v-2h-2v-2h-2v-2h-2v-2h-2v-2l-6-2v-2l-5-2h-5v-2l-4-2h-4v-2h-12v-2h-2l3-5 7-5v-2l5-2 7-4v-2h4v-2l4-1 12-4 7-2v-77z" fill="#92B7DB"/>
<path transform="translate(1297,419)" d="m0 0h136l-5 5-8 7-14 12-10 9-8 7-14 12-4 3 2-16-5-8-16-8-8 1-5 5v6l2 3 1-2 4-1 5 3 1 6 8-4 3 2-1 6-3 2v11l5-1-1 3-5 5h-8v-2h-2v-4l-10-3-40-13z" fill="#BDD8EA"/>
<path transform="translate(1299,409)" d="m0 0h164l1 2v6l-1 2-19 1 1 2v151l-1 4h21v12l-21 1v-2l-6 1h-6l-11 9-14 13-11 9-12 11-4 2-1-3-4-46v-34l2 2 9 25h1v6h2l3 13 10-2-1-7v-9l3-1h35l1-158-6 1-137-1v-8h2z" fill="#B9D7ED"/>
<path transform="translate(843,222)" d="m0 0 101 1-1 36h-5l-3-18-3-6v-2l-5-2-3-2-6-1h-30l-6 2-3 9-1 52 23-1 1-3h2l2-5 2-6 2-11h5l1 56-5 1-2-9-2-8-3-5-9-4h-16v52l2 9 4 2h36l8-3 5-2 2-5 3-9 2-7 1-8 5-1 1 41h-105v-4l11-2 3-3 2-5v-114l-2-7-14-3z" fill="#69A5E2"/>
<path transform="translate(735,222)" d="m0 0 3 3v2h2l6 10 5 7v3h2l4 7 4 6 7 11 7 10 3 5 4 6 7 12 12 17 5 9v-91l-2-6-5-4-2-1-9-1v-4h40v4l-9 2-5 3-2 13-1 121h-5l-6-10-2-2v-3h-2l-5-9-9-13-7-12-8-11-6-9-3-6-2-5h-2l-5-9-9-13-8-13-7-10-1-4h-2l1 111 2 7 4 3 12 3v4h-40v-4l12-2 2-4 2-6v-113l-3-5-4-3-9-1v-4z" fill="#68A5E2"/>
<path transform="translate(1184,220)" d="m0 0h13l10 2 11 6 7 2 1-8h6l-1 41h-6l-2-14-5-10-1-4-4-2v-2l-5-2-9-4h-12l-9 4-5 5-4 9v9l3 8 7 8 2 1v2l5 2 10 7 9 5 11 8 5 3 1 2 3 1v2h2v2h2l1 3 4 4 4 10v19l-5 12-7 8h-2v2l-12 5-7 2h-18l-12-3-8-4v-2l-8-1-2 9-5-1 1-48h5l3 18 5 12v2l3 1 2 5 5 2 8 4 5 1h10l8-3 4-3h2v-2l2-1 1-3h2l1-6v-15l-5-10-4-4v-2l-5-2v-2l-5-2-11-7-9-6-7-4-9-8-7-9-3-7-1-1v-19l4-11 7-8 3-2h3v-2z" fill="#6BA6E2"/>
<path transform="translate(502,990)" d="m0 0 7 6 1 3 5 2v2l5 2 13 8 12 6 13 5 16 4 21 2 2 4-8 9-8 11-4 1v2l-12 4-12 3-1 1h-7v2l-8 1-1 1-9 2h-12v2h-14v-82z" fill="#B7D6ED"/>
<path transform="translate(824,978)" d="m0 0 2 1-1 2 10-1 5 2 7 1 3 1 5 1 3 1 5 1v4h6l2-1 2 13 2 20v11h2l-1 3 1 13-1 1h-10l-1 8h-14l-2-3v-5l-16-2v4h-2l-1 3-9 2-4-2-1-5v-8l1-2h-2v-2h-7l-1-4h1l2-16 5-22 3-10h3v-6h2z" fill="#F68191"/>
<path transform="translate(698,795)" d="m0 0h299v1h-152v3h-2v2l-5 1-4 1 1 16-2 4h-116l-6-8v-2h-2l-2-3v-3h-2v-2h-2v-2h-2l-4-5z" fill="#FAFBFC"/>
<path transform="translate(703,437)" d="m0 0h534l1 1v234l-1 1h-534zm2 3v230l6 1h522l2-1v-53l2-2-1-174-1-1z" fill="#92B6DB"/>
<path transform="translate(644,654)" d="m0 0h1v58l-1 33h-134l5-5 10-9 5 1 6-4 17-5 24-6 12-4 24-5 27-5h2l1-4z" fill="#BAD9EE"/>
<path transform="translate(691,425)" d="m0 0h559l1 2v258h-560zm2 2v256h555v-256z" fill="#95B8DC"/>
<path transform="translate(646,162)" d="m0 0h2l5 6-1 2-4-4-1 598-8-1v-2h-8v-2h-9l-1-2h24v-10l1-2h-2v-115l-6 1-1 3-10 8-2-1-1-3h2v-2l11-9 5-6 1-18-1-14-140-1v-1h141v-9l-2-1 1-1 1-9 1-67-1-37-5-2 1-4 4-5 1-31-4-1h-66l-3 1-2-7v-5h17l11-1 2-3 1-9h1l1 10 19 1h4l-1-7-1-15-3-11-5-14-5-8-1-9h4v-2h4v-2h4v-2h3l4 10 3 14 3 21 1 22-1 2 7 1 1-7 1-27 2 4z" fill="#BCD7EB"/>
<path transform="translate(1159,1035)" d="m0 0h14l1 1h9l6 1v2h12v2l5 1 3 1v2h5l5 2v2l6 2v2h2v2h2v2h2v6h2l-1 2h-3-15l-4 1h-106l-16-1h-13l-1-2 3-4 9-4h3v-2h4v-2l6-2h6v-2h4v-2l7-1 9-3 8-2h8v-2l13-1 5 1z" fill="#16B29D"/>
<path transform="translate(1359,826)" d="m0 0h2l1 3-4 10-1 7-2 7-1 4v43l1 2 1 13h-59v-34l14-13 11-9 12-11 8-7 14-12z" fill="#BAD7EB"/>
<path transform="translate(1297,587)" d="m0 0h34l-2 28-2 33-1 29-2 6-12 11-11 9-4 2z" fill="#B9D8EE"/>
<path transform="translate(1085 1e3)" d="m0 0h26l6 2v2l4 1 2 1v2l4 2 2 4h2l4 8 2 5v9l-21 6h-7v2h-4v2l-7 2h-5v2h-4v2l-12 5-1 1h-9v-52l10-4z" fill="#F58393"/>
<path transform="translate(692,723)" d="m0 0h194v15h-194z" fill="#64A3E2"/>
<path transform="translate(719,824)" d="m0 0 113 1-7 28h-95l-3-7v-5h-2v-4h-2l-2-5v-3l-2-1z" fill="#F9FAFC"/>
<path transform="translate(1395,981)" d="m0 0 7 6 5 4v2l5 2 13 8v2l4 1 11 5v8l-4 4h-3v2h-4v2h-4v2h-4v2h-4v2l-10 4-10 1-2 1-18 1-4 1-20 1-6 1 2-5 11-13 8-10 13-16 11-14z" fill="#B8D7ED"/>
<path transform="translate(646,146)" d="m0 0h1l1 11 4 8 9 6 5 1 630 1 1 1v291l-4-2 1-55v-233h-631l-10-5-5-6v-2h-2v244l-2-1v-30l-1-6 1-116v-104z" fill="#95B9DC"/>
<path transform="translate(733,855)" d="m0 0h91l-2 16-1 12-86 1-1-14-1-3z" fill="#FAFBFC"/>
<path transform="translate(833,1049)" d="m0 0h8l8 2 2 8h14l1-8h1v16l-2 46-2 27v5l-1-4-10-1v6l-4 4-6-21-6-31-3-27v-5h16v-2h-16z" fill="#F2B1B3"/>
<path transform="translate(736,885)" d="m0 0h85l1 16 1 12-87 1-1-1v-9l1-14z" fill="#FAFBFC"/>
<path transform="translate(496,433)" d="m0 0h1l1 64 2-1 1-40 2 1 7 24v3h13v-18h1l1 34v3l28 1 3 2v2l-15 1h-15l-22-2-1 1v66h2l5-5 11-10h2v-2l11-9 7-7 9-7 20-18 8-7 5-5 8-7 9-7 4-2 1-3 13-10h2v-2l9-6 2 3-7 7-8 7-7 7-9 7-20 18-5 2-1 3-8 7-10 9-11 9-9 8-16 14-7 6-1 3h48v1l-47 1-16-1-1-73z" fill="#F28E9C"/>
<path transform="translate(808,1027)" d="m0 0 3 2h-2v7l-1 3h7v2h2v10l2 6 9-1 3-3h2v11h16v2h-16l3 25 6 34 2 10-10 2-1 3-2-5v-4h-2l-6-19-4-18-2-14v-14h-126v-2h125l-1-8v-13l-9-3-1-2 1-2h-116v-3h111l6 1z" fill="#E1B1BB"/>
<path transform="translate(1357,660)" d="m0 0 2 4 13 61 1 3v9l-8 4-7 2-1 2h-18v-14l2-22 5-36 2-5z" fill="#B8D7ED"/>
<path transform="translate(840,798)" d="m0 0 1 3h2v-2h2v12l8-1-2 4-7 7v1l154 1v2l-155 1-3 13-2 12-1 2h161v2h-161v12l-7 2h-7l-1-4 2-10h-91v5l-2-2v-5h94l1-9 5-17 1-2h-112l-1-2h114l1-4v-16h3l1-3 1 1z" fill="#C2B3C7"/>
<path transform="translate(621,337)" d="m0 0h3l4 10 3 14 3 21 1 22-1 2 9 1v12l-14 1h-55l-3 1-2-7v-5h17l11-1 2-3 1-9h1l1 10 19 1h4l-1-7-1-15-3-11-5-14-5-8-1-9h4v-2h4v-2h4z" fill="#F2B3B6"/>
<path transform="translate(1053,723)" d="m0 0h112v15h-112z" fill="#64A3E2"/>
<path transform="translate(1299,409)" d="m0 0h164l1 2v6l-1 2-29 1-137-1v-8h2z" fill="#F5B62C"/>
<path transform="translate(1329,516)" d="m0 0h2v31l-1 21h2v15h-1v-5h-30l-4 1v-35l13-12 11-9z" fill="#BAD9EE"/>
<path transform="translate(857,861)" d="m0 0 9 1 6 3 5 6 1 9 2 6 5 13 1 9-2 9-4 6-7 6-7 1-6-3-4-4-1-3v-11l4-20 2-3v-4l-6 1-2-8-3-5 1-6z" fill="#2A2A65"/>
<path transform="translate(1052,915)" d="m0 0h199l-1 8h-1v-6h-195v194h195v-186h2v187l-1 1h-198z" fill="#93B7DB"/>
<path transform="translate(496,577)" d="m0 0 18 1 55-1 74 1v9l-142 1-24-1-2-5 2-4z" fill="#F5B72D"/>
<path transform="translate(1229,1009)" d="m0 0h8v50h-2v2h-2v-2h-2v-2h-2v-2h-2v-2h-2v-2l-4-1-2-1v-2l-10-2v-2l-8-2v-2h-12v-2h-2l1-4 7-6h2v-2l9-6h3v-2h4v-2l9-4z" fill="#F48594"/>
<path transform="translate(517,313)" d="m0 0h2l2 2v4h2v4h2v2h2v2h3v-2l7-5 2 1-1 15 23 1v10h-2v2h-2v2l-16-2v-2h-4v2l-22-2-11-4-1-2 1-9 1-2-12 2-30 2-1 1-15 3-14 7-5 5-5 10h-2l1-7 7-9 10-6 17-6 18-3 31-2 3-1 2-6z" fill="#F2B1B4"/>
<path transform="translate(477,746)" d="m0 0h52l114 1v8h-166z" fill="#F5B72C"/>
<path transform="translate(662,149)" d="m0 0h633v3h-633z" fill="#92B6DB"/>
<path transform="translate(502,757)" d="m0 0h75l-2 2-11 2h-5l-1 2h-5l-1 2h-4v2h-5l-1 2h-3l-1 2h-3l-1 2h-3v2h-3v2h-3v2h-4v2h-2l-1 2-5 4-4 4-3 1-1 3h-2l-1 2-1-1v-37z" fill="#B8D7EE"/>
<path transform="translate(1433,419)" d="m0 0h6l-6 7-14 12-11 10-11 9-13 12-11 9-10 9-5-2 4-5h-4l-1-11 4-4v-4l-3-1-5 3h-2l-3-7-7-1-1 3-3-4v-6l5-5 4-2 8 1 8 5 6 3 5 8-1 8-1 7 7-7 11-9 13-12 11-9 13-12z" fill="#2A2E66"/>
<path transform="translate(1323,689)" d="m0 0h2v36l-2 12-3 2-11 3-4 1v2h-8v-31l9-10 11-9z" fill="#B9D8EE"/>
<path transform="translate(1335,745)" d="m0 0h3v2h95l-1 4-4 2h-3v2h-128v-8l38-1z" fill="#F5B62D"/>
<path transform="translate(1297,484)" d="m0 0 16 8 18 10 1 5-9 9-11 9-12 11-3 1z" fill="#BBD9EE"/>
<path transform="translate(1324,725)" d="m0 0 1 3 15-1-1 18h18l2-4 14-4v-9h14l2 9v8h48v3l-4 1v-2h-95l-1-1v1h-40v-2h8v-2l10-4 8-2z" fill="#F58B95"/>
<path transform="translate(833,1066)" d="m0 0h16l1 16 1 32v34l-3 2-6-21-6-31-3-27z" fill="#F9FAFC"/>
<path transform="translate(563,242)" d="m0 0h9l6 3 7 8 4 4 2 4v10l-4 9-4 6-6 5h-1l-1-11 3-5 1-1v-6l-5 1-4 3-1-3v-8l-10 1-4-1-1 2-3-5v-7l4-6z" fill="#313069"/>
<path transform="translate(690,762)" d="m0 0h309l-1 4-308-1z" fill="#A0C2E1"/>
<path transform="translate(646,1022)" d="m0 0 2 1-1 26-4-1h-34l-6 1v2h-2l1-17 3-4 20-2 16-4z" fill="#B6D6EC"/>
<path transform="translate(645,452)" d="m0 0h1v293h-2v-115l-6 1-1 3-10 8-2-1-1-3h2v-2l11-9 5-6 1-18-1-14-140-1v-1h141v-9l-2-1 1-1 1-9 1-67-1-37-5-2 1-4z" fill="#A1C2E2"/>
<path transform="translate(629,467)" d="m0 0 2 3-7 7-8 7-7 7-9 7-20 18-5 2-1 3-8 7-10 9-11 9-9 8-16 14-11 9h-4l1-5 11-9 4-4h2v-2l11-9 7-7 9-7 20-18 8-7 5-5 8-7 9-7 4-2 1-3 13-10h2v-2z" fill="#504E7E"/>
<path transform="translate(623,639)" d="m0 0 3 1-1 4-10 10-10 8-12 11-11 9-3 3-8 7-12 11-10 8-6 6h-2v2l-9 7-10 9-11 9-1 1h-7l6-7 14-12 10-9 3-1v-2l11-9 10-9 8-7 15-13 13-12 11-8 5-5 10-9z" fill="#4F507E"/>
<path transform="translate(1052,852)" d="m0 0h199v4h-199z" fill="#B6D0EB"/>
<path transform="translate(1440,419)" d="m0 0 4 1 1 2v151l-1 4h-4z" fill="#263F6B"/>
<path transform="translate(320,486)" d="m0 0 4 1-9 9-1 8 183 1v72l-1 1h-17l3-2 13-1v-66l-41-1h-61l-22 1h-52l-7-2-1-1v-10l6-8z" fill="#CCE2F5"/>
<path transform="translate(552,260)" d="m0 0 7 1 10-1 1 1v10l5-4 5 1v6l-3 3-1 8v6l-1 2h-10v-1l-12-1 4-6-4-7z" fill="#F2B1B5"/>
<path transform="translate(288,823)" d="m0 0h23l1 2-7 1 7 3 3 1-5 5-24 16-7 4v-29l9-1z" fill="#159989"/>
<path transform="translate(569,409)" d="m0 0h57l3 2v9h-55l-3 1-2-7z" fill="#F5BA38"/>
<path transform="translate(1440,588)" d="m0 0h4l1 5-1 151-4 2z" fill="#2A2A65"/>
<path transform="translate(497,588)" d="m0 0 4 1v156h-4z" fill="#2B2A65"/>
<path transform="translate(1296,174)" d="m0 0h1v291l-4-2 1-55 1-216z" fill="#A0C1E0"/>
<path transform="translate(695,793)" d="m0 0h303v2l-300 1-2 1z" fill="#92B6DB"/>
<path transform="translate(1356,913)" d="m0 0h1l2 6v4h-2v2h-58v-2h-2v-8h59z" fill="#F5B62D"/>
<path transform="translate(1404,577)" d="m0 0h55l4 1 1 2v6l-1 1h-62v-9z" fill="#F5B62C"/>
<path transform="translate(1053,762)" d="m0 0h198v3h-199z" fill="#A0C1E1"/>
<path transform="translate(1066,1019)" d="m0 0h1v42h6l-1 2-4 2-1 34 168-1 1-28 2-1v32h-173v-81z" fill="#94B5D9"/>
<path transform="translate(1459,577)" d="m0 0h6v12l-21 1v-2l-6 1h-6l-11 9-11 10-3-1v2h-7l-3-2v-2h-2l-2-5v-3h2v-2l7-1v-7l61-1v-8z" fill="#BAD8EE"/>
<path transform="translate(841,1135)" d="m0 0h3l5 14 2-3 1-6h7l3 1 1 4v9l-1 2h-38l2-4 8-5v-10z" fill="#2A2B65"/>
<path transform="translate(1294,745)" d="m0 0h1v10h2v167l-1 1-1 56h-1z" fill="#9BBEDF"/>
<path transform="translate(581,473)" d="m0 0 2 2 5 11-2 5-8 6-13 4-4-1-1-3 4-9 2-13 2 1v2l12-4z" fill="#F48E9B"/>
<path transform="translate(890,943)" d="m0 0h3l2 12v8l-3 6-3 1h-12l-4-2v-9l2-7 14-8z" fill="#F3B1B4"/>
<path transform="translate(1489,867)" d="m0 0 4 1v27l-9-5-14-10-5-3-1-4 1-2 7-1h11z" fill="#159989"/>
<path transform="translate(1324,725)" d="m0 0 1 3 15-1-1 20-1-2-1 2h-40v-2h8v-2l10-4 8-2z" fill="#F68593"/>
<path transform="translate(1344,454)" d="m0 0 5 2 2 4v3l8-4 3 2-1 6-3 2 1 12h-2v4h-6v-2l-2-1v-3l-6-2v-2h-2l-2-3v-11l2-6z" fill="#F2AFB3"/>
<path transform="translate(1366,814)" d="m0 0v3l-4 8-10 9-11 9-12 11-11 9-13 12-8 6v-7l14-12 11-10 11-9 13-12 11-9z" fill="#293066"/>
<path transform="translate(1439,419)" d="m0 0h1v158l-2 1h-37l-1 7h-1v-9l7-2h13l19 1v-155z" fill="#B7CFEA"/>
<path transform="translate(1297,1153)" d="m0 0 2 1 192 1v-2h2v4h-196z" fill="#F3B1B4"/>
<path transform="translate(1391,978)" d="m0 0h2l2 5-8 9-11 14-9 11-13 16-8 10h-6l6-9 11-13 11-14 9-11 13-16z" fill="#293067"/>
<path transform="translate(1299,407)" d="m0 0h166l2 1v11h-4v-10h-164z" fill="#DFE5E7"/>
<path transform="translate(478,587)" d="m0 0h23l1 1 1 151h5l-4 5h-3l-1-155-3-1v155h-1v-155h-18z" fill="#C1B7C7"/>
<path transform="translate(527,741)" d="m0 0 14 1 10-1 8 1h27l4-1h31l2 1 14 1v2h-125l2-2 12-1z" fill="#DBEAFC"/>
<path transform="translate(885,908)" d="m0 0h1v5h113v3h-115z" fill="#A0C2E1"/>
<path transform="translate(496,986)" d="m0 0 4 2 1 1v84h-5z" fill="#2A2A65"/>
<path transform="translate(892,1033)" d="m0 0h99l7 1v2h-121v-2z" fill="#9DC0E0"/>
<path transform="translate(690,1033)" d="m0 0h111l4 1v2h-115z" fill="#A0C2E1"/>
<path transform="translate(701,795)" d="m0 0h296v1h-152v3h-2v2h-2l-1-5h-139z" fill="#DBEAFB"/>
<path transform="translate(1301,577)" d="m0 0 30 1v9h-34v-8z" fill="#F6B72C"/>
<path transform="translate(645,620)" d="m0 0h1v125h-2v-115l-6 1-1 3-10 8-2-1-1-3h2v-2l11-9 5-6z" fill="#96B9DD"/>
<path transform="translate(497,502)" d="m0 0 4 1 1 4-1 70h-4l-1-71z" fill="#2A2A65"/>
<path transform="translate(1375,550)" d="m0 0 2 2 9 25h1v6h2v6h-13l-1-5z" fill="#C0DAEC"/>
<path transform="translate(645,260)" d="m0 0h1v146l-2-1v-30l-1-6 1-108z" fill="#ABC9E6"/>
<path transform="translate(545,708)" d="m0 0 3 2-2 4-3 3h-2v2l-9 7-10 9-11 9-1 1h-7l6-7 14-12 10-9 3-1v-2l6-5z" fill="#434678"/>
<path transform="translate(368,506)" d="m0 0h128l1 1v70l-1 1h-17l3-2 13-1v-66l-41-1h-60l-26-1z" fill="#B8C0D3"/>
<path transform="translate(735,913)" d="m0 0h88v3h-89z" fill="#9FC1E1"/>
<path transform="translate(523,500)" d="m0 0 2 1v2l28 1 3 2v2l-15 1h-15l-23-2-1-4z" fill="#C0D9F0"/>
<path transform="translate(496,433)" d="m0 0h1l1 64 1 2h-2v2h21v1l-16 1 1 5v66l2 1v2l5-2 2-1v3h48v1l-47 1-16-1 4-1v-74l-4-1-1 3z" fill="#E5B2BA"/>
<path transform="translate(489,328)" d="m0 0h16v2l-12 2-30 2-1 1-15 3-14 7-5 5-5 10h-2l1-7 7-9 10-6 17-6 18-3z" fill="#BAD5ED"/>
<path transform="translate(521,408)" d="m0 0h17l3 11v3h-18l-1 6h-1z" fill="#F5B62F"/>
<path transform="translate(565,333)" d="m0 0h12v20l-3 1h-9l-1-4z" fill="#F5F9FB"/>
<path transform="translate(596,1042)" d="m0 0 1 3v110h-2v-104l-7 2 2-4z" fill="#F3B1B4"/>
<path transform="translate(602,883)" d="m0 0 3 3h14l5-1 1 3 6-3 3 1-17 9-12 6h-3z" fill="#159989"/>
<path transform="translate(850,870)" d="m0 0 4 5 1 4v3l6-1 1 5-2 3-3 16-2-4-2-7-4-5-1-3-11-1v-2h11l1-10z" fill="#E6B4BB"/>
<path transform="translate(1255,450)" d="m0 0h10l6 3 2 5h2v5h-4v2l-5 1-9-5v-3l-4-1v-5z" fill="#F0B1B5"/>
<path transform="translate(833,1049)" d="m0 0h8l8 2v13h-16z" fill="#F7F9FC"/>
<path transform="translate(1330,508)" d="m0 0h2v6l-12 11-11 9-11 10h-1v-7l14-12 10-9 8-7z" fill="#283568"/>
<path transform="translate(502,459)" d="m0 0 2 2 6 20 1 10-2 3-7 2z" fill="#F5F7F9"/>
<path transform="translate(1594,1151)" d="m0 0 1 4 2 1-3 1h-93l-2-1v-3h2v2h91z" fill="#F2B1B5"/>
<path transform="translate(643,567)" d="m0 0 2 1v25l-1 10h-1l-1-14-140-1v-1h141v-9l-2-1 1-1z" fill="#EED7A7"/>
<path transform="translate(731,853)" d="m0 0h94v2h-92v5l-2-2z" fill="#93B6DB"/>
<path transform="translate(728,939)" d="m0 0 1 4h57l2 2-1 1-62 1z" fill="#A0C2E2"/>
<path transform="translate(314,506)" d="m0 0h54l25 1v1l-22 1h-52l-5-1z" fill="#CFE4F6"/>
<path transform="translate(420,361)" d="m0 0 1 4-2 32-4 10-5 5-9 7-5 2h-3v2l-12 5-5 2 1-3 16-8 13-7 7-7 4-16 1-19 1-8z" fill="#A6C5E4"/>
<path transform="translate(1395,595)" d="m0 0h6l2 3 6 1 3 7-3 2-2-1v2h-7l-3-2v-2h-2l-2-5v-3h2z" fill="#F2B1B5"/>
<path transform="translate(1295,874)" d="m0 0h2v48l-1 1-1 56h-1v-74z" fill="#A7C4E1"/>
<path transform="translate(497,756)" d="m0 0h4v41l-4 4z" fill="#2B2A65"/>
<path transform="translate(373,430)" d="m0 0h2v2l-8 7-6 10-9 21-8 11-7 4-3-1 1-2 7-4 7-10 9-20 5-9h2l2-4z" fill="#A3C3E3"/>
<path transform="translate(492,407)" d="m0 0h1v12h-16v-10h15z" fill="#F5B732"/>
<path transform="translate(537,320)" d="m0 0 2 1-1 15 3 1-5-1-13-2v-3h2v-2h2v-2h3v-2z" fill="#F3F7FB"/>
<path transform="translate(837,885)" d="m0 0h11l5 8 2 4-4 1-14-6-1-1v-5z" fill="#F8FAFC"/>
<path transform="translate(1297,587)" d="m0 0h34v5l-2 1v-2l-26 1-2-1v2h-2v-4h-2z" fill="#E1DED2"/>
<path transform="translate(645,452)" d="m0 0h1v53l-2 1-1-43-5-2 1-4z" fill="#A4C5E3"/>
<path transform="translate(538,321)" d="m0 0h1v14h26v17h-6l-2-3h2v-2h2v-10h-20l-3-1z" fill="#9BBDE0"/>
<path transform="translate(1459,577)" d="m0 0h6v12l-21 1v-2l-6 1h-35v-2l60-1v-8z" fill="#EED0A8"/>
<path transform="translate(501,634)" d="m0 0h1l1 105h5l-4 5h-3z" fill="#94B5D9"/>
<path transform="translate(1420,407)" d="m0 0h45l2 1v11h-4v-10h-45z" fill="#E6DEC6"/>
<path transform="translate(645,620)" d="m0 0h1v7l-6 4h-2l-1 3-10 8-2-1-1-3h2v-2l11-9 5-6z" fill="#6D7E9F"/>
<path transform="translate(1305,322)" d="m0 0h34l10 1-1 2-7 1-34-1-6-1z" fill="#E5F0FC"/>
<path transform="translate(1406,574)" d="m0 0h33l-1 4h-37l-1 7h-1v-9z" fill="#E0E2E8"/>
<path transform="translate(456,332)" d="m0 0h6l-1 2-16 5-12 6-5 5-5 10h-2l1-7 7-9 10-6z" fill="#A8C7E5"/>
<path transform="translate(1229,1009)" d="m0 0h8v50h-2v-48h-8z" fill="#F3B1B4"/>
<path transform="translate(495,740)" d="m0 0 2 3v2l6-1 26 1v1l-13 1h-27l-10-1 3-2 13-2z" fill="#EED7A7"/>
<path transform="translate(1300,573)" d="m0 0 1 2h30l1 2v6h-1v-5h-30l-4 1v-5z" fill="#E1E1E2"/>
<path transform="translate(645,350)" d="m0 0h1v56l-2-1v-30l-1-6 1-18z" fill="#98BBDE"/>
<path transform="translate(595,1035)" d="m0 0h1v8l-10 11-6 1 4-7z" fill="#293167"/>
<path transform="translate(1389,745)" d="m0 0h48v3l-4 1v-2h-44z" fill="#ECD5A8"/>
<path transform="translate(1389,741)" d="m0 0h4v2l36-1 4 2v1h-44z" fill="#DBEAFC"/>
<path transform="translate(645,747)" d="m0 0h1v16h-7v-2h-8v-2h-9l-1-2h24z" fill="#ACCDE9"/>
<path transform="translate(566,475)" d="m0 0 3 3 2 5v5l-7 6-1 5h5l-3 2-4-1-1-3 4-9z" fill="#F2EDF2"/>
<path transform="translate(617,707)" d="m0 0 5 1-1 3-16 1-7 3-11 1-8 3h-5l3-2 12-4 24-5z" fill="#E3EEFC"/>
<path transform="translate(521,408)" d="m0 0h17l1 5-2-4h-14v10h18v3h-18l-1 6h-1z" fill="#EDC9BB"/>
<path transform="translate(1379,577)" d="m0 0 7 2 1-2v10h-10v-9z" fill="#F5B734"/>
<path transform="translate(1405,589)" d="m0 0h25l-5 6-3-1-1-1h-10l-6-2z" fill="#DAE9FB"/>
<path transform="translate(596,324)" d="m0 0h2l6 12-1 2-3 1-1 22h-1z" fill="#DAEAF7"/>
<path transform="translate(1353,638)" d="m0 0h1l2 11v6l-6 5h-1l1-10 2-11z" fill="#B4D1ED"/>
<path transform="translate(607,258)" d="m0 0h19l1 3-2 1-19 1-1-4z" fill="#DBEAFC"/>
<path transform="translate(523,500)" d="m0 0 3 3-2 2-15 1-4 1h-2l-1-4z" fill="#F3F7FC"/>
<path transform="translate(646,1022)" d="m0 0 2 1-1 26-3-1v-23l-2-2z" fill="#9FC1E1"/>
<path transform="translate(1391,597)" d="m0 0h2l2 5v3h2v2l10 2v-2h2l-2 4-5 2-2-1-1 2-2-1v-5l-4-1v-2h-2l-1-7z" fill="#D8E5F7"/>
<path transform="translate(511,574)" d="m0 0 1 3h48v1l-47 1-16-1 4-2 4-1v2l5-2z" fill="#EBCBAC"/>
<path transform="translate(600,396)" d="m0 0h1l1 10 19 1h6l1-2 1 4v2l-3-1-29-1 2-4z" fill="#EDD8AB"/>
<path transform="translate(1340,727)" d="m0 0h1v16h12v-2h6l-2 4h-18v-14z" fill="#D5E6F8"/>
<path transform="translate(373,430)" d="m0 0h2v2l-8 7-6 10-4 10-3-1 2-6 7-13h2l2-4z" fill="#AAC8E6"/>
<path transform="translate(420,361)" d="m0 0 1 4-2 32-3 8h-2l3-16 1-19 1-8z" fill="#ABC9E6"/>
<path transform="translate(664,126)" d="m0 0 3 1-1 2-9 3-3 3h-2l-6 12-1-2 3-8 6-7 6-3z" fill="#9CBEE0"/>
<path transform="translate(629,467)" d="m0 0 2 3-7 7-5 3-1-2-2-1 4-2v-2z" fill="#C2B4C8"/>
<path transform="translate(643,567)" d="m0 0 2 1v25l-1 10h-1l-1-14-1-2h2v-9l-2-1 1-1z" fill="#E3DAD5"/>
<path transform="translate(645,452)" d="m0 0h1v12l-8-3 1-4z" fill="#8B93B8"/>
<path transform="translate(501,708)" d="m0 0h1l1 31h5l-4 5h-3z" fill="#C3C0D6"/>
<path transform="translate(1323,715)" d="m0 0h1v16l-1 6-3 2h-4v-2h3v-2h2l-1-6 1-4h2z" fill="#DBEAFC"/>
<path transform="translate(633,630)" d="m0 0 1 3 3 1-10 8-2-1-1-3h2v-2z" fill="#C0ADB7"/>
<path transform="translate(1375,577)" d="m0 0 4 1h-2v9h10v-4h2v6h-13l-1-5z" fill="#EFC7AC"/>
<path transform="translate(558,285)" d="m0 0 5 1 3 3v2h-13z" fill="#F4F8FC"/>
<path transform="translate(808,1027)" d="m0 0 3 2h-2v7l-1 3h7v2h2v2l-6-1-5-2-1-4v-2h2z" fill="#F3AEB0"/>
<path transform="translate(495,740)" d="m0 0h1l1 7-18-1 3-2 13-2z" fill="#E4E0CF"/>
<path transform="translate(1709,1155)" d="m0 0h19l2 2-1 4h-15v-1h12v-4l-6 1-11-1z" fill="#C9E1F4"/>
<path transform="translate(1400,594)" d="m0 0 3 1v2h2v-2h2v2h6v5h2v2l-4 1-2-6h-6z" fill="#D7E6F8"/>
<path transform="translate(1444,573)" d="m0 0h3v2l18-1v3h-21z" fill="#D5E4F6"/>
<path transform="translate(874,1037)" d="m0 0h2l1 13-4 1-10-1v-1h8v-2h3z" fill="#F3B0B3"/>
<path transform="translate(539,504)" d="m0 0h14l3 2v2h-11v-1l-6-1z" fill="#DBEAFC"/>
<path transform="translate(555,282)" d="m0 0 3 3-4 5 13 1v1l-21 1 5-4z" fill="#AECCE8"/>
<path transform="translate(1637,855)" d="m0 0 2 2 1 4 1 20h-2l-1-12-1-2z" fill="#38ADA8"/>
<path transform="translate(1362,479)" d="m0 0v3l-5 5h-8v-2h-2v-4l3 1 1 3h6v-4z" fill="#A8C4E2"/>
<path transform="translate(642,409)" d="m0 0h1v10h-6v-6h2v-2h3z" fill="#F6B72C"/>
<path transform="translate(569,409)" d="m0 0h24l-2 2h-20v8h-1z" fill="#F2B1AA"/>
<path transform="translate(1369,727)" d="m0 0 4 1v9l-6 2v-2h2z" fill="#D3E5F9"/>
<path transform="translate(617,707)" d="m0 0 5 1-1 3-16 1-4 1 2-3z" fill="#DEEBFC"/>
<path transform="translate(1445,589)" d="m0 0h18l-2 4h-2v-2h-10v2h-2v-2h-2z" fill="#DBEAFC"/>
<path transform="translate(1135,1019)" d="m0 0h2v10h2v8l-2-2-3-10-1-5z" fill="#D8E8FB"/>
<path transform="translate(1168,988)" d="m0 0 8 5 14 2-3 2h-9l-8-5z" fill="#EEF4FC"/>
<path transform="translate(596,1042)" d="m0 0 1 3v7l-2 1v-2l-7 2 2-4z" fill="#ACCBE6"/>
<path transform="translate(475,747)" d="m0 0h2v12h-2v-2h-2l-1-9z" fill="#DBE2E4"/>
<path transform="translate(1461,407)" d="m0 0 6 1v11h-4v-11z" fill="#E1E1E0"/>
<path transform="translate(112,808)" d="m0 0h1l1 13-3 3-1-3v-7z" fill="#2DA69B"/>
<path transform="translate(1350,650)" d="m0 0 4 1 1 5-5 4h-1z" fill="#BCD7F1"/>
<path transform="translate(1431,337)" d="m0 0 18 4-4 2h-9v-2l-4-2z" fill="#DBEAFB"/>
<path transform="translate(347,474)" d="m0 0v3l-5 5-5 3-3-1 1-2 7-4 3-3z" fill="#A8C7E5"/>
<path transform="translate(1324,725)" d="m0 0 1 3 15-1v4h-3v-2h-12v6l-2 1z" fill="#EDB1B6"/>
<path transform="translate(600,396)" d="m0 0h1l1 10 11 1v1l-16 1 2-4z" fill="#ECE4E9"/>
<path transform="translate(456,332)" d="m0 0h6l-1 2-16 4 4-4z" fill="#A0C1E1"/>
<path transform="translate(654,130)" d="m0 0 2 1-3 3-6 12-2 1 2-8 6-8z" fill="#A6C5E4"/>
<path transform="translate(1380,624)" d="m0 0h5v4l-1 3-4 2z" fill="#D0E3F8"/>
<path transform="translate(1339,472)" d="m0 0 2 1v2h2v2l6 2v2l-6-1-3-3z" fill="#D1E5F7"/>
<path transform="translate(624,472)" d="m0 0 2 1-2 4-5 3-1-2-2-1 5-3z" fill="#7C97A1"/>
<path transform="translate(373,430)" d="m0 0h2v2l-8 7-4 2v-2h2l2-4z" fill="#A5C4E3"/>
<path transform="translate(1424,589)" d="m0 0h6l-5 6-3-1 1-4z" fill="#CCE1F5"/>
<path transform="translate(943,324)" d="m0 0h4v22h-1v-19h-2z" fill="#ACCCE7"/>
<path transform="translate(1440,1011)" d="m0 0 4 2v5l-4 2z" fill="#2B2A65"/>
<path transform="translate(496,743)" d="m0 0 1 2 6-1 7 1-2 2h-11z" fill="#F3A7A8"/>
<path transform="translate(1465,577)" d="m0 0h2v10h2v2h-4z" fill="#DBEAFC"/>
<path transform="translate(330,483)" d="m0 0h5l1 3-7 1h-3v-3z" fill="#DCEAFC"/>
<path transform="translate(413,405)" d="m0 0h2l-2 4-5 5h-3l6-7z" fill="#AAC8E6"/>
<path transform="translate(1383,328)" d="m0 0h8l8 2v1h-10l-6-2z" fill="#DFECFC"/>
<path transform="translate(1193,1025)" d="m0 0h4v2l-9 7-1-3h2v-2h2v-2h2z" fill="#DBEAFC"/>
<path transform="translate(1377,589)" d="m0 0h8v2h-2v2h-6z" fill="#DBEAFC"/>
<path transform="translate(577,290)" d="m0 0 2 1v2h-2v2h-8l-2-2h8v-2z" fill="#A3C0DF"/>
<path transform="translate(815,997)" d="m0 0 2 1-1 8-1 5-2-2 1-6z" fill="#F2B1AF"/>
<path transform="translate(619,505)" d="m0 0 5 1-1 2h-6v-2z" fill="#DBEAFC"/>
<path transform="translate(558,505)" d="m0 0 3 1h-3z" fill="#DBEAFC"/>
<path transform="translate(562,505)" d="m0 0" fill="#DBEAFC"/>
<path transform="translate(625,506)" d="m0 0" fill="#DBEAFC"/>
</svg>
