<?xml version="1.0" encoding="UTF-8"?>
<svg version="1.1" viewBox="0 0 2048 2048" width="1280" height="1280" xmlns="http://www.w3.org/2000/svg">
<path transform="translate(633,114)" d="m0 0h1028l28 3 28 6 23 7 24 10 16 8 19 11 14 10 13 10 10 8v2l4 2 20 20 9 11 10 13 12 18 9 16 8 16 8 19 7 21 6 25 3 19 2 23v1265l-4 36-7 30-9 26-8 18-8 16-9 15-13 19-11 13-9 11-15 15-8 7-16 13-24 16-22 12-22 10-27 9-26 6-29 4-16 1h-1498l-13-4-10-6-9-10-6-13-2-13 2-13 4-9 6-9 253-253 10-6 9-3h19l12 4 12 9 8 11 4 10 1 4v15l-4 13-7 10-9 10-159 159 81 1h274l9-1 8-7 6-7 1-90v-1046l1-59 4-26 6-24 9-24 12-25 11-18 12-16 10-11 7-8 7-7 8-7 13-10 21-14 27-14 24-9 23-6 14-3 19-2h960l-2-25-4-22-6-21-9-21-9-17-12-17-9-11-17-17-17-13-16-10-15-8-23-9-20-5-19-3-19-1h-997l-23 2-24 5-21 7-23 11-17 11-13 10-12 11-12 12-10 13-11 17-9 17-8 20-6 23-3 20-1 19-1 933-3 12-7 12-10 9-11 5-8 2h-15l-10-3-10-6-5-4-7-10-5-12-1-6v-945l2-22 4-24 6-24 8-23 9-20 12-23 8-12 10-14 9-11 12-14 14-14 8-7 16-13 24-16 22-12 25-11 21-7 25-6 25-4zm405 586-23 3-27 6-24 8-20 9-21 11-12 8-14 10-14 12-10 9-12 12-9 11-11 14-11 17-9 16-10 21-11 33-5 22-3 23-1 12v27l2 20 4 24 6 23 7 20 11 24 9 16 10 15 9 12 12 14 12 13 8 7 14 12 18 13 24 14 24 11 19 7 23 6 29 5 10 1h40l30-4 28-7 21-7 20-9 17-9 16-10 16-12 11-9 16-15 1-3 3-1 7-8 12-15 12-18 10-17 10-21 9-25 6-23 4-24 2-23v-21l-2-23-4-24-6-23-7-20-9-20-9-17-13-20-10-13-12-14-18-18-11-9-16-12-21-13-17-9-19-8-24-8-26-6-25-3z" fill="#47D88A"/>
<path transform="translate(633,114)" d="m0 0h1028l28 3 28 6 23 7 24 10 16 8 19 11 14 10 13 10 10 8v2l4 2 20 20 9 11 10 13 12 18 9 16 8 16 8 19 7 21 6 25 3 19 2 23v1265l-4 36-7 30-9 26-8 18-8 16-9 15-13 19-11 13-9 11-15 15-8 7-16 13-24 16-22 12-22 10-27 9-26 6-29 4-16 1h-1498l-13-4-10-6-9-10-6-13-2-13 2-13 4-9 6-9 253-253 10-6 9-3h19l12 4 12 9 8 11 4 10 1 4v15l-4 13-7 10-9 10-159 159 81 1h307l993-1 24-3 20-5 20-7 17-8 20-12 14-11 12-11 9-9 13-17 9-14 11-21 9-25 5-22 2-17v-1266l-3-23-4-17-7-21-11-23-10-16-10-13-9-10-13-13-17-13-16-10-15-8-23-9-20-5-19-3-19-1h-997l-23 2-24 5-21 7-23 11-17 11-13 10-12 11-12 12-10 13-11 17-9 17-8 20-6 23-3 20-1 19-1 933-3 12-7 12-10 9-11 5-8 2h-15l-10-3-10-6-5-4-7-10-5-12-1-6v-945l2-22 4-24 6-24 8-23 9-20 12-23 8-12 10-14 9-11 12-14 14-14 8-7 16-13 24-16 22-12 25-11 21-7 25-6 25-4z" fill="#0F0D0E"/>
<path transform="translate(1036,607)" d="m0 0h52l34 4 28 6 24 7 25 9 20 9 20 10 23 14 18 13 14 11 10 9 8 7 21 21 9 11 12 15 14 20 12 20 11 21 10 23 12 36 6 26 5 32 2 25v30l-3 30-5 29-7 28-10 29-9 21-8 16-12 21-10 15-11 15 1 4 169 169 7 11 4 13v13l-4 13-7 11-8 7-14 7-10 2-13-1-13-5-9-7-12-11v-2l-4-2v-2h-2v-2h-2l-7-8-142-142-4 1-12 9-15 10-21 12-15 8-21 9-19 7-23 7-28 6-27 4-23 2h-32l-34-4-23-4-22-5-21-6-28-11-27-13-22-13-19-13-13-10-14-12-12-11-18-18-9-11-10-12-14-20-10-16-10-18-11-23-10-26-8-26-4-17-4-25-3-32v-37l4-37 5-26 7-26 9-25 12-27 9-17 11-18 11-16 10-13 11-13 7-8 2-3h2l2-4 12-12 8-7 13-11 13-10 19-13 13-8 18-10 23-11 21-8 21-7 30-7 33-5zm2 93-23 3-27 6-24 8-20 9-21 11-12 8-14 10-14 12-10 9-12 12-9 11-11 14-11 17-9 16-10 21-11 33-5 22-3 23-1 12v27l2 20 4 24 6 23 7 20 11 24 9 16 10 15 9 12 12 14 12 13 8 7 14 12 18 13 24 14 24 11 19 7 23 6 29 5 10 1h40l30-4 28-7 21-7 20-9 17-9 16-10 16-12 11-9 16-15 1-3 3-1 7-8 12-15 12-18 10-17 10-21 9-25 6-23 4-24 2-23v-21l-2-23-4-24-6-23-7-20-9-20-9-17-13-20-10-13-12-14-18-18-11-9-16-12-21-13-17-9-19-8-24-8-26-6-25-3z" fill="#0F0D0E"/>
</svg>
