<?xml version="1.0" encoding="UTF-8"?>
<svg version="1.1" viewBox="0 0 2000 1734" width="1280" height="1280" xmlns="http://www.w3.org/2000/svg">
<path transform="translate(1008,5)" d="m0 0h47l15 1 4 1 37 3 15 3 9 1 8 4 4-3 20 4 2 1 15 1 10 4 14 3 4 2 12 2 10 4 14 3 16 5 8 3 9 4 11 3 20 8 13 5 19 8 32 16 15 7 2 2 7 3 9 5 10 6 15 8 6 4v2l9 3 7 4 3 3 11 7 5 4 11 7 5 4 11 8 5 4 7 5 3 3 5 3 15 13 8 6 13 11 16 15 5 5 10 9 6 7 8 7 6 5 6 8 5 5v2l4 2 7 8 9 11 8 10 7 8 7 9 3 3v2l4 2 3 6 11 2 10 5 15 13 9 11 3 4v2l3-1 6-11 9-11 10-8 10-6 8-3h16l6 4 5 5 2 8v12l-4 17-8 16-6 10-10 13-9 11-13 14-1 7 12 24 10 22 4 10 2 9 3 1 23 69 6 24 2 10 3 11 6 32 2 14 1 14 1 2 2 20 1 25 1 62-4 45-2 10-1 13-1 2-2 15-1 2-1 12-2 6-2 15-4 20-2 9-3 13-6 24-5 23-2 9-3 9-3 12-2 5-2 9-3 8-3 12-4 10v3l-2 9-2 4-4 16-7 19-6 17-4 10-6 17-5 12-5 14-5 11-1 7 9 5 4 5 2 7v13l-3 15-8 14-2 3-1 17-3 16 5-2 3-3 16-9 5-2h14l6 7 2 4v9l-5 8-9 6-9 2h-14l-20-4-1 8-3 9-2 5-1 7 4 2v3l14-2h13l6 2 5 4 3 7-1 8-4 6-8 4-5 1h-17l-13-5h-3l1 27 4 2 3 4 1 3v7l-3 6-2 3v26l1 8 1 26 2 25h8l18-4-4-10-4-9-2-7v-13l2-9 5-7 7-3h11l5 4 3 5v17l-6 16-4 6-5 3-2 5 23-6 12-4 8-3 8-2-1-7-7-17-1-5v-10l2-10 7-8 7-3h7l6 3 4 7 1 9-2 12-8 16-4 2-1 5 7-3 11-7 10-8 5-3 4 1-8 8-8 6-17 9-1 1h14l19 6 6 3 6 7 1 3v10l-4 6-8 4h-10l-12-6-5-5-6-7-8-14-3-2-12 5-12 4-14 6 4 2 16 6 8 7 3 5v9l-4 6-6 4h-13l-11-5-6-5-9-13-5-8-1-1h-7l-17 4v8l1 7 2 4 4 1 4 8-1 10-5 6-4 2-2 18-4 10-1 1v7l8 16 7 16 8 10 8 8 13 10v2l5 2 14 11 12 11 6 8 2 6v10l-4 5h-7l6-7-14 2h-14l-10-2-15-6-16-9-21-13-9-6-11-6-6-3 3 11 1 3 11 3 12 9 14 10 14 7 11 4 7 2v1h-14l-12-5-11-6-14-10-9-7-11-3-3-3-2-4-2-9-4-32-2-13-1-2-1-9-2-7-10-6-3-6-2-11-5-1-8-7-11-14-7 1-18 11-6-1-2-4 9-6 8-4 10-6 1-5-2-5-1-7-16-5-9-3h-5l-5 8-5 12-3 1-3-2-1-5 10-19-2-5-10-9-7-1-5 5-4 5-11 9-13 12-6 3-16 13-8 4-21 12-16 8-7 4-11 4-13 6-12 4-22 7-12 3-13 3-11 2-8 3h-9l-3 20-1 3-1 12-1 3-2 17-2 10-4 6-5 2-8 2-11 9-6 4-13 8-14 6h-16l2-2 7-2 13-5 11-6 19-13 6-5 11-3 3-4 1-8-7 3-10 6-13 8-7 5-14 7-10 6-18 7-6 1h-18l-12-3 3 5 3 3h-7l-4-5v-10l5-10 9-10 16-13 13-10 13-11 4-2 6-12 2-1 1-4-3-2h-40l-9 1-63-1-18-1h-4l5 15 3 8 4 17 1 3v14l-5 10-7 6-13 5h-19l-16-7-9-7-5-4v-2h-2l-5-10-3-10 1-36-5-5-7-1h-15l-2-1-24-1-7-1-1-1-7-1h-8l-2 23-4 12-7 8-8 6-9 4-6 5-13 3-7-1-11-5-12-5-4-6-3-2-1-6 2-15 6-22 1-2 1-9-19-1-6-2-10-2-1-2-17-1-31-4-9-3-22-3-2-1h-10l-8-3-9-3-21-3h-5l-3 5-10 8-10 7-22 12-5 5-1 2-4-1-2 9 7 9 2 4 5 2 7 6 9 4 8 5 11 4 7 6 5 5 24 8 10 4 1 3 4 1 2 4-1 9-3 4h-2l-1 6-4 4-8 4-3 1h-56l-26-3-24-1-7-1h-35l-10-4-8-9-2-8 1-15 3-9 5-11 3-9-2-8-27 1-12 2-15 2-14 1-4 1-29 3-34 4-1 6 8 8 8 7 6 7 4 5v11l-7 9-9 4-16 2-21-1-6-1-16-1-16-4-8-1-8-4-17-7-11-7-11-5-11-4-4-5-6-4-2-3-1-5v-8l3-15 5-10 5-15 4-10 2-1 2-7-1-4-13-2-7-6-5-9-10-4-6-3-8 1h-13l-8-4-4-3v-14l6-10 11-4 15-5-5-2-17-4-15-4-8-1-1 6h-2l-1 6-4 6-2 5-16 8-6 2h-10l-8-4-4-5-1-9 4-9 8-6 17-7v-2l-7-1-25-10h-5l-6 11-3 5-5 7-7 5-10 4h-13l-7-4-4-7 1-11 7-8 4-3 14-5 9-2h4v-3l-5-1-5-5-12-7-7-7-5 1-5 5-3 5-9 6-12 4-10 1-9-2-7-5-3-8v-6l5-7 6-4 5-2 8-1h19l8 1v-3l-6-2 1-2 3-1-4-13v-21l4-6 6-3h13l6 5 3 6 2 10-1 11-3 9-5 9-4 6 1 3 6 4 7 3v2h7l4 6 3 1-2-6-5-12v-18l6-8 5-2h11l7 5 5 9 1 8v14l-5 13-4 5 1 5 13 4 13 3 1 1 9 1 6 3-3-5-4-6-3-13-1-2v-13l4-9 5-4 2-1h10l6 4 5 5 2 3 3 14-1 9-5 14-4 10 14 2 16 4 14 4 8 1-6-7v-2h-2l-4-10-2-8v-16l6-8 7-2h8l6 3 3 2v-8l5-8 10-4h9l13 2 6 3-3-6-11-12-7-6-4-5v-2l-5-2-4 1-8 5-13 4-16 1-7-2-7-5-3-5-1-4v-7l2-5 6-5 4-2h23l2 2 4 1-8-11-8-9-5-11-7 1-12 6-5 2h-23l-8-4-5-6-1-11 3-7 10-5h12l10 2 11 3v2h3l-3-10-6-12-3-10v-4l-7 1-1 1-21 1-13-3-9-6-5-8v-12l3-4h2v-2l3-2h14l12 5 12 9 3 3 1 3 3 1 2-9 2-6-1-4-3 9-2-3-3-10-2-13-4-9-6-10-2-9-1-14 2-9 4-7 3-6-2-2-3-8-8-18-2-10-3-4-4-13-4-11-3-9-2-8-6-20-3-8-3-12-3-13v-3l-3-11-3-16-3-8-2-18-1-3-1-11-2-5-2-30-2-17v-61l2-17 2-31 2-6 1-12 1-1 3-17 4-16 6-23 9-27 5-12 3-10 8-19 3-9 2-2 2-7 1-2h2l1-6 5-9 5-11 2-5 2-1 8-16 8-15 5-9 6-8 8-15 3-1 2-7 9-14 9-15 7-10 4-8 8-11 7-12 4-4 7-14 3-3 6-10 2-3h2l2-7 12-18 4-8h2l3-9 7-13 2-3 2-6 2-1 10-21 4-10 3-5 8-16 5-11 3-2 3-6 4-6 3-6 6-8 2-4 3-3 7-13 10-11 6-8 4-6 5-7 5-5 14-16 13-14 5-5 6-7 5-5 7-6 7-8 6-5h2l2-4 6-4 6-6h2l1-4 11-8 7-7 6-4 2-3 6-3 13-11 14-10 4-2 2-3 7-4 5-4 15-9h3l1-3 10-6 6-3 1-2 8-4 6-2 3-4 19-9 8-6 9-4 19-9 4-3 30-12 19-7 9-4 8-3 2-2 14-2 5-3 14-3 9-3 12-3 5-2 13-2 10-3 28-4 9-2 36-3 5-1zm763 333-11 3-10 6-12 11-7 8-7 15h-4l-2-5-14-17-8-7-5-4-6-2-1 5 3 7 8 11 6 8 4 7 11 18 7 11 4 8 10 18 2 2h3v-2h2l5-5v-2h2l9-11v-2h2l11-15 8-14 6-13 2-6 2-16-2-9-4-5-7-3zm-1470 1042-5 2 2 4 4 4 3-7v-3zm11 39m33 6-2 2 3 1zm4 4-1 3h3l-1-3zm-13 1v2l4-1zm6 2-2 1 2 5 4-1-1-5zm29 3-4 5h-9l-8 2h-3v3h2l2 4 3 1 2 4h2l2 6 3 3h2l1 2 4-3 2-13 2-9v-5zm-198 60m147 0 1 6 2 7-1 9-5 13-4 7 1 5 16 5 11 5 10 1-1-6-3-9-2-5-1-11 1-5-2-1h-4l-2-4 1-5 2-3-11-4-6-4zm822 116-4 9v8l6 5v-22zm550 8-10 6-2 1v17h2l1 5 1 2-5-3-2-2-2-6-2-5h-2v-2h-2l-1-4-9 1-7-1 2 13 3 17 1 11 3 9 16 10 11 6 28 18 19 9 5 2 10 2h11l12-3 4-2-2-6-7-9-4-2v-2l-20-15-6-5h-2v-2l-10-8-4-4h-2l-2-4-7-9-8-17-8-16zm-458 64-5 3v2l-4 2-16 11v2h-2l-7 8-4 7v3l12 3 5 1h7l13-2 16-8 2-2-9-2-1-1h-7l-7 2 2-3 8-1 5-7-2-5-2-2v-9zm19 27-1 2 3-1z" fill="#1A2C34"/>
<path transform="translate(1008,5)" d="m0 0h47l15 1 4 1 37 3 15 3 9 1 8 4 4-3 20 4 2 1 15 1 10 4 14 3 4 2 12 2 10 4 14 3 16 5 8 3 9 4 11 3 20 8 13 5 19 8 32 16 15 7 2 2 7 3 9 5 10 6 15 8 6 4v2l9 3 7 4 3 3 11 7 5 4 11 7 5 4 11 8 5 4 7 5 3 3 5 3 15 13 8 6 13 11 16 15 5 5 10 9 6 7 8 7 6 5 6 8 5 5v2l4 2 7 8 9 11 8 10 7 8 7 9 3 3v2l4 2 3 6 11 2 10 5 15 13 9 11 3 4v2l3-1 6-11 9-11 10-8 10-6 8-3h16l6 4 5 5 2 8v12l-4 17-8 16-6 10-10 13-9 11-13 14-1 7 12 24 10 22 4 10 2 9 3 1 23 69 6 24 2 10 3 11 6 32 2 14 1 14 1 2 2 20 1 25 1 62-4 45-2 10-1 13-1 2-2 15-1 2-1 12-2 6-2 15-4 20-2 9-3 13-6 24-5 23-2 9-3 9-3 12-2 5-2 9-3 8-3 12-4 10v3l-2 9-2 4-4 16-7 19-6 17-4 10-6 17-5 12-5 14-5 11-1 7 9 5 4 5 2 7v13l-3 15-8 14-2 3-1 17-3 16 5-2 3-3 16-9 5-2h14l6 7 2 4v9l-5 8-9 6-9 2h-14l-20-4-1 8-3 9-2 5-1 7 4 2v3l14-2h13l6 2 5 4 3 7-1 8-4 6-8 4-5 1h-17l-13-5h-3l1 26-2-3-1-4v-32l-4-41-2-11-4-30-3-19-9-94v-12l6-2 5-5 4-5 6-11 6-12 4-15 3-21v-70l1-32v-37l-2-45-4-37-4-24-7-26-9-24-10-51v-3l19-7h2l-5-13-11-26-11-23-13-24-14-21-9-10-9-8-9-3-9-1-56-2 3-6h2v-3l10 4 7-1 4-6 3-9 4-25 13-1 5-4 3-11 1-33h8l4-4 2-5 1-6v-12l-5-29v-3l5-2 3-6 1-5v-12l-3-25-4-16-8-16-9-11-11-10-13-8-16-8-13-4h-13l-7 4-3-1-5-10-9-10-6-3h-9l-8 4-2 8-4-1-16-8-13-4-6 1-5 5-3 7-2 6-45 3-18 2-16 4-6 3-5 6-1 7 2 6v4l-20 9-10 5-9 7-1 4 4 4 10 2 18 1v2l-9 6-10 8-3 3h-2v2h-2l-2 4-3 4-1 8 8 1 18-2 15-6 3-2-4 24 1 15 1 8v9l-3 10-8 12-7 9-1 2v6l10 7 9 4 8 26 7 16 1 3 5 2 3 1h12l15-3 5 1 3 5 1 6v26l-3 6-7 3-23 6-32 9-13 4-11 5h-3v2l-9 6-7 5h-2l-1 3-4 1v2l-5 3h-2v2l-15 10h-2v2l-14 9-9 6h-2v2l-6 4h-2l-1 5-16 9-13 8-4 2h-3l-1-32-3-2v-10l2-33 1-38-2-21-4-16-6-15-5-9-8-10-6-5v-2l-5-2-14-9-22-12-19-8-9-3-23-7-3-6 7-24 11-24 3-12-1-10-4-8-3-2-1-57-2-22-3-10-6-8-9-8-16-9-16-6-17-4-16-1-15 2-16 5-15 8-13 10-8 8-6 10-4 14-2 16 1 14 8 33 1 7-7 3-4 8-1 5v11l4 11 9 11 6 7 6 14-1 7-7 6-16 10h-3v2l-18 12-10 6-18 8-7 4h-3v2l-11 7-11 9-7 11-3 5-8 25-2 11v16l3 13 8 18 9 19-1 5v7l9 26 6 11 6 5h8l2 4 3 26 2 26 2 16 1 11-8-1-25-7-2-3v-8l-4-2-19-10-10-6-6-1-5 3-3 1-26-10-36-15-23-11-7-5-25-11-4-2-5-19-6-18-11-25-5-10-11-20-4-8-2-8h31l-1-6-5-6-9-7-10-8-11-8-7-8-9-9 1-5 8-16 3-4 7 1 13 3h14l4-4 11-23 8-15 12-9 4-5v-7l-12-24-1-6 6-18v-20l-3-15v-4h2l3 9 4 3 7-1 4-2h3l2-4 3-4 1-10-4-17-6-14-8-10v-2h-2l-5-5-9-8-16-10-16-8-17-7-22-5-16-2h-33l-18 3-18 6-11 6-7 6h-2v2h-2v2h-2l-2 4-8 9-11 16-6 10-7 17-4 16-1 16 3 27v27l-3 19-4 8-11 11h-2v2l-8 7-8 8-7 6-7 9-11 15-9 17-4 14-1 7v16l3 16 5 13 10 16 9 13 1 2v8l-3 3h-6l-2-2h-5l-3 16 2 13 5 9 7 6 12 5 15 3h24l1 5-9 60-7 52v5l3 1 5 5 3 1 1 4-14 21-12 21-7 15-9 25-8 28-6 25-8 44-5 38-5 65-6 103-7 143v8l4 5v2l4 2 3 3 10 6-1 7-3 7-5 11-5 19-7 41-3 17-10 45-9 33-9 26-7 15-6 15-5 11-2 9v14h2l3 5 15 9 13 6 12 7 16 7 13 4 29 5 19 2h16l12-2 10-5h3l-3 4-9 4-16 2-21-1-6-1-16-1-16-4-8-1-8-4-17-7-11-7-11-5-11-4-4-5-6-4-2-3-1-5v-8l3-15 5-10 5-15 4-10 2-1 2-7-1-4-13-2-7-6-5-9-10-4-6-3-8 1h-13l-8-4-4-3v-14l6-10 11-4 15-5-5-2-17-4-15-4-8-1-1 6h-2l-1 6-4 6-2 5-16 8-6 2h-10l-8-4-4-5-1-9 4-9 8-6 17-7v-2l-7-1-25-10h-5l-6 11-3 5-5 7-7 5-10 4h-13l-7-4-4-7 1-11 7-8 4-3 14-5 9-2h4v-3l-5-1-5-5-12-7-7-7-5 1-5 5-3 5-9 6-12 4-10 1-9-2-7-5-3-8v-6l5-7 6-4 5-2 8-1h19l8 1v-3l-6-2 1-2 3-1-4-13v-21l4-6 6-3h13l6 5 3 6 2 10-1 11-3 9-5 9-4 6 1 3 6 4 7 3v2h7l4 6 3 1-2-6-5-12v-18l6-8 5-2h11l7 5 5 9 1 8v14l-5 13-4 5 1 5 13 4 13 3 1 1 9 1 6 3-3-5-4-6-3-13-1-2v-13l4-9 5-4 2-1h10l6 4 5 5 2 3 3 14-1 9-5 14-4 10 14 2 16 4 14 4 8 1-6-7v-2h-2l-4-10-2-8v-16l6-8 7-2h8l6 3 3 2v-8l5-8 10-4h9l13 2 6 3-3-6-11-12-7-6-4-5v-2l-5-2-4 1-8 5-13 4-16 1-7-2-7-5-3-5-1-4v-7l2-5 6-5 4-2h23l2 2 4 1-8-11-8-9-5-11-7 1-12 6-5 2h-23l-8-4-5-6-1-11 3-7 10-5h12l10 2 11 3v2h3l-3-10-6-12-3-10v-4l-7 1-1 1-21 1-13-3-9-6-5-8v-12l3-4h2v-2l3-2h14l12 5 12 9 3 3 1 3 3 1 2-9 2-6-1-4-3 9-2-3-3-10-2-13-4-9-6-10-2-9-1-14 2-9 4-7 3-6-2-2-3-8-8-18-2-10-3-4-4-13-4-11-3-9-2-8-6-20-3-8-3-12-3-13v-3l-3-11-3-16-3-8-2-18-1-3-1-11-2-5-2-30-2-17v-61l2-17 2-31 2-6 1-12 1-1 3-17 4-16 6-23 9-27 5-12 3-10 8-19 3-9 2-2 2-7 1-2h2l1-6 5-9 5-11 2-5 2-1 8-16 8-15 5-9 6-8 8-15 3-1 2-7 9-14 9-15 7-10 4-8 8-11 7-12 4-4 7-14 3-3 6-10 2-3h2l2-7 12-18 4-8h2l3-9 7-13 2-3 2-6 2-1 10-21 4-10 3-5 8-16 5-11 3-2 3-6 4-6 3-6 6-8 2-4 3-3 7-13 10-11 6-8 4-6 5-7 5-5 14-16 13-14 5-5 6-7 5-5 7-6 7-8 6-5h2l2-4 6-4 6-6h2l1-4 11-8 7-7 6-4 2-3 6-3 13-11 14-10 4-2 2-3 7-4 5-4 15-9h3l1-3 10-6 6-3 1-2 8-4 6-2 3-4 19-9 8-6 9-4 19-9 4-3 30-12 19-7 9-4 8-3 2-2 14-2 5-3 14-3 9-3 12-3 5-2 13-2 10-3 28-4 9-2 36-3 5-1zm763 333-11 3-10 6-12 11-7 8-7 15h-4l-2-5-14-17-8-7-5-4-6-2-1 5 3 7 8 11 6 8 4 7 11 18 7 11 4 8 10 18 2 2h3v-2h2l5-5v-2h2l9-11v-2h2l11-15 8-14 6-13 2-6 2-16-2-9-4-5-7-3zm-1470 1042-5 2 2 4 4 4 3-7v-3zm11 39m33 6-2 2 3 1zm4 4-1 3h3l-1-3zm-13 1v2l4-1zm6 2-2 1 2 5 4-1-1-5zm29 3-4 5h-9l-8 2h-3v3h2l2 4 3 1 2 4h2l2 6 3 3h2l1 2 4-3 2-13 2-9v-5zm-198 60m147 0 1 6 2 7-1 9-5 13-4 7 1 5 16 5 11 5 10 1-1-6-3-9-2-5-1-11 1-5-2-1h-4l-2-4 1-5 2-3-11-4-6-4z" fill="#D7F5E5"/>
<path transform="translate(678,836)" d="m0 0 14 1 43 5 34 3 2 1v4l14 7 17 4h10l7-3 5-8 1-2 30 1 17 1v15l-7 108v13l10 5 1 31 3 114 18 194 10 128-1 11-5 36 1 20 4 23 4 15 7 18-3 14-10 26-3 13-4 9-1-4 3-8 1-9-19-1-6-2-10-2-1-2-17-1-31-4-9-3-22-3-2-1h-10l-8-3-9-3-21-3h-5l-3 5-10 8-10 7-22 12-5 5-1 2-4-1-2 9 7 9 2 4 5 2 6 5h-3l-4-2v-2l-6-2v-2l-3-1v-2l-4-1-2-5-2-10-5-22-4-28-1-13v-29l3-42 1-28 1-59 8-3 16-5h2l-4-76-1-30v-39l-5-57-6-52v-5l8-1 11-6h2v16l1 2h8l2-6 4-11 4-26 3-27v-20l-5-21-5-16-10-47-1-8 4-4v-8l-5-23-5-13-2-3-4-1-4-15-5-21v-5l8-5-3-25z" fill="#D7F5E5"/>
<path transform="translate(646,830)" d="m0 0 11 2-1 10-4 28 1 35 7 135 2 34 10 82 5 43 4 40 1 14 1 64 3 65 1 20-10 4-34 9-31 6-33 4-14 1h-59l-32-2-53-7-16-3-16-7-11-8-6-7v-18l6-121 5-89 5-73 3-30 6-40 6-30 9-36 8-26 11-26 11-20 11-17 6-8 5 2 14 9 14 8 17 8 21 6 36 7 42 6 28 3 3-24 5-43 1-9z" fill="#B5B5B3"/>
<path transform="translate(1350,761)" d="m0 0 3 3 11 27 5 13 3 9 6 21 5 18-1 8-2 9v8l3 6 1 13v17l-12 40-11 41-8 39-11 41-8 30-2 15-13 159-10 31-10 38-7 32-4 28-2 36-4 55-5 54-7 61v6l4 1-2 6-8 17-4 10-6 9h-2v2h-2v2l-8 7-6 4-2-1 13-11 4-2 6-12 2-1 1-4-3-2h-40l-9 1-63-1-18-1h-4l1 6-3-2-2-9-6-16v-14l13-137 15-155 2-31 4-93 3-91 1-23 16-5 10-7 8-11 4-6 5-14 3-18 2-25v-157l-2-31 8-3 26-8 15-6 10-6 11-6 12-7 5-2 7 8 5 4 7 8 2 2 5-1 5-3h2v-2l9-5 3-3 5-3 4-1v-2l6-2v-2h3v-2zm-208 850-4 9v8l6 5v-22z" fill="#D7F5E5"/>
<path transform="translate(1535,618)" d="m0 0h56l22 2 7 3 10 9 9 11 11 17 12 22 16 33 8 20 2 7-7 3-43 14-26 8h-3l-6-27-8-27-1-5h-4l9 29 7 29v6l-6 15-2 8 1 32 1 22 1 14-2 6-10 6-14 6-19 6-4-1 11-7 8-10 1-5-3 1-5 8-8 7-8 5h-2v4l-20 4-14 2-14 1h-30l-14-1-11-4-9-7-3-4h-2l2 5 6 7-12-1-28-6-11-4-3-5v-7l3-11v-7l-10-35-8-23-12-31-2-4 2-12 4-19h-4l-1 8-4 20-12 9-30 20h-4l-7-8-16-17-31-33-8-8-4-5 2-4 27-18 28-20 15-12 16-8 27-9 40-10h5l8 10 10 9 14 8 17 5h23l11-3 12-5 12-8 10-8 1-2h2v-2l5-5 8-9z" fill="#5AE3A7"/>
<path transform="translate(1502,1114)" d="m0 0 14 2 5 18 19 78 26 108 14 58 17 74 9 38 3 11 3 16 18 76 2 7 2 4v8h-1l-2-11-5-1-8-7-11-14-7 1-18 11-6-1-2-4 9-6 8-4 10-6 1-5-2-5-1-7-16-5-9-3h-5l-5 8-5 12-3 1-3-2-1-5 10-19-2-5-10-9-7-1-5 5-4 5-11 9-13 12-6 3-16 13-8 4-21 12-16 8-7 4-11 4-13 6-12 4-22 7-12 3-13 3-11 2-8 3h-9l-1 2 1-7 2-4 6-3h2l3-11 22-66 14-43 33-99 5-14 5-17 39-117 15-46 12-36z" fill="#D7F5E5"/>
<path transform="translate(540,610)" d="m0 0 15 2 11 5 8 2 12 1 8 6 8 9 26 39 11 17 16 25 5 8 26 11 21 11 15 8 39 16 30 12 1 2-11 25-8 22-3 11-27-2-45-5-34-5-29-6-17-6-11-8-10-9-8-7-31-31v-2h-2l-7-8-14-15-7-8v-2h-2l-7-8-11-13-3-2 1 5 12 13 7 8 5 6v2l-13 4-19 4-8 1v2h8l24-5 12-3 11 11v2l-12 6-14 8-25 12-20 7h-2v3l9-2 25-10 20-10 19-11 2-2 14 14v2h2l7 8 18 18 8 7 13 11 10 6 15 5 8 2-3 32-6 42h-9l-46-6-34-6-25-6-12-4-16-8-11-6-22-15-11-8 1-12 8-59 8-50 13-5 9-6 7-7 5-10 3-12 4-45 3-11 5-8 8-5 9-3z" fill="#5BE3A7"/>
<path transform="translate(1128,821)" d="m0 0h2l1 2 10 100 5 52-8 11-15 12-17 12-16 10-16 8-15 4-11 2h-6l-13-21h-4l-9 16-4 6h-10l-20-2-22-8-26-11-65-29-1-1v-14l7-112 1-7h15l24 1 25 5 7 2 3 3-1 5-9 12v6l4 2h13l3 10 4 4 4 2 5-1 2-4-1-23h2l12 24 6 7 2 1h6l2-3v-15l3 4 4 8 4 3 4 1 1 17 1 31v22h4l-2-54v-19l1-1v-9l-2-7v-8l4 4 6 8 7 1 3-2 1-9-4-9-4-7 1-5 5-3 10-1 5-3 1-2v-6l-4-6 2-3 57-10z" fill="#5BE3A7"/>
<path transform="translate(1075,503)" d="m0 0 21 6 21 8 21 11 17 10 13 10 8 10 9 17 5 16 3 20v32l-2 37-2 22-14 7-13 4-5 1h-13l-11-3 1-18 2-5 7-8 12-17 11-19 6-12v-2l-3 1-11 21-9 14-12 16-1-3 4-26 1-16h-4v16l-5 31-2 21-3 12v20l1 15v13l-12 6-20 8-35 15-36 15-5-1-1-23-3-103-2-64v-22l8-8h2l2-4 11-10 9-11 6-7 3-1 6 9 11 14 7 6 4 1 4-1 1-2-1-13-6-37-5-22z" fill="#5BE3A7"/>
<path transform="translate(489,1428)" d="m0 0 70 1 5 32 6 27 10 37 8 36 7 37 6 31 1 5v24l-4 12-2 1 1-7-2-8-27 1-12 2-15 2-14 1-4 1-29 3-34 4-1 6 5 6-4-2-7-8-8-7-13-12-11-11-3-4v-3h-2l-1-4v-25l5-24 7-22 8-16 4-10 4-7 4-10 12-24 4-10 4-8 13-28z" fill="#FCFCFC"/>
<path transform="translate(932,502)" d="m0 0 1 4-3 27-2 27v15l3 5 2 1h6l9-7 14-14 5 2 14 12 10 8 9 7 6 7 4 2 1 19 3 105 2 64v20l-10-3-10-1-17-8-2-6-8-41-6-21-5-12-6-10-7-7 2-7-1-8-6-22-4-6-9-6-8-16-4-11 3-11v-18h-2l-1 18-3 9 1 6 7 16 1 5-12-2h-18l-12 3-16 8-11 7-9 7-5 4-13-27-5-14-1-5v-18l4-17 6-16 5-10 8-9 13-10 16-9 22-10 18-13z" fill="#5CE3A8"/>
<path transform="translate(308,1328)" d="m0 0h8l4 2 5 6 2 5-1 9-3 9-4 6-14 11-10 6-1 2 6 10 11 13 9 11 1 3h2l6 7 2 1-3-13 1-13 4-14 5-8h2v-2l5-3 6-1 6 2 6 5 2 6v7l-4 11-3 5-5 5-9 7-9 6h-3v4l3 1 2 5 4 2 5 5v2h2l9 11v2l4 2 3 3v2l4 2 4 5-1 9-4 25-11 49-9 33-9 26-7 15-6 15-5 11-2 9v14h2l3 5 15 9 13 6 12 7 16 7 13 4 29 5 19 2h16l12-2 10-5h3l-3 4-9 4-16 2-21-1-6-1-16-1-16-4-8-1-8-4-17-7-11-7-11-5-11-4-4-5-6-4-2-3-1-5v-8l3-15 5-10 5-15 4-10 2-1 2-7-1-4-13-2-7-6-5-9-10-4-6-3-8 1h-13l-8-4-4-3v-14l6-10 11-4 15-5-5-2-17-4-15-4-8-1-1 6h-2l-1 6-4 6-2 5-16 8-6 2h-10l-8-4-4-5-1-9 4-9 8-6 17-7v-2l-7-1-25-10h-5l-6 11-3 5-5 7-7 5-10 4h-13l-7-4-4-7 1-11 7-8 4-3 14-5 9-2h4v-3l-5-1-5-5-12-7-7-7-5 1-5 5-3 5-9 6-12 4-10 1-9-2-7-5-3-8v-6l5-7 6-4 5-2 8-1h19l8 1v-3l-6-2 1-2 3-1-4-13v-21l4-6 6-3h13l6 5 3 6 2 10-1 11-3 9-5 9-4 6 1 3 6 4 7 3v2h7l4 6 3 1-2-6-5-12v-18l6-8 5-2h11l7 5 5 9 1 8v14l-5 13-4 5 1 5 13 4 13 3 1 1 9 1 6 3-3-5-4-6-3-13-1-2v-13l4-9 5-4 2-1h10l6 4 5 5 2 3 3 14-1 9-5 14-4 10 14 2 16 4 14 4 8 1-6-7v-2h-2l-4-10-2-8v-16l6-8 7-2h8l6 3 3 2v-8l5-8 10-4h9l13 2 6 3-3-6-11-12-7-6-4-5v-2l-5-2-4 1-8 5-13 4-16 1-7-2-7-5-3-5-1-4v-7l2-5 6-5 4-2h23l2 2 4 1-8-11-8-9-5-11-7 1-12 6-5 2h-23l-8-4-5-6-1-11 3-7 5-3h22l7 3 7 2 8 6 6 4-2-4 1-3 2 4 2 1v-7l-1-2v-11l2-10 4-9 5-8zm4 91m-139 76m147 0 1 6 2 7-1 9-5 13-4 7 1 5 16 5 11 5 10 1-1-6-3-9-2-5-1-11 1-5-2-1h-4l-2-4 1-5 2-3-11-4-6-4z" fill="#D8F6E6"/>
<path transform="translate(658,1414)" d="m0 0h2v76l-1 22-1 7-1 19v46l1 3 1 14 1 1 4 25 4 13 2 8 3 4v2h3v2h3v2l4 1v2h3v2h3v2h3v2l4 1 8 6 3 1v2h3v2l5 1v2h3v2l5 1v2l5 1v4l-7 7h-39l-18-2-25-6-10-4-16-8-12-5-1-4 3-5 2-6v-19l-5-28-9-48-5-23-3-16-2-5-2-11-3-9-9-36-4-23v-12l44-4 8-2 9-1 13-3 19-4z" fill="#FAFAFA"/>
<path transform="translate(1051,364)" d="m0 0 5 2 3 10 4 24 4 9 5 6 1 6v17l5-1 3-10 1-9 3 1 3 7v9l-5 15-8 16-6 19-4 15-9 15-14 18-8 9-10 5-8 2h-13l-9-3-10-6-16-16-7-8-6-8-8-16-11-25-3-3v-2l-3-1-8-11-3-7-1-8 3-12 4-4 5 2 3 10 1 2h6l2-3v-9l-2-12 1-13 3-12 6-10 6-6 4-1 24 9 11 2h16l17-5 19-8z" fill="#888887"/>
<path transform="translate(394,1414)" d="m0 0 9 2 5 2 31 4 10 2 6 1 26 2 3 1-1 5-5 12-12 24-4 10-4 9-7 13-4 10-4 9-16 32-5 13-7 28-3 19v16l4 13 6 7 8 7 7 8 16 14 5 5-2 4-10 5-4 1h-21l-17-5-15-8-3-1v-2l-5-1v-2h-3v-2l-5-2-10-8-5-5-6-5v-2h-2l-5-9-5-10v-2h-2l1-7 3-8 11-33 6-21 11-53 8-47 5-19 8-20z" fill="#FAFBFA"/>
<path transform="translate(1667,753)" d="m0 0 2 1 11 55 7 18 7 23 5 26 3 23 3 41v82l-1 25 1 22v27l-3 23-3 13-8 16-8 14-5 5-5 1 1-6 8-18v-28l-2-14h-3l-5 23-2 4h-2l-4-40v-10l4-10 2-3 1-5v-33l-3-23-6-25-10-35-31-124-12-44v-5l8-3 46-15z" fill="#B4B4B2"/>
<path transform="translate(1021,1078)" d="m0 0h1l1 14 4 215 1 28 7 56 3 31-1 25-7 82v16l3 30 4 20 4 11 3 14 10 21 2 4-1 9-1 31-2-4 1-36-5-5-7-1h-15l-2-1-24-1-7-1-1-1-7-1h-8l-2 23-2 6h-1l1-10v-39l5-12 5-10 3-14 2-8 3-13v-37l4-130 6-104 7-138 2-42 2-7z" fill="#D5F2E3"/>
<path transform="translate(1235,716)" d="m0 0 4 2 6 6v2h2l7 8 16 17 10 10v3l-23 13-13 8-15 6-60 18-25 6-60 11-30 5h-2l-2 5-7 12-9 8-9 6-13 12-10 11-3 2h-4v-7l8-11 11-14 2-4-9 3-21 10-18 11-8 6-9 3h-7l-1-4 14-11 13-10 8-6 17-10h14l10-3 11-9 2-3-1-7-2-5-3-4 35-15 31-13 43-18 56-24 15-9 27-16z" fill="#B3B3B2"/>
<path transform="translate(1192,805)" d="m0 0 2 2 2 21 1 156-3 35-3 16-5 12-6 10-9 10-9 5-6 2h-4l1-5 9-8 8-16 1-3v-8l-4-15-3-1-3 18-3 8-3 3h-2l-1-4 1-12v-34l4-10 10-20v-9l-28-112-4-23v-3l31-7z" fill="#888887"/>
<path transform="translate(910,681)" d="m0 0h16l10 5 3 12 6 4 7 8 7 14 7 24 9 47 9 5v1l-21 1-30 10h-4l-9-14-10-13-9-10-9-11-9-10-6-8-10-17-6-13-1-8 5-6 15-10 13-6z" fill="#888887"/>
<path transform="translate(1352,430)" d="m0 0 3 3 8 16 7 10 7 6h7l8-8 4-5 2 1 2 24 5 25 4 10 3 2 7-1 12-8 1 2-5 25-2 15v20l-24 10-16 4h-15l-5-3-5-8-8-22-4-14-17-9-2-4 8-11 7-10 4-11v-17l-1-7v-15l4-17z" fill="#B3B3B1"/>
<path transform="translate(639,392)" d="m0 0h1v8l1 3 9 3h12l9-3 4-2 1-2h3l3 16v16l-5 14-1 10 4 10 3 9h2l3 6v7l-5 5-5 4-5 3-21 42h-16l-19-5-9-4-2-1 1-9 4-9 5-10 4-17v-27l-4-22-3-8v-7l3-7h2l2-6 11-11 6-5z" fill="#F8F8F8"/>
<path transform="translate(489,1428)" d="m0 0 70 1 5 32 6 27 10 37 2 9-1 4-13-5-9-4-15-8-16-7v-2l-5-1-8-5-11-6-8-5-8-4-5-3-9-6-5-3-2-4 13-28z" fill="#D6F3E4"/>
<path transform="translate(308,1328)" d="m0 0h8l4 2 5 6 2 5-1 9-3 9-4 6-14 11-10 6-1 2 6 10 11 13 9 11 1 3h2l6 7 2 1-3-13 1-13 4-14 5-8h2v-2l5-3 6-1 6 2 6 5 2 6v7l-4 11-3 5-5 5-9 7-9 6h-3v4l3 1 2 5 4 2 5 5v2h2l9 11v2l4 2 3 3v2l4 2 4 5-1 9-2 10-17 7h-16l-10-4-6-7-1-8 3-7 5-4 4-1h11l9 1 10 5 5 1-8-11-2-4-4-2-9-11-7-7v-2h-2v-2l-5-1-15 8-9 3h-17l-9-4-5-6-1-3v-8l3-5 4-3 5-2h12l9 2 8 4 6 2-1-4h-2l-11-14-12-17-3-5-6 1-11 6-10 4h-19l-9-5-4-6v-11l4-5 3-1 1-2h20l7 3 7 2 8 6 6 4-2-4 1-3 2 4 2 1v-7l-1-2v-11l2-10 4-9 5-8z" fill="#59E3A7"/>
<path transform="translate(838,1246)" d="m0 0h11l6 4 4 6v17l-3 11-11 20-7 9-7 8-4 5h-2l-2 4-7 7-6 5-5-2-9-7-14-12-16-16-10-13-6-12-2-6v-9l2-7h2l2-4 8-5 10 1 8 4 10 9 7 7 5 7 3-4 6-9 5-6 10-7 8-4z" fill="#D6F3E3"/>
<path transform="translate(132,1419)" d="m0 0h13l6 5 3 6 2 10-1 11-3 9-5 9-4 6 1 3 6 4 7 3v2h7l4 6 3 1-2-6-5-12v-18l6-8 5-2h11l7 5 4 7v23l-6 15-2 3v8h-5l-2 6-9 15-11 10-10 4h-9l-9-3-4-7 1-11 7-8 4-3 14-5 9-2h4v-3l-5-1-5-5-12-7-7-7-5 1-5 5-3 5-9 6-12 4-10 1-9-2-7-5-3-8v-6l5-7 6-4 5-2 8-1h19l8 1v-3l-6-2 1-2 3-1-4-13v-21l4-6z" fill="#59E3A7"/>
<path transform="translate(1795,1448)" d="m0 0h7l6 3 4 7 1 9-2 12-8 16-4 2-1 5 7-3 11-7 10-8 5-3 4 1-8 8-8 6-17 9-1 1h14l19 6 6 3 6 7 1 3v10l-4 6-8 4h-10l-12-6-5-5-6-7-8-14-3-2-12 5-12 4-14 6 4 2 16 6 8 7 3 5v9l-4 6-6 4h-13l-11-5-6-5-9-13-5-8-1-1h-7l-17 4v5h-1v-7l-2-14v-17h1l2 25h8l18-4-4-10-4-9-2-7v-13l2-9 5-7 7-3h11l5 4 3 5v17l-6 16-4 6-5 3-2 5 23-6 12-4 8-3 8-2-1-7-7-17-1-5v-10l2-10 7-8z" fill="#64E4AC"/>
<path transform="translate(980,1582)" d="m0 0h2l-1 7-8 16-2 5-1 8v40l-5 10-5 6-4 1v2l-9 5-11 5-5 1h-11l-16-6-6-7-2-3v-16l5-19 9-25 3-7 5-16 2-5 7 2 4 2 12 2h16l12-3 8-4z" fill="#FAFAFA"/>
<path transform="translate(1453,553)" d="m0 0h2v36l3 18 6 12 6 4 3 1h9l10-3 9-6 7-6 1-2 3 1 4 5 11 5 1 4-14 15-10 9-13 8-12 5-15 3h-10l-14-3-12-5-13-9-13-13v-3l5-4 2-7v-26l16-17 6-7 14-7 7-6z" fill="#B3B3B1"/>
<path transform="translate(1047,1618)" d="m0 0 6 2 10 3 22-1 10-1h15l4 13 5 11 5 15 3 7 4 15v20l-6 8-12 5-6 2h-11l-14-5-10-6-5-5-5-4-5-12v-42l-2-8-8-15z" fill="#F9FAF9"/>
<path transform="translate(962,805)" d="m0 0h39l7 1v2h-28l-8 1h-16v3l19-1h39l6 2 2 1v2h3v2l3 1-3 1-22-2h-12l-17 1h-13v4l27-2h21l19 3 1 3-3 3h-11l-20-2-24 4h-6v3l25-4h14l16 3-5 5-3 1h-19l-13 5-10 5-14 4h-18l-22-5-30-1-10-1-49-2 1-5 7-22 3-9 5-1 46 13 11 3h7l20-7z" fill="#F5F6F5"/>
<path transform="translate(232,1468)" d="m0 0h12l5 4 3 3 3 5 1 7v13l-6 16-4 10 11 2 21 5 28 7-3-5v-2l-4-2-1-4h-2v-2h-2l-5-16v-16l3-4h2v-2l6-2h8l8 7 3 5 1 4v17l-5 13-5 11 10 3 12 4 10 5 11 4 1 1v5l-3 1-16-8-15-6-4-1-10 17-4 6-9 6-6 3-11 1-6-2-6-5-1-2v-10l4-6 4-2 3-3 11-5 17-3-15-5-30-8h-10l-6 10-5 9-5 5-9 6-6 2-9 1-10-6-2-5v-7l2-5 8-7 15-6 13-2-8-3-23-8-11-5 3-1 23 8 9 2 18 5-6-8-2-1v-2h-2l-3-5-5-12-2-11 1-11 5-5h2z" fill="#59E3A7"/>
<path transform="translate(1606,781)" d="m0 0 2 1 6 25 4 15 10 36 9 37 6 26 11 41 9 32 4 22 2 21v18l-2 11-5 5-8-43-6-23-10-26-9-20-12-26-10-19-2-17-2-23v-23l-2-39v-18l3-9z" fill="#D4EFE1"/>
<path transform="translate(1219,208)" d="m0 0h12l5 6 1 2v11l-4 14-7 14-6 8-3 5-5 5-11 12-10 10-5-2-3-2v-2l-5-2-10-10-5-4v-2l-4-2-11-12-6-8-6-10-2-6-1-8 2-6 6-7 3-1h7l8 4 8 6 5 6 4 4 7 10h3l6-12 7-9 6-5 10-6z" fill="#D7F5E5"/>
<path transform="translate(1548,1480)" d="m0 0h8l6 3 6 9 2 9v22 2l5-7 5-9 7-11 12-15 2-3h2l6 21 3 16 18 76 2 7 2 4v8h-1l-2-11-5-1-8-7-11-14-7 1-18 11-6-1-2-4 9-6 8-4 10-6 1-5-2-5-1-7-16-5-9-3h-5l-5 8-5 12-3 1-3-2-1-5 10-19-2-5-8-7-2-4-8-7-5-12-1-12 4-8z" fill="#62E3AB"/>
<path transform="translate(1278,1622)" d="m0 0 8 1 14 3h21v8l-4 21-3 22h-2v2l-5 1v2l-5 1v2l-6 3-8 5h-3v2l-6 2v2l-6 3h-2v2l-7 4-10 5-1 2-12 6-7 3-9 2h-16l-9-2-4-3 6 1 11 2h7l13-2 16-8-8-3h-7l-1 1h-6l2-4 8-1 4-6-2-5-2-2v-9l-5-1 1-3 10-6 16-16 1-3h2l1-5 1-2h2l1-6 7-15zm-25 88-1 2 3-1z" fill="#F8F8F8"/>
<path transform="translate(691,976)" d="m0 0h2l12 55 2 7 3 13 2 5 2 9v26l-1 4-2 22-3 21-4 12h-2l-1 5h-3v-17l1-7v-10l-5-19-2-7-1-6-7 2-2 2-4 16-3 9-2 3h-2l-1-4v-13l5-29 8-32v-10h-2l-5-9-4-6-3-6v-2h-2l-1-5h-2l-1-5h-2v-14l22-6z" fill="#F6F6F6"/>
<path transform="translate(1685,1280)" d="m0 0 7 1 6 5 7 12 4 14 1 12 1 4 3-1 2-5 4-5 5-4 11-6 5-3 6-2h10l8 6 2 4v9l-5 8-9 6-9 2h-14l-20-4-1 8-3 9-2 5-1 7 4 2v3l14-2h13l6 2 5 4 3 7-1 8-4 6-8 4-5 1h-17l-13-5h-3l1 26-2-3-1-4v-32l-4-41-2-11-4-30-1-7v-8z" fill="#61E1A9"/>
<path transform="translate(1671,342)" d="m0 0h9l8 3v2h-2l-1 4 3 7 8 11 6 8 4 7 11 18 7 11 4 8 10 18 4 3h-2v2l-6 4-3 3-4-1-10-8-13-11-10-9-12-12-8-10-3-3-2-5h-2l-6-11-4-8-1-11 2-9 4-6 6-4z" fill="#D8F5E5"/>
<path transform="translate(890,647)" d="m0 0h21l13 3 9 5 4 5 7 24-1 9h-2l-2-9-6-4-9-2h-13l-14 3-9 4-4 2h-4v2l-8 4h-2v2l-7 4-5 5-1 8 4 11 1 4h-6l-3-3v-2h-2l-4-8-6-16-3-9v-7l1-4h2v-3l7-6h2v-2l4-1v-2l13-8 12-6z" fill="#F8F8F8"/>
<path transform="translate(798,779)" d="m0 0h8l5 4 10 5 10 4 5 4v9l-4 15-2 4-2 8-3 9-7 14h-2v2l-2 1h-16l-12-3-8-4v-2l-3-1-1-2v-8l7-21 5-12 4-8 3-8z" fill="#F8F9F8"/>
<path transform="translate(1795,1448)" d="m0 0h7l6 3 4 7 1 9-2 12-8 16-4 2-1 5 7-3 11-7 10-8 5-3 4 1-8 8-8 6-17 9-1 1h14l19 6 6 3 6 7 1 3v10l-4 6-8 4h-10l-12-6-5-5-6-7-4-7-2-6-2-5h-5v-7l-3-7-2-1-4-10-1-5v-10l2-10 7-8z" fill="#65E4AD"/>
<path transform="translate(1838,1418)" d="m0 0 9 1 6 5 3 6v16l-2 10v5l1 4-2 5h29l8 3 6 4 3 5 1 2v7l-4 6-6 5-3 1h-14l-10-4-12-9v-2h-2l-7-7-6-1-1-6-8-13-4-14v-10l2-9 5-6z" fill="#63E4AC"/>
<path transform="translate(238,1366)" d="m0 0h2l-1 3-4 2-2 3v11l4 6 8 4h19l13-5 8-5 6-1 3 3 5 9 12 16 6 7v2h2l1 4-7-2-10-4-6-1h-12l-8 4-3 5v8l3 5 3 4 8 3h17l13-5 11-6 5 2v2h2l7 8 9 10 7 8 7 9v2h-5l-10-5-9-1h-11l-7 3-3 5-1 5 2 8 6 5 8 3h16l12-5h3l1-2 1 3-3 17-10 45-2 3-3-3-13-5-8-4-18-6-2-1 1-5 5-10 3-9v-17l-3-8-8-7h-8l-6 1v2h-2l-2 4v16l4 12v4h2v2h2l3 5 4 4 1 4-9-1-9-3-15-3-24-6-3-1 1-5 6-16 2-5v-13l-1-7-3-5v-2l-5-2-2-2-12-1v2l-6 5-1 14 4 14 3 6 2 2v3h2v2l4 2 4 5v2l-8-1-13-4-8-2-21-7v-2l7 1 16 4 1 1 9 1 6 3-3-5-4-6-3-13-1-2v-13l4-9 5-4 2-1h10l6 4 5 5 2 3 3 14-1 9-5 14-4 10 14 2 16 4 14 4 8 1-6-7v-2h-2l-4-10-2-8v-16l6-8 7-2h8l6 3 3 2v-8l5-8 10-4h9l13 2 6 3-3-6-11-12-7-6-4-5v-2l-5-2-4 1-8 5-13 4-16 1-7-2-7-5-3-5-1-4v-7l2-5 6-5 4-2h23l2 2 4 1-8-11-8-9-5-11-7 1-12 6-5 2h-23l-8-4-5-6-1-11 3-7zm74 53m8 76 1 6 2 7-1 9-5 13-4 7 1 5 16 5 11 5 10 1-1-6-3-9-2-5-1-11 1-5-2-1h-4l-2-4 1-5 2-3-11-4-6-4z" fill="#D9F6E6"/>
<path transform="translate(661,1567)" d="m0 0 1 2 6 1 9 3 10 3 18 6 18 4 5 2 10 2 9 3 10 2 16 4 2 2 4-1 21 4v1l-15-1-2-1h-10l-8-3-9-3-21-3h-5l-3 5-10 8-10 7-22 12-5 5-1 2-4-1-2 9 7 9 2 4 5 2 6 5h-3l-4-2v-2l-6-2v-2l-3-1v-2l-4-1-2-5-2-10-5-22-4-28v-16z" fill="#FBFBFB"/>
<path transform="translate(288,1280)" d="m0 0h9l7 4 4 9-1 9-5 10-6 7-7 5-17 8-3 2v-2l-12 2-9 2h-14l-11-4-5-3v-2h-2l-4-8v-9l8-8h11l12 4 5 4 5 3v2l4 2 5 7v2l4 2h1l1-8 2-13 3-9 5-9 4-5z" fill="#59E3A7"/>
<path transform="translate(176,1449)" d="m0 0h7l8 4 5 5 1 2v23l-6 15-2 3v8h-5l-2 6-9 15-11 10-10 4h-9l-7-4-4-6v-10l4-5h2v-2l12-6 15-4 15 1 2 1-6-6 5 1 3 1-6-8-4-4-7-16-1-18 3-5 4-4z" fill="#59E3A7"/>
<path transform="translate(382,294)" d="m0 0h15l10 7 4 7 1 5v16l-2 10-3 10-7 16-8 13-12 16-8 10-11 12-4 5-5 4-4 5-11 9-4-1-20-15v-2l-4-2-15-14-3-2v-2h-2l-5-5v-2h-2v-2h-2l-7-8-11-13-7-11-6-10-4-11-1-5v-11l4-10 7-8 5-4 5-2h12l16 8 14 12 2 4h2v2h2l11 14 1 2h3l6-12 6-8 11-11 9-7 13-6zm0 5-15 6-8 5-13 12-8 10-7 14-1 4-3 1-7-10h-2l-2-4-3-5h-2v-2h-2l-2-4-9-9-11-8-9-4-4-1h-7l-7 3-5 5-4 6-2 6v10l4 13 5 9 7 11 12 14 1 2h2l2 4 16 16h2v2l11 9 10 9 9 7 3 2h5l12-11 12-12 11-14 10-12 11-17 8-16 4-13 2-18-2-10-4-6h-2v-2l-5-2z" fill="#656E71"/>
<path transform="translate(1192,704)" d="m0 0h2v33h-3v2l-11 5-11 4-10 5-10 4h-8l-10-5-1-6v-28h2v-3l10 1v2h19v-2l17-5 9-4z" fill="#F7F7F7"/>
<path transform="translate(1685,1280)" d="m0 0 7 1 6 5 7 12 4 14 1 12 1 4 3-1 2-5 4-5 5-4 11-6 5-3 6-2h10l7 6 2 5v6l-4 8-11 7-8 2h-11l-23-5-1 5-1-4-5-2-10-5-3-3-5-32v-8z" fill="#59E2A7"/>
<path transform="translate(943,494)" d="m0 0h2l6 14 7 10 5 12 12 27 1 4h2l2 6-4-2-11-9-5 1-6 7-16 14-5-1-2-2 1-31 3-34 1-7h2l1-5h2z" fill="#F8F8F8"/>
<path transform="translate(871,744)" d="m0 0 12 15v2h2l7 8v2h2l9 11 11 13 10 15 1 4-10 4-9 3-9-1-19-5-1-1-6-59z" fill="#60E3AA"/>
<path transform="translate(1766,334)" d="m0 0h16l6 4 5 5 2 8v12l-4 17-8 16-6 10-10 13-9 11-12 13-3 1-4 6-8 6-4-1-6-4-14-11v-2l-4-2-10-9-8-8v-2l-4-2-10-11-12-18-3-5-4-13-1-6 3-9 6-9 8-5 13 1 9 4 4 3 5 2 12 11 9 12v2l3-1 6-11 9-11 10-8 10-6zm5 4-11 3-10 6-12 11-7 8-7 15h-4l-2-5-14-17-8-7-5-4h-3v-3l-8-3h-9l-6 3-5 5-3 6-1 9 1 8 8 15 2 4h2l2 5 7 8 12 13 5 5 13 12 11 9 9 7 4-1 6-5 2-1v-2h2v-3h2l5-5v-2h2l9-11v-2h2l11-15 8-14 6-13 2-6 2-16-2-9-4-5-7-3z" fill="#898E8E"/>
<path transform="translate(966,528)" d="m0 0h2l7 8 11 9 12 6 6 1h12l12-3 10-6 9-11 1 3-6 16-11 20-9 10-6 3h-12l-8-4-8-7-9-16-13-27z" fill="#888887"/>
<path transform="translate(680,927)" d="m0 0h7l5 12 5 21v9l-1 2-10 4-12 5-11 3h-3l-1-6-1-18v-25l18-6z" fill="#F6F6F6"/>
<path transform="translate(1649,1631)" d="m0 0h1l2 9 1 11 1 2 1 11 1 3v-8l-1-2v-11h1l2 12 1 11 3 9 14 8 12 7 28 18 19 9 5 2 10 2h11l12-3 3-2-3-7-7-8-2-1v-2l-4-2-17-13-7-5v-2l-4-2-10-9-5-5-7-9-7-15 1-2 1 1 2-3 7 16 8 10 8 8 13 10v2l5 2 14 11 12 11 6 8 2 6v10l-4 5h-7l6-7-14 2h-14l-10-2-15-6-16-9-21-13-9-6-11-6-6-3 3 11 1 3 11 3 12 9 14 10 14 7 11 4 7 2v1h-14l-12-5-11-6-14-10-9-7-11-3-3-3-2-4-2-9-4-32-2-13-1-2z" fill="#787E7F"/>
<path transform="translate(1068,500)" d="m0 0 2 1 5 16 7 36 3 19v9l-7-1-7-9-2-1-3-5-6-8v-2h-2v-3l-4-1-5 3-9 11v-3l9-21 3-8 1-9 5-6 1-3h2l2-6h2z" fill="#F5F5F5"/>
<path transform="translate(1323,1634)" d="m0 0h1l-1 10-2 11-1 12-1 3-2 17-2 10-4 6-5 2-8 2-11 9-6 4-13 8-14 6h-16l2-2 7-2 13-5 11-6 19-13 6-5 11-3 3-4 1-8-7 3-10 6-13 8-7 5-14 7-10 6-18 7-6 1h-18l-12-3 3 5 3 3h-7l-4-5v-10l5-10 9-10 16-13 9-7h2l-2 4-1 1 2 2h-2v2l-14 10-4 3h-2v2h-2l-2 4-3 1-2 4-4 10 11 2 2 1h16l15-4 10-6h3l1-3 12-6 2-2h3v-2l5-3h3v-2l3-2h3v-2l11-6 6-2v-2l5-1v-2l5-1v-2h2l1-17 2-7 3-2 2-15z" fill="#3D4B51"/>
<path transform="translate(75,1390)" d="m0 0h12l9 6 8 14 3 7v9l-1 2-1 11-3 5-12-6-10-6-9-11-5-9-1-4v-7l2-6z" fill="#5DE3A9"/>
<path transform="translate(1222,203)" d="m0 0 9 1 6 4 4 7v14l-4 14-6 12h-2l-1 4-9 13-3 3-2 3h-2v2l-20 20-5-1-9-7v-2l-5-2-16-15-9-9-12-16-5-10-2-7v-9l4-8 7-6 8-2 9 3 12 8v2l4 2 7 8 4 5 7-11 10-10 10-6 6-3zm-3 5-7 3-9 5-5 5-9 13-3 7h-3l-7-10-5-5-4-5-11-8-5-2h-7l-5 3-5 6-1 6 2 10 5 10 6 8 11 13 4 4h2l2 4 5 5 7 5 4 4h2v2l6 4 4-2 16-16 6-8 3-3 5-6 5-9 6-12 3-12v-11l-4-6-2-2z" fill="#2B3A41"/>
<path transform="translate(504,406)" d="m0 0h3l-1 7-3 10v12l5 21 8 25 3 14v17l-6 12-11 10-17 12-12 11-7 8-8 13-6 14-3 13v19l4 15 11 25 3 10-1 5-4-1-3-12-11-25-4-13-1-7v-14l3-14 5-13 8-15 9-10 6-7 14-11 11-8 10-9 4-8 1-12-3-16-11-36-3-17 1-11 4-11z" fill="#A8A8A6"/>
<path transform="translate(1891,1390)" d="m0 0h13l5 3 3 4 1 9-3 9-4 6-7 9-10 7-13 6-2-2v-28l4-10 6-8 5-4z" fill="#63E4AC"/>
<path transform="translate(367,1394)" d="m0 0 5 3 1 3 4 2 3 3 10 6-1 7-3 7-2 4-4 4-4 6-2 6h-1l1-10-4 2-2 4h-10l-8 2-2-1-2 3-3-5-5-5-2-3 3-1-3-2 7-4 10-6 3-1 2-5h2l1-5 3-5zm-22 31-2 2 3 1zm4 4-1 3h3l-1-3zm-7 3-2 1 2 5 4-1-1-5z" fill="#FBFBFB"/>
<path transform="translate(328,1351)" d="m0 0 4 2 11 14 5 5v2l-9 3-2 4h-2l-1 5-3 5-4 16-1 9-5-1-7-14-4-4-6-2-1-3-3-1 2-5 3-6-4-1 8-4 5-4h2v-2h2l2-4 5-7z" fill="#FDFDFD"/>
<path transform="translate(259,1224)" d="m0 0 10 2 4 4v2h2l2 5v17l-4 9-10 14-5 5-2-2v-4h-2l-6-12-2-13v-12l3-7 1-2h2l2-4z" fill="#59E3A7"/>
<path transform="translate(838,1246)" d="m0 0h11l6 4 4 6v17l-3 11-11 20-7 9-7 8-4 5h-2l-2 4-7 7-6 5-5-2-9-7-14-12-16-16-10-13-6-12-2-6v-9l2-7h2l2-4 8-5 10 1 8 4 10 9 7 7 5 7 3-4 6-9 5-6 10-7 8-4zm-1 4-12 6-10 9-6 8-4 9v2l-3-1-6-8-9-10-9-8-9-4h-6l-5 3-5 5-1 3v11l4 10 9 13 12 13 10 10 11 9 10 8 8-6 5-5 10-11 9-12 7-11 7-15 2-9v-9l-3-7h-2v-2l-2-1z" fill="#1B2D35"/>
<path transform="translate(1711,1225)" d="m0 0h8l7 3 5 9v20l-3 11-7 12-3 1-10-12-5-10-3-11v-7l3-9 5-5z" fill="#59E3A7"/>
<path transform="translate(364,1497)" d="m0 0 4 1-1 11-11 49-2 3-3-3-13-5-8-4-18-6-2-1 1-5 5-10 3-9v-18l3 1 2 7-1 9-5 13-4 7v4l16 5 11 5 10 2-4-11-3-9-1-11 1-5h-5l-3-5 1-5 2-2-3-2 16-1 9-3z" fill="#DBF6E8"/>
<path transform="translate(132,1419)" d="m0 0h13l6 5 3 6 2 10-1 11-3 9-5 9-4 6 1 3 6 4 7 3v2h7l4 6 3 1-2-6-5-12v-18l6-8 5-2h11l7 5-1 2-6-4-3-1h-7l-5 3-3 3-1 3 1 18 7 16 1 3 4 2 4 5v2l-7-1 5 3v2l-17-1-18 5-7 4h-2v2l-5 5v10l4 7h-3l-4-7 1-11 7-8 4-3 14-5 9-2h4v-3l-5-1-5-5-12-7-7-7-5 1-5 5-3 5-9 6-12 4-10 1-9-2-7-5-3-8v-6l5-7 6-4 5-2 8-1h19l8 1v-3l-6-2 1-2 3-1-4-13v-21l4-6zm2 1-7 3-4 6v18l3 9 3 8 5 8-2 1h2l-1 2-12-4-7-1h-11l-11 2-9 5-3 4-1 7 3 8 5 4 5 2h11l14-5 13-12 6-6 4-1 3-7 5-7 3-7 2-4 1-16-2-8-4-6-5-3z" fill="#D5F5E4"/>
<path transform="translate(1138,859)" d="m0 0 2 3 4 16 17 66 3 14v9l-11 21-1 3h-2l-1-7-3-39-6-60v-9l-2-10z" fill="#CFE8DB"/>
<path transform="translate(590,1707)" d="m0 0 18 4 23 4 58 7 31 3h15l16-2 7-2h5l-1 3h-2v2l-6 3-5 1h-41l-66-6-34-1-9-3-6-3-3-6z" fill="#EAEBEA"/>
<path transform="translate(619,615)" d="m0 0 3 1 6 15 8 28 5 24-1 2-7-9-17-26-13-19-8-9v-2l17-2z" fill="#66E3AD"/>
<path transform="translate(1580,1425)" d="m0 0h8l4 6 10 43h-2l-1 3-5-2-10-6-4-3v-2h-2l-6-9-3-7v-11l4-8z" fill="#5BE2A7"/>
<path transform="translate(661,833)" d="m0 0 13 2 1 1 5 39-12 6-8 3-5-1v-17l5-32z" fill="#67E3AD"/>
<path transform="translate(341,1571)" d="m0 0h10l-1 9-5 16-3 8-3 1h-12l-9-6-3-7v-6l4-6 5-4 7-3z" fill="#5BE3A7"/>
<path transform="translate(316,1549)" d="m0 0 15 5 19 9 4 2-2 5h-11l-16 4-7 5h-2l-2 5-6-1-4-3-4-2 3-8 12-20z" fill="#FCFCFC"/>
<path transform="translate(1668,339)" d="m0 0 13 1 9 4 7 4 2 5-8-4-3-1v-3l-5-1-3-1h-9l-6 3-3 1-2 4-2 5-1 9 1 8 8 15 1 4h2l3 5v2l3 1 9 11 8 8v2l4 2 12 11 11 9 9 7 4-1 6-5h2v-2h2v-3h2l2-4 3-1v-2h2l2-4 2-2h3l1-3 1 2-3 4h-2l-2 4-4 4-1 4-5 3-4 6-8 6-4-1-6-4-14-11v-2l-4-2-10-9-8-8v-2l-4-2-10-11-12-18-3-5-4-13-1-6 3-9 6-9z" fill="#2B3B41"/>
<path transform="translate(341,1569)" d="m0 0h9l2 1-1 3v-2l-15 2-10 3-6 4-4 6 1 10 5 5 5 3h15l-4 13-7 15-6 15-5 11-2 9v14h2l3 5 15 9 13 6 12 7 16 7 13 4 29 5 19 2h16l12-2 10-5h3l-3 4-9 4-16 2-21-1-6-1-16-1-16-4-8-1-8-4-17-7-11-7-11-5-11-4-4-5-6-4-2-3-1-5v-8l3-15 5-10 5-15 4-10 2-1 2-7-1-4-13-2-7-6-5-9-10-4-6-3-5-1 4-4 6-4 3-1-1 5 10 5h3l2-4 9-6z" fill="#DAF6E7"/>
<path transform="translate(1496,912)" d="m0 0 4 1 3 21 3 74 1 16 7-10 3-7 2-38 2-1 2 1v35l-2 8-7 12-7 10-4 1-1-1-1-13-3-74-1-17-2-17z" fill="#A9A9A7"/>
<path transform="translate(668,884)" d="m0 0h3l4 15 5 22v3l-17 5-6 1-2-39 1-3 10-3z" fill="#64E3AC"/>
<path transform="translate(661,1007)" d="m0 0 3 3 2 6h2l5 9 6 10v2h2l-1 8-8 32-3 18-2-2-2-16-4-66z" fill="#D1ECDD"/>
<path transform="translate(605,1109)" d="m0 0h3l-1 11-12 53-17 67-14 48-11 33-1 2h-3l1-8 12-36 14-50 10-38 15-65z" fill="#1A2C34"/>
<path transform="translate(320,1673)" d="m0 0 4 2 11 8 3 1v2l4 1 10 6 16 8 11 4 22 6 24 5 24 3h9l16-5 5-2-1 3-5 3h-2v2l-6 2-7 1h-18l-28-3-25-5-13-5-14-7-9-5-17-9-6-4-5-5v-2h-2z" fill="#E0E1E0"/>
<path transform="translate(382,294)" d="m0 0h15l10 7 4 7 1 5v16l-2 10-3 10-2 5-6 6 2-10 4-13 2-18-2-10-3-5-2-1v-2l-5-1h-13l-15 6-8 5-13 12-9 12-5 11-2 5-3 1-7-9 1-2 6 8 2-1v-4l-4-1 3-2 6-12 6-8 11-11 9-7 13-6z" fill="#646E71"/>
<path transform="translate(1764,1308)" d="m0 0 3 4v9l-5 8-9 6-9 2h-14l-20-4-1 8-3 9-2 5-1 7 4 2v3l13-1-2 2-10 2-9 5h-2v2h-2l-4-39-2-11v-5l10 6 8 4 1 1 1-2 12 2 11 2h11l10-3 7-5h2l2-6 1-2v-6z" fill="#D0F0E0"/>
<path transform="translate(302,1313)" d="m0 0 4 4 5 7-3 3-7 4-6 8-3 5-2 13-3 7-4-1-1-6h-2l-3-8-2-7-2-3-1-5 16-9h4v-2h2v-2l5-4h2z" fill="#FCFCFC"/>
<path transform="translate(630,386)" d="m0 0 4 1-3 5-10 9-14 9-11 4-28 5-5 1 9 31-2 4-3-2-7-22-1-8-7 4h-2v2l-5 5-6 9-3 3-2-1 1-6 7-10 7-7 14-7 11-3 19-3 11-4 12-7 10-9z" fill="#A8A8A6"/>
<path transform="translate(1706,1635)" d="m0 0 3 4 5 12 8 10 8 8 13 10v2l5 2 14 11 12 11 6 8 2 6v10l-4 5h-7l6-7h-35l-2-1v-2l7 1h18l1-2 10-3-2-6-7-9-3-2v-2l-4-2-17-13-7-5v-2l-4-2-10-9-5-5-7-9-7-15 1-2 1 1z" fill="#5E676A"/>
<path transform="translate(1601,1489)" d="m0 0 5 1 3 11 2 16-8 1-13 5-8 6-4 2v2h-2v2h-2l2-9 6-9 7-12 10-14z" fill="#FAFAFA"/>
<path transform="translate(570,465)" d="m0 0h4l1 2v15l-3 14-7 16-10 13-12 13-8 9-7 14-1 4-1 20h-4l-1-2v-16l3-11 5-10 5-7h2l2-4 13-13 10-14 5-11 3-12z" fill="#A7A7A6"/>
<path transform="translate(637,648)" d="m0 0 3 3 8 16 9 21 8 24 2 11-5-2-15-23-2-8-4-22-4-17z" fill="#ADADAB"/>
<path transform="translate(1701,1261)" d="m0 0 1 2h2l3 7 10 13v9l-3 15-2 8-2-2-1-12h-2l-6-12-1-4-4-1v-3h-2v-2h-2l1-5 6-11z" fill="#FDFDFD"/>
<path transform="translate(615,345)" d="m0 0h6l1 3-3 2-32 4-14 3-14 5-15 9-11 9-7 8-2 5h-4l1-7 7-9 12-10 13-8 11-5 14-4 19-3z" fill="#A7A7A6"/>
<path transform="translate(1323,1634)" d="m0 0h1l-1 10-2 11-1 12-1 3-2 17-2 10-4 6-5 2-8 2-11 9-6 4-13 8-14 6h-16l2-2 7-2 13-5 11-6 19-13 6-5 11-3 3-4 1-8-9 3v-2l3-2h4v-2h3v13l-6 6h4v-2h2l2-8 1-10 1-1 1-14 1-3 1-12 1-1 2-15z" fill="#AFB1AF"/>
<path transform="translate(1586,1474)" d="m0 0 6 1v2l5 1v3l-2 5-3 1-1 5-7 9h-2l-2 6-6 10-2 1-1-15-1-10 4-4h2l2-5 5-6z" fill="#FDFDFD"/>
<path transform="translate(354,1513)" d="m0 0h10v9l-6 27-4 2v-2h-2l-5-13-2-7 1-7 6-8z" fill="#5DE3A9"/>
<path transform="translate(607,1159)" d="m0 0 3 1-2 13-11 52-10 39-7 21-4 1 2-9 7-23 10-41 9-43z" fill="#1A2C34"/>
<path transform="translate(325,1354)" d="m0 0 1 4-8 11h-2v2l-6 4-5 3-4 1v2l-5 1 4 6 1 3 4 4 6 2 5 5 6 13 4 1v-9l2-10 4-10 3-6 7-6h3v2l-5 2v2l-3 2-4 8-3 12-1 13 2 13-4-2-4-4v-2h-2l-9-11-11-13-8-13 3-4 9-5 10-8 4-3 5-9z" fill="#D8F6E6"/>
<path transform="translate(1767,335)" d="m0 0h17l8 7 3 9v12l-4 17-8 16-6 10-10 13-9 11-8 9-2-3 6-5 5-6-3 1 2-4 2-3h2l2-4 10-14 6-11 9-18 2-8v-13l-4-9-4-3-4-1h-14z" fill="#535D61"/>
<path transform="translate(895,1645)" d="m0 0h1l1 11v16l6 8 8 4 9 3h11l10-3 4-1 4 1h3v-2l6-4 3 1-5 4-9 4-6 5-13 3-7-1-11-5-12-5-4-6-3-2-1-6 2-15z" fill="#4D595F"/>
<path transform="translate(273,1265)" d="m0 0h2l5 9 2 2v7l-4 2-2 6-3 3-3 7h-7l-2-5-1-13 8-10 2-4h2z" fill="#FDFDFD"/>
<path transform="translate(132,1419)" d="m0 0h13l6 5 3 6 2 10-1 11-3 9-5 9-3 4h-2l2-5 3-4 3-7 2-4 1-16-2-8-4-6-4-2h-9l-6 2-4 6v18l3 9 3 8 4 6 1 6-11-3-10-2h-11l-11 2-9 5-3 6 1 8 3 5 8 4h11l9-3h3v2l-9 3-10 1-9-2-7-5-3-8v-6l5-7 6-4 5-2 8-1h19l8 1v-3l-6-2 1-2 3-1-4-13v-21l4-6z" fill="#D8F6E6"/>
<path transform="translate(558,932)" d="m0 0 3 1 4 21 7 53 3 35v7h-4l-4-44-5-40-4-26z" fill="#1A2C34"/>
<path transform="translate(323,1644)" d="m0 0h2l-1 4-5 14-1 5v14h2l3 5 15 9 13 6 12 7 16 7 13 4 29 5 19 2h16l12-2 10-5h3l-3 4-9 4-16 2-21-1-6-1-16-1-16-4-8-1-8-4-17-7-11-7-11-5-11-4-4-5-6-4-2-3-1-5v-8l3-15z" fill="#C3C6C3"/>
<path transform="translate(626,590)" d="m0 0 7 4 11 9 10 9v2l-5 1-26-3 2-11z" fill="#68E2AD"/>
<path transform="translate(563,698)" d="m0 0 5 3 8 6 15 8 17 5 20 3 18 1v4h-19l-19-3-14-4-12-5-12-7-8-7z" fill="#1A2C34"/>
<path transform="translate(364,1497)" d="m0 0 4 1-1 11-4 2-10 1-6 1-1 6-2 2-1-4-5-1-2-4 1-5 2-2-3-2 16-1 9-3z" fill="#FAFAFA"/>
<path transform="translate(267,300)" d="m0 0h8l11 3 11 7 12 11v2h2v2h2l11 14 2 4 5-1-1 6-3 2-6-8-3-1-5-7v-2h-2v-2h-2l-7-8-9-8-6-4-3-3-7-3-8-1-9 2 4-4z" fill="#4B575C"/>
<path transform="translate(337,1426)" d="m0 0m-1 1m-1 1h1l2 6 5 5 3 4v2h3l7 8 3 3 4 6 3 2 3-2 2-13 1-4h2l1-6 7-10 1 2-6 19-4 24-2 1-5-6-10-10-8-9v-2h-2l-7-8-7-7v-4z" fill="#DCF6E8"/>
<path transform="translate(692,1111)" d="m0 0h2l3 11v7l-1 5-8 5-10 4 2-5 1-2h2v-4l-8 1 2-4 7-3h2v-4l-5-1v-2h-3v-2l11-2 1-2h2z" fill="#E9EAE9"/>
<path transform="translate(379,298)" d="m0 0h18l3 3-5-1h-13l-15 6-8 5-13 12-9 12-5 11-2 5-3 1-7-9 1-2 6 8 2-1v-4l-4-1 3-2 6-12 6-8 11-11 9-7 3 1-2 2 5-2 8-4z" fill="#7B8283"/>
<path transform="translate(246,1235)" d="m0 0 1 4v12l2 13 5 10v2h2l2 5 5-5 7-9 2-1v3h-2l-2 6-7 8 1 13 1 5 7-1 3-2-4 19v8l-1 3-1 2-5-4-6-9-3-2v-2l4 2 3 3 1 3 3 1 2-9 2-6-1-4-3 9-2-3-3-10-2-13-4-9-6-10-2-9-1-14z" fill="#D9F6E6"/>
<path transform="translate(569,909)" d="m0 0 3 1 7 28 6 32 2 18v13h-3l-2-18-3-21-7-34-4-16z" fill="#1A2C34"/>
<path transform="translate(989,866)" d="m0 0h3l2 5-1 6-1 2v8l3 3 5 1 1 4v8l-4 1-6-7-12-23 2-4z" fill="#888887"/>
<path transform="translate(1419,931)" d="m0 0h2l-1 6-11 14-9 10-9 8-11 7-4 2h-5v-4l12-6 10-8 11-11 13-17z" fill="#A8A9A7"/>
<path transform="translate(224,1477)" d="m0 0h1v12l4 14 3 6 2 2v3h2v2l4 2 4 5v2l-8-1-13-4-8-2-21-7v-2l7 1 16 4 1 1 9 1 6 3-3-5-4-6-3-13-1-2v-13z" fill="#DBF6E7"/>
<path transform="translate(1687,1698)" d="m0 0 4 1 6 3-2-3 5 2 16 10 19 9 5 2 10 2h16l-1 2h-18l-7-2v2l30 1v1l-7 1h-14l-10-2-15-6-16-9-21-13z" fill="#5C6568"/>
<path transform="translate(1563,771)" d="m0 0h3l1 3-4 12-6 11-11 14-14 14-7 6h-4l1-4 3-1v-2l8-7 10-10 10-13 7-14z" fill="#1A2C34"/>
<path transform="translate(1696,1284)" d="m0 0 4 1 7 14v2h2l2 12 3-9 2-8 2-3 1 1-1 13-2 10 5-2 3-3 16-9 5-2h14l5 5-1 2-6-5h-10l-10 4-9 6-5 3-5 5-4 6h-2l-1 3-1-2-1-3-2-18-4-11z" fill="#D7F4E4"/>
<path transform="translate(1561,928)" d="m0 0 5 1 18 12 15 7 13 3 7 1 1 4-1 1-11-1-11-3-19-9-14-10-3-3z" fill="#A6A6A5"/>
<path transform="translate(1385,639)" d="m0 0 4 1 8 7 14 11 15 9 10 4 11 2 1 4h-9l-14-5-14-8-12-9-12-11-2-2z" fill="#1A2C34"/>
<path transform="translate(1672,1702)" d="m0 0 7 1 17 13 10 6 10 5 11 4 7 2v1h-14l-12-5-11-6-14-10-9-7z" fill="#5D6669"/>
<path transform="translate(1691,1328)" d="m0 0 10 3 4 3-1 7h-2l-1 8-1 4h-2l-1 6-1 4h-2l-1-3-2-22z" fill="#FAFAFA"/>
<path transform="translate(1704,1545)" d="m0 0h1l1 7 2 4 4 1 4 8-1 10-5 6-4 2-1 6h-1z" fill="#78DFB2"/>
<path transform="translate(463,688)" d="m0 0 3 1-1 7-6 12-4 5-10 6-3 1h-14l-3-1v-4h12l10-3 6-5 5-9 4-9z" fill="#A7A8A6"/>
<path transform="translate(989,481)" d="m0 0 2 1-1 11 10 3 3 1h9l8-4 3-1v-11h3l2 6-1 6-7 6-8 3h-9l-10-3-6-4-1-6 2-7z" fill="#1A2C34"/>
<path transform="translate(1535,797)" d="m0 0 4 1-3 9-7 10-12 12-15 11-5 1v-4l13-9 8-7h2v-2h2v-2h2l2-4 6-9z" fill="#1A2C34"/>
<path transform="translate(1677,1113)" d="m0 0h2v32l-7 14h-1l-2-19v-5l5-6 1-5h2z" fill="#D2E5DA"/>
<path transform="translate(1230,1679)" d="m0 0h2l-2 4-1 1 2 2h-2v2l-14 10-4 3h-2v2h-2l-2 4-3 1-2 4-4 9-1-4-1 1-2 1 2-7 7-9 10-9 14-11z" fill="#797F81"/>
<path transform="translate(1418,904)" d="m0 0h4l2 15 33 3-1 5-30-2-6-2-2-6z" fill="#A9AAA8"/>
<path transform="translate(863,558)" d="m0 0 9 1 16 6 12 7 9 9 2 4-1 4-3-1-6-9-10-7-11-5-16-5z" fill="#1A2C34"/>
<path transform="translate(1555,898)" d="m0 0 4 1 1 10v10l-10 4-8 2h-14l-1-3 1-1 16-2 10-3v-17z" fill="#A8A9A7"/>
<path transform="translate(1031,503)" d="m0 0 3 1-2 4-14 7-10 2-13-1-13-4-2-1v-3l8 1 8 2 12 1 12-3z" fill="#1A2C34"/>
<path transform="translate(1785,388)" d="m0 0 1 3-9 15-10 13-9 11-8 9-2-3 6-5 5-6-3 1 2-4 2-3h2l2-4 10-14 6-11 2-1-1 4 2-1z" fill="#818787"/>
<path transform="translate(1831,1481)" d="m0 0 4 1-8 8-8 6-17 9-1 1h14l3 2-22 1v-2l3-2h-5l1-4 3-5 3 1h-2l-1 5 7-3 11-7 10-8z" fill="#D6F5E5"/>
<path transform="translate(1029,863)" d="m0 0 3 1 8 16-1 6-4 1-5-6-7-11 2-4z" fill="#888887"/>
<path transform="translate(648,440)" d="m0 0h11l5 3v2h2l1 6-3 2-2 5h-6v-2h-2v-9l3-2h-13v-3z" fill="#23333B"/>
<path transform="translate(1697,1419)" d="m0 0 4 1 4 5 1 3v7l-3 6-2 3v26l1 8v20h-1l-2-24-1-39z" fill="#8CCEB0"/>
<path transform="translate(1184,624)" d="m0 0 4 1-2 5-11 19-10 16-2 3-4-1 2-5 12-19z" fill="#1A2C34"/>
<path transform="translate(1297,1702)" d="m0 0h6l-4 3h-3v2l-5 2v2l-3 2-2 4-5 3-13 8-14 6h-13v-1l7-1 1-1h5v-2l10-4 5-1v-2l14-9h2v-2l6-4 3-1v-2z" fill="#646D70"/>
<path transform="translate(1679,1625)" d="m0 0 3 1h-2v17h2l2 7-4-1-4-4-2-6-1-5h-2v-2h-2l-1-3-9 1-7-2 1 7-2-3v-6l12 1h8z" fill="#D9DCD9"/>
<path transform="translate(591,1720)" d="m0 0 4 2 13 4 43 1 6 1 22 1 16 2 25 2v1h-23l-26-3-24-1-7-1h-35l-10-4z" fill="#AFB2AF"/>
<path transform="translate(66,1397)" d="m0 0h1l1 14 7 12 6 6v2l5 2 14 7 2-3v-24l-2-5 1-3 6 12v9l-1 2-1 11-3 5-12-6-10-6-9-11-5-9-1-4v-7z" fill="#D8F6E6"/>
<path transform="translate(904,559)" d="m0 0 4 2 9 14 8 15 2 6v6h-3l-3-8-8-16-10-16z" fill="#1A2C34"/>
<path transform="translate(1855,1430)" d="m0 0h1v16l-2 10v5l1 4-2 5h29l8 3 2 2-4-1-9-2h-22l-13 4-2-1 2-2v-3l6-10 3-14 1-1z" fill="#D8F6E6"/>
<path transform="translate(693,1662)" d="m0 0 10 4 8 5 11 4 7 6 5 5 24 8 10 4v3l-5-3-22-6-12-6-5-4-8-4v-2l-4-1-4-2v-2l-4-1-11-6z" fill="#CDDAD2"/>
<path transform="translate(1014,877)" d="m0 0h2l5 17v5l-5 2-5-6-3-7 1-6z" fill="#888887"/>
<path transform="translate(219,1301)" d="m0 0h14l12 5 8 6h-3l-6-4-10-4-3-1h-11l-5 4-2 3v9l3 6v2h2v2l5 2 11 4h14l9-2 9 1v1l-7 2-21 1-13-3-9-6-5-8v-12l3-4h2v-2z" fill="#D8F6E6"/>
<path transform="translate(1509,904)" d="m0 0 6 1 3 4v6l-3 4-5 1-5-2-2-4 1-6z" fill="#A9A9A7"/>
<path transform="translate(1166,1030)" d="m0 0 2 3v7l-5 12-2 5h-2l-2 5-5 3v-14l7-3 4-7z" fill="#CCE2D6"/>
<path transform="translate(1785,1494)" d="m0 0 2 1 3 7v6l4 1 4 6-1 3-5-7-9 3-12 5-5 2h-5v-2l-4-1 15-5 8-3 8-2-1-7z" fill="#A4EECC"/>
<path transform="translate(1544,621)" d="m0 0 4 1-2 6-8 14-11 12-2 2h-4l1-4 5-4 10-14z" fill="#1A2C34"/>
<path transform="translate(1035,442)" d="m0 0 5 2 2 3v8l-2 4-6 1-3-3-1-8 2-5z" fill="#1A2C34"/>
<path transform="translate(1033,429)" d="m0 0h14l12 6v4l-4-1-9-4h-12l-8 3-2 2h-4l1-4 6-4z" fill="#1A2C34"/>
<path transform="translate(975,442)" d="m0 0 4 1 3 4v8l-3 5h-5l-3-4-1-6 3-7z" fill="#1A2C34"/>
<path transform="translate(238,1366)" d="m0 0h2l-1 3-4 2-2 3v11l4 6 8 4h19l13-5 8-5 6-1 3 3-1 3-2-2-7 1-12 6-5 2h-23l-8-4-5-6-1-11 3-7z" fill="#D8F6E6"/>
<path transform="translate(1664,1680)" d="m0 0 5 2 14 8 11 7 4 6-5-2-14-7-17-10h-2v-2h4z" fill="#5B6467"/>
<path transform="translate(968,879)" d="m0 0h3l1 16-1 4-6-1-4-8-1-5z" fill="#888887"/>
<path transform="translate(1758,1521)" d="m0 0 3 1-8 4 4 2 16 6 8 7 3 5v9l-4 6-6 4h-13l-2-2h12l7-3 3-4 1-8-3-6-7-6-13-5-15-4 2-2z" fill="#D8F6E6"/>
<path transform="translate(316,1549)" d="m0 0 15 5 19 9 4 2-2 4-1-2-5-2v-2l-4-1-12-5-10-4-4-1v5l-3 1-5 11-4 4h-2l2-5 5-8 6-10z" fill="#D8F6E6"/>
<path transform="translate(1697,348)" d="m0 0 8 6 8 9 7 9v2l3-1 2-2v4l-3 1-3-1-1-2-4-1-12-14-10-8h3l3 1z" fill="#767D7E"/>
<path transform="translate(400,352)" d="m0 0 1 4 1-1 2-1-2 6-5 10-10 15h-1l-1-7 9-14z" fill="#757C7E"/>
<path transform="translate(343,321)" d="m0 0v3l-3 7-6 10-4 10-3 1-7-9 1-2 6 8 2-1v-4l-4-1 3-2 6-12z" fill="#5D696B"/>
<path transform="translate(962,805)" d="m0 0h39l7 1v2h-28l-8 1h-19l3-2z" fill="#D0D1D0"/>
<path transform="translate(1191,1719)" d="m0 0h1l1 9 1 1 1-5 7 1 1 1h28l10-4 4-2h5l-3 2-15 6-6 1h-18l-12-3 3 5 3 3h-7l-4-5z" fill="#A5A7A5"/>
<path transform="translate(1196,1713)" d="m0 0 1 2-1 6 4 2 9 2h16l15-4 5-2-1 3-7 3-6 2h-28l-8-3v6l-3-2v-9z" fill="#1A2C34"/>
<path transform="translate(687,1093)" d="m0 0h2l1 5v11l-5 5h-5l2-10 3-8z" fill="#CBE4D6"/>
<path transform="translate(965,429)" d="m0 0h9l10 4 2 2v3l-5-1-7-3h-8l-8 3h-3l1-4 5-3z" fill="#1A2C34"/>
<path transform="translate(652,426)" d="m0 0h13v2l5 1 5 4v4l-5-1v-2h-2v-2l-4-1h-14v2h-5l1-4 6-1z" fill="#354349"/>
<path transform="translate(1728,1719)" d="m0 0 7 1 5 2 10 2h16l-1 2h-18l-7-2v2l30 1v1l-7 1h-14l-10-2-8-3v-2l-3-1z" fill="#7D8181"/>
<path transform="translate(1592,1490)" d="m0 0v3l-8 11-7 11-5 9-3 5-1-4 1-2v-26l2 1 1 5 1 14 8-14 1-2h2l2-4z" fill="#D8F6E6"/>
<path transform="translate(958,1678)" d="m0 0 3 1-5 4-9 4-6 5-13 3-7-1-11-5-3-2h5l7 3 18 1v-2l7-2v-2l8-1v-2z" fill="#F6F6F6"/>
<path transform="translate(605,535)" d="m0 0 9 3-2 5-7 15-2-2v-9l1-11z" fill="#A9AAA8"/>
<path transform="translate(323,1644)" d="m0 0h2l-1 4-5 14-1 5v14h2l3 5 5 3 7 6-3 1-4-2-4-5-6-4-2-3-1-5v-8l3-15z" fill="#C8CDC9"/>
<path transform="translate(639,490)" d="m0 0 5 1 2 4 5 1 3 2 13 1v4h-11l-10-3-1-3-4-2-2-2z" fill="#2C3B41"/>
<path transform="translate(1700,1363)" d="m0 0h6l1 4 13-1-2 2-10 2-9 5h-2v2h-2v-8l3-3z" fill="#D8F5E5"/>
<path transform="translate(1767,335)" d="m0 0h17l8 7 1 1 1 16-1 5h-1l-1-13-4-9-4-3-4-1h-14z" fill="#2B3B42"/>
<path transform="translate(1778,1718)" d="m0 0h2l1 2v8l-5 3 1-4h-35l-2-1v-2l7 1h18l1-1 7-1 4-2z" fill="#404D52"/>
<path transform="translate(1764,1308)" d="m0 0 3 4v9l-5 8-9 6-9 2h-14l-16-3h-6l1-3 12 2 11 2h11l10-3 7-5h2l2-6 1-2v-6z" fill="#D8F6E6"/>
<path transform="translate(365,1395)" d="m0 0 1 4-6 14h-2l-1 5-16 9-2 2-3-1 9-7 8-6 4-2 2-6 4-8z" fill="#D8F6E6"/>
<path transform="translate(165,1505)" d="m0 0m-4 1h4v2l-18 5-7 4h-2v2l-5 5v10l4 7h-3l-4-7 1-11 7-8 4-3 14-5z" fill="#D8F6E6"/>
<path transform="translate(332,1693)" d="m0 0 9 3 10 5 12 7 16 7 9 3v2l3 1h-5l-8-4-17-7-11-7-11-5-4-1v-2l-3-1z" fill="#B1B5B2"/>
<path transform="translate(572,1065)" d="m0 0 4 1v14l-1 12-3 1-1-1z" fill="#1A2C34"/>
<path transform="translate(1377,527)" d="m0 0 3 1-2 4-5 5-8 4h-11v-3l12-2 6-4h2l2-4z" fill="#1A2C34"/>
<path transform="translate(1706,1635)" d="m0 0 3 4 5 12 5 7-2 1v-2l-4 1-5-8-5-11 1-2 1 1z" fill="#6C7274"/>
<path transform="translate(329,1436)" d="m0 0 5 2v2h2l7 8 9 10 7 8 2 2v5l-2-3-7-8-6-7-7-6-4-5v-2l-5-2-5 1 2-4z" fill="#DCF6E8"/>
<path transform="translate(1722,1225)" d="m0 0 5 2 4 5 2 7v13l-3 15-6 11-2-1 5-9 3-11v-20l-4-7v-2l-4-1z" fill="#D8F6E6"/>
<path transform="translate(1519,595)" d="m0 0 2 1 3 14v3l-5-2-4-3v-3h-2l2-4z" fill="#CCE5D7"/>
<path transform="translate(1877,1405)" d="m0 0 1 3-1 2-1 25v5l12-5 7-5 2 1-8 6-13 6-2-2v-28z" fill="#D8F6E6"/>
<path transform="translate(338,1612)" d="m0 0 1 2-5 11-8 19h-2l2-10 6-15 2-1 3-5z" fill="#D8DBD9"/>
<path transform="translate(388,1719)" d="m0 0 9 1 24 4 15 2v1l-26-1-19-5z" fill="#AEAFAD"/>
<path transform="translate(540,1343)" d="m0 0h3l-1 6-8 16-4-1 9-20z" fill="#1A2C34"/>
<path transform="translate(107,1445)" d="m0 0 4 1 9 12v3l-5-1-4-6-5-5-1-3z" fill="#D8F6E6"/>
<path transform="translate(360,1510)" d="m0 0h6l-1 7-1-4-10 1-5 5-5 10-1-7 3-5 1-5 6-1z" fill="#D8F3E5"/>
<path transform="translate(1365,486)" d="m0 0 4 1 1 2v8l-2 3-4-1-1-1v-10z" fill="#1A2C34"/>
<path transform="translate(1363,470)" d="m0 0h9l5 5-1 2-5-2-5-1-10 5-1-3 6-5z" fill="#1A2C34"/>
<path transform="translate(748,1594)" d="m0 0 9 1 16 4 2 2 4-1 21 4v1l-15-1-2-1h-10l-8-3-9-3-8-2z" fill="#FDFDFD"/>
<path transform="translate(1230,1679)" d="m0 0h2l-2 4-1 1 2 2h-2v2l-14 10-4 3-2-1 4-2v-2l5-3 5-7 4-5z" fill="#8B9192"/>
<path transform="translate(1766,334)" d="m0 0h16v1l-15 1-4 4-7 3-5 4-4-1 4-2v-3l10-5z" fill="#636C6E"/>
<path transform="translate(253,1313)" d="m0 0 4 2 3 3 1 3 3 1 2-7 3-2v12l-1 3-1 2-5-4-6-9-3-2z" fill="#D8F6E6"/>
<path transform="translate(309,1325)" d="m0 0m-1 1m-3 1h3v2l-7 4-6 11-3 8-1 7h-2l2-15 7-11z" fill="#D8F6E6"/>
<path transform="translate(606,572)" d="m0 0 5 2 7 8 2 3-1 1h-6l-4-5z" fill="#88E7BD"/>
<path transform="translate(1658,1691)" d="m0 0 2 4 1 1 2-3 2 5 11 3-3 2 1 2-9-1-5-4-2-4z" fill="#6D7476"/>
<path transform="translate(648,331)" d="m0 0 5 1-2 4-12 6-2-1 1-4z" fill="#A5A5A3"/>
<path transform="translate(409,329)" d="m0 0h1v6l-4 13-4 9-3 3 2-10 3-9 2-1 2-10z" fill="#586367"/>
<path transform="translate(1702,1504)" d="m0 0h1l2 25 7 1-4 2h-2v3l9-1-4 2-6 1v5h-1v-7l-2-14z" fill="#B9CAC0"/>
<path transform="translate(1750,342)" d="m0 0 1 2-3 2 2 2-10 9-4-2v2l-2-1 6-7 8-6z" fill="#7F8687"/>
<path transform="translate(1277,1717)" d="m0 0m-1 1m-2 1h2l-2 4-12 6-12 5h-9v-1l7-1 1-1h5v-2l10-4 5-1v-2z" fill="#1A2C34"/>
<path transform="translate(344,1529)" d="m0 0h2l5 16 4 9-1 3-5-2-6-2v-1h6l2 1-4-11-3-9z" fill="#DEF7E9"/>
<path transform="translate(1258,1710)" d="m0 0 2 1-1 2 7-3 2 1-17 9h-6l5-5h3l1-3z" fill="#646F72"/>
<path transform="translate(528,596)" d="m0 0 4 1 4 4 5 2v4l-7-1-6-5z" fill="#A6A6A4"/>
<path transform="translate(1583,1515)" d="m0 0 1 3-3 6 4 2-5 5h-2v2h-2v2h-2l2-9 6-9z" fill="#D8F6E6"/>
<path transform="translate(1727,369)" d="m0 0h1l-1 8-3 5-4-1-4-6v-3l3 1v2h6l1-5z" fill="#576366"/>
<path transform="translate(671,1641)" d="m0 0 4 2 4 6 3 3v2l5 2 6 5h-3l-4-2v-2l-6-2v-2l-3-1v-2l-4-1-2-5z" fill="#D0D0CF"/>
<path transform="translate(1601,1489)" d="m0 0 5 1-1 3v-2l-6 2-2 5-5 8h-2l-2 7-4 2 2-5 7-11 7-9z" fill="#D1ECDD"/>
<path transform="translate(1260,1649)" d="m0 0 1 3-7 10h-2v2h-2v2l-8 7-6 4-2-1 13-11 4-2 6-12z" fill="#B6B7B6"/>
<path transform="translate(1696,1284)" d="m0 0 4 1 7 14v2h2l1 12-2-1-4-14z" fill="#D8F6E6"/>
<path transform="translate(1697,348)" d="m0 0 8 6 6 6-1 2-2-2-5-1-7-6-4-4 5 2z" fill="#929696"/>
<path transform="translate(477,1712)" d="m0 0h2l-1 3-5 3h-2v2l-6 2h-4v-2l-3-1 16-5z" fill="#D0D6D2"/>
<path transform="translate(263,1332)" d="m0 0m-6 1 9 1v1l-7 2-21 1-6-1v-2h16z" fill="#DBF6E7"/>
<path transform="translate(1793,347)" d="m0 0 2 4v12l-3 12h-3l1-9 2-2 1-10z" fill="#6A7274"/>
<path transform="translate(1166,1030)" d="m0 0 2 3v7l-4 10-1-2h-2l1-4z" fill="#D7EEE1"/>
<path transform="translate(1608,1513)" d="m0 0h3l-1 4-10 2-15 6 3-5 7-2 9-3z" fill="#D8F6E6"/>
<path transform="translate(1039,1636)" d="m0 0h10v3l4 1 1 5-6-5-7-1h-15l1-2z" fill="#F8F9F8"/>
<path transform="translate(1785,1494)" d="m0 0 2 1 3 7v6l4 1 4 6-1 3-5-7-7 1-2-3 5-1-1-7z" fill="#D8F6E6"/>
<path transform="translate(377,1440)" d="m0 0h2l-2 10-3 14-2-2 2-16z" fill="#6AE5AF"/>
<path transform="translate(384,380)" d="m0 0h2v6l-6 8h-3v2l-3-1 7-9h2v-5z" fill="#4F5B5F"/>
<path transform="translate(1700,1363)" d="m0 0h6l1 2h-2l-2 5-4 3h-3l1-5z" fill="#FCFCFC"/>
<path transform="translate(1774,1722)" d="m0 0m-1 1m-33 1 7 1h18l1-1h7l-3 3h-28l-2-1z" fill="#1A2C34"/>
<path transform="translate(301,1313)" d="m0 0 1 2-5 5-3 1v2h-2v2l-8 3-5 3-2-1 5-4 10-5z" fill="#D8F6E6"/>
<path transform="translate(1221,1686)" d="m0 0 3 1-6 7-5 2v2l-3 2-1 3-4-1 5-5 4-2 1-4z" fill="#4C585D"/>
<path transform="translate(1124,1649)" d="m0 0 2 3 3 7 3 13 3 11-1 3-2-5-3-13-4-13-1-1z" fill="#B0B3B0"/>
<path transform="translate(341,1569)" d="m0 0h9l2 1-1 3v-2l-15 2-10 3-4 1 3-4z" fill="#D8F6E6"/>
<path transform="translate(352,1549)" d="m0 0h2v2l3-1-1 8-2 3-3-3-10-4v-2l7 1 5 3v-3z" fill="#D5F1E2"/>
<path transform="translate(318,1543)" d="m0 0 10 2 13 6v2l-4-1-13-5-6-2z" fill="#DDF6E9"/>
<path transform="translate(970,853)" d="m0 0 2 1-13 10-5 3 2-4 7-8z" fill="#9FA19E"/>
<path transform="translate(1744,1371)" d="m0 0 3 4 1 6-2 6-3 5-8 4-4-1 10-5 4-5v-9z" fill="#D8F6E6"/>
<path transform="translate(636,618)" d="m0 0h21v2l-7 1h-12v-2z" fill="#E1E5E2"/>
<path transform="translate(1309,1683)" d="m0 0h3v13l-4 4-8 1 2-2 6-2 2-3 1-8-9 3v-2l3-2h4z" fill="#CED0CE"/>
<path transform="translate(316,1681)" d="m0 0h4l3 5 5 3 7 6-3 1-4-2-4-5-6-4z" fill="#CDDFD5"/>
<path transform="translate(372,1445)" d="m0 0h1l-1 9-1 15-4-1-2-3 4-3 2-13z" fill="#FDFDFD"/>
<path transform="translate(407,311)" d="m0 0 2 3 1 10-3 16-2 1 2-22z" fill="#B2B3B2"/>
<path transform="translate(1620,1567)" d="m0 0h4l1 7-7-1h-6l5-4z" fill="#D8F6E6"/>
<path transform="translate(1601,1475)" d="m0 0 2 3v2l-5 5-4 5h-2v-3l3-2 2-5 2-3h2z" fill="#CCF4E0"/>
<path transform="translate(175,1448)" d="m0 0h11l7 5-1 2-6-4-3-1h-7l-5 3-3 3-2-1 4-5z" fill="#D8F6E6"/>
<path transform="translate(1759,423)" d="m0 0 1 2-3 4h-2l-2 4-3 3-6 3 2-4 3-1v-2h2l2-4 2-2h3z" fill="#5E6A6D"/>
<path transform="translate(768,1719)" d="m0 0 1 4-3 5-10 5-3 1h-10v-1l12-2 9-5z" fill="#A3A5A3"/>
<path transform="translate(1050,842)" d="m0 0 3 1 1 5-5 3-4-1z" fill="#888887"/>
<path transform="translate(1e3 588)" d="m0 0h12l-4 6-4-1-4-4z" fill="#E4E9E6"/>
<path transform="translate(374,298)" d="m0 0m-6 1h6v2l-11 6-3-1 4-5z" fill="#37454A"/>
<path transform="translate(1720,1715)" d="m0 0 6 1 4 2-2 1 3 4-4-1-7-3z" fill="#646C6E"/>
<path transform="translate(1683,342)" d="m0 0 5 1 9 5 2 5-8-4-3-1v-3l-5-1z" fill="#304047"/>
<path transform="translate(317,1527)" d="m0 0 1 3-4 7v4l4 3-6-1-2-1 1-5 5-9z" fill="#D8F6E6"/>
<path transform="translate(1687,1698)" d="m0 0 4 1 6 3-2-3 5 2 4 3h-3l-1 3-13-8z" fill="#878C8B"/>
<path transform="translate(744,1692)" d="m0 0h8l15 5 2 4-12-5-13-3z" fill="#ACB2AE"/>
<path transform="translate(728,1683)" d="m0 0 5 2 12 5 3 2h-7l-12-6z" fill="#C2C7C3"/>
<path transform="translate(255,1483)" d="m0 0h2l2 9-1 9-2-1z" fill="#DCF6E8"/>
<path transform="translate(334,337)" d="m0 0 1 2-5 12-3 1-7-9 1-2 6 8 2-1 3-8z" fill="#A8ABA8"/>
<path transform="translate(339,1604)" d="m0 0 3 1-2 7-3 1-2-6-3-1z" fill="#E9ECEA"/>
<path transform="translate(1680,344)" d="m0 0 8 1v2h-2l-1 7-5-5-1-3z" fill="#F3F3F3"/>
<path transform="translate(1304,1703)" d="m0 0h6l-4 2-8 2-10 8v-3l3-1v-2l5-2v-2z" fill="#C0C2C0"/>
<path transform="translate(958,1678)" d="m0 0 3 1-5 4-9 4-4 2-3-1 4-1v-2l8-1v-2z" fill="#C0C1C0"/>
<path transform="translate(272,1298)" d="m0 0 1 2-3 12-4 3 2-11-2-1v-2l5-2z" fill="#E0F7EB"/>
<path transform="translate(1191,1719)" d="m0 0h1l1 9 8 4 1 2h-7l-4-5z" fill="#797F80"/>
<path transform="translate(479,1718)" d="m0 0 2 1-3 4-9 4h-5v-2l11-4z" fill="#B7B8B6"/>
<path transform="translate(907,1687)" d="m0 0h5l7 3 14 1v1l-9 1-10-2-7-3z" fill="#B3B3B2"/>
<path transform="translate(1769,411)" d="m0 0 1 4-3 4h-3v2h-2l-1 2 1-6 2-2h3z" fill="#4D595E"/>
<path transform="translate(338,1612)" d="m0 0 1 2-5 11-3-1 1-5 2-1 3-5z" fill="#DCE0DE"/>
<path transform="translate(1552,1527)" d="m0 0 5 2 6 5 2 4-4 8-1-2 2-6-6-7z" fill="#D8F6E6"/>
<path transform="translate(382,1429)" d="m0 0 1 2-3 9h-3v2h-2l1-5z" fill="#D0EFDE"/>
<path transform="translate(407,340)" d="m0 0 1 3-3 6-2 6-3 5-1-3 5-11 2-5z" fill="#1A2C34"/>
<path transform="translate(1728,1530)" d="m0 0h3l1 4h2l4 9-1 2-6-10-2-2-7-1v-1z" fill="#D8F6E6"/>
<path transform="translate(1818,1508)" d="m0 0 7 1 14 5 1 3-6-2-10-4-6-2z" fill="#D8F6E6"/>
<path transform="translate(1606,781)" d="m0 0 2 1v8l-3 2-1-1 1-9z" fill="#D3D8D5"/>
<path transform="translate(970,1663)" d="m0 0h2l-1 6-7 8h-3l4-5 4-4z" fill="#D8DAD9"/>
<path transform="translate(1650,1632)" d="m0 0h2l3 9v5l-1-3h-2l-2-5z" fill="#455156"/>
<path transform="translate(1675,339)" d="m0 0h8l10 5 4 4-4-1-6-4-12-3z" fill="#9E9E9D"/>
<path transform="translate(1256,1727)" d="m0 0 4 1-6 1v2l-6 2-10 1 2-2 7-2z" fill="#B0B0AF"/>
<path transform="translate(351,1549)" d="m0 0 4 5-1 3-5-2-6-2v-1h6l2 1z" fill="#FDFDFD"/>
<path transform="translate(1593,1501)" d="m0 0v3l-1 2h-2l-2 7-4 2 2-5 4-6z" fill="#D8F6E6"/>
<path transform="translate(1834,1471)" d="m0 0h2l2 3v4l5 1 3 4-4-2-6-1-1-6z" fill="#D8F6E6"/>
<path transform="translate(866,756)" d="m0 0 3 4v12l-2-2-1-6z" fill="#D8DCD9"/>
<path transform="translate(1561,1556)" d="m0 0 1 2-3 7-3 1-3-2-1-5 2-2v6l4-1z" fill="#D8F6E6"/>
<path transform="translate(361,1470)" d="m0 0 5 5v2h-5l-3-2v-2h3z" fill="#D8F6E6"/>
<path transform="translate(1132,757)" d="m0 0 7 2v2l-5 2-3-1z" fill="#888887"/>
<path transform="translate(1194,589)" d="m0 0 2 1 2 8-1 5h-2l-1-6z" fill="#DDDEDD"/>
<path transform="translate(1619,1557)" d="m0 0h2l1 6-4-1-3 2-3-1z" fill="#D8F6E6"/>
<path transform="translate(403,354)" d="m0 0 1 2-7 14-2 1 1-4 6-12z" fill="#ACACAB"/>
<path transform="translate(1754,339)" d="m0 0 3 1-4 6-6 1 2-3h2v-3z" fill="#4A5559"/>
<path transform="translate(693,1662)" d="m0 0 10 4 4 3v2l-5-2-9-5z" fill="#C4C5C4"/>
<path transform="translate(1717,1293)" d="m0 0 2 1v7h-2l-1 3h-1v-6z" fill="#CFE6D9"/>
<path transform="translate(1509,909)" d="m0 0 4 1v4l-4 1-1-5z" fill="#1A2C34"/>
<path transform="translate(1249,696)" d="m0 0v3l-7 5-3-1 2-4 6-1z" fill="#F1FAF5"/>
<path transform="translate(364,410)" d="m0 0 2 1-9 10-4 2 2-4z" fill="#A7A8A7"/>
<path transform="translate(402,1723)" d="m0 0h10l7 2v1h-9l-8-2z" fill="#D0E1D7"/>
<path transform="translate(376,1714)" d="m0 0 12 4v2l3 1h-5l-10-5z" fill="#BBC4BE"/>
<path transform="translate(1283,1713)" d="m0 0m-1 1m-2 1 6 1-5 4h-5z" fill="#4F5C60"/>
<path transform="translate(1672,1702)" d="m0 0 7 1 1 4h-5z" fill="#414D52"/>
<path transform="translate(1658,1686)" d="m0 0h2l2 6v5l-3-2z" fill="#1A2C34"/>
<path transform="translate(707,1670)" d="m0 0 9 3 2 4-6-2-4-2z" fill="#D9E0DC"/>
<path transform="translate(1e3 858)" d="m0 0 2 1-5 7h-2l-1-5z" fill="#888887"/>
<path transform="translate(328,1507)" d="m0 0 5 1v3l-5-1z" fill="#FDFDFD"/>
<path transform="translate(1857,1457)" d="m0 0h3l-1 4-3 1z" fill="#D8F6E6"/>
<path transform="translate(260,1344)" d="m0 0h2l-1 2z" fill="#FDFDFD"/>
</svg>
